G04 #@! TF.GenerationSoftware,KiCad,Pcbnew,7.0.6-0*
G04 #@! TF.CreationDate,2023-09-15T02:22:17-04:00*
G04 #@! TF.ProjectId,RAM Module,52414d20-4d6f-4647-956c-652e6b696361,1*
G04 #@! TF.SameCoordinates,Original*
G04 #@! TF.FileFunction,Copper,L1,Top*
G04 #@! TF.FilePolarity,Positive*
%FSLAX46Y46*%
G04 Gerber Fmt 4.6, Leading zero omitted, Abs format (unit mm)*
G04 Created by KiCad (PCBNEW 7.0.6-0) date 2023-09-15 02:22:17*
%MOMM*%
%LPD*%
G01*
G04 APERTURE LIST*
G04 Aperture macros list*
%AMRoundRect*
0 Rectangle with rounded corners*
0 $1 Rounding radius*
0 $2 $3 $4 $5 $6 $7 $8 $9 X,Y pos of 4 corners*
0 Add a 4 corners polygon primitive as box body*
4,1,4,$2,$3,$4,$5,$6,$7,$8,$9,$2,$3,0*
0 Add four circle primitives for the rounded corners*
1,1,$1+$1,$2,$3*
1,1,$1+$1,$4,$5*
1,1,$1+$1,$6,$7*
1,1,$1+$1,$8,$9*
0 Add four rect primitives between the rounded corners*
20,1,$1+$1,$2,$3,$4,$5,0*
20,1,$1+$1,$4,$5,$6,$7,0*
20,1,$1+$1,$6,$7,$8,$9,0*
20,1,$1+$1,$8,$9,$2,$3,0*%
G04 Aperture macros list end*
G04 #@! TA.AperFunction,ComponentPad*
%ADD10C,1.000000*%
G04 #@! TD*
G04 #@! TA.AperFunction,SMDPad,CuDef*
%ADD11RoundRect,0.290000X0.835000X0.072500X-0.835000X0.072500X-0.835000X-0.072500X0.835000X-0.072500X0*%
G04 #@! TD*
G04 #@! TA.AperFunction,ViaPad*
%ADD12C,0.700000*%
G04 #@! TD*
G04 #@! TA.AperFunction,Conductor*
%ADD13C,0.200000*%
G04 #@! TD*
G04 APERTURE END LIST*
D10*
X144730000Y-111080000D03*
X144730000Y-109810000D03*
X144730000Y-108540000D03*
X144730000Y-107270000D03*
X144730000Y-106000000D03*
X144730000Y-104730000D03*
X144730000Y-103460000D03*
X144730000Y-102190000D03*
X144730000Y-100920000D03*
X144730000Y-99650000D03*
X144730000Y-98380000D03*
X144730000Y-97110000D03*
X144730000Y-95840000D03*
X144730000Y-94570000D03*
X144730000Y-93300000D03*
X144730000Y-92030000D03*
X144730000Y-90760000D03*
X144730000Y-89490000D03*
X144730000Y-88220000D03*
X144730000Y-86950000D03*
X143460000Y-86950000D03*
X143460000Y-88220000D03*
X143460000Y-89490000D03*
X143460000Y-90760000D03*
X143460000Y-92030000D03*
X143460000Y-93300000D03*
X143460000Y-94570000D03*
X143460000Y-95840000D03*
X143460000Y-97110000D03*
X143460000Y-98380000D03*
X143460000Y-99650000D03*
X143460000Y-100920000D03*
X143460000Y-102190000D03*
X143460000Y-103460000D03*
X143460000Y-104730000D03*
X143460000Y-106000000D03*
X143460000Y-107270000D03*
X143460000Y-108540000D03*
X143460000Y-109810000D03*
X143460000Y-111080000D03*
D11*
X156190000Y-111080000D03*
X156190000Y-109810000D03*
X156190000Y-108540000D03*
X156190000Y-107270000D03*
X156190000Y-106000000D03*
X156190000Y-104730000D03*
X156190000Y-103460000D03*
X156190000Y-102190000D03*
X156190000Y-100920000D03*
X156190000Y-99650000D03*
X156190000Y-98380000D03*
X156190000Y-97110000D03*
X156190000Y-95840000D03*
X156190000Y-94570000D03*
X156190000Y-93300000D03*
X156190000Y-92030000D03*
X156190000Y-90760000D03*
X156190000Y-89490000D03*
X156190000Y-88220000D03*
X156190000Y-86950000D03*
X146740000Y-86950000D03*
X146740000Y-88220000D03*
X146740000Y-89490000D03*
X146740000Y-90760000D03*
X146740000Y-92030000D03*
X146740000Y-93300000D03*
X146740000Y-94570000D03*
X146740000Y-95840000D03*
X146740000Y-97110000D03*
X146740000Y-98380000D03*
X146740000Y-99650000D03*
X146740000Y-100920000D03*
X146740000Y-102190000D03*
X146740000Y-103460000D03*
X146740000Y-104730000D03*
X146740000Y-106000000D03*
X146740000Y-107270000D03*
X146740000Y-108540000D03*
X146740000Y-109810000D03*
X146740000Y-111080000D03*
D12*
X152460000Y-104730000D03*
X152460000Y-111080000D03*
X152460000Y-86950000D03*
X152460000Y-109810000D03*
X152460000Y-108540000D03*
X152460000Y-107270000D03*
X152460000Y-106000000D03*
X152460000Y-103460000D03*
X152460000Y-102190000D03*
X152460000Y-100920000D03*
X152460000Y-99650000D03*
X152460000Y-97100000D03*
X153750000Y-95840000D03*
X152460000Y-92030000D03*
X152460000Y-90760000D03*
X152460000Y-89490000D03*
X152460000Y-88220000D03*
X152460000Y-93300000D03*
X150380000Y-104100000D03*
X150380000Y-87580000D03*
X150380000Y-110450000D03*
X150380000Y-88850000D03*
X150380000Y-90120000D03*
X150380000Y-91390000D03*
X150380000Y-92660000D03*
X150380000Y-93940000D03*
X150380000Y-95210000D03*
X150380000Y-96520000D03*
X149510000Y-97750000D03*
X150380000Y-99010000D03*
X150380000Y-100280000D03*
X150380000Y-101550000D03*
X150380000Y-102820000D03*
X150380000Y-105360000D03*
X150380000Y-106630000D03*
X150380000Y-107900000D03*
X150380000Y-109170000D03*
D13*
X151410000Y-106194214D02*
X151410000Y-109615786D01*
X151702893Y-110322893D02*
X152460000Y-111080000D01*
X152460000Y-104730000D02*
X156190000Y-104730000D01*
X151702893Y-103972893D02*
X152460000Y-104730000D01*
X151410000Y-88414214D02*
X151410000Y-103265786D01*
X152460000Y-111080000D02*
X156190000Y-111080000D01*
X152460000Y-86950000D02*
X156190000Y-86950000D01*
X152460000Y-104730000D02*
X151702893Y-105487107D01*
X152460000Y-86950000D02*
X151702893Y-87707107D01*
X151410010Y-103265786D02*
G75*
G03*
X151702893Y-103972893I999990J-14D01*
G01*
X151410010Y-109615786D02*
G75*
G03*
X151702893Y-110322893I999990J-14D01*
G01*
X151702886Y-105487100D02*
G75*
G03*
X151410000Y-106194214I707114J-707100D01*
G01*
X151702886Y-87707100D02*
G75*
G03*
X151410000Y-88414214I707114J-707100D01*
G01*
X152460000Y-109810000D02*
X156190000Y-109810000D01*
X156190000Y-108540000D02*
X152460000Y-108540000D01*
X156190000Y-107270000D02*
X152460000Y-107270000D01*
X156190000Y-106000000D02*
X152460000Y-106000000D01*
X152460000Y-103460000D02*
X156190000Y-103460000D01*
X156190000Y-102190000D02*
X152460000Y-102190000D01*
X156190000Y-100920000D02*
X152460000Y-100920000D01*
X156190000Y-99650000D02*
X152460000Y-99650000D01*
X153854214Y-94570000D02*
X156190000Y-94570000D01*
X152460000Y-97100000D02*
X152460000Y-95964214D01*
X152752893Y-95257107D02*
X153147107Y-94862893D01*
X152752886Y-95257100D02*
G75*
G03*
X152460000Y-95964214I707114J-707100D01*
G01*
X153854214Y-94570010D02*
G75*
G03*
X153147107Y-94862893I-14J-999990D01*
G01*
X153750000Y-95840000D02*
X156190000Y-95840000D01*
X152460000Y-92030000D02*
X156190000Y-92030000D01*
X152460000Y-90760000D02*
X156190000Y-90760000D01*
X152460000Y-89490000D02*
X156190000Y-89490000D01*
X152460000Y-88220000D02*
X156190000Y-88220000D01*
X150052893Y-110787107D02*
X150390000Y-110450000D01*
X150042893Y-87242893D02*
X150380000Y-87580000D01*
X146740000Y-104730000D02*
X149335786Y-104730000D01*
X152460000Y-93300000D02*
X156190000Y-93300000D01*
X146740000Y-86950000D02*
X149335786Y-86950000D01*
X146740000Y-111080000D02*
X149345786Y-111080000D01*
X150042893Y-104437107D02*
X150380000Y-104100000D01*
X149335786Y-104729990D02*
G75*
G03*
X150042893Y-104437107I14J999990D01*
G01*
X149345786Y-111079990D02*
G75*
G03*
X150052893Y-110787107I14J999990D01*
G01*
X150042900Y-87242886D02*
G75*
G03*
X149335786Y-86950000I-707100J-707114D01*
G01*
X150380000Y-88850000D02*
X150042893Y-88512893D01*
X149335786Y-88220000D02*
X146740000Y-88220000D01*
X150042900Y-88512886D02*
G75*
G03*
X149335786Y-88220000I-707100J-707114D01*
G01*
X150390000Y-90120000D02*
X150052893Y-89782893D01*
X149345786Y-89490000D02*
X146740000Y-89490000D01*
X150052900Y-89782886D02*
G75*
G03*
X149345786Y-89490000I-707100J-707114D01*
G01*
X149335786Y-90760000D02*
X146740000Y-90760000D01*
X150380000Y-91390000D02*
X150042893Y-91052893D01*
X150042900Y-91052886D02*
G75*
G03*
X149335786Y-90760000I-707100J-707114D01*
G01*
X150370000Y-92660000D02*
X150032893Y-92322893D01*
X149325786Y-92030000D02*
X146740000Y-92030000D01*
X150032900Y-92322886D02*
G75*
G03*
X149325786Y-92030000I-707100J-707114D01*
G01*
X150380000Y-93940000D02*
X150032893Y-93592893D01*
X149325786Y-93300000D02*
X146740000Y-93300000D01*
X150032900Y-93592886D02*
G75*
G03*
X149325786Y-93300000I-707100J-707114D01*
G01*
X149325786Y-94570000D02*
X146740000Y-94570000D01*
X150380000Y-95210000D02*
X150032893Y-94862893D01*
X150032900Y-94862886D02*
G75*
G03*
X149325786Y-94570000I-707100J-707114D01*
G01*
X149285786Y-95840000D02*
X146740000Y-95840000D01*
X150380000Y-96520000D02*
X149992893Y-96132893D01*
X149992900Y-96132886D02*
G75*
G03*
X149285786Y-95840000I-707100J-707114D01*
G01*
X149510000Y-97750000D02*
X149162893Y-97402893D01*
X148455786Y-97110000D02*
X146740000Y-97110000D01*
X149162900Y-97402886D02*
G75*
G03*
X148455786Y-97110000I-707100J-707114D01*
G01*
X149325786Y-99650000D02*
X146740000Y-99650000D01*
X150380000Y-99010000D02*
X150032893Y-99357107D01*
X149325786Y-99649990D02*
G75*
G03*
X150032893Y-99357107I14J999990D01*
G01*
X150032893Y-100627107D02*
X150380000Y-100280000D01*
X146740000Y-100920000D02*
X149325786Y-100920000D01*
X149325786Y-100919990D02*
G75*
G03*
X150032893Y-100627107I14J999990D01*
G01*
X146740000Y-102190000D02*
X149325786Y-102190000D01*
X150032893Y-101897107D02*
X150380000Y-101550000D01*
X149325786Y-102189990D02*
G75*
G03*
X150032893Y-101897107I14J999990D01*
G01*
X146740000Y-103460000D02*
X149325786Y-103460000D01*
X150032893Y-103167107D02*
X150380000Y-102820000D01*
X149325786Y-103459990D02*
G75*
G03*
X150032893Y-103167107I14J999990D01*
G01*
X150032893Y-105707107D02*
X150355000Y-105385000D01*
X146740000Y-106000000D02*
X149325786Y-106000000D01*
X150355000Y-105385000D02*
X150380000Y-105360000D01*
X149325786Y-105999990D02*
G75*
G03*
X150032893Y-105707107I14J999990D01*
G01*
X150032893Y-106977107D02*
X150380000Y-106630000D01*
X146740000Y-107270000D02*
X149325786Y-107270000D01*
X149325786Y-107269990D02*
G75*
G03*
X150032893Y-106977107I14J999990D01*
G01*
X150032893Y-108247107D02*
X150380000Y-107900000D01*
X146740000Y-108540000D02*
X149325786Y-108540000D01*
X149325786Y-108539990D02*
G75*
G03*
X150032893Y-108247107I14J999990D01*
G01*
X150032893Y-109517107D02*
X150380000Y-109170000D01*
X146740000Y-109810000D02*
X149325786Y-109810000D01*
X149325786Y-109809990D02*
G75*
G03*
X150032893Y-109517107I14J999990D01*
G01*
G04 #@! TA.AperFunction,Conductor*
G36*
X153894442Y-95521853D02*
G01*
X153895102Y-95522153D01*
X154021265Y-95584445D01*
X154021807Y-95584751D01*
X154117000Y-95645564D01*
X154117001Y-95645564D01*
X154200256Y-95694909D01*
X154200259Y-95694909D01*
X154200261Y-95694911D01*
X154268922Y-95717366D01*
X154301273Y-95727947D01*
X154301274Y-95727947D01*
X154301277Y-95727948D01*
X154439246Y-95739128D01*
X154447214Y-95743212D01*
X154450000Y-95750790D01*
X154450000Y-95929209D01*
X154446573Y-95937482D01*
X154439245Y-95940871D01*
X154301272Y-95952051D01*
X154200263Y-95985086D01*
X154200256Y-95985088D01*
X154117001Y-96034434D01*
X154021814Y-96095243D01*
X154021254Y-96095559D01*
X153895116Y-96157839D01*
X153886181Y-96158429D01*
X153879445Y-96152528D01*
X153879138Y-96151854D01*
X153809545Y-95985087D01*
X153750880Y-95844505D01*
X153750857Y-95835550D01*
X153750856Y-95835550D01*
X153879139Y-95528143D01*
X153885487Y-95521830D01*
X153894442Y-95521853D01*
G37*
G04 #@! TD.AperFunction*
G04 #@! TA.AperFunction,Conductor*
G36*
X155249886Y-95501683D02*
G01*
X156160372Y-95828990D01*
X156166998Y-95835013D01*
X156167424Y-95843958D01*
X156161401Y-95850584D01*
X156160372Y-95851010D01*
X155249886Y-96178316D01*
X155240941Y-96177890D01*
X155239000Y-96176734D01*
X155135715Y-96100837D01*
X155027426Y-96037011D01*
X155027409Y-96037002D01*
X154919114Y-95988922D01*
X154919105Y-95988919D01*
X154810805Y-95956584D01*
X154712429Y-95941520D01*
X154704770Y-95936881D01*
X154702500Y-95929955D01*
X154702500Y-95750044D01*
X154705927Y-95741771D01*
X154712427Y-95738479D01*
X154785537Y-95727283D01*
X154810805Y-95723414D01*
X154837879Y-95715330D01*
X154919108Y-95691079D01*
X155027413Y-95642995D01*
X155135717Y-95579160D01*
X155239000Y-95503264D01*
X155247696Y-95501127D01*
X155249886Y-95501683D01*
G37*
G04 #@! TD.AperFunction*
G04 #@! TA.AperFunction,Conductor*
G36*
X150069009Y-105231149D02*
G01*
X150376316Y-105357587D01*
X150382663Y-105363904D01*
X150382686Y-105363960D01*
X150509229Y-105671897D01*
X150509204Y-105680852D01*
X150502854Y-105687166D01*
X150502228Y-105687403D01*
X150390277Y-105726081D01*
X150389608Y-105726268D01*
X150297188Y-105746353D01*
X150216785Y-105762591D01*
X150216769Y-105762595D01*
X150129851Y-105793670D01*
X150129844Y-105793673D01*
X150027019Y-105852886D01*
X150018139Y-105854045D01*
X150011452Y-105849247D01*
X149911952Y-105700331D01*
X149910205Y-105691548D01*
X149913704Y-105685272D01*
X149991213Y-105613078D01*
X150020251Y-105534408D01*
X150021915Y-105448626D01*
X150024549Y-105349662D01*
X150024928Y-105347007D01*
X150053248Y-105239004D01*
X150058661Y-105231871D01*
X150067533Y-105230655D01*
X150069009Y-105231149D01*
G37*
G04 #@! TD.AperFunction*
G04 #@! TA.AperFunction,Conductor*
G36*
X150069009Y-101421149D02*
G01*
X150376316Y-101547587D01*
X150382663Y-101553904D01*
X150382686Y-101553960D01*
X150509229Y-101861897D01*
X150509204Y-101870852D01*
X150502854Y-101877166D01*
X150502228Y-101877403D01*
X150390277Y-101916081D01*
X150389608Y-101916268D01*
X150297188Y-101936353D01*
X150216785Y-101952591D01*
X150216769Y-101952595D01*
X150129851Y-101983670D01*
X150129844Y-101983673D01*
X150027019Y-102042886D01*
X150018139Y-102044045D01*
X150011452Y-102039247D01*
X149911952Y-101890331D01*
X149910205Y-101881548D01*
X149913704Y-101875272D01*
X149991213Y-101803078D01*
X150020251Y-101724408D01*
X150021915Y-101638626D01*
X150024549Y-101539662D01*
X150024928Y-101537007D01*
X150053248Y-101429004D01*
X150058661Y-101421871D01*
X150067533Y-101420655D01*
X150069009Y-101421149D01*
G37*
G04 #@! TD.AperFunction*
G04 #@! TA.AperFunction,Conductor*
G36*
X155249885Y-100581682D02*
G01*
X156160373Y-100908990D01*
X156166998Y-100915012D01*
X156167424Y-100923957D01*
X156161401Y-100930583D01*
X156160372Y-100931009D01*
X155249886Y-101258316D01*
X155240941Y-101257890D01*
X155239000Y-101256734D01*
X155135715Y-101180837D01*
X155027426Y-101117011D01*
X155027409Y-101117002D01*
X154919114Y-101068922D01*
X154919105Y-101068919D01*
X154810805Y-101036584D01*
X154712429Y-101021520D01*
X154704770Y-101016881D01*
X154702500Y-101009955D01*
X154702500Y-100830044D01*
X154705927Y-100821771D01*
X154712427Y-100818479D01*
X154785537Y-100807283D01*
X154810805Y-100803414D01*
X154837879Y-100795330D01*
X154919108Y-100771079D01*
X155027413Y-100722995D01*
X155135717Y-100659160D01*
X155239000Y-100583264D01*
X155247696Y-100581127D01*
X155249885Y-100581682D01*
G37*
G04 #@! TD.AperFunction*
G04 #@! TA.AperFunction,Conductor*
G36*
X155249886Y-87881683D02*
G01*
X156160372Y-88208990D01*
X156166998Y-88215013D01*
X156167424Y-88223958D01*
X156161401Y-88230584D01*
X156160372Y-88231010D01*
X155249886Y-88558316D01*
X155240941Y-88557890D01*
X155239000Y-88556734D01*
X155135715Y-88480837D01*
X155027426Y-88417011D01*
X155027409Y-88417002D01*
X154919114Y-88368922D01*
X154919105Y-88368919D01*
X154810805Y-88336584D01*
X154712429Y-88321520D01*
X154704770Y-88316881D01*
X154702500Y-88309955D01*
X154702500Y-88130044D01*
X154705927Y-88121771D01*
X154712427Y-88118479D01*
X154785537Y-88107283D01*
X154810805Y-88103414D01*
X154837879Y-88095330D01*
X154919108Y-88071079D01*
X155027413Y-88022995D01*
X155135717Y-87959160D01*
X155239000Y-87883264D01*
X155247696Y-87881127D01*
X155249886Y-87881683D01*
G37*
G04 #@! TD.AperFunction*
G04 #@! TA.AperFunction,Conductor*
G36*
X147689058Y-89152109D02*
G01*
X147690999Y-89153265D01*
X147794283Y-89229161D01*
X147902572Y-89292987D01*
X147902586Y-89292995D01*
X148010891Y-89341079D01*
X148065043Y-89357246D01*
X148119193Y-89373414D01*
X148158661Y-89379458D01*
X148217572Y-89388479D01*
X148225230Y-89393118D01*
X148227500Y-89400044D01*
X148227500Y-89579955D01*
X148224073Y-89588228D01*
X148217571Y-89591520D01*
X148119193Y-89606584D01*
X148010893Y-89638919D01*
X148010884Y-89638922D01*
X147902589Y-89687002D01*
X147902572Y-89687011D01*
X147794283Y-89750837D01*
X147690999Y-89826734D01*
X147682303Y-89828872D01*
X147680113Y-89828316D01*
X146769627Y-89501010D01*
X146763001Y-89494987D01*
X146762575Y-89486042D01*
X146768598Y-89479416D01*
X146769627Y-89478990D01*
X146989235Y-89400044D01*
X147680113Y-89151683D01*
X147689058Y-89152109D01*
G37*
G04 #@! TD.AperFunction*
G04 #@! TA.AperFunction,Conductor*
G36*
X147689058Y-106932109D02*
G01*
X147690999Y-106933265D01*
X147794283Y-107009161D01*
X147902572Y-107072987D01*
X147902586Y-107072995D01*
X148010891Y-107121079D01*
X148065043Y-107137246D01*
X148119193Y-107153414D01*
X148158661Y-107159458D01*
X148217572Y-107168479D01*
X148225230Y-107173118D01*
X148227500Y-107180044D01*
X148227500Y-107359955D01*
X148224073Y-107368228D01*
X148217571Y-107371520D01*
X148119193Y-107386584D01*
X148010893Y-107418919D01*
X148010884Y-107418922D01*
X147902589Y-107467002D01*
X147902572Y-107467011D01*
X147794283Y-107530837D01*
X147690999Y-107606734D01*
X147682303Y-107608872D01*
X147680113Y-107608316D01*
X146769627Y-107281010D01*
X146763001Y-107274987D01*
X146762575Y-107266042D01*
X146768598Y-107259416D01*
X146769627Y-107258990D01*
X146989235Y-107180044D01*
X147680113Y-106931683D01*
X147689058Y-106932109D01*
G37*
G04 #@! TD.AperFunction*
G04 #@! TA.AperFunction,Conductor*
G36*
X149157019Y-97257113D02*
G01*
X149168456Y-97263699D01*
X149259845Y-97316325D01*
X149346774Y-97347404D01*
X149427187Y-97363644D01*
X149427188Y-97363645D01*
X149519608Y-97383730D01*
X149520277Y-97383917D01*
X149632228Y-97422596D01*
X149638928Y-97428537D01*
X149639466Y-97437476D01*
X149639229Y-97438102D01*
X149512686Y-97746039D01*
X149506372Y-97752389D01*
X149506316Y-97752412D01*
X149199017Y-97878847D01*
X149190062Y-97878826D01*
X149183745Y-97872479D01*
X149183248Y-97870995D01*
X149154928Y-97762990D01*
X149154549Y-97760333D01*
X149151915Y-97661372D01*
X149150251Y-97575591D01*
X149121214Y-97496922D01*
X149121211Y-97496918D01*
X149043706Y-97424728D01*
X149039987Y-97416582D01*
X149041951Y-97409669D01*
X149141453Y-97260750D01*
X149148897Y-97255777D01*
X149157019Y-97257113D01*
G37*
G04 #@! TD.AperFunction*
G04 #@! TA.AperFunction,Conductor*
G36*
X150069009Y-98881149D02*
G01*
X150376316Y-99007587D01*
X150382663Y-99013904D01*
X150382686Y-99013960D01*
X150509229Y-99321897D01*
X150509204Y-99330852D01*
X150502854Y-99337166D01*
X150502228Y-99337403D01*
X150390277Y-99376081D01*
X150389608Y-99376268D01*
X150297188Y-99396353D01*
X150216785Y-99412591D01*
X150216769Y-99412595D01*
X150129851Y-99443670D01*
X150129844Y-99443673D01*
X150027019Y-99502886D01*
X150018139Y-99504045D01*
X150011452Y-99499247D01*
X149911952Y-99350331D01*
X149910205Y-99341548D01*
X149913704Y-99335272D01*
X149991213Y-99263078D01*
X150020251Y-99184408D01*
X150021915Y-99098626D01*
X150024549Y-98999662D01*
X150024928Y-98997007D01*
X150053248Y-98889004D01*
X150058661Y-98881871D01*
X150067533Y-98880655D01*
X150069009Y-98881149D01*
G37*
G04 #@! TD.AperFunction*
G04 #@! TA.AperFunction,Conductor*
G36*
X147689058Y-104392109D02*
G01*
X147690999Y-104393265D01*
X147794283Y-104469161D01*
X147902572Y-104532987D01*
X147902586Y-104532995D01*
X148010891Y-104581079D01*
X148065043Y-104597246D01*
X148119193Y-104613414D01*
X148158661Y-104619458D01*
X148217572Y-104628479D01*
X148225230Y-104633118D01*
X148227500Y-104640044D01*
X148227500Y-104819955D01*
X148224073Y-104828228D01*
X148217571Y-104831520D01*
X148119193Y-104846584D01*
X148010893Y-104878919D01*
X148010884Y-104878922D01*
X147902589Y-104927002D01*
X147902572Y-104927011D01*
X147794283Y-104990837D01*
X147690999Y-105066734D01*
X147682303Y-105068872D01*
X147680113Y-105068316D01*
X146769627Y-104741010D01*
X146763001Y-104734987D01*
X146762575Y-104726042D01*
X146768598Y-104719416D01*
X146769627Y-104718990D01*
X146989235Y-104640044D01*
X147680113Y-104391683D01*
X147689058Y-104392109D01*
G37*
G04 #@! TD.AperFunction*
G04 #@! TA.AperFunction,Conductor*
G36*
X152604442Y-110761853D02*
G01*
X152605102Y-110762153D01*
X152731265Y-110824445D01*
X152731807Y-110824751D01*
X152827001Y-110885563D01*
X152827001Y-110885564D01*
X152910256Y-110934909D01*
X152910259Y-110934909D01*
X152910261Y-110934911D01*
X152978922Y-110957366D01*
X153011273Y-110967947D01*
X153011274Y-110967947D01*
X153011277Y-110967948D01*
X153149246Y-110979128D01*
X153157214Y-110983212D01*
X153160000Y-110990790D01*
X153160000Y-111169209D01*
X153156573Y-111177482D01*
X153149245Y-111180871D01*
X153011272Y-111192051D01*
X152910263Y-111225086D01*
X152910256Y-111225088D01*
X152827001Y-111274434D01*
X152731814Y-111335243D01*
X152731254Y-111335559D01*
X152605116Y-111397839D01*
X152596181Y-111398429D01*
X152589445Y-111392528D01*
X152589138Y-111391854D01*
X152519545Y-111225087D01*
X152460880Y-111084505D01*
X152460857Y-111075550D01*
X152460856Y-111075550D01*
X152589139Y-110768143D01*
X152595487Y-110761830D01*
X152604442Y-110761853D01*
G37*
G04 #@! TD.AperFunction*
G04 #@! TA.AperFunction,Conductor*
G36*
X147689058Y-90422109D02*
G01*
X147690999Y-90423265D01*
X147794283Y-90499161D01*
X147902572Y-90562987D01*
X147902586Y-90562995D01*
X148010891Y-90611079D01*
X148065043Y-90627246D01*
X148119193Y-90643414D01*
X148158661Y-90649458D01*
X148217572Y-90658479D01*
X148225230Y-90663118D01*
X148227500Y-90670044D01*
X148227500Y-90849955D01*
X148224073Y-90858228D01*
X148217571Y-90861520D01*
X148119193Y-90876584D01*
X148010893Y-90908919D01*
X148010884Y-90908922D01*
X147902589Y-90957002D01*
X147902572Y-90957011D01*
X147794283Y-91020837D01*
X147690999Y-91096734D01*
X147682303Y-91098872D01*
X147680113Y-91098316D01*
X146769627Y-90771010D01*
X146763001Y-90764987D01*
X146762575Y-90756042D01*
X146768598Y-90749416D01*
X146769627Y-90748990D01*
X146989235Y-90670044D01*
X147680113Y-90421683D01*
X147689058Y-90422109D01*
G37*
G04 #@! TD.AperFunction*
G04 #@! TA.AperFunction,Conductor*
G36*
X150027019Y-94717113D02*
G01*
X150038456Y-94723699D01*
X150129845Y-94776325D01*
X150216774Y-94807404D01*
X150297188Y-94823644D01*
X150297188Y-94823645D01*
X150389608Y-94843730D01*
X150390277Y-94843917D01*
X150502228Y-94882596D01*
X150508928Y-94888537D01*
X150509466Y-94897476D01*
X150509229Y-94898102D01*
X150382686Y-95206039D01*
X150376372Y-95212389D01*
X150376316Y-95212412D01*
X150069017Y-95338847D01*
X150060062Y-95338826D01*
X150053745Y-95332479D01*
X150053248Y-95330995D01*
X150024928Y-95222990D01*
X150024549Y-95220333D01*
X150021915Y-95121372D01*
X150020251Y-95035591D01*
X149991214Y-94956922D01*
X149991211Y-94956918D01*
X149913706Y-94884728D01*
X149909987Y-94876582D01*
X149911951Y-94869669D01*
X150011453Y-94720750D01*
X150018897Y-94715777D01*
X150027019Y-94717113D01*
G37*
G04 #@! TD.AperFunction*
G04 #@! TA.AperFunction,Conductor*
G36*
X152043956Y-110521302D02*
G01*
X152149420Y-110610955D01*
X152244209Y-110659023D01*
X152337976Y-110683004D01*
X152448285Y-110707313D01*
X152448898Y-110707485D01*
X152582134Y-110752641D01*
X152588869Y-110758542D01*
X152589459Y-110767478D01*
X152589199Y-110768171D01*
X152462563Y-111076191D01*
X152456248Y-111082540D01*
X152456191Y-111082563D01*
X152148171Y-111209199D01*
X152139216Y-111209176D01*
X152132901Y-111202827D01*
X152132641Y-111202134D01*
X152087485Y-111068898D01*
X152087312Y-111068279D01*
X152063004Y-110957976D01*
X152039023Y-110864209D01*
X151990955Y-110769420D01*
X151901302Y-110663956D01*
X151898555Y-110655435D01*
X151901943Y-110648108D01*
X152028108Y-110521943D01*
X152036380Y-110518517D01*
X152043956Y-110521302D01*
G37*
G04 #@! TD.AperFunction*
G04 #@! TA.AperFunction,Conductor*
G36*
X152604442Y-87901853D02*
G01*
X152605102Y-87902153D01*
X152731265Y-87964445D01*
X152731807Y-87964751D01*
X152827001Y-88025564D01*
X152910256Y-88074909D01*
X152910259Y-88074909D01*
X152910261Y-88074911D01*
X152978922Y-88097366D01*
X153011273Y-88107947D01*
X153011274Y-88107947D01*
X153011277Y-88107948D01*
X153149246Y-88119128D01*
X153157214Y-88123212D01*
X153160000Y-88130790D01*
X153160000Y-88309209D01*
X153156573Y-88317482D01*
X153149245Y-88320871D01*
X153011272Y-88332051D01*
X152910263Y-88365086D01*
X152910256Y-88365088D01*
X152827001Y-88414434D01*
X152731814Y-88475243D01*
X152731254Y-88475559D01*
X152605116Y-88537839D01*
X152596181Y-88538429D01*
X152589445Y-88532528D01*
X152589138Y-88531854D01*
X152519545Y-88365087D01*
X152460880Y-88224505D01*
X152460857Y-88215550D01*
X152460856Y-88215550D01*
X152589139Y-87908143D01*
X152595487Y-87901830D01*
X152604442Y-87901853D01*
G37*
G04 #@! TD.AperFunction*
G04 #@! TA.AperFunction,Conductor*
G36*
X152604442Y-89171853D02*
G01*
X152605102Y-89172153D01*
X152731265Y-89234445D01*
X152731807Y-89234751D01*
X152827001Y-89295564D01*
X152910256Y-89344909D01*
X152910259Y-89344909D01*
X152910261Y-89344911D01*
X152978922Y-89367366D01*
X153011273Y-89377947D01*
X153011274Y-89377947D01*
X153011277Y-89377948D01*
X153149246Y-89389128D01*
X153157214Y-89393212D01*
X153160000Y-89400790D01*
X153160000Y-89579209D01*
X153156573Y-89587482D01*
X153149245Y-89590871D01*
X153011272Y-89602051D01*
X152910263Y-89635086D01*
X152910256Y-89635088D01*
X152827001Y-89684434D01*
X152731814Y-89745243D01*
X152731254Y-89745559D01*
X152605116Y-89807839D01*
X152596181Y-89808429D01*
X152589445Y-89802528D01*
X152589138Y-89801854D01*
X152519546Y-89635088D01*
X152460879Y-89494505D01*
X152460857Y-89485551D01*
X152460880Y-89485494D01*
X152589139Y-89178143D01*
X152595487Y-89171830D01*
X152604442Y-89171853D01*
G37*
G04 #@! TD.AperFunction*
G04 #@! TA.AperFunction,Conductor*
G36*
X152604442Y-99331853D02*
G01*
X152605102Y-99332153D01*
X152731265Y-99394445D01*
X152731807Y-99394751D01*
X152827000Y-99455564D01*
X152827001Y-99455564D01*
X152910256Y-99504909D01*
X152910259Y-99504909D01*
X152910261Y-99504911D01*
X152978922Y-99527366D01*
X153011273Y-99537947D01*
X153011274Y-99537947D01*
X153011277Y-99537948D01*
X153149246Y-99549128D01*
X153157214Y-99553212D01*
X153160000Y-99560790D01*
X153160000Y-99739209D01*
X153156573Y-99747482D01*
X153149245Y-99750871D01*
X153011272Y-99762051D01*
X152910263Y-99795086D01*
X152910256Y-99795088D01*
X152827001Y-99844434D01*
X152731814Y-99905243D01*
X152731254Y-99905559D01*
X152605116Y-99967839D01*
X152596181Y-99968429D01*
X152589445Y-99962528D01*
X152589138Y-99961854D01*
X152519545Y-99795087D01*
X152460880Y-99654505D01*
X152460857Y-99645550D01*
X152460856Y-99645550D01*
X152589139Y-99338143D01*
X152595487Y-99331830D01*
X152604442Y-99331853D01*
G37*
G04 #@! TD.AperFunction*
G04 #@! TA.AperFunction,Conductor*
G36*
X147689058Y-99312109D02*
G01*
X147690999Y-99313265D01*
X147794283Y-99389161D01*
X147902572Y-99452987D01*
X147902586Y-99452995D01*
X148010891Y-99501079D01*
X148065043Y-99517246D01*
X148119193Y-99533414D01*
X148158661Y-99539458D01*
X148217572Y-99548479D01*
X148225230Y-99553118D01*
X148227500Y-99560044D01*
X148227500Y-99739955D01*
X148224073Y-99748228D01*
X148217571Y-99751520D01*
X148119193Y-99766584D01*
X148010893Y-99798919D01*
X148010884Y-99798922D01*
X147902589Y-99847002D01*
X147902572Y-99847011D01*
X147794283Y-99910837D01*
X147690999Y-99986734D01*
X147682303Y-99988872D01*
X147680113Y-99988316D01*
X146769627Y-99661010D01*
X146763001Y-99654987D01*
X146762575Y-99646042D01*
X146768598Y-99639416D01*
X146769627Y-99638990D01*
X146989235Y-99560044D01*
X147680113Y-99311683D01*
X147689058Y-99312109D01*
G37*
G04 #@! TD.AperFunction*
G04 #@! TA.AperFunction,Conductor*
G36*
X150039084Y-89631807D02*
G01*
X150139160Y-89689391D01*
X150139164Y-89689392D01*
X150139165Y-89689393D01*
X150223991Y-89719609D01*
X150302467Y-89735333D01*
X150302468Y-89735333D01*
X150392644Y-89754825D01*
X150393314Y-89755012D01*
X150502224Y-89792598D01*
X150508926Y-89798536D01*
X150509466Y-89807475D01*
X150509228Y-89808105D01*
X150382686Y-90116039D01*
X150376372Y-90122389D01*
X150376316Y-90122412D01*
X150069122Y-90248803D01*
X150060167Y-90248782D01*
X150053850Y-90242435D01*
X150053328Y-90240855D01*
X150026465Y-90134786D01*
X150026107Y-90131943D01*
X150026083Y-90122412D01*
X150025863Y-90033991D01*
X150027066Y-89948741D01*
X150027065Y-89948740D01*
X150027066Y-89948739D01*
X150000885Y-89870628D01*
X149925660Y-89799430D01*
X149922007Y-89791255D01*
X149923975Y-89784433D01*
X149943633Y-89755013D01*
X150023521Y-89635447D01*
X150030966Y-89630473D01*
X150039084Y-89631807D01*
G37*
G04 #@! TD.AperFunction*
G04 #@! TA.AperFunction,Conductor*
G36*
X155249886Y-89151683D02*
G01*
X156160372Y-89478990D01*
X156166998Y-89485013D01*
X156167424Y-89493958D01*
X156161401Y-89500584D01*
X156160372Y-89501010D01*
X155249886Y-89828316D01*
X155240941Y-89827890D01*
X155239000Y-89826734D01*
X155135715Y-89750837D01*
X155027426Y-89687011D01*
X155027409Y-89687002D01*
X154919114Y-89638922D01*
X154919105Y-89638919D01*
X154810805Y-89606584D01*
X154712429Y-89591520D01*
X154704770Y-89586881D01*
X154702500Y-89579955D01*
X154702500Y-89400044D01*
X154705927Y-89391771D01*
X154712427Y-89388479D01*
X154785537Y-89377283D01*
X154810805Y-89373414D01*
X154837879Y-89365330D01*
X154919108Y-89341079D01*
X155027413Y-89292995D01*
X155135717Y-89229160D01*
X155239000Y-89153264D01*
X155247696Y-89151127D01*
X155249886Y-89151683D01*
G37*
G04 #@! TD.AperFunction*
G04 #@! TA.AperFunction,Conductor*
G36*
X152604442Y-109491853D02*
G01*
X152605102Y-109492153D01*
X152731265Y-109554445D01*
X152731807Y-109554751D01*
X152827001Y-109615564D01*
X152910256Y-109664909D01*
X152910259Y-109664909D01*
X152910261Y-109664911D01*
X152978922Y-109687366D01*
X153011273Y-109697947D01*
X153011274Y-109697947D01*
X153011277Y-109697948D01*
X153149246Y-109709128D01*
X153157214Y-109713212D01*
X153160000Y-109720790D01*
X153160000Y-109899209D01*
X153156573Y-109907482D01*
X153149245Y-109910871D01*
X153011272Y-109922051D01*
X152910263Y-109955086D01*
X152910256Y-109955088D01*
X152827001Y-110004434D01*
X152731814Y-110065243D01*
X152731254Y-110065559D01*
X152605116Y-110127839D01*
X152596181Y-110128429D01*
X152589445Y-110122528D01*
X152589138Y-110121854D01*
X152519546Y-109955088D01*
X152460879Y-109814505D01*
X152460857Y-109805551D01*
X152460880Y-109805494D01*
X152589139Y-109498143D01*
X152595487Y-109491830D01*
X152604442Y-109491853D01*
G37*
G04 #@! TD.AperFunction*
G04 #@! TA.AperFunction,Conductor*
G36*
X150036998Y-88367039D02*
G01*
X150058130Y-88379069D01*
X150137339Y-88424162D01*
X150222662Y-88453059D01*
X150301722Y-88467198D01*
X150301723Y-88467199D01*
X150392371Y-88485366D01*
X150393099Y-88485561D01*
X150502150Y-88522634D01*
X150508880Y-88528541D01*
X150509461Y-88537477D01*
X150509206Y-88538158D01*
X150382686Y-88846039D01*
X150376372Y-88852389D01*
X150376316Y-88852412D01*
X150069085Y-88978819D01*
X150060130Y-88978798D01*
X150053813Y-88972451D01*
X150053300Y-88970905D01*
X150052961Y-88969585D01*
X150026395Y-88865975D01*
X150026030Y-88863206D01*
X150024970Y-88766392D01*
X150025170Y-88682234D01*
X149998401Y-88605099D01*
X149923631Y-88534730D01*
X149919956Y-88526566D01*
X149921922Y-88519712D01*
X150021483Y-88370705D01*
X150028927Y-88365732D01*
X150036998Y-88367039D01*
G37*
G04 #@! TD.AperFunction*
G04 #@! TA.AperFunction,Conductor*
G36*
X152604442Y-100601853D02*
G01*
X152605102Y-100602153D01*
X152731265Y-100664445D01*
X152731807Y-100664751D01*
X152827000Y-100725564D01*
X152827001Y-100725564D01*
X152910256Y-100774909D01*
X152910259Y-100774909D01*
X152910261Y-100774911D01*
X152978922Y-100797366D01*
X153011273Y-100807947D01*
X153011274Y-100807947D01*
X153011277Y-100807948D01*
X153149246Y-100819128D01*
X153157214Y-100823212D01*
X153160000Y-100830790D01*
X153160000Y-101009209D01*
X153156573Y-101017482D01*
X153149245Y-101020871D01*
X153011272Y-101032051D01*
X152910263Y-101065086D01*
X152910256Y-101065088D01*
X152827001Y-101114434D01*
X152731814Y-101175243D01*
X152731254Y-101175559D01*
X152605116Y-101237839D01*
X152596181Y-101238429D01*
X152589445Y-101232528D01*
X152589138Y-101231854D01*
X152519546Y-101065088D01*
X152460879Y-100924505D01*
X152460857Y-100915551D01*
X152460880Y-100915494D01*
X152589139Y-100608143D01*
X152595487Y-100601830D01*
X152604442Y-100601853D01*
G37*
G04 #@! TD.AperFunction*
G04 #@! TA.AperFunction,Conductor*
G36*
X147689058Y-94232109D02*
G01*
X147690999Y-94233265D01*
X147794283Y-94309161D01*
X147902572Y-94372987D01*
X147902586Y-94372995D01*
X148010891Y-94421079D01*
X148065043Y-94437246D01*
X148119193Y-94453414D01*
X148158661Y-94459458D01*
X148217572Y-94468479D01*
X148225230Y-94473118D01*
X148227500Y-94480044D01*
X148227500Y-94659955D01*
X148224073Y-94668228D01*
X148217571Y-94671520D01*
X148119193Y-94686584D01*
X148010893Y-94718919D01*
X148010884Y-94718922D01*
X147902589Y-94767002D01*
X147902572Y-94767011D01*
X147794283Y-94830837D01*
X147690999Y-94906734D01*
X147682303Y-94908872D01*
X147680113Y-94908316D01*
X146769627Y-94581010D01*
X146763001Y-94574987D01*
X146762575Y-94566042D01*
X146768598Y-94559416D01*
X146769627Y-94558990D01*
X146989235Y-94480044D01*
X147680113Y-94231683D01*
X147689058Y-94232109D01*
G37*
G04 #@! TD.AperFunction*
G04 #@! TA.AperFunction,Conductor*
G36*
X150069009Y-100151149D02*
G01*
X150376316Y-100277587D01*
X150382663Y-100283904D01*
X150382686Y-100283960D01*
X150509229Y-100591897D01*
X150509204Y-100600852D01*
X150502854Y-100607166D01*
X150502228Y-100607403D01*
X150390277Y-100646081D01*
X150389608Y-100646268D01*
X150297188Y-100666353D01*
X150216785Y-100682591D01*
X150216769Y-100682595D01*
X150129851Y-100713670D01*
X150129844Y-100713673D01*
X150027019Y-100772886D01*
X150018139Y-100774045D01*
X150011452Y-100769247D01*
X149911952Y-100620331D01*
X149910205Y-100611548D01*
X149913704Y-100605272D01*
X149991213Y-100533078D01*
X150020251Y-100454408D01*
X150021915Y-100368626D01*
X150024549Y-100269662D01*
X150024928Y-100267007D01*
X150053248Y-100159004D01*
X150058661Y-100151871D01*
X150067533Y-100150655D01*
X150069009Y-100151149D01*
G37*
G04 #@! TD.AperFunction*
G04 #@! TA.AperFunction,Conductor*
G36*
X155249886Y-99311683D02*
G01*
X156160372Y-99638990D01*
X156166998Y-99645013D01*
X156167424Y-99653958D01*
X156161401Y-99660584D01*
X156160372Y-99661010D01*
X155249886Y-99988316D01*
X155240941Y-99987890D01*
X155239000Y-99986734D01*
X155135715Y-99910837D01*
X155027426Y-99847011D01*
X155027409Y-99847002D01*
X154919114Y-99798922D01*
X154919105Y-99798919D01*
X154810805Y-99766584D01*
X154712429Y-99751520D01*
X154704770Y-99746881D01*
X154702500Y-99739955D01*
X154702500Y-99560044D01*
X154705927Y-99551771D01*
X154712427Y-99548479D01*
X154785537Y-99537283D01*
X154810805Y-99533414D01*
X154837879Y-99525330D01*
X154919108Y-99501079D01*
X155027413Y-99452995D01*
X155135717Y-99389160D01*
X155239000Y-99313264D01*
X155247696Y-99311127D01*
X155249886Y-99311683D01*
G37*
G04 #@! TD.AperFunction*
G04 #@! TA.AperFunction,Conductor*
G36*
X152604442Y-92981853D02*
G01*
X152605102Y-92982153D01*
X152731265Y-93044445D01*
X152731807Y-93044751D01*
X152827001Y-93105564D01*
X152910256Y-93154909D01*
X152910259Y-93154909D01*
X152910261Y-93154911D01*
X152978922Y-93177366D01*
X153011273Y-93187947D01*
X153011274Y-93187947D01*
X153011277Y-93187948D01*
X153149246Y-93199128D01*
X153157214Y-93203212D01*
X153160000Y-93210790D01*
X153160000Y-93389209D01*
X153156573Y-93397482D01*
X153149245Y-93400871D01*
X153011272Y-93412051D01*
X152910263Y-93445086D01*
X152910256Y-93445088D01*
X152827001Y-93494434D01*
X152731814Y-93555243D01*
X152731254Y-93555559D01*
X152605116Y-93617839D01*
X152596181Y-93618429D01*
X152589445Y-93612528D01*
X152589138Y-93611854D01*
X152519546Y-93445088D01*
X152460879Y-93304505D01*
X152460857Y-93295551D01*
X152460880Y-93295494D01*
X152589139Y-92988143D01*
X152595487Y-92981830D01*
X152604442Y-92981853D01*
G37*
G04 #@! TD.AperFunction*
G04 #@! TA.AperFunction,Conductor*
G36*
X147689058Y-103122109D02*
G01*
X147690999Y-103123265D01*
X147794283Y-103199161D01*
X147902572Y-103262987D01*
X147902586Y-103262995D01*
X148010891Y-103311079D01*
X148065043Y-103327246D01*
X148119193Y-103343414D01*
X148158661Y-103349458D01*
X148217572Y-103358479D01*
X148225230Y-103363118D01*
X148227500Y-103370044D01*
X148227500Y-103549955D01*
X148224073Y-103558228D01*
X148217571Y-103561520D01*
X148119193Y-103576584D01*
X148010893Y-103608919D01*
X148010884Y-103608922D01*
X147902589Y-103657002D01*
X147902572Y-103657011D01*
X147794283Y-103720837D01*
X147690999Y-103796734D01*
X147682303Y-103798872D01*
X147680113Y-103798316D01*
X146769627Y-103471010D01*
X146763001Y-103464987D01*
X146762575Y-103456042D01*
X146768598Y-103449416D01*
X146769627Y-103448990D01*
X146989235Y-103370044D01*
X147680113Y-103121683D01*
X147689058Y-103122109D01*
G37*
G04 #@! TD.AperFunction*
G04 #@! TA.AperFunction,Conductor*
G36*
X155249886Y-110741683D02*
G01*
X156160372Y-111068990D01*
X156166998Y-111075013D01*
X156167424Y-111083958D01*
X156161401Y-111090584D01*
X156160372Y-111091010D01*
X155249886Y-111418316D01*
X155240941Y-111417890D01*
X155239000Y-111416734D01*
X155135715Y-111340837D01*
X155027426Y-111277011D01*
X155027409Y-111277002D01*
X154919114Y-111228922D01*
X154919105Y-111228919D01*
X154810805Y-111196584D01*
X154712429Y-111181520D01*
X154704770Y-111176881D01*
X154702500Y-111169955D01*
X154702500Y-110990044D01*
X154705927Y-110981771D01*
X154712427Y-110978479D01*
X154785537Y-110967283D01*
X154810805Y-110963414D01*
X154837879Y-110955330D01*
X154919108Y-110931079D01*
X155027413Y-110882995D01*
X155135717Y-110819160D01*
X155239000Y-110743264D01*
X155247696Y-110741127D01*
X155249886Y-110741683D01*
G37*
G04 #@! TD.AperFunction*
G04 #@! TA.AperFunction,Conductor*
G36*
X147689058Y-108202109D02*
G01*
X147690999Y-108203265D01*
X147794283Y-108279161D01*
X147902572Y-108342987D01*
X147902586Y-108342995D01*
X148010891Y-108391079D01*
X148065043Y-108407246D01*
X148119193Y-108423414D01*
X148158661Y-108429458D01*
X148217572Y-108438479D01*
X148225230Y-108443118D01*
X148227500Y-108450044D01*
X148227500Y-108629955D01*
X148224073Y-108638228D01*
X148217571Y-108641520D01*
X148119193Y-108656584D01*
X148010893Y-108688919D01*
X148010884Y-108688922D01*
X147902589Y-108737002D01*
X147902572Y-108737011D01*
X147794283Y-108800837D01*
X147690999Y-108876734D01*
X147682303Y-108878872D01*
X147680113Y-108878316D01*
X146769627Y-108551010D01*
X146763001Y-108544987D01*
X146762575Y-108536042D01*
X146768598Y-108529416D01*
X146769627Y-108528990D01*
X146989235Y-108450044D01*
X147680113Y-108201683D01*
X147689058Y-108202109D01*
G37*
G04 #@! TD.AperFunction*
G04 #@! TA.AperFunction,Conductor*
G36*
X149987086Y-95987377D02*
G01*
X150099948Y-96055036D01*
X150193254Y-96094828D01*
X150278993Y-96119428D01*
X150378517Y-96147178D01*
X150378903Y-96147303D01*
X150502505Y-96192464D01*
X150509100Y-96198522D01*
X150509479Y-96207468D01*
X150509312Y-96207900D01*
X150382686Y-96516039D01*
X150376372Y-96522389D01*
X150376316Y-96522412D01*
X150068779Y-96648945D01*
X150059824Y-96648924D01*
X150053507Y-96642577D01*
X150053073Y-96641322D01*
X150019021Y-96520927D01*
X150018622Y-96518720D01*
X150009724Y-96411199D01*
X150000675Y-96319006D01*
X149962573Y-96234256D01*
X149873967Y-96154718D01*
X149870101Y-96146642D01*
X149872055Y-96139513D01*
X149971346Y-95990911D01*
X149978789Y-95985938D01*
X149987086Y-95987377D01*
G37*
G04 #@! TD.AperFunction*
G04 #@! TA.AperFunction,Conductor*
G36*
X155249886Y-106931683D02*
G01*
X156160372Y-107258990D01*
X156166998Y-107265013D01*
X156167424Y-107273958D01*
X156161401Y-107280584D01*
X156160372Y-107281010D01*
X155249886Y-107608316D01*
X155240941Y-107607890D01*
X155239000Y-107606734D01*
X155135715Y-107530837D01*
X155027426Y-107467011D01*
X155027409Y-107467002D01*
X154919114Y-107418922D01*
X154919105Y-107418919D01*
X154810805Y-107386584D01*
X154712429Y-107371520D01*
X154704770Y-107366881D01*
X154702500Y-107359955D01*
X154702500Y-107180044D01*
X154705927Y-107171771D01*
X154712427Y-107168479D01*
X154785537Y-107157283D01*
X154810805Y-107153414D01*
X154837879Y-107145330D01*
X154919108Y-107121079D01*
X155027413Y-107072995D01*
X155135717Y-107009160D01*
X155239000Y-106933264D01*
X155247696Y-106931127D01*
X155249886Y-106931683D01*
G37*
G04 #@! TD.AperFunction*
G04 #@! TA.AperFunction,Conductor*
G36*
X152557483Y-96403427D02*
G01*
X152560871Y-96410753D01*
X152567749Y-96495640D01*
X152572051Y-96548726D01*
X152605086Y-96649735D01*
X152605088Y-96649742D01*
X152654434Y-96732998D01*
X152715243Y-96828184D01*
X152715559Y-96828744D01*
X152777839Y-96954883D01*
X152778429Y-96963819D01*
X152772528Y-96970554D01*
X152771854Y-96970861D01*
X152464506Y-97099119D01*
X152455551Y-97099142D01*
X152455494Y-97099119D01*
X152148145Y-96970861D01*
X152141830Y-96964512D01*
X152141853Y-96955557D01*
X152142148Y-96954908D01*
X152204449Y-96828725D01*
X152204746Y-96828199D01*
X152265564Y-96732998D01*
X152314911Y-96649738D01*
X152347948Y-96548722D01*
X152359128Y-96410753D01*
X152363212Y-96402786D01*
X152370790Y-96400000D01*
X152549210Y-96400000D01*
X152557483Y-96403427D01*
G37*
G04 #@! TD.AperFunction*
G04 #@! TA.AperFunction,Conductor*
G36*
X147689058Y-95502109D02*
G01*
X147690999Y-95503265D01*
X147794283Y-95579161D01*
X147902572Y-95642987D01*
X147902586Y-95642995D01*
X148010891Y-95691079D01*
X148065043Y-95707246D01*
X148119193Y-95723414D01*
X148158661Y-95729458D01*
X148217572Y-95738479D01*
X148225230Y-95743118D01*
X148227500Y-95750044D01*
X148227500Y-95929955D01*
X148224073Y-95938228D01*
X148217571Y-95941520D01*
X148119193Y-95956584D01*
X148010893Y-95988919D01*
X148010884Y-95988922D01*
X147902589Y-96037002D01*
X147902572Y-96037011D01*
X147794283Y-96100837D01*
X147690999Y-96176734D01*
X147682303Y-96178872D01*
X147680113Y-96178316D01*
X146769627Y-95851010D01*
X146763001Y-95844987D01*
X146762575Y-95836042D01*
X146768598Y-95829416D01*
X146769627Y-95828990D01*
X146989235Y-95750044D01*
X147680113Y-95501683D01*
X147689058Y-95502109D01*
G37*
G04 #@! TD.AperFunction*
G04 #@! TA.AperFunction,Conductor*
G36*
X152604442Y-101871853D02*
G01*
X152605102Y-101872153D01*
X152731265Y-101934445D01*
X152731807Y-101934751D01*
X152827001Y-101995564D01*
X152910256Y-102044909D01*
X152910259Y-102044909D01*
X152910261Y-102044911D01*
X152978922Y-102067366D01*
X153011273Y-102077947D01*
X153011274Y-102077947D01*
X153011277Y-102077948D01*
X153149246Y-102089128D01*
X153157214Y-102093212D01*
X153160000Y-102100790D01*
X153160000Y-102279209D01*
X153156573Y-102287482D01*
X153149245Y-102290871D01*
X153011272Y-102302051D01*
X152910263Y-102335086D01*
X152910256Y-102335088D01*
X152827001Y-102384434D01*
X152731814Y-102445243D01*
X152731254Y-102445559D01*
X152605116Y-102507839D01*
X152596181Y-102508429D01*
X152589445Y-102502528D01*
X152589138Y-102501854D01*
X152519545Y-102335087D01*
X152460880Y-102194505D01*
X152460857Y-102185550D01*
X152460856Y-102185550D01*
X152589139Y-101878143D01*
X152595487Y-101871830D01*
X152604442Y-101871853D01*
G37*
G04 #@! TD.AperFunction*
G04 #@! TA.AperFunction,Conductor*
G36*
X147689058Y-109472109D02*
G01*
X147690999Y-109473265D01*
X147794283Y-109549161D01*
X147902572Y-109612987D01*
X147902586Y-109612995D01*
X148010891Y-109661079D01*
X148065043Y-109677246D01*
X148119193Y-109693414D01*
X148158661Y-109699458D01*
X148217572Y-109708479D01*
X148225230Y-109713118D01*
X148227500Y-109720044D01*
X148227500Y-109899955D01*
X148224073Y-109908228D01*
X148217571Y-109911520D01*
X148119193Y-109926584D01*
X148010893Y-109958919D01*
X148010884Y-109958922D01*
X147902589Y-110007002D01*
X147902572Y-110007011D01*
X147794283Y-110070837D01*
X147690999Y-110146734D01*
X147682303Y-110148872D01*
X147680113Y-110148316D01*
X146769627Y-109821009D01*
X146763001Y-109814986D01*
X146762575Y-109806041D01*
X146768598Y-109799415D01*
X146769608Y-109798996D01*
X147680113Y-109471683D01*
X147689058Y-109472109D01*
G37*
G04 #@! TD.AperFunction*
G04 #@! TA.AperFunction,Conductor*
G36*
X152604442Y-104411853D02*
G01*
X152605102Y-104412153D01*
X152731265Y-104474445D01*
X152731807Y-104474751D01*
X152827001Y-104535564D01*
X152910256Y-104584909D01*
X152910259Y-104584909D01*
X152910261Y-104584911D01*
X152978922Y-104607366D01*
X153011273Y-104617947D01*
X153011274Y-104617947D01*
X153011277Y-104617948D01*
X153149246Y-104629128D01*
X153157214Y-104633212D01*
X153160000Y-104640790D01*
X153160000Y-104819209D01*
X153156573Y-104827482D01*
X153149245Y-104830871D01*
X153011272Y-104842051D01*
X152910263Y-104875086D01*
X152910256Y-104875088D01*
X152827001Y-104924434D01*
X152731814Y-104985243D01*
X152731254Y-104985559D01*
X152605116Y-105047839D01*
X152596181Y-105048429D01*
X152589445Y-105042528D01*
X152589138Y-105041854D01*
X152519545Y-104875087D01*
X152460880Y-104734505D01*
X152460857Y-104725550D01*
X152460856Y-104725550D01*
X152589139Y-104418143D01*
X152595487Y-104411830D01*
X152604442Y-104411853D01*
G37*
G04 #@! TD.AperFunction*
G04 #@! TA.AperFunction,Conductor*
G36*
X147689058Y-100582109D02*
G01*
X147690999Y-100583265D01*
X147794283Y-100659161D01*
X147902572Y-100722987D01*
X147902586Y-100722995D01*
X148010891Y-100771079D01*
X148065043Y-100787246D01*
X148119193Y-100803414D01*
X148158661Y-100809458D01*
X148217572Y-100818479D01*
X148225230Y-100823118D01*
X148227500Y-100830044D01*
X148227500Y-101009955D01*
X148224073Y-101018228D01*
X148217571Y-101021520D01*
X148119193Y-101036584D01*
X148010893Y-101068919D01*
X148010884Y-101068922D01*
X147902589Y-101117002D01*
X147902572Y-101117011D01*
X147794283Y-101180837D01*
X147690999Y-101256734D01*
X147682303Y-101258872D01*
X147680113Y-101258316D01*
X146769627Y-100931009D01*
X146763001Y-100924986D01*
X146762575Y-100916041D01*
X146768598Y-100909415D01*
X146769608Y-100908996D01*
X147680113Y-100581683D01*
X147689058Y-100582109D01*
G37*
G04 #@! TD.AperFunction*
G04 #@! TA.AperFunction,Conductor*
G36*
X150069078Y-103971177D02*
G01*
X150376316Y-104097587D01*
X150382663Y-104103904D01*
X150382686Y-104103960D01*
X150509206Y-104411841D01*
X150509181Y-104420796D01*
X150502831Y-104427110D01*
X150502150Y-104427365D01*
X150393105Y-104464434D01*
X150392371Y-104464631D01*
X150301723Y-104482799D01*
X150222669Y-104496937D01*
X150222658Y-104496940D01*
X150177977Y-104512072D01*
X150137339Y-104525836D01*
X150137337Y-104525836D01*
X150137337Y-104525837D01*
X150036998Y-104582960D01*
X150028113Y-104584075D01*
X150021482Y-104579292D01*
X149985765Y-104525837D01*
X149921922Y-104430287D01*
X149920176Y-104421505D01*
X149923630Y-104415270D01*
X149998401Y-104344899D01*
X150025170Y-104267764D01*
X150024970Y-104183607D01*
X150026030Y-104086791D01*
X150026395Y-104084024D01*
X150053300Y-103979093D01*
X150058674Y-103971931D01*
X150067539Y-103970667D01*
X150069078Y-103971177D01*
G37*
G04 #@! TD.AperFunction*
G04 #@! TA.AperFunction,Conductor*
G36*
X152604442Y-103141853D02*
G01*
X152605102Y-103142153D01*
X152731265Y-103204445D01*
X152731807Y-103204751D01*
X152827001Y-103265564D01*
X152910256Y-103314909D01*
X152910259Y-103314909D01*
X152910261Y-103314911D01*
X152978922Y-103337366D01*
X153011273Y-103347947D01*
X153011274Y-103347947D01*
X153011277Y-103347948D01*
X153149246Y-103359128D01*
X153157214Y-103363212D01*
X153160000Y-103370790D01*
X153160000Y-103549209D01*
X153156573Y-103557482D01*
X153149245Y-103560871D01*
X153011272Y-103572051D01*
X152910263Y-103605086D01*
X152910256Y-103605088D01*
X152827001Y-103654434D01*
X152731814Y-103715243D01*
X152731254Y-103715559D01*
X152605116Y-103777839D01*
X152596181Y-103778429D01*
X152589445Y-103772528D01*
X152589138Y-103771854D01*
X152519546Y-103605088D01*
X152460879Y-103464505D01*
X152460857Y-103455551D01*
X152460880Y-103455494D01*
X152589139Y-103148143D01*
X152595487Y-103141830D01*
X152604442Y-103141853D01*
G37*
G04 #@! TD.AperFunction*
G04 #@! TA.AperFunction,Conductor*
G36*
X147689058Y-87882109D02*
G01*
X147690999Y-87883265D01*
X147794283Y-87959161D01*
X147902572Y-88022987D01*
X147902586Y-88022995D01*
X148010891Y-88071079D01*
X148065043Y-88087246D01*
X148119193Y-88103414D01*
X148158661Y-88109458D01*
X148217572Y-88118479D01*
X148225230Y-88123118D01*
X148227500Y-88130044D01*
X148227500Y-88309955D01*
X148224073Y-88318228D01*
X148217571Y-88321520D01*
X148119193Y-88336584D01*
X148010893Y-88368919D01*
X148010884Y-88368922D01*
X147902589Y-88417002D01*
X147902572Y-88417011D01*
X147794283Y-88480837D01*
X147690999Y-88556734D01*
X147682303Y-88558872D01*
X147680113Y-88558316D01*
X146769627Y-88231010D01*
X146763001Y-88224987D01*
X146762575Y-88216042D01*
X146768598Y-88209416D01*
X146769627Y-88208990D01*
X146989235Y-88130044D01*
X147680113Y-87881683D01*
X147689058Y-87882109D01*
G37*
G04 #@! TD.AperFunction*
G04 #@! TA.AperFunction,Conductor*
G36*
X155249886Y-108201683D02*
G01*
X156160372Y-108528990D01*
X156166998Y-108535013D01*
X156167424Y-108543958D01*
X156161401Y-108550584D01*
X156160372Y-108551010D01*
X155249886Y-108878316D01*
X155240941Y-108877890D01*
X155239000Y-108876734D01*
X155135715Y-108800837D01*
X155027426Y-108737011D01*
X155027409Y-108737002D01*
X154919114Y-108688922D01*
X154919105Y-108688919D01*
X154810805Y-108656584D01*
X154712429Y-108641520D01*
X154704770Y-108636881D01*
X154702500Y-108629955D01*
X154702500Y-108450044D01*
X154705927Y-108441771D01*
X154712427Y-108438479D01*
X154785537Y-108427283D01*
X154810805Y-108423414D01*
X154837879Y-108415330D01*
X154919108Y-108391079D01*
X155027413Y-108342995D01*
X155135717Y-108279160D01*
X155239000Y-108203264D01*
X155247696Y-108201127D01*
X155249886Y-108201683D01*
G37*
G04 #@! TD.AperFunction*
G04 #@! TA.AperFunction,Conductor*
G36*
X152604442Y-105681853D02*
G01*
X152605102Y-105682153D01*
X152731265Y-105744445D01*
X152731807Y-105744751D01*
X152827001Y-105805564D01*
X152910256Y-105854909D01*
X152910259Y-105854909D01*
X152910261Y-105854911D01*
X152978922Y-105877366D01*
X153011273Y-105887947D01*
X153011274Y-105887947D01*
X153011277Y-105887948D01*
X153149246Y-105899128D01*
X153157214Y-105903212D01*
X153160000Y-105910790D01*
X153160000Y-106089209D01*
X153156573Y-106097482D01*
X153149245Y-106100871D01*
X153011272Y-106112051D01*
X152910263Y-106145086D01*
X152910256Y-106145088D01*
X152827001Y-106194434D01*
X152731814Y-106255243D01*
X152731254Y-106255559D01*
X152605116Y-106317839D01*
X152596181Y-106318429D01*
X152589445Y-106312528D01*
X152589138Y-106311854D01*
X152519546Y-106145088D01*
X152460879Y-106004505D01*
X152460857Y-105995551D01*
X152460880Y-105995494D01*
X152589139Y-105688143D01*
X152595487Y-105681830D01*
X152604442Y-105681853D01*
G37*
G04 #@! TD.AperFunction*
G04 #@! TA.AperFunction,Conductor*
G36*
X150036998Y-87097039D02*
G01*
X150058130Y-87109069D01*
X150137339Y-87154162D01*
X150222662Y-87183059D01*
X150301723Y-87197198D01*
X150301723Y-87197199D01*
X150392371Y-87215366D01*
X150393099Y-87215561D01*
X150502150Y-87252634D01*
X150508880Y-87258541D01*
X150509461Y-87267477D01*
X150509206Y-87268158D01*
X150382686Y-87576039D01*
X150376372Y-87582389D01*
X150376316Y-87582412D01*
X150069085Y-87708819D01*
X150060130Y-87708798D01*
X150053813Y-87702451D01*
X150053300Y-87700905D01*
X150052961Y-87699585D01*
X150026395Y-87595975D01*
X150026030Y-87593206D01*
X150024970Y-87496392D01*
X150025170Y-87412234D01*
X149998401Y-87335099D01*
X149923631Y-87264730D01*
X149919956Y-87256566D01*
X149921922Y-87249712D01*
X150021483Y-87100705D01*
X150028927Y-87095732D01*
X150036998Y-87097039D01*
G37*
G04 #@! TD.AperFunction*
G04 #@! TA.AperFunction,Conductor*
G36*
X147689058Y-110742109D02*
G01*
X147690999Y-110743265D01*
X147794283Y-110819161D01*
X147902572Y-110882987D01*
X147902586Y-110882995D01*
X148010891Y-110931079D01*
X148065043Y-110947246D01*
X148119193Y-110963414D01*
X148158661Y-110969458D01*
X148217572Y-110978479D01*
X148225230Y-110983118D01*
X148227500Y-110990044D01*
X148227500Y-111169955D01*
X148224073Y-111178228D01*
X148217571Y-111181520D01*
X148119193Y-111196584D01*
X148010893Y-111228919D01*
X148010884Y-111228922D01*
X147902589Y-111277002D01*
X147902572Y-111277011D01*
X147794283Y-111340837D01*
X147690999Y-111416734D01*
X147682303Y-111418872D01*
X147680113Y-111418316D01*
X146769627Y-111091010D01*
X146763001Y-111084987D01*
X146762575Y-111076042D01*
X146768598Y-111069416D01*
X146769627Y-111068990D01*
X146989235Y-110990044D01*
X147680113Y-110741683D01*
X147689058Y-110742109D01*
G37*
G04 #@! TD.AperFunction*
G04 #@! TA.AperFunction,Conductor*
G36*
X155249886Y-105661683D02*
G01*
X156160372Y-105988990D01*
X156166998Y-105995013D01*
X156167424Y-106003958D01*
X156161401Y-106010584D01*
X156160372Y-106011010D01*
X155249886Y-106338316D01*
X155240941Y-106337890D01*
X155239000Y-106336734D01*
X155135715Y-106260837D01*
X155027426Y-106197011D01*
X155027409Y-106197002D01*
X154919114Y-106148922D01*
X154919105Y-106148919D01*
X154810805Y-106116584D01*
X154712429Y-106101520D01*
X154704770Y-106096881D01*
X154702500Y-106089955D01*
X154702500Y-105910044D01*
X154705927Y-105901771D01*
X154712427Y-105898479D01*
X154785537Y-105887283D01*
X154810805Y-105883414D01*
X154837879Y-105875330D01*
X154919108Y-105851079D01*
X155027413Y-105802995D01*
X155135717Y-105739160D01*
X155239000Y-105663264D01*
X155247696Y-105661127D01*
X155249886Y-105661683D01*
G37*
G04 #@! TD.AperFunction*
G04 #@! TA.AperFunction,Conductor*
G36*
X147689058Y-101852109D02*
G01*
X147690999Y-101853265D01*
X147794283Y-101929161D01*
X147902572Y-101992987D01*
X147902586Y-101992995D01*
X148010891Y-102041079D01*
X148065043Y-102057246D01*
X148119193Y-102073414D01*
X148158661Y-102079458D01*
X148217572Y-102088479D01*
X148225230Y-102093118D01*
X148227500Y-102100044D01*
X148227500Y-102279955D01*
X148224073Y-102288228D01*
X148217571Y-102291520D01*
X148119193Y-102306584D01*
X148010893Y-102338919D01*
X148010884Y-102338922D01*
X147902589Y-102387002D01*
X147902572Y-102387011D01*
X147794283Y-102450837D01*
X147690999Y-102526734D01*
X147682303Y-102528872D01*
X147680113Y-102528316D01*
X146769627Y-102201010D01*
X146763001Y-102194987D01*
X146762575Y-102186042D01*
X146768598Y-102179416D01*
X146769627Y-102178990D01*
X146989235Y-102100044D01*
X147680113Y-101851683D01*
X147689058Y-101852109D01*
G37*
G04 #@! TD.AperFunction*
G04 #@! TA.AperFunction,Conductor*
G36*
X155249886Y-101851683D02*
G01*
X156160372Y-102178990D01*
X156166998Y-102185013D01*
X156167424Y-102193958D01*
X156161401Y-102200584D01*
X156160372Y-102201010D01*
X155249886Y-102528316D01*
X155240941Y-102527890D01*
X155239000Y-102526734D01*
X155135715Y-102450837D01*
X155027426Y-102387011D01*
X155027409Y-102387002D01*
X154919114Y-102338922D01*
X154919105Y-102338919D01*
X154810805Y-102306584D01*
X154712429Y-102291520D01*
X154704770Y-102286881D01*
X154702500Y-102279955D01*
X154702500Y-102100044D01*
X154705927Y-102091771D01*
X154712427Y-102088479D01*
X154785537Y-102077283D01*
X154810805Y-102073414D01*
X154837879Y-102065330D01*
X154919108Y-102041079D01*
X155027413Y-101992995D01*
X155135717Y-101929160D01*
X155239000Y-101853264D01*
X155247696Y-101851127D01*
X155249886Y-101851683D01*
G37*
G04 #@! TD.AperFunction*
G04 #@! TA.AperFunction,Conductor*
G36*
X155249886Y-92961683D02*
G01*
X156160372Y-93288990D01*
X156166998Y-93295013D01*
X156167424Y-93303958D01*
X156161401Y-93310584D01*
X156160372Y-93311010D01*
X155249886Y-93638316D01*
X155240941Y-93637890D01*
X155239000Y-93636734D01*
X155135715Y-93560837D01*
X155027426Y-93497011D01*
X155027409Y-93497002D01*
X154919114Y-93448922D01*
X154919105Y-93448919D01*
X154810805Y-93416584D01*
X154712429Y-93401520D01*
X154704770Y-93396881D01*
X154702500Y-93389955D01*
X154702500Y-93210044D01*
X154705927Y-93201771D01*
X154712427Y-93198479D01*
X154785537Y-93187283D01*
X154810805Y-93183414D01*
X154837879Y-93175330D01*
X154919108Y-93151079D01*
X155027413Y-93102995D01*
X155135717Y-93039160D01*
X155239000Y-92963264D01*
X155247696Y-92961127D01*
X155249886Y-92961683D01*
G37*
G04 #@! TD.AperFunction*
G04 #@! TA.AperFunction,Conductor*
G36*
X155249886Y-94231683D02*
G01*
X156160372Y-94558990D01*
X156166998Y-94565013D01*
X156167424Y-94573958D01*
X156161401Y-94580584D01*
X156160372Y-94581010D01*
X155249886Y-94908316D01*
X155240941Y-94907890D01*
X155239000Y-94906734D01*
X155135715Y-94830837D01*
X155027426Y-94767011D01*
X155027409Y-94767002D01*
X154919114Y-94718922D01*
X154919105Y-94718919D01*
X154810805Y-94686584D01*
X154712429Y-94671520D01*
X154704770Y-94666881D01*
X154702500Y-94659955D01*
X154702500Y-94480044D01*
X154705927Y-94471771D01*
X154712427Y-94468479D01*
X154785537Y-94457283D01*
X154810805Y-94453414D01*
X154837879Y-94445330D01*
X154919108Y-94421079D01*
X155027413Y-94372995D01*
X155135717Y-94309160D01*
X155239000Y-94233264D01*
X155247696Y-94231127D01*
X155249886Y-94231683D01*
G37*
G04 #@! TD.AperFunction*
G04 #@! TA.AperFunction,Conductor*
G36*
X155249886Y-104391683D02*
G01*
X156160372Y-104718990D01*
X156166998Y-104725013D01*
X156167424Y-104733958D01*
X156161401Y-104740584D01*
X156160372Y-104741010D01*
X155249886Y-105068316D01*
X155240941Y-105067890D01*
X155239000Y-105066734D01*
X155135715Y-104990837D01*
X155027426Y-104927011D01*
X155027409Y-104927002D01*
X154919114Y-104878922D01*
X154919105Y-104878919D01*
X154810805Y-104846584D01*
X154712429Y-104831520D01*
X154704770Y-104826881D01*
X154702500Y-104819955D01*
X154702500Y-104640044D01*
X154705927Y-104631771D01*
X154712427Y-104628479D01*
X154785537Y-104617283D01*
X154810805Y-104613414D01*
X154837879Y-104605330D01*
X154919108Y-104581079D01*
X155027413Y-104532995D01*
X155135717Y-104469160D01*
X155239000Y-104393264D01*
X155247696Y-104391127D01*
X155249886Y-104391683D01*
G37*
G04 #@! TD.AperFunction*
G04 #@! TA.AperFunction,Conductor*
G36*
X150036998Y-90907039D02*
G01*
X150058130Y-90919069D01*
X150137339Y-90964162D01*
X150222662Y-90993059D01*
X150301722Y-91007198D01*
X150301723Y-91007199D01*
X150392371Y-91025366D01*
X150393099Y-91025561D01*
X150502150Y-91062634D01*
X150508880Y-91068541D01*
X150509461Y-91077477D01*
X150509206Y-91078158D01*
X150382686Y-91386039D01*
X150376372Y-91392389D01*
X150376316Y-91392412D01*
X150069085Y-91518819D01*
X150060130Y-91518798D01*
X150053813Y-91512451D01*
X150053300Y-91510905D01*
X150052961Y-91509585D01*
X150026395Y-91405975D01*
X150026030Y-91403206D01*
X150024970Y-91306392D01*
X150025170Y-91222234D01*
X149998401Y-91145099D01*
X149923631Y-91074730D01*
X149919956Y-91066566D01*
X149921922Y-91059712D01*
X150021483Y-90910705D01*
X150028927Y-90905732D01*
X150036998Y-90907039D01*
G37*
G04 #@! TD.AperFunction*
G04 #@! TA.AperFunction,Conductor*
G36*
X150027019Y-93447113D02*
G01*
X150038456Y-93453699D01*
X150129845Y-93506325D01*
X150216774Y-93537404D01*
X150297187Y-93553644D01*
X150297188Y-93553645D01*
X150389608Y-93573730D01*
X150390277Y-93573917D01*
X150502228Y-93612596D01*
X150508928Y-93618537D01*
X150509466Y-93627476D01*
X150509229Y-93628102D01*
X150382686Y-93936039D01*
X150376372Y-93942389D01*
X150376316Y-93942412D01*
X150069017Y-94068847D01*
X150060062Y-94068826D01*
X150053745Y-94062479D01*
X150053248Y-94060995D01*
X150024928Y-93952990D01*
X150024549Y-93950333D01*
X150021915Y-93851372D01*
X150020251Y-93765591D01*
X149991214Y-93686922D01*
X149991211Y-93686918D01*
X149913706Y-93614728D01*
X149909987Y-93606582D01*
X149911951Y-93599669D01*
X150011453Y-93450750D01*
X150018897Y-93445777D01*
X150027019Y-93447113D01*
G37*
G04 #@! TD.AperFunction*
G04 #@! TA.AperFunction,Conductor*
G36*
X152148146Y-86820790D02*
G01*
X152456191Y-86947436D01*
X152462540Y-86953751D01*
X152462563Y-86953808D01*
X152589199Y-87261829D01*
X152589176Y-87270784D01*
X152582827Y-87277099D01*
X152582133Y-87277359D01*
X152448901Y-87322512D01*
X152448282Y-87322685D01*
X152337976Y-87346994D01*
X152244208Y-87370975D01*
X152149421Y-87419042D01*
X152149417Y-87419045D01*
X152043958Y-87508696D01*
X152035435Y-87511444D01*
X152028107Y-87508055D01*
X151901944Y-87381892D01*
X151898517Y-87373619D01*
X151901302Y-87366043D01*
X151990955Y-87260578D01*
X152039023Y-87165789D01*
X152063004Y-87072022D01*
X152087314Y-86961709D01*
X152087485Y-86961100D01*
X152132641Y-86827865D01*
X152138542Y-86821130D01*
X152147478Y-86820540D01*
X152148146Y-86820790D01*
G37*
G04 #@! TD.AperFunction*
G04 #@! TA.AperFunction,Conductor*
G36*
X155249885Y-109471682D02*
G01*
X156160373Y-109798990D01*
X156166998Y-109805012D01*
X156167424Y-109813957D01*
X156161401Y-109820583D01*
X156160372Y-109821009D01*
X155249886Y-110148316D01*
X155240941Y-110147890D01*
X155239000Y-110146734D01*
X155135715Y-110070837D01*
X155027426Y-110007011D01*
X155027409Y-110007002D01*
X154919114Y-109958922D01*
X154919105Y-109958919D01*
X154810805Y-109926584D01*
X154712429Y-109911520D01*
X154704770Y-109906881D01*
X154702500Y-109899955D01*
X154702500Y-109720044D01*
X154705927Y-109711771D01*
X154712427Y-109708479D01*
X154785537Y-109697283D01*
X154810805Y-109693414D01*
X154837879Y-109685330D01*
X154919108Y-109661079D01*
X155027413Y-109612995D01*
X155135717Y-109549160D01*
X155239000Y-109473264D01*
X155247696Y-109471127D01*
X155249885Y-109471682D01*
G37*
G04 #@! TD.AperFunction*
G04 #@! TA.AperFunction,Conductor*
G36*
X152604442Y-91711853D02*
G01*
X152605102Y-91712153D01*
X152731265Y-91774445D01*
X152731807Y-91774751D01*
X152827001Y-91835564D01*
X152910256Y-91884909D01*
X152910259Y-91884909D01*
X152910261Y-91884911D01*
X152978922Y-91907366D01*
X153011273Y-91917947D01*
X153011274Y-91917947D01*
X153011277Y-91917948D01*
X153149246Y-91929128D01*
X153157214Y-91933212D01*
X153160000Y-91940790D01*
X153160000Y-92119209D01*
X153156573Y-92127482D01*
X153149245Y-92130871D01*
X153011272Y-92142051D01*
X152910263Y-92175086D01*
X152910256Y-92175088D01*
X152827001Y-92224434D01*
X152731814Y-92285243D01*
X152731254Y-92285559D01*
X152605116Y-92347839D01*
X152596181Y-92348429D01*
X152589445Y-92342528D01*
X152589138Y-92341854D01*
X152519546Y-92175088D01*
X152460879Y-92034505D01*
X152460857Y-92025551D01*
X152460880Y-92025494D01*
X152589139Y-91718143D01*
X152595487Y-91711830D01*
X152604442Y-91711853D01*
G37*
G04 #@! TD.AperFunction*
G04 #@! TA.AperFunction,Conductor*
G36*
X150069009Y-102691149D02*
G01*
X150376316Y-102817587D01*
X150382663Y-102823904D01*
X150382686Y-102823960D01*
X150509229Y-103131897D01*
X150509204Y-103140852D01*
X150502854Y-103147166D01*
X150502228Y-103147403D01*
X150390277Y-103186081D01*
X150389608Y-103186268D01*
X150297188Y-103206353D01*
X150216785Y-103222591D01*
X150216769Y-103222595D01*
X150129851Y-103253670D01*
X150129844Y-103253673D01*
X150027019Y-103312886D01*
X150018139Y-103314045D01*
X150011452Y-103309247D01*
X149911952Y-103160331D01*
X149910205Y-103151548D01*
X149913704Y-103145272D01*
X149991213Y-103073078D01*
X150020251Y-102994408D01*
X150021915Y-102908626D01*
X150024549Y-102809662D01*
X150024928Y-102807007D01*
X150053248Y-102699004D01*
X150058661Y-102691871D01*
X150067533Y-102690655D01*
X150069009Y-102691149D01*
G37*
G04 #@! TD.AperFunction*
G04 #@! TA.AperFunction,Conductor*
G36*
X147689058Y-91692109D02*
G01*
X147690999Y-91693265D01*
X147794283Y-91769161D01*
X147902572Y-91832987D01*
X147902586Y-91832995D01*
X148010891Y-91881079D01*
X148065043Y-91897246D01*
X148119193Y-91913414D01*
X148158661Y-91919458D01*
X148217572Y-91928479D01*
X148225230Y-91933118D01*
X148227500Y-91940044D01*
X148227500Y-92119955D01*
X148224073Y-92128228D01*
X148217571Y-92131520D01*
X148119193Y-92146584D01*
X148010893Y-92178919D01*
X148010884Y-92178922D01*
X147902589Y-92227002D01*
X147902572Y-92227011D01*
X147794283Y-92290837D01*
X147690999Y-92366734D01*
X147682303Y-92368872D01*
X147680113Y-92368316D01*
X146769627Y-92041010D01*
X146763001Y-92034987D01*
X146762575Y-92026042D01*
X146768598Y-92019416D01*
X146769627Y-92018990D01*
X146989235Y-91940044D01*
X147680113Y-91691683D01*
X147689058Y-91692109D01*
G37*
G04 #@! TD.AperFunction*
G04 #@! TA.AperFunction,Conductor*
G36*
X155249886Y-86611683D02*
G01*
X156160372Y-86938990D01*
X156166998Y-86945013D01*
X156167424Y-86953958D01*
X156161401Y-86960584D01*
X156160372Y-86961010D01*
X155249886Y-87288316D01*
X155240941Y-87287890D01*
X155239000Y-87286734D01*
X155135715Y-87210837D01*
X155027426Y-87147011D01*
X155027409Y-87147002D01*
X154919114Y-87098922D01*
X154919105Y-87098919D01*
X154810805Y-87066584D01*
X154712429Y-87051520D01*
X154704770Y-87046881D01*
X154702500Y-87039955D01*
X154702500Y-86860044D01*
X154705927Y-86851771D01*
X154712427Y-86848479D01*
X154785537Y-86837283D01*
X154810805Y-86833414D01*
X154837879Y-86825330D01*
X154919108Y-86801079D01*
X155027413Y-86752995D01*
X155135717Y-86689160D01*
X155239000Y-86613264D01*
X155247696Y-86611127D01*
X155249886Y-86611683D01*
G37*
G04 #@! TD.AperFunction*
G04 #@! TA.AperFunction,Conductor*
G36*
X150069009Y-106501149D02*
G01*
X150376316Y-106627587D01*
X150382663Y-106633904D01*
X150382686Y-106633960D01*
X150509229Y-106941897D01*
X150509204Y-106950852D01*
X150502854Y-106957166D01*
X150502228Y-106957403D01*
X150390277Y-106996081D01*
X150389608Y-106996268D01*
X150297188Y-107016353D01*
X150216785Y-107032591D01*
X150216769Y-107032595D01*
X150129851Y-107063670D01*
X150129844Y-107063673D01*
X150027019Y-107122886D01*
X150018139Y-107124045D01*
X150011452Y-107119247D01*
X149911952Y-106970331D01*
X149910205Y-106961548D01*
X149913704Y-106955272D01*
X149991213Y-106883078D01*
X150020251Y-106804408D01*
X150021915Y-106718626D01*
X150024549Y-106619662D01*
X150024928Y-106617007D01*
X150053248Y-106509004D01*
X150058661Y-106501871D01*
X150067533Y-106500655D01*
X150069009Y-106501149D01*
G37*
G04 #@! TD.AperFunction*
G04 #@! TA.AperFunction,Conductor*
G36*
X152148146Y-104600790D02*
G01*
X152456191Y-104727436D01*
X152462540Y-104733751D01*
X152462563Y-104733808D01*
X152589199Y-105041829D01*
X152589176Y-105050784D01*
X152582827Y-105057099D01*
X152582133Y-105057359D01*
X152448901Y-105102512D01*
X152448282Y-105102685D01*
X152337976Y-105126994D01*
X152244208Y-105150975D01*
X152149421Y-105199042D01*
X152149417Y-105199045D01*
X152043958Y-105288696D01*
X152035435Y-105291444D01*
X152028107Y-105288055D01*
X151901944Y-105161892D01*
X151898517Y-105153619D01*
X151901302Y-105146043D01*
X151990955Y-105040578D01*
X152039023Y-104945789D01*
X152063004Y-104852022D01*
X152087314Y-104741709D01*
X152087485Y-104741100D01*
X152132641Y-104607865D01*
X152138542Y-104601130D01*
X152147478Y-104600540D01*
X152148146Y-104600790D01*
G37*
G04 #@! TD.AperFunction*
G04 #@! TA.AperFunction,Conductor*
G36*
X147689058Y-96772109D02*
G01*
X147690999Y-96773265D01*
X147794283Y-96849161D01*
X147902572Y-96912987D01*
X147902586Y-96912995D01*
X148010891Y-96961079D01*
X148065043Y-96977246D01*
X148119193Y-96993414D01*
X148158661Y-96999458D01*
X148217572Y-97008479D01*
X148225230Y-97013118D01*
X148227500Y-97020044D01*
X148227500Y-97199955D01*
X148224073Y-97208228D01*
X148217571Y-97211520D01*
X148119193Y-97226584D01*
X148010893Y-97258919D01*
X148010884Y-97258922D01*
X147902589Y-97307002D01*
X147902572Y-97307011D01*
X147794283Y-97370837D01*
X147690999Y-97446734D01*
X147682303Y-97448872D01*
X147680113Y-97448316D01*
X146769627Y-97121010D01*
X146763001Y-97114987D01*
X146762575Y-97106042D01*
X146768598Y-97099416D01*
X146769627Y-97098990D01*
X146989235Y-97020044D01*
X147680113Y-96771683D01*
X147689058Y-96772109D01*
G37*
G04 #@! TD.AperFunction*
G04 #@! TA.AperFunction,Conductor*
G36*
X152604442Y-108221853D02*
G01*
X152605102Y-108222153D01*
X152731265Y-108284445D01*
X152731807Y-108284751D01*
X152827001Y-108345564D01*
X152910256Y-108394909D01*
X152910259Y-108394909D01*
X152910261Y-108394911D01*
X152978922Y-108417366D01*
X153011273Y-108427947D01*
X153011274Y-108427947D01*
X153011277Y-108427948D01*
X153149246Y-108439128D01*
X153157214Y-108443212D01*
X153160000Y-108450790D01*
X153160000Y-108629209D01*
X153156573Y-108637482D01*
X153149245Y-108640871D01*
X153011272Y-108652051D01*
X152910263Y-108685086D01*
X152910256Y-108685088D01*
X152827001Y-108734434D01*
X152731814Y-108795243D01*
X152731254Y-108795559D01*
X152605116Y-108857839D01*
X152596181Y-108858429D01*
X152589445Y-108852528D01*
X152589138Y-108851854D01*
X152519546Y-108685088D01*
X152460879Y-108544505D01*
X152460857Y-108535551D01*
X152460880Y-108535494D01*
X152589139Y-108228143D01*
X152595487Y-108221830D01*
X152604442Y-108221853D01*
G37*
G04 #@! TD.AperFunction*
G04 #@! TA.AperFunction,Conductor*
G36*
X150026987Y-92177000D02*
G01*
X150129472Y-92234999D01*
X150216624Y-92263674D01*
X150216627Y-92263674D01*
X150216629Y-92263675D01*
X150297447Y-92277173D01*
X150297447Y-92277174D01*
X150390015Y-92294923D01*
X150390767Y-92295121D01*
X150502109Y-92332654D01*
X150508854Y-92338544D01*
X150509459Y-92347478D01*
X150509194Y-92348188D01*
X150382686Y-92656039D01*
X150376372Y-92662389D01*
X150376316Y-92662412D01*
X150068985Y-92788860D01*
X150060030Y-92788839D01*
X150053713Y-92782492D01*
X150053223Y-92781037D01*
X150025239Y-92675422D01*
X150024859Y-92672839D01*
X150021562Y-92576029D01*
X150019067Y-92492195D01*
X150019067Y-92492194D01*
X149989871Y-92415289D01*
X149989868Y-92415286D01*
X149913741Y-92344728D01*
X149910002Y-92336591D01*
X149911966Y-92329647D01*
X150011498Y-92180683D01*
X150018943Y-92175709D01*
X150026987Y-92177000D01*
G37*
G04 #@! TD.AperFunction*
G04 #@! TA.AperFunction,Conductor*
G36*
X150069009Y-109041149D02*
G01*
X150376316Y-109167587D01*
X150382663Y-109173904D01*
X150382686Y-109173960D01*
X150509229Y-109481897D01*
X150509204Y-109490852D01*
X150502854Y-109497166D01*
X150502228Y-109497403D01*
X150390277Y-109536081D01*
X150389608Y-109536268D01*
X150297188Y-109556353D01*
X150216785Y-109572591D01*
X150216769Y-109572595D01*
X150129851Y-109603670D01*
X150129844Y-109603673D01*
X150027019Y-109662886D01*
X150018139Y-109664045D01*
X150011452Y-109659247D01*
X149911952Y-109510331D01*
X149910205Y-109501548D01*
X149913704Y-109495272D01*
X149991213Y-109423078D01*
X150020251Y-109344408D01*
X150021915Y-109258626D01*
X150024549Y-109159662D01*
X150024928Y-109157007D01*
X150053248Y-109049004D01*
X150058661Y-109041871D01*
X150067533Y-109040655D01*
X150069009Y-109041149D01*
G37*
G04 #@! TD.AperFunction*
G04 #@! TA.AperFunction,Conductor*
G36*
X150069112Y-110321191D02*
G01*
X150376316Y-110447587D01*
X150382663Y-110453904D01*
X150382686Y-110453960D01*
X150509228Y-110761894D01*
X150509203Y-110770849D01*
X150502853Y-110777163D01*
X150502223Y-110777401D01*
X150393317Y-110814984D01*
X150392644Y-110815172D01*
X150302468Y-110834665D01*
X150223997Y-110850387D01*
X150223994Y-110850388D01*
X150139160Y-110880607D01*
X150039083Y-110938192D01*
X150030203Y-110939348D01*
X150023520Y-110934551D01*
X149987477Y-110880607D01*
X149923973Y-110785564D01*
X149922227Y-110776783D01*
X149925656Y-110770571D01*
X150000885Y-110699371D01*
X150027066Y-110621257D01*
X150025863Y-110536007D01*
X150026107Y-110438050D01*
X150026464Y-110435215D01*
X150053329Y-110329141D01*
X150058681Y-110321964D01*
X150067542Y-110320673D01*
X150069112Y-110321191D01*
G37*
G04 #@! TD.AperFunction*
G04 #@! TA.AperFunction,Conductor*
G36*
X152043956Y-104171302D02*
G01*
X152149420Y-104260955D01*
X152244209Y-104309023D01*
X152337976Y-104333004D01*
X152448285Y-104357313D01*
X152448898Y-104357485D01*
X152582134Y-104402641D01*
X152588869Y-104408542D01*
X152589459Y-104417478D01*
X152589199Y-104418171D01*
X152462563Y-104726191D01*
X152456248Y-104732540D01*
X152456191Y-104732563D01*
X152148171Y-104859199D01*
X152139216Y-104859176D01*
X152132901Y-104852827D01*
X152132641Y-104852134D01*
X152087485Y-104718898D01*
X152087312Y-104718279D01*
X152063004Y-104607976D01*
X152063003Y-104607975D01*
X152039023Y-104514209D01*
X151990955Y-104419420D01*
X151901302Y-104313956D01*
X151898555Y-104305435D01*
X151901943Y-104298108D01*
X152028108Y-104171943D01*
X152036380Y-104168517D01*
X152043956Y-104171302D01*
G37*
G04 #@! TD.AperFunction*
G04 #@! TA.AperFunction,Conductor*
G36*
X152604442Y-90441853D02*
G01*
X152605102Y-90442153D01*
X152731265Y-90504445D01*
X152731807Y-90504751D01*
X152827001Y-90565564D01*
X152910256Y-90614909D01*
X152910259Y-90614909D01*
X152910261Y-90614911D01*
X152978922Y-90637366D01*
X153011273Y-90647947D01*
X153011274Y-90647947D01*
X153011277Y-90647948D01*
X153149246Y-90659128D01*
X153157214Y-90663212D01*
X153160000Y-90670790D01*
X153160000Y-90849209D01*
X153156573Y-90857482D01*
X153149245Y-90860871D01*
X153011272Y-90872051D01*
X152910263Y-90905086D01*
X152910256Y-90905088D01*
X152827001Y-90954434D01*
X152731814Y-91015243D01*
X152731254Y-91015559D01*
X152605116Y-91077839D01*
X152596181Y-91078429D01*
X152589445Y-91072528D01*
X152589138Y-91071854D01*
X152519546Y-90905088D01*
X152460879Y-90764505D01*
X152460857Y-90755551D01*
X152460880Y-90755494D01*
X152589139Y-90448143D01*
X152595487Y-90441830D01*
X152604442Y-90441853D01*
G37*
G04 #@! TD.AperFunction*
G04 #@! TA.AperFunction,Conductor*
G36*
X152604442Y-106951853D02*
G01*
X152605102Y-106952153D01*
X152731265Y-107014445D01*
X152731807Y-107014751D01*
X152827001Y-107075564D01*
X152910256Y-107124909D01*
X152910259Y-107124909D01*
X152910261Y-107124911D01*
X152978922Y-107147366D01*
X153011273Y-107157947D01*
X153011274Y-107157947D01*
X153011277Y-107157948D01*
X153149246Y-107169128D01*
X153157214Y-107173212D01*
X153160000Y-107180790D01*
X153160000Y-107359209D01*
X153156573Y-107367482D01*
X153149245Y-107370871D01*
X153011272Y-107382051D01*
X152910263Y-107415086D01*
X152910256Y-107415088D01*
X152827001Y-107464434D01*
X152731814Y-107525243D01*
X152731254Y-107525559D01*
X152605116Y-107587839D01*
X152596181Y-107588429D01*
X152589445Y-107582528D01*
X152589138Y-107581854D01*
X152519546Y-107415088D01*
X152460879Y-107274505D01*
X152460857Y-107265551D01*
X152460880Y-107265494D01*
X152589139Y-106958143D01*
X152595487Y-106951830D01*
X152604442Y-106951853D01*
G37*
G04 #@! TD.AperFunction*
G04 #@! TA.AperFunction,Conductor*
G36*
X152604442Y-86631853D02*
G01*
X152605102Y-86632153D01*
X152731265Y-86694445D01*
X152731807Y-86694751D01*
X152827001Y-86755564D01*
X152910256Y-86804909D01*
X152910259Y-86804909D01*
X152910261Y-86804911D01*
X152978922Y-86827366D01*
X153011273Y-86837947D01*
X153011274Y-86837947D01*
X153011277Y-86837948D01*
X153149246Y-86849128D01*
X153157214Y-86853212D01*
X153160000Y-86860790D01*
X153160000Y-87039209D01*
X153156573Y-87047482D01*
X153149245Y-87050871D01*
X153011272Y-87062051D01*
X152910263Y-87095086D01*
X152910256Y-87095088D01*
X152827001Y-87144434D01*
X152731814Y-87205243D01*
X152731254Y-87205559D01*
X152605116Y-87267839D01*
X152596181Y-87268429D01*
X152589445Y-87262528D01*
X152589138Y-87261854D01*
X152519546Y-87095088D01*
X152460879Y-86954505D01*
X152460857Y-86945551D01*
X152460880Y-86945494D01*
X152589139Y-86638143D01*
X152595487Y-86631830D01*
X152604442Y-86631853D01*
G37*
G04 #@! TD.AperFunction*
G04 #@! TA.AperFunction,Conductor*
G36*
X147689058Y-86612109D02*
G01*
X147690999Y-86613265D01*
X147794283Y-86689161D01*
X147902572Y-86752987D01*
X147902586Y-86752995D01*
X148010891Y-86801079D01*
X148065043Y-86817246D01*
X148119193Y-86833414D01*
X148158661Y-86839458D01*
X148217572Y-86848479D01*
X148225230Y-86853118D01*
X148227500Y-86860044D01*
X148227500Y-87039955D01*
X148224073Y-87048228D01*
X148217571Y-87051520D01*
X148119193Y-87066584D01*
X148010893Y-87098919D01*
X148010884Y-87098922D01*
X147902589Y-87147002D01*
X147902572Y-87147011D01*
X147794283Y-87210837D01*
X147690999Y-87286734D01*
X147682303Y-87288872D01*
X147680113Y-87288316D01*
X146769627Y-86961010D01*
X146763001Y-86954987D01*
X146762575Y-86946042D01*
X146768598Y-86939416D01*
X146769627Y-86938990D01*
X146989235Y-86860044D01*
X147680113Y-86611683D01*
X147689058Y-86612109D01*
G37*
G04 #@! TD.AperFunction*
G04 #@! TA.AperFunction,Conductor*
G36*
X155249886Y-90421683D02*
G01*
X156160372Y-90748990D01*
X156166998Y-90755013D01*
X156167424Y-90763958D01*
X156161401Y-90770584D01*
X156160372Y-90771010D01*
X155249886Y-91098316D01*
X155240941Y-91097890D01*
X155239000Y-91096734D01*
X155135715Y-91020837D01*
X155027426Y-90957011D01*
X155027409Y-90957002D01*
X154919114Y-90908922D01*
X154919105Y-90908919D01*
X154810805Y-90876584D01*
X154712429Y-90861520D01*
X154704770Y-90856881D01*
X154702500Y-90849955D01*
X154702500Y-90670044D01*
X154705927Y-90661771D01*
X154712427Y-90658479D01*
X154785537Y-90647283D01*
X154810805Y-90643414D01*
X154837879Y-90635330D01*
X154919108Y-90611079D01*
X155027413Y-90562995D01*
X155135717Y-90499160D01*
X155239000Y-90423264D01*
X155247696Y-90421127D01*
X155249886Y-90421683D01*
G37*
G04 #@! TD.AperFunction*
G04 #@! TA.AperFunction,Conductor*
G36*
X155249886Y-103121683D02*
G01*
X156160372Y-103448990D01*
X156166998Y-103455013D01*
X156167424Y-103463958D01*
X156161401Y-103470584D01*
X156160372Y-103471010D01*
X155249886Y-103798316D01*
X155240941Y-103797890D01*
X155239000Y-103796734D01*
X155135715Y-103720837D01*
X155027426Y-103657011D01*
X155027409Y-103657002D01*
X154919114Y-103608922D01*
X154919105Y-103608919D01*
X154810805Y-103576584D01*
X154712429Y-103561520D01*
X154704770Y-103556881D01*
X154702500Y-103549955D01*
X154702500Y-103370044D01*
X154705927Y-103361771D01*
X154712427Y-103358479D01*
X154785537Y-103347283D01*
X154810805Y-103343414D01*
X154837879Y-103335330D01*
X154919108Y-103311079D01*
X155027413Y-103262995D01*
X155135717Y-103199160D01*
X155239000Y-103123264D01*
X155247696Y-103121127D01*
X155249886Y-103121683D01*
G37*
G04 #@! TD.AperFunction*
G04 #@! TA.AperFunction,Conductor*
G36*
X150069009Y-107771149D02*
G01*
X150376316Y-107897587D01*
X150382663Y-107903904D01*
X150382686Y-107903960D01*
X150509229Y-108211897D01*
X150509204Y-108220852D01*
X150502854Y-108227166D01*
X150502228Y-108227403D01*
X150390277Y-108266081D01*
X150389608Y-108266268D01*
X150297188Y-108286353D01*
X150216785Y-108302591D01*
X150216769Y-108302595D01*
X150129851Y-108333670D01*
X150129844Y-108333673D01*
X150027019Y-108392886D01*
X150018139Y-108394045D01*
X150011452Y-108389247D01*
X149911952Y-108240331D01*
X149910205Y-108231548D01*
X149913704Y-108225272D01*
X149991213Y-108153078D01*
X150020251Y-108074408D01*
X150021915Y-107988626D01*
X150024549Y-107889662D01*
X150024928Y-107887007D01*
X150053248Y-107779004D01*
X150058661Y-107771871D01*
X150067533Y-107770655D01*
X150069009Y-107771149D01*
G37*
G04 #@! TD.AperFunction*
G04 #@! TA.AperFunction,Conductor*
G36*
X147689058Y-105662109D02*
G01*
X147690999Y-105663265D01*
X147794283Y-105739161D01*
X147902572Y-105802987D01*
X147902586Y-105802995D01*
X148010891Y-105851079D01*
X148065043Y-105867246D01*
X148119193Y-105883414D01*
X148158661Y-105889458D01*
X148217572Y-105898479D01*
X148225230Y-105903118D01*
X148227500Y-105910044D01*
X148227500Y-106089955D01*
X148224073Y-106098228D01*
X148217571Y-106101520D01*
X148119193Y-106116584D01*
X148010893Y-106148919D01*
X148010884Y-106148922D01*
X147902589Y-106197002D01*
X147902572Y-106197011D01*
X147794283Y-106260837D01*
X147690999Y-106336734D01*
X147682303Y-106338872D01*
X147680113Y-106338316D01*
X146769627Y-106011010D01*
X146763001Y-106004987D01*
X146762575Y-105996042D01*
X146768598Y-105989416D01*
X146769627Y-105988990D01*
X146989235Y-105910044D01*
X147680113Y-105661683D01*
X147689058Y-105662109D01*
G37*
G04 #@! TD.AperFunction*
G04 #@! TA.AperFunction,Conductor*
G36*
X155249886Y-91691683D02*
G01*
X156160372Y-92018990D01*
X156166998Y-92025013D01*
X156167424Y-92033958D01*
X156161401Y-92040584D01*
X156160372Y-92041010D01*
X155249886Y-92368316D01*
X155240941Y-92367890D01*
X155239000Y-92366734D01*
X155135715Y-92290837D01*
X155027426Y-92227011D01*
X155027409Y-92227002D01*
X154919114Y-92178922D01*
X154919105Y-92178919D01*
X154810805Y-92146584D01*
X154712429Y-92131520D01*
X154704770Y-92126881D01*
X154702500Y-92119955D01*
X154702500Y-91940044D01*
X154705927Y-91931771D01*
X154712427Y-91928479D01*
X154785537Y-91917283D01*
X154810805Y-91913414D01*
X154837879Y-91905330D01*
X154919108Y-91881079D01*
X155027413Y-91832995D01*
X155135717Y-91769160D01*
X155239000Y-91693264D01*
X155247696Y-91691127D01*
X155249886Y-91691683D01*
G37*
G04 #@! TD.AperFunction*
G04 #@! TA.AperFunction,Conductor*
G36*
X147689058Y-92962109D02*
G01*
X147690999Y-92963265D01*
X147794283Y-93039161D01*
X147902572Y-93102987D01*
X147902586Y-93102995D01*
X148010891Y-93151079D01*
X148065043Y-93167246D01*
X148119193Y-93183414D01*
X148158661Y-93189458D01*
X148217572Y-93198479D01*
X148225230Y-93203118D01*
X148227500Y-93210044D01*
X148227500Y-93389955D01*
X148224073Y-93398228D01*
X148217571Y-93401520D01*
X148119193Y-93416584D01*
X148010893Y-93448919D01*
X148010884Y-93448922D01*
X147902589Y-93497002D01*
X147902572Y-93497011D01*
X147794283Y-93560837D01*
X147690999Y-93636734D01*
X147682303Y-93638872D01*
X147680113Y-93638316D01*
X146769627Y-93311010D01*
X146763001Y-93304987D01*
X146762575Y-93296042D01*
X146768598Y-93289416D01*
X146769627Y-93288990D01*
X146989235Y-93210044D01*
X147680113Y-92961683D01*
X147689058Y-92962109D01*
G37*
G04 #@! TD.AperFunction*
M02*
