G04 #@! TF.GenerationSoftware,KiCad,Pcbnew,7.0.6-0*
G04 #@! TF.CreationDate,2023-10-14T16:51:03-04:00*
G04 #@! TF.ProjectId,RAM Module,52414d20-4d6f-4647-956c-652e6b696361,1*
G04 #@! TF.SameCoordinates,Original*
G04 #@! TF.FileFunction,Copper,L4,Bot*
G04 #@! TF.FilePolarity,Positive*
%FSLAX46Y46*%
G04 Gerber Fmt 4.6, Leading zero omitted, Abs format (unit mm)*
G04 Created by KiCad (PCBNEW 7.0.6-0) date 2023-10-14 16:51:03*
%MOMM*%
%LPD*%
G01*
G04 APERTURE LIST*
G04 Aperture macros list*
%AMRoundRect*
0 Rectangle with rounded corners*
0 $1 Rounding radius*
0 $2 $3 $4 $5 $6 $7 $8 $9 X,Y pos of 4 corners*
0 Add a 4 corners polygon primitive as box body*
4,1,4,$2,$3,$4,$5,$6,$7,$8,$9,$2,$3,0*
0 Add four circle primitives for the rounded corners*
1,1,$1+$1,$2,$3*
1,1,$1+$1,$4,$5*
1,1,$1+$1,$6,$7*
1,1,$1+$1,$8,$9*
0 Add four rect primitives between the rounded corners*
20,1,$1+$1,$2,$3,$4,$5,0*
20,1,$1+$1,$4,$5,$6,$7,0*
20,1,$1+$1,$6,$7,$8,$9,0*
20,1,$1+$1,$8,$9,$2,$3,0*%
G04 Aperture macros list end*
G04 #@! TA.AperFunction,ComponentPad*
%ADD10C,1.000000*%
G04 #@! TD*
G04 #@! TA.AperFunction,SMDPad,CuDef*
%ADD11RoundRect,0.290000X-0.835000X-0.072500X0.835000X-0.072500X0.835000X0.072500X-0.835000X0.072500X0*%
G04 #@! TD*
G04 #@! TA.AperFunction,ViaPad*
%ADD12C,0.700000*%
G04 #@! TD*
G04 #@! TA.AperFunction,Conductor*
%ADD13C,0.500000*%
G04 #@! TD*
G04 #@! TA.AperFunction,Conductor*
%ADD14C,0.750000*%
G04 #@! TD*
G04 #@! TA.AperFunction,Conductor*
%ADD15C,0.200000*%
G04 #@! TD*
G04 APERTURE END LIST*
D10*
X144730000Y-111080000D03*
X144730000Y-109810000D03*
X144730000Y-108540000D03*
X144730000Y-107270000D03*
X144730000Y-106000000D03*
X144730000Y-104730000D03*
X144730000Y-103460000D03*
X144730000Y-102190000D03*
X144730000Y-100920000D03*
X144730000Y-99650000D03*
X144730000Y-98380000D03*
X144730000Y-97110000D03*
X144730000Y-95840000D03*
X144730000Y-94570000D03*
X144730000Y-93300000D03*
X144730000Y-92030000D03*
X144730000Y-90760000D03*
X144730000Y-89490000D03*
X144730000Y-88220000D03*
X144730000Y-86950000D03*
X143460000Y-86950000D03*
X143460000Y-88220000D03*
X143460000Y-89490000D03*
X143460000Y-90760000D03*
X143460000Y-92030000D03*
X143460000Y-93300000D03*
X143460000Y-94570000D03*
X143460000Y-95840000D03*
X143460000Y-97110000D03*
X143460000Y-98380000D03*
X143460000Y-99650000D03*
X143460000Y-100920000D03*
X143460000Y-102190000D03*
X143460000Y-103460000D03*
X143460000Y-104730000D03*
X143460000Y-106000000D03*
X143460000Y-107270000D03*
X143460000Y-108540000D03*
X143460000Y-109810000D03*
X143460000Y-111080000D03*
D11*
X146740000Y-111080000D03*
X146740000Y-109810000D03*
X146740000Y-108540000D03*
X146740000Y-107270000D03*
X146740000Y-106000000D03*
X146740000Y-104730000D03*
X146740000Y-103460000D03*
X146740000Y-102190000D03*
X146740000Y-100920000D03*
X146740000Y-99650000D03*
X146740000Y-98380000D03*
X146740000Y-97110000D03*
X146740000Y-95840000D03*
X146740000Y-94570000D03*
X146740000Y-93300000D03*
X146740000Y-92030000D03*
X146740000Y-90760000D03*
X146740000Y-89490000D03*
X146740000Y-88220000D03*
X146740000Y-86950000D03*
X156190000Y-86950000D03*
X156190000Y-88220000D03*
X156190000Y-89490000D03*
X156190000Y-90760000D03*
X156190000Y-92030000D03*
X156190000Y-93300000D03*
X156190000Y-94570000D03*
X156190000Y-95840000D03*
X156190000Y-97110000D03*
X156190000Y-98380000D03*
X156190000Y-99650000D03*
X156190000Y-100920000D03*
X156190000Y-102190000D03*
X156190000Y-103460000D03*
X156190000Y-104730000D03*
X156190000Y-106000000D03*
X156190000Y-107270000D03*
X156190000Y-108540000D03*
X156190000Y-109810000D03*
X156190000Y-111080000D03*
D12*
X152460000Y-104730000D03*
X152460000Y-111080000D03*
X152460000Y-86950000D03*
X152460000Y-109810000D03*
X152460000Y-108540000D03*
X152460000Y-107270000D03*
X152460000Y-106000000D03*
X152460000Y-103460000D03*
X152460000Y-102190000D03*
X152460000Y-100920000D03*
X152460000Y-99650000D03*
X152460000Y-97100000D03*
X153750000Y-95840000D03*
X152460000Y-92030000D03*
X152460000Y-90760000D03*
X152460000Y-89490000D03*
X152460000Y-88220000D03*
X152460000Y-93300000D03*
X150380000Y-104100000D03*
X150380000Y-87580000D03*
X150380000Y-110450000D03*
X150380000Y-88850000D03*
X150380000Y-90120000D03*
X150380000Y-91390000D03*
X150380000Y-92660000D03*
X150380000Y-93940000D03*
X150380000Y-95210000D03*
X150380000Y-96520000D03*
X149510000Y-97750000D03*
X150380000Y-99010000D03*
X150380000Y-100280000D03*
X150380000Y-101550000D03*
X150380000Y-102820000D03*
X150380000Y-105360000D03*
X150380000Y-106630000D03*
X150380000Y-107900000D03*
X150380000Y-109170000D03*
D13*
X149660000Y-111330000D02*
X152210000Y-111330000D01*
D14*
X144730000Y-111080000D02*
X146740000Y-111080000D01*
X144730000Y-86950000D02*
X146740000Y-86950000D01*
D13*
X149410000Y-111080000D02*
X149660000Y-111330000D01*
D15*
X152460000Y-104730000D02*
X152450000Y-104730000D01*
D13*
X146740000Y-111080000D02*
X149410000Y-111080000D01*
X152290000Y-86780000D02*
X152460000Y-86950000D01*
X149620000Y-86780000D02*
X152290000Y-86780000D01*
D15*
X146740000Y-104730000D02*
X152450000Y-104730000D01*
D13*
X152210000Y-111330000D02*
X152460000Y-111080000D01*
D14*
X144730000Y-104730000D02*
X146740000Y-104730000D01*
D13*
X146740000Y-86950000D02*
X149450000Y-86950000D01*
X149450000Y-86950000D02*
X149620000Y-86780000D01*
D15*
X146740000Y-109810000D02*
X152460000Y-109810000D01*
X144730000Y-109810000D02*
X146740000Y-109810000D01*
X146740000Y-108540000D02*
X152460000Y-108540000D01*
X144730000Y-108540000D02*
X146740000Y-108540000D01*
X144730000Y-107270000D02*
X146740000Y-107270000D01*
X146740000Y-107270000D02*
X152460000Y-107270000D01*
X144730000Y-106000000D02*
X146740000Y-106000000D01*
X146740000Y-106000000D02*
X152460000Y-106000000D01*
X144730000Y-103460000D02*
X146740000Y-103460000D01*
X146740000Y-103460000D02*
X152450000Y-103460000D01*
X152460000Y-103460000D02*
X152450000Y-103460000D01*
X152460000Y-102190000D02*
X146740000Y-102190000D01*
X144730000Y-102190000D02*
X146740000Y-102190000D01*
X152460000Y-100920000D02*
X146740000Y-100920000D01*
X144730000Y-100920000D02*
X146740000Y-100920000D01*
X144730000Y-99650000D02*
X146740000Y-99650000D01*
X152460000Y-99650000D02*
X146740000Y-99650000D01*
X144730000Y-97110000D02*
X145077107Y-97457107D01*
X152460000Y-97100000D02*
X152450000Y-97110000D01*
X145784214Y-97750000D02*
X147765786Y-97750000D01*
X148527107Y-97402893D02*
X148472893Y-97457107D01*
X152450000Y-97110000D02*
X149234214Y-97110000D01*
X145077100Y-97457114D02*
G75*
G03*
X145784214Y-97750000I707100J707114D01*
G01*
X149234214Y-97110010D02*
G75*
G03*
X148527107Y-97402893I-14J-999990D01*
G01*
X147765786Y-97749990D02*
G75*
G03*
X148472893Y-97457107I14J999990D01*
G01*
X144730000Y-95840000D02*
X146740000Y-95840000D01*
X153750000Y-95840000D02*
X146740000Y-95840000D01*
X144730000Y-94570000D02*
X146740000Y-94570000D01*
X144730000Y-92030000D02*
X146740000Y-92030000D01*
X152460000Y-92030000D02*
X146740000Y-92030000D01*
X152460000Y-90760000D02*
X146740000Y-90760000D01*
X144730000Y-90760000D02*
X146740000Y-90760000D01*
X144730000Y-89490000D02*
X146740000Y-89490000D01*
X152460000Y-89490000D02*
X146740000Y-89490000D01*
X152460000Y-88220000D02*
X146740000Y-88220000D01*
X144730000Y-88220000D02*
X146740000Y-88220000D01*
X150380000Y-87580000D02*
X154395786Y-87580000D01*
X154335786Y-110450000D02*
X150390000Y-110450000D01*
X150380000Y-104100000D02*
X154355786Y-104100000D01*
X155102893Y-87287107D02*
X155147107Y-87242893D01*
X155087107Y-110787107D02*
X155042893Y-110742893D01*
X156190000Y-111080000D02*
X155794214Y-111080000D01*
X152460000Y-93300000D02*
X146740000Y-93300000D01*
X155814214Y-104730000D02*
X156190000Y-104730000D01*
X155854214Y-86950000D02*
X156190000Y-86950000D01*
X155062893Y-104392893D02*
X155107107Y-104437107D01*
X155062900Y-104392886D02*
G75*
G03*
X154355786Y-104100000I-707100J-707114D01*
G01*
X155042900Y-110742886D02*
G75*
G03*
X154335786Y-110450000I-707100J-707114D01*
G01*
X155107100Y-104437114D02*
G75*
G03*
X155814214Y-104730000I707100J707114D01*
G01*
X155854214Y-86950010D02*
G75*
G03*
X155147107Y-87242893I-14J-999990D01*
G01*
X155087100Y-110787114D02*
G75*
G03*
X155794214Y-111080000I707100J707114D01*
G01*
X154395786Y-87579990D02*
G75*
G03*
X155102893Y-87287107I14J999990D01*
G01*
X155092893Y-88557107D02*
X155137107Y-88512893D01*
X150380000Y-88850000D02*
X154385786Y-88850000D01*
X155844214Y-88220000D02*
X156190000Y-88220000D01*
X155844214Y-88220010D02*
G75*
G03*
X155137107Y-88512893I-14J-999990D01*
G01*
X154385786Y-88849990D02*
G75*
G03*
X155092893Y-88557107I14J999990D01*
G01*
X155137107Y-89782893D02*
X155092893Y-89827107D01*
X156190000Y-89490000D02*
X155844214Y-89490000D01*
X154385786Y-90120000D02*
X150390000Y-90120000D01*
X154385786Y-90119990D02*
G75*
G03*
X155092893Y-89827107I14J999990D01*
G01*
X155844214Y-89490010D02*
G75*
G03*
X155137107Y-89782893I-14J-999990D01*
G01*
X155844214Y-90760000D02*
X156190000Y-90760000D01*
X155092893Y-91097107D02*
X155137107Y-91052893D01*
X150380000Y-91390000D02*
X154385786Y-91390000D01*
X154385786Y-91389990D02*
G75*
G03*
X155092893Y-91097107I14J999990D01*
G01*
X155844214Y-90760010D02*
G75*
G03*
X155137107Y-91052893I-14J-999990D01*
G01*
X155844214Y-92030000D02*
X156190000Y-92030000D01*
X155092893Y-92367107D02*
X155137107Y-92322893D01*
X150370000Y-92660000D02*
X154385786Y-92660000D01*
X155844214Y-92030010D02*
G75*
G03*
X155137107Y-92322893I-14J-999990D01*
G01*
X154385786Y-92659990D02*
G75*
G03*
X155092893Y-92367107I14J999990D01*
G01*
X154385786Y-93940000D02*
X150380000Y-93940000D01*
X155147107Y-93592893D02*
X155092893Y-93647107D01*
X156190000Y-93300000D02*
X155854214Y-93300000D01*
X155854214Y-93300010D02*
G75*
G03*
X155147107Y-93592893I-14J-999990D01*
G01*
X154385786Y-93939990D02*
G75*
G03*
X155092893Y-93647107I14J999990D01*
G01*
X155082893Y-94917107D02*
X155137107Y-94862893D01*
X150380000Y-95210000D02*
X154375786Y-95210000D01*
X155844214Y-94570000D02*
X156190000Y-94570000D01*
X155844214Y-94570010D02*
G75*
G03*
X155137107Y-94862893I-14J-999990D01*
G01*
X154375786Y-95209990D02*
G75*
G03*
X155082893Y-94917107I14J999990D01*
G01*
X155112893Y-96197107D02*
X155177107Y-96132893D01*
X155884214Y-95840000D02*
X156190000Y-95840000D01*
X150410000Y-96490000D02*
X154405786Y-96490000D01*
X150380000Y-96520000D02*
X150410000Y-96490000D01*
X154405786Y-96489990D02*
G75*
G03*
X155112893Y-96197107I14J999990D01*
G01*
X155884214Y-95840010D02*
G75*
G03*
X155177107Y-96132893I-14J-999990D01*
G01*
X155102893Y-97467107D02*
X155167107Y-97402893D01*
X149510000Y-97750000D02*
X149520000Y-97760000D01*
X149520000Y-97760000D02*
X154395786Y-97760000D01*
X155874214Y-97110000D02*
X156190000Y-97110000D01*
X154395786Y-97759990D02*
G75*
G03*
X155102893Y-97467107I14J999990D01*
G01*
X155874214Y-97110010D02*
G75*
G03*
X155167107Y-97402893I-14J-999990D01*
G01*
X155844214Y-99650000D02*
X156190000Y-99650000D01*
X150380000Y-99010000D02*
X154375786Y-99010000D01*
X155082893Y-99302893D02*
X155137107Y-99357107D01*
X155082900Y-99302886D02*
G75*
G03*
X154375786Y-99010000I-707100J-707114D01*
G01*
X155137100Y-99357114D02*
G75*
G03*
X155844214Y-99650000I707100J707114D01*
G01*
X155844214Y-100920000D02*
X156190000Y-100920000D01*
X155082893Y-100572893D02*
X155137107Y-100627107D01*
X150380000Y-100280000D02*
X154375786Y-100280000D01*
X155137100Y-100627114D02*
G75*
G03*
X155844214Y-100920000I707100J707114D01*
G01*
X155082900Y-100572886D02*
G75*
G03*
X154375786Y-100280000I-707100J-707114D01*
G01*
X155082893Y-101842893D02*
X155137107Y-101897107D01*
X150380000Y-101550000D02*
X154375786Y-101550000D01*
X155844214Y-102190000D02*
X156190000Y-102190000D01*
X155137100Y-101897114D02*
G75*
G03*
X155844214Y-102190000I707100J707114D01*
G01*
X155082900Y-101842886D02*
G75*
G03*
X154375786Y-101550000I-707100J-707114D01*
G01*
X155082893Y-103112893D02*
X155137107Y-103167107D01*
X150380000Y-102820000D02*
X154375786Y-102820000D01*
X155844214Y-103460000D02*
X156190000Y-103460000D01*
X155137100Y-103167114D02*
G75*
G03*
X155844214Y-103460000I707100J707114D01*
G01*
X155082900Y-103112886D02*
G75*
G03*
X154375786Y-102820000I-707100J-707114D01*
G01*
X155052893Y-105652893D02*
X155107107Y-105707107D01*
X155814214Y-106000000D02*
X156190000Y-106000000D01*
X150380000Y-105360000D02*
X154345786Y-105360000D01*
X155107100Y-105707114D02*
G75*
G03*
X155814214Y-106000000I707100J707114D01*
G01*
X155052900Y-105652886D02*
G75*
G03*
X154345786Y-105360000I-707100J-707114D01*
G01*
X155052893Y-106922893D02*
X155107107Y-106977107D01*
X150380000Y-106630000D02*
X154345786Y-106630000D01*
X155814214Y-107270000D02*
X156190000Y-107270000D01*
X155107100Y-106977114D02*
G75*
G03*
X155814214Y-107270000I707100J707114D01*
G01*
X155052900Y-106922886D02*
G75*
G03*
X154345786Y-106630000I-707100J-707114D01*
G01*
X150380000Y-107900000D02*
X154345786Y-107900000D01*
X155814214Y-108540000D02*
X156190000Y-108540000D01*
X155052893Y-108192893D02*
X155107107Y-108247107D01*
X155107100Y-108247114D02*
G75*
G03*
X155814214Y-108540000I707100J707114D01*
G01*
X155052900Y-108192886D02*
G75*
G03*
X154345786Y-107900000I-707100J-707114D01*
G01*
X155804214Y-109810000D02*
X156190000Y-109810000D01*
X155042893Y-109462893D02*
X155097107Y-109517107D01*
X150380000Y-109170000D02*
X154335786Y-109170000D01*
X155042900Y-109462886D02*
G75*
G03*
X154335786Y-109170000I-707100J-707114D01*
G01*
X155097100Y-109517114D02*
G75*
G03*
X155804214Y-109810000I707100J707114D01*
G01*
G04 #@! TA.AperFunction,Conductor*
G36*
X150524442Y-93621853D02*
G01*
X150525102Y-93622153D01*
X150651265Y-93684445D01*
X150651807Y-93684751D01*
X150747000Y-93745564D01*
X150747001Y-93745564D01*
X150830256Y-93794909D01*
X150830259Y-93794909D01*
X150830261Y-93794911D01*
X150898922Y-93817366D01*
X150931273Y-93827947D01*
X150931274Y-93827947D01*
X150931277Y-93827948D01*
X151069246Y-93839128D01*
X151077214Y-93843212D01*
X151080000Y-93850790D01*
X151080000Y-94029209D01*
X151076573Y-94037482D01*
X151069245Y-94040871D01*
X150931272Y-94052051D01*
X150830263Y-94085086D01*
X150830256Y-94085088D01*
X150747001Y-94134434D01*
X150651814Y-94195243D01*
X150651254Y-94195559D01*
X150525116Y-94257839D01*
X150516181Y-94258429D01*
X150509445Y-94252528D01*
X150509138Y-94251854D01*
X150439545Y-94085087D01*
X150380880Y-93944505D01*
X150380857Y-93935550D01*
X150380856Y-93935550D01*
X150509139Y-93628143D01*
X150515487Y-93621830D01*
X150524442Y-93621853D01*
G37*
G04 #@! TD.AperFunction*
G04 #@! TA.AperFunction,Conductor*
G36*
X155159707Y-99233374D02*
G01*
X155371687Y-99274746D01*
X155589771Y-99301559D01*
X155807856Y-99312623D01*
X156017477Y-99308117D01*
X156025942Y-99307936D01*
X156062448Y-99304514D01*
X156229195Y-99288889D01*
X156237750Y-99291529D01*
X156241934Y-99299446D01*
X156241861Y-99302237D01*
X156192140Y-99640941D01*
X156187548Y-99648629D01*
X156180840Y-99650939D01*
X155075486Y-99676974D01*
X155067134Y-99673743D01*
X155063613Y-99666823D01*
X155060161Y-99640941D01*
X155054436Y-99598007D01*
X155043873Y-99528038D01*
X155033309Y-99467314D01*
X155022746Y-99415836D01*
X155013790Y-99380028D01*
X155015107Y-99371173D01*
X155016863Y-99368922D01*
X155149201Y-99236584D01*
X155157473Y-99233158D01*
X155159707Y-99233374D01*
G37*
G04 #@! TD.AperFunction*
G04 #@! TA.AperFunction,Conductor*
G36*
X145799886Y-106931683D02*
G01*
X146710372Y-107258990D01*
X146716998Y-107265013D01*
X146717424Y-107273958D01*
X146711401Y-107280584D01*
X146710372Y-107281010D01*
X145799886Y-107608316D01*
X145790941Y-107607890D01*
X145789000Y-107606734D01*
X145685715Y-107530837D01*
X145577426Y-107467011D01*
X145577409Y-107467002D01*
X145469114Y-107418922D01*
X145469105Y-107418919D01*
X145360805Y-107386584D01*
X145262429Y-107371520D01*
X145254770Y-107366881D01*
X145252500Y-107359955D01*
X145252500Y-107180044D01*
X145255927Y-107171771D01*
X145262427Y-107168479D01*
X145335537Y-107157283D01*
X145360805Y-107153414D01*
X145387879Y-107145330D01*
X145469108Y-107121079D01*
X145577413Y-107072995D01*
X145685717Y-107009160D01*
X145789000Y-106933264D01*
X145797696Y-106931127D01*
X145799886Y-106931683D01*
G37*
G04 #@! TD.AperFunction*
G04 #@! TA.AperFunction,Conductor*
G36*
X144742281Y-104230640D02*
G01*
X144888773Y-104238285D01*
X144978755Y-104242981D01*
X144979469Y-104243062D01*
X145154381Y-104273969D01*
X145154756Y-104274048D01*
X145305439Y-104311000D01*
X145305438Y-104311000D01*
X145328343Y-104315047D01*
X145480879Y-104342000D01*
X145718910Y-104354421D01*
X145726993Y-104358274D01*
X145730000Y-104366105D01*
X145730000Y-105093894D01*
X145726573Y-105102167D01*
X145718910Y-105105578D01*
X145497075Y-105117154D01*
X145480879Y-105118000D01*
X145393159Y-105133499D01*
X145305438Y-105149000D01*
X145305439Y-105149000D01*
X145154756Y-105185951D01*
X145154381Y-105186030D01*
X144979469Y-105216937D01*
X144978755Y-105217018D01*
X144742285Y-105229358D01*
X144733844Y-105226367D01*
X144729991Y-105218284D01*
X144729975Y-105217697D01*
X144729973Y-105216937D01*
X144729000Y-104730000D01*
X144729975Y-104242301D01*
X144733418Y-104234035D01*
X144741698Y-104230625D01*
X144742281Y-104230640D01*
G37*
G04 #@! TD.AperFunction*
G04 #@! TA.AperFunction,Conductor*
G36*
X156180856Y-86949030D02*
G01*
X156189034Y-86952676D01*
X156192122Y-86959045D01*
X156241262Y-87297614D01*
X156239059Y-87306294D01*
X156231364Y-87310874D01*
X156228463Y-87310931D01*
X156029458Y-87290063D01*
X156029459Y-87290063D01*
X155998891Y-87289107D01*
X155815494Y-87283376D01*
X155815491Y-87283376D01*
X155815488Y-87283376D01*
X155753185Y-87286015D01*
X155601531Y-87292440D01*
X155601522Y-87292440D01*
X155601522Y-87292441D01*
X155387574Y-87317252D01*
X155387571Y-87317252D01*
X155387567Y-87317253D01*
X155332263Y-87327737D01*
X155179680Y-87356664D01*
X155170914Y-87354838D01*
X155169228Y-87353442D01*
X155036397Y-87220611D01*
X155032970Y-87212338D01*
X155033114Y-87210510D01*
X155038746Y-87174911D01*
X155045309Y-87124458D01*
X155051873Y-87065038D01*
X155058436Y-86996651D01*
X155061627Y-86959045D01*
X155064066Y-86930296D01*
X155068180Y-86922344D01*
X155076035Y-86919591D01*
X156180856Y-86949030D01*
G37*
G04 #@! TD.AperFunction*
G04 #@! TA.AperFunction,Conductor*
G36*
X144931755Y-95383488D02*
G01*
X144932631Y-95383896D01*
X145119290Y-95480393D01*
X145120781Y-95481311D01*
X145255211Y-95578695D01*
X145371849Y-95661418D01*
X145371850Y-95661418D01*
X145371851Y-95661419D01*
X145515083Y-95718632D01*
X145719459Y-95738952D01*
X145727351Y-95743180D01*
X145730000Y-95750594D01*
X145730000Y-95929405D01*
X145726573Y-95937678D01*
X145719458Y-95941048D01*
X145690421Y-95943934D01*
X145515083Y-95961367D01*
X145515081Y-95961367D01*
X145515078Y-95961368D01*
X145371850Y-96018579D01*
X145255211Y-96101303D01*
X145120781Y-96198687D01*
X145119290Y-96199605D01*
X144932630Y-96296103D01*
X144923707Y-96296858D01*
X144916864Y-96291083D01*
X144916461Y-96290219D01*
X144730871Y-95844495D01*
X144730855Y-95835544D01*
X144916457Y-95389791D01*
X144922801Y-95383471D01*
X144931755Y-95383488D01*
G37*
G04 #@! TD.AperFunction*
G04 #@! TA.AperFunction,Conductor*
G36*
X156180869Y-88219005D02*
G01*
X156189037Y-88222672D01*
X156192107Y-88229035D01*
X156240785Y-88567646D01*
X156238570Y-88576323D01*
X156230869Y-88580892D01*
X156227994Y-88580948D01*
X156148021Y-88572636D01*
X156027057Y-88560063D01*
X155811193Y-88553376D01*
X155811190Y-88553376D01*
X155811188Y-88553376D01*
X155595329Y-88562440D01*
X155379474Y-88587252D01*
X155379473Y-88587252D01*
X155379470Y-88587252D01*
X155379466Y-88587253D01*
X155325768Y-88597343D01*
X155169670Y-88626676D01*
X155160906Y-88624836D01*
X155159236Y-88623450D01*
X155026635Y-88490849D01*
X155023208Y-88482576D01*
X155023446Y-88480229D01*
X155030746Y-88444581D01*
X155039309Y-88393675D01*
X155047873Y-88333679D01*
X155056436Y-88264592D01*
X155061398Y-88219293D01*
X155063824Y-88197148D01*
X155068130Y-88189300D01*
X155075794Y-88186730D01*
X156180869Y-88219005D01*
G37*
G04 #@! TD.AperFunction*
G04 #@! TA.AperFunction,Conductor*
G36*
X145799886Y-100581683D02*
G01*
X146710372Y-100908990D01*
X146716998Y-100915013D01*
X146717424Y-100923958D01*
X146711401Y-100930584D01*
X146710372Y-100931010D01*
X145799886Y-101258316D01*
X145790941Y-101257890D01*
X145789000Y-101256734D01*
X145685715Y-101180837D01*
X145577426Y-101117011D01*
X145577409Y-101117002D01*
X145469114Y-101068922D01*
X145469105Y-101068919D01*
X145360805Y-101036584D01*
X145262429Y-101021520D01*
X145254770Y-101016881D01*
X145252500Y-101009955D01*
X145252500Y-100830044D01*
X145255927Y-100821771D01*
X145262427Y-100818479D01*
X145335537Y-100807283D01*
X145360805Y-100803414D01*
X145387879Y-100795330D01*
X145469108Y-100771079D01*
X145577413Y-100722995D01*
X145685717Y-100659160D01*
X145789000Y-100583264D01*
X145797696Y-100581127D01*
X145799886Y-100581683D01*
G37*
G04 #@! TD.AperFunction*
G04 #@! TA.AperFunction,Conductor*
G36*
X145799886Y-94231683D02*
G01*
X146710372Y-94558990D01*
X146716998Y-94565013D01*
X146717424Y-94573958D01*
X146711401Y-94580584D01*
X146710372Y-94581010D01*
X145799886Y-94908316D01*
X145790941Y-94907890D01*
X145789000Y-94906734D01*
X145685715Y-94830837D01*
X145577426Y-94767011D01*
X145577409Y-94767002D01*
X145469114Y-94718922D01*
X145469105Y-94718919D01*
X145360805Y-94686584D01*
X145262429Y-94671520D01*
X145254770Y-94666881D01*
X145252500Y-94659955D01*
X145252500Y-94480044D01*
X145255927Y-94471771D01*
X145262427Y-94468479D01*
X145335537Y-94457283D01*
X145360805Y-94453414D01*
X145387879Y-94445330D01*
X145469108Y-94421079D01*
X145577413Y-94372995D01*
X145685717Y-94309160D01*
X145789000Y-94233264D01*
X145797696Y-94231127D01*
X145799886Y-94231683D01*
G37*
G04 #@! TD.AperFunction*
G04 #@! TA.AperFunction,Conductor*
G36*
X156180869Y-92029005D02*
G01*
X156189037Y-92032672D01*
X156192107Y-92039035D01*
X156240785Y-92377646D01*
X156238570Y-92386323D01*
X156230869Y-92390892D01*
X156227994Y-92390948D01*
X156148021Y-92382636D01*
X156027057Y-92370063D01*
X155811193Y-92363376D01*
X155811190Y-92363376D01*
X155811188Y-92363376D01*
X155595329Y-92372440D01*
X155379474Y-92397252D01*
X155379473Y-92397252D01*
X155379470Y-92397252D01*
X155379466Y-92397253D01*
X155325768Y-92407343D01*
X155169670Y-92436676D01*
X155160906Y-92434836D01*
X155159236Y-92433450D01*
X155026635Y-92300849D01*
X155023208Y-92292576D01*
X155023446Y-92290229D01*
X155030746Y-92254581D01*
X155039309Y-92203675D01*
X155047873Y-92143679D01*
X155056436Y-92074592D01*
X155061398Y-92029293D01*
X155063824Y-92007148D01*
X155068130Y-91999300D01*
X155075794Y-91996730D01*
X156180869Y-92029005D01*
G37*
G04 #@! TD.AperFunction*
G04 #@! TA.AperFunction,Conductor*
G36*
X147689058Y-99312109D02*
G01*
X147690999Y-99313265D01*
X147794283Y-99389161D01*
X147902572Y-99452987D01*
X147902586Y-99452995D01*
X148010891Y-99501079D01*
X148065043Y-99517246D01*
X148119193Y-99533414D01*
X148158661Y-99539458D01*
X148217572Y-99548479D01*
X148225230Y-99553118D01*
X148227500Y-99560044D01*
X148227500Y-99739955D01*
X148224073Y-99748228D01*
X148217571Y-99751520D01*
X148119193Y-99766584D01*
X148010893Y-99798919D01*
X148010884Y-99798922D01*
X147902589Y-99847002D01*
X147902572Y-99847011D01*
X147794283Y-99910837D01*
X147690999Y-99986734D01*
X147682303Y-99988872D01*
X147680113Y-99988316D01*
X146769627Y-99661010D01*
X146763001Y-99654987D01*
X146762575Y-99646042D01*
X146768598Y-99639416D01*
X146769627Y-99638990D01*
X146989235Y-99560044D01*
X147680113Y-99311683D01*
X147689058Y-99312109D01*
G37*
G04 #@! TD.AperFunction*
G04 #@! TA.AperFunction,Conductor*
G36*
X147689058Y-103122109D02*
G01*
X147690999Y-103123265D01*
X147794283Y-103199161D01*
X147902572Y-103262987D01*
X147902586Y-103262995D01*
X148010891Y-103311079D01*
X148065043Y-103327246D01*
X148119193Y-103343414D01*
X148158661Y-103349458D01*
X148217572Y-103358479D01*
X148225230Y-103363118D01*
X148227500Y-103370044D01*
X148227500Y-103549955D01*
X148224073Y-103558228D01*
X148217571Y-103561520D01*
X148119193Y-103576584D01*
X148010893Y-103608919D01*
X148010884Y-103608922D01*
X147902589Y-103657002D01*
X147902572Y-103657011D01*
X147794283Y-103720837D01*
X147690999Y-103796734D01*
X147682303Y-103798872D01*
X147680113Y-103798316D01*
X146769627Y-103471010D01*
X146763001Y-103464987D01*
X146762575Y-103456042D01*
X146768598Y-103449416D01*
X146769627Y-103448990D01*
X146989235Y-103370044D01*
X147680113Y-103121683D01*
X147689058Y-103122109D01*
G37*
G04 #@! TD.AperFunction*
G04 #@! TA.AperFunction,Conductor*
G36*
X147689058Y-87882109D02*
G01*
X147690999Y-87883265D01*
X147794283Y-87959161D01*
X147902572Y-88022987D01*
X147902586Y-88022995D01*
X148010891Y-88071079D01*
X148065043Y-88087246D01*
X148119193Y-88103414D01*
X148158661Y-88109458D01*
X148217572Y-88118479D01*
X148225230Y-88123118D01*
X148227500Y-88130044D01*
X148227500Y-88309955D01*
X148224073Y-88318228D01*
X148217571Y-88321520D01*
X148119193Y-88336584D01*
X148010893Y-88368919D01*
X148010884Y-88368922D01*
X147902589Y-88417002D01*
X147902572Y-88417011D01*
X147794283Y-88480837D01*
X147690999Y-88556734D01*
X147682303Y-88558872D01*
X147680113Y-88558316D01*
X146769627Y-88231010D01*
X146763001Y-88224987D01*
X146762575Y-88216042D01*
X146768598Y-88209416D01*
X146769627Y-88208990D01*
X146989235Y-88130044D01*
X147680113Y-87881683D01*
X147689058Y-87882109D01*
G37*
G04 #@! TD.AperFunction*
G04 #@! TA.AperFunction,Conductor*
G36*
X150524442Y-94891853D02*
G01*
X150525102Y-94892153D01*
X150651265Y-94954445D01*
X150651807Y-94954751D01*
X150747000Y-95015564D01*
X150747001Y-95015564D01*
X150830256Y-95064909D01*
X150830259Y-95064909D01*
X150830261Y-95064911D01*
X150898922Y-95087366D01*
X150931273Y-95097947D01*
X150931274Y-95097947D01*
X150931277Y-95097948D01*
X151069246Y-95109128D01*
X151077214Y-95113212D01*
X151080000Y-95120790D01*
X151080000Y-95299209D01*
X151076573Y-95307482D01*
X151069245Y-95310871D01*
X150931272Y-95322051D01*
X150830263Y-95355086D01*
X150830256Y-95355088D01*
X150747001Y-95404434D01*
X150651814Y-95465243D01*
X150651254Y-95465559D01*
X150525116Y-95527839D01*
X150516181Y-95528429D01*
X150509445Y-95522528D01*
X150509138Y-95521854D01*
X150439546Y-95355088D01*
X150380879Y-95214505D01*
X150380857Y-95205551D01*
X150380880Y-95205494D01*
X150509139Y-94898143D01*
X150515487Y-94891830D01*
X150524442Y-94891853D01*
G37*
G04 #@! TD.AperFunction*
G04 #@! TA.AperFunction,Conductor*
G36*
X144931755Y-100463488D02*
G01*
X144932631Y-100463896D01*
X145119290Y-100560393D01*
X145120781Y-100561311D01*
X145255211Y-100658695D01*
X145371849Y-100741418D01*
X145371850Y-100741418D01*
X145371851Y-100741419D01*
X145515083Y-100798632D01*
X145719459Y-100818952D01*
X145727351Y-100823180D01*
X145730000Y-100830594D01*
X145730000Y-101009405D01*
X145726573Y-101017678D01*
X145719458Y-101021048D01*
X145690421Y-101023934D01*
X145515083Y-101041367D01*
X145515081Y-101041367D01*
X145515078Y-101041368D01*
X145371850Y-101098579D01*
X145255211Y-101181303D01*
X145120781Y-101278687D01*
X145119290Y-101279605D01*
X144932630Y-101376103D01*
X144923707Y-101376858D01*
X144916864Y-101371083D01*
X144916461Y-101370219D01*
X144730871Y-100924495D01*
X144730855Y-100915544D01*
X144916457Y-100469791D01*
X144922801Y-100463471D01*
X144931755Y-100463488D01*
G37*
G04 #@! TD.AperFunction*
G04 #@! TA.AperFunction,Conductor*
G36*
X152330554Y-103147471D02*
G01*
X152330861Y-103148145D01*
X152459119Y-103455494D01*
X152459142Y-103464449D01*
X152459119Y-103464506D01*
X152330861Y-103771854D01*
X152324512Y-103778169D01*
X152315557Y-103778146D01*
X152314883Y-103777839D01*
X152302761Y-103771854D01*
X152188739Y-103715556D01*
X152188184Y-103715243D01*
X152092998Y-103654434D01*
X152009742Y-103605088D01*
X152009735Y-103605086D01*
X151908725Y-103572051D01*
X151908727Y-103572051D01*
X151770755Y-103560871D01*
X151762786Y-103556787D01*
X151760000Y-103549209D01*
X151760000Y-103370790D01*
X151763427Y-103362517D01*
X151770753Y-103359128D01*
X151908722Y-103347948D01*
X152009737Y-103314911D01*
X152009739Y-103314909D01*
X152009741Y-103314909D01*
X152092998Y-103265564D01*
X152092998Y-103265563D01*
X152188199Y-103204746D01*
X152188725Y-103204449D01*
X152314885Y-103142159D01*
X152323819Y-103141570D01*
X152330554Y-103147471D01*
G37*
G04 #@! TD.AperFunction*
G04 #@! TA.AperFunction,Conductor*
G36*
X147689058Y-105662109D02*
G01*
X147690999Y-105663265D01*
X147794283Y-105739161D01*
X147902572Y-105802987D01*
X147902586Y-105802995D01*
X148010891Y-105851079D01*
X148065043Y-105867246D01*
X148119193Y-105883414D01*
X148158661Y-105889458D01*
X148217572Y-105898479D01*
X148225230Y-105903118D01*
X148227500Y-105910044D01*
X148227500Y-106089955D01*
X148224073Y-106098228D01*
X148217571Y-106101520D01*
X148119193Y-106116584D01*
X148010893Y-106148919D01*
X148010884Y-106148922D01*
X147902589Y-106197002D01*
X147902572Y-106197011D01*
X147794283Y-106260837D01*
X147690999Y-106336734D01*
X147682303Y-106338872D01*
X147680113Y-106338316D01*
X146769627Y-106011010D01*
X146763001Y-106004987D01*
X146762575Y-105996042D01*
X146768598Y-105989416D01*
X146769627Y-105988990D01*
X146989235Y-105910044D01*
X147680113Y-105661683D01*
X147689058Y-105662109D01*
G37*
G04 #@! TD.AperFunction*
G04 #@! TA.AperFunction,Conductor*
G36*
X147689058Y-92962109D02*
G01*
X147690999Y-92963265D01*
X147794283Y-93039161D01*
X147902572Y-93102987D01*
X147902586Y-93102995D01*
X148010891Y-93151079D01*
X148065043Y-93167246D01*
X148119193Y-93183414D01*
X148158661Y-93189458D01*
X148217572Y-93198479D01*
X148225230Y-93203118D01*
X148227500Y-93210044D01*
X148227500Y-93389955D01*
X148224073Y-93398228D01*
X148217571Y-93401520D01*
X148119193Y-93416584D01*
X148010893Y-93448919D01*
X148010884Y-93448922D01*
X147902589Y-93497002D01*
X147902572Y-93497011D01*
X147794283Y-93560837D01*
X147690999Y-93636734D01*
X147682303Y-93638872D01*
X147680113Y-93638316D01*
X146769627Y-93311010D01*
X146763001Y-93304987D01*
X146762575Y-93296042D01*
X146768598Y-93289416D01*
X146769627Y-93288990D01*
X146989235Y-93210044D01*
X147680113Y-92961683D01*
X147689058Y-92962109D01*
G37*
G04 #@! TD.AperFunction*
G04 #@! TA.AperFunction,Conductor*
G36*
X150524442Y-101231853D02*
G01*
X150525102Y-101232153D01*
X150651265Y-101294445D01*
X150651807Y-101294751D01*
X150747001Y-101355564D01*
X150830256Y-101404909D01*
X150830259Y-101404909D01*
X150830261Y-101404911D01*
X150898922Y-101427366D01*
X150931273Y-101437947D01*
X150931274Y-101437947D01*
X150931277Y-101437948D01*
X151069246Y-101449128D01*
X151077214Y-101453212D01*
X151080000Y-101460790D01*
X151080000Y-101639209D01*
X151076573Y-101647482D01*
X151069245Y-101650871D01*
X150931272Y-101662051D01*
X150830263Y-101695086D01*
X150830256Y-101695088D01*
X150747001Y-101744434D01*
X150651814Y-101805243D01*
X150651254Y-101805559D01*
X150525116Y-101867839D01*
X150516181Y-101868429D01*
X150509445Y-101862528D01*
X150509138Y-101861854D01*
X150439545Y-101695087D01*
X150380880Y-101554505D01*
X150380857Y-101545550D01*
X150380856Y-101545550D01*
X150509139Y-101238143D01*
X150515487Y-101231830D01*
X150524442Y-101231853D01*
G37*
G04 #@! TD.AperFunction*
G04 #@! TA.AperFunction,Conductor*
G36*
X150524442Y-106311853D02*
G01*
X150525102Y-106312153D01*
X150651265Y-106374445D01*
X150651807Y-106374751D01*
X150747001Y-106435564D01*
X150830256Y-106484909D01*
X150830259Y-106484909D01*
X150830261Y-106484911D01*
X150898922Y-106507366D01*
X150931273Y-106517947D01*
X150931274Y-106517947D01*
X150931277Y-106517948D01*
X151069246Y-106529128D01*
X151077214Y-106533212D01*
X151080000Y-106540790D01*
X151080000Y-106719209D01*
X151076573Y-106727482D01*
X151069245Y-106730871D01*
X150931272Y-106742051D01*
X150830263Y-106775086D01*
X150830256Y-106775088D01*
X150747001Y-106824434D01*
X150651814Y-106885243D01*
X150651254Y-106885559D01*
X150525116Y-106947839D01*
X150516181Y-106948429D01*
X150509445Y-106942528D01*
X150509138Y-106941854D01*
X150439545Y-106775087D01*
X150380880Y-106634505D01*
X150380857Y-106625550D01*
X150380856Y-106625550D01*
X150509139Y-106318143D01*
X150515487Y-106311830D01*
X150524442Y-106311853D01*
G37*
G04 #@! TD.AperFunction*
G04 #@! TA.AperFunction,Conductor*
G36*
X145799886Y-90421683D02*
G01*
X146710372Y-90748990D01*
X146716998Y-90755013D01*
X146717424Y-90763958D01*
X146711401Y-90770584D01*
X146710372Y-90771010D01*
X145799886Y-91098316D01*
X145790941Y-91097890D01*
X145789000Y-91096734D01*
X145685715Y-91020837D01*
X145577426Y-90957011D01*
X145577409Y-90957002D01*
X145469114Y-90908922D01*
X145469105Y-90908919D01*
X145360805Y-90876584D01*
X145262429Y-90861520D01*
X145254770Y-90856881D01*
X145252500Y-90849955D01*
X145252500Y-90670044D01*
X145255927Y-90661771D01*
X145262427Y-90658479D01*
X145335537Y-90647283D01*
X145360805Y-90643414D01*
X145387879Y-90635330D01*
X145469108Y-90611079D01*
X145577413Y-90562995D01*
X145685717Y-90499160D01*
X145789000Y-90423264D01*
X145797696Y-90421127D01*
X145799886Y-90421683D01*
G37*
G04 #@! TD.AperFunction*
G04 #@! TA.AperFunction,Conductor*
G36*
X144931755Y-89033488D02*
G01*
X144932631Y-89033896D01*
X145119290Y-89130393D01*
X145120781Y-89131311D01*
X145255211Y-89228695D01*
X145371849Y-89311418D01*
X145371850Y-89311418D01*
X145371851Y-89311419D01*
X145515083Y-89368632D01*
X145719459Y-89388952D01*
X145727351Y-89393180D01*
X145730000Y-89400594D01*
X145730000Y-89579405D01*
X145726573Y-89587678D01*
X145719458Y-89591048D01*
X145690421Y-89593934D01*
X145515083Y-89611367D01*
X145515081Y-89611367D01*
X145515078Y-89611368D01*
X145371850Y-89668579D01*
X145255211Y-89751303D01*
X145120781Y-89848687D01*
X145119290Y-89849605D01*
X144932630Y-89946103D01*
X144923707Y-89946858D01*
X144916864Y-89941083D01*
X144916461Y-89940219D01*
X144730871Y-89494495D01*
X144730855Y-89485544D01*
X144916457Y-89039791D01*
X144922801Y-89033471D01*
X144931755Y-89033488D01*
G37*
G04 #@! TD.AperFunction*
G04 #@! TA.AperFunction,Conductor*
G36*
X147689058Y-91692109D02*
G01*
X147690999Y-91693265D01*
X147794283Y-91769161D01*
X147902572Y-91832987D01*
X147902586Y-91832995D01*
X148010891Y-91881079D01*
X148065043Y-91897246D01*
X148119193Y-91913414D01*
X148158661Y-91919458D01*
X148217572Y-91928479D01*
X148225230Y-91933118D01*
X148227500Y-91940044D01*
X148227500Y-92119955D01*
X148224073Y-92128228D01*
X148217571Y-92131520D01*
X148119193Y-92146584D01*
X148010893Y-92178919D01*
X148010884Y-92178922D01*
X147902589Y-92227002D01*
X147902572Y-92227011D01*
X147794283Y-92290837D01*
X147690999Y-92366734D01*
X147682303Y-92368872D01*
X147680113Y-92368316D01*
X146769627Y-92041010D01*
X146763001Y-92034987D01*
X146762575Y-92026042D01*
X146768598Y-92019416D01*
X146769627Y-92018990D01*
X146989235Y-91940044D01*
X147680113Y-91691683D01*
X147689058Y-91692109D01*
G37*
G04 #@! TD.AperFunction*
G04 #@! TA.AperFunction,Conductor*
G36*
X150524442Y-92341853D02*
G01*
X150525102Y-92342153D01*
X150651265Y-92404445D01*
X150651807Y-92404751D01*
X150747000Y-92465564D01*
X150747001Y-92465564D01*
X150830256Y-92514909D01*
X150830259Y-92514909D01*
X150830261Y-92514911D01*
X150898922Y-92537366D01*
X150931273Y-92547947D01*
X150931274Y-92547947D01*
X150931277Y-92547948D01*
X151069246Y-92559128D01*
X151077214Y-92563212D01*
X151080000Y-92570790D01*
X151080000Y-92749209D01*
X151076573Y-92757482D01*
X151069245Y-92760871D01*
X150931272Y-92772051D01*
X150830263Y-92805086D01*
X150830256Y-92805088D01*
X150747001Y-92854434D01*
X150651814Y-92915243D01*
X150651254Y-92915559D01*
X150525116Y-92977839D01*
X150516181Y-92978429D01*
X150509445Y-92972528D01*
X150509138Y-92971854D01*
X150439545Y-92805087D01*
X150380880Y-92664505D01*
X150380857Y-92655550D01*
X150380856Y-92655550D01*
X150509139Y-92348143D01*
X150515487Y-92341830D01*
X150524442Y-92341853D01*
G37*
G04 #@! TD.AperFunction*
G04 #@! TA.AperFunction,Conductor*
G36*
X147622470Y-86600595D02*
G01*
X147705501Y-86623501D01*
X147835986Y-86652748D01*
X147889725Y-86662013D01*
X147966500Y-86675250D01*
X148003785Y-86679750D01*
X148096995Y-86691000D01*
X148139712Y-86693945D01*
X148216606Y-86699248D01*
X148224623Y-86703236D01*
X148227500Y-86710920D01*
X148227500Y-87189079D01*
X148224073Y-87197352D01*
X148216605Y-87200751D01*
X148096995Y-87209000D01*
X148003784Y-87220249D01*
X147966499Y-87224750D01*
X147889730Y-87237986D01*
X147835987Y-87247252D01*
X147705501Y-87276499D01*
X147578978Y-87311402D01*
X147571212Y-87310857D01*
X147110138Y-87110930D01*
X146763753Y-86960733D01*
X146757527Y-86954299D01*
X146757675Y-86945345D01*
X146763753Y-86939266D01*
X147571213Y-86589141D01*
X147578976Y-86588597D01*
X147622470Y-86600595D01*
G37*
G04 #@! TD.AperFunction*
G04 #@! TA.AperFunction,Conductor*
G36*
X149654409Y-97431932D02*
G01*
X149655153Y-97432274D01*
X149781261Y-97495601D01*
X149781888Y-97495966D01*
X149876406Y-97559242D01*
X149958814Y-97611496D01*
X150059214Y-97646943D01*
X150197334Y-97659063D01*
X150205276Y-97663200D01*
X150208011Y-97670718D01*
X150208011Y-97849147D01*
X150204584Y-97857420D01*
X150197189Y-97860814D01*
X150060305Y-97871110D01*
X150060295Y-97871112D01*
X149959433Y-97901864D01*
X149959430Y-97901865D01*
X149959424Y-97901868D01*
X149959425Y-97901868D01*
X149875997Y-97948405D01*
X149780866Y-98006712D01*
X149780383Y-98006977D01*
X149740052Y-98026598D01*
X149655082Y-98067936D01*
X149646144Y-98068474D01*
X149639443Y-98062533D01*
X149639166Y-98061921D01*
X149510879Y-97754505D01*
X149510857Y-97745551D01*
X149510880Y-97745494D01*
X149639106Y-97438222D01*
X149645454Y-97431909D01*
X149654409Y-97431932D01*
G37*
G04 #@! TD.AperFunction*
G04 #@! TA.AperFunction,Conductor*
G36*
X152330554Y-104417471D02*
G01*
X152330861Y-104418145D01*
X152459119Y-104725493D01*
X152459142Y-104734448D01*
X152459119Y-104734505D01*
X152330861Y-105041854D01*
X152324512Y-105048169D01*
X152315557Y-105048146D01*
X152314883Y-105047839D01*
X152302761Y-105041854D01*
X152188739Y-104985556D01*
X152188184Y-104985243D01*
X152092998Y-104924434D01*
X152009742Y-104875088D01*
X152009735Y-104875086D01*
X151908725Y-104842051D01*
X151908727Y-104842051D01*
X151770755Y-104830871D01*
X151762786Y-104826787D01*
X151760000Y-104819209D01*
X151760000Y-104640790D01*
X151763427Y-104632517D01*
X151770753Y-104629128D01*
X151908722Y-104617948D01*
X152009737Y-104584911D01*
X152009739Y-104584909D01*
X152009741Y-104584909D01*
X152092998Y-104535564D01*
X152092998Y-104535563D01*
X152188199Y-104474746D01*
X152188725Y-104474449D01*
X152314885Y-104412159D01*
X152323819Y-104411570D01*
X152330554Y-104417471D01*
G37*
G04 #@! TD.AperFunction*
G04 #@! TA.AperFunction,Conductor*
G36*
X156180869Y-90759005D02*
G01*
X156189037Y-90762672D01*
X156192107Y-90769035D01*
X156240785Y-91107646D01*
X156238570Y-91116323D01*
X156230869Y-91120892D01*
X156227994Y-91120948D01*
X156148021Y-91112636D01*
X156027057Y-91100063D01*
X155811193Y-91093376D01*
X155811190Y-91093376D01*
X155811188Y-91093376D01*
X155595329Y-91102440D01*
X155379474Y-91127252D01*
X155379473Y-91127252D01*
X155379470Y-91127252D01*
X155379466Y-91127253D01*
X155325768Y-91137343D01*
X155169670Y-91166676D01*
X155160906Y-91164836D01*
X155159236Y-91163450D01*
X155026635Y-91030849D01*
X155023208Y-91022576D01*
X155023446Y-91020229D01*
X155030746Y-90984581D01*
X155039309Y-90933675D01*
X155047873Y-90873679D01*
X155056436Y-90804592D01*
X155061398Y-90759293D01*
X155063824Y-90737148D01*
X155068130Y-90729300D01*
X155075794Y-90726730D01*
X156180869Y-90759005D01*
G37*
G04 #@! TD.AperFunction*
G04 #@! TA.AperFunction,Conductor*
G36*
X150524527Y-96201650D02*
G01*
X150525009Y-96201864D01*
X150648687Y-96260208D01*
X150649039Y-96260391D01*
X150744011Y-96313682D01*
X150827722Y-96354589D01*
X150928293Y-96380774D01*
X151063072Y-96389306D01*
X151071112Y-96393249D01*
X151074033Y-96400983D01*
X151074033Y-96579422D01*
X151070606Y-96587695D01*
X151063509Y-96591063D01*
X150925014Y-96605057D01*
X150825877Y-96645307D01*
X150745245Y-96703362D01*
X150652447Y-96771312D01*
X150650932Y-96772252D01*
X150525226Y-96837499D01*
X150516306Y-96838268D01*
X150509453Y-96832504D01*
X150509046Y-96831633D01*
X150380880Y-96524505D01*
X150380857Y-96515550D01*
X150380856Y-96515550D01*
X150509223Y-96207941D01*
X150515572Y-96201627D01*
X150524527Y-96201650D01*
G37*
G04 #@! TD.AperFunction*
G04 #@! TA.AperFunction,Conductor*
G36*
X144931755Y-108083488D02*
G01*
X144932631Y-108083896D01*
X145119290Y-108180393D01*
X145120781Y-108181311D01*
X145255211Y-108278695D01*
X145371849Y-108361418D01*
X145371850Y-108361418D01*
X145371851Y-108361419D01*
X145515083Y-108418632D01*
X145719459Y-108438952D01*
X145727351Y-108443180D01*
X145730000Y-108450594D01*
X145730000Y-108629405D01*
X145726573Y-108637678D01*
X145719458Y-108641048D01*
X145690421Y-108643934D01*
X145515083Y-108661367D01*
X145515081Y-108661367D01*
X145515078Y-108661368D01*
X145371850Y-108718579D01*
X145255211Y-108801303D01*
X145120781Y-108898687D01*
X145119290Y-108899605D01*
X144932630Y-108996103D01*
X144923707Y-108996858D01*
X144916864Y-108991083D01*
X144916461Y-108990219D01*
X144730871Y-108544495D01*
X144730855Y-108535544D01*
X144916457Y-108089791D01*
X144922801Y-108083471D01*
X144931755Y-108083488D01*
G37*
G04 #@! TD.AperFunction*
G04 #@! TA.AperFunction,Conductor*
G36*
X144931755Y-94113488D02*
G01*
X144932631Y-94113896D01*
X145119290Y-94210393D01*
X145120781Y-94211311D01*
X145255211Y-94308695D01*
X145371849Y-94391418D01*
X145371850Y-94391418D01*
X145371851Y-94391419D01*
X145515083Y-94448632D01*
X145719459Y-94468952D01*
X145727351Y-94473180D01*
X145730000Y-94480594D01*
X145730000Y-94659405D01*
X145726573Y-94667678D01*
X145719458Y-94671048D01*
X145690421Y-94673934D01*
X145515083Y-94691367D01*
X145515081Y-94691367D01*
X145515078Y-94691368D01*
X145371850Y-94748579D01*
X145255211Y-94831303D01*
X145120781Y-94928687D01*
X145119290Y-94929605D01*
X144932630Y-95026103D01*
X144923707Y-95026858D01*
X144916864Y-95021083D01*
X144916461Y-95020219D01*
X144730871Y-94574495D01*
X144730855Y-94565544D01*
X144916457Y-94119791D01*
X144922801Y-94113471D01*
X144931755Y-94113488D01*
G37*
G04 #@! TD.AperFunction*
G04 #@! TA.AperFunction,Conductor*
G36*
X145799886Y-105661683D02*
G01*
X146710372Y-105988990D01*
X146716998Y-105995013D01*
X146717424Y-106003958D01*
X146711401Y-106010584D01*
X146710372Y-106011010D01*
X145799886Y-106338316D01*
X145790941Y-106337890D01*
X145789000Y-106336734D01*
X145685715Y-106260837D01*
X145577426Y-106197011D01*
X145577409Y-106197002D01*
X145469114Y-106148922D01*
X145469105Y-106148919D01*
X145360805Y-106116584D01*
X145262429Y-106101520D01*
X145254770Y-106096881D01*
X145252500Y-106089955D01*
X145252500Y-105910044D01*
X145255927Y-105901771D01*
X145262427Y-105898479D01*
X145335537Y-105887283D01*
X145360805Y-105883414D01*
X145387879Y-105875330D01*
X145469108Y-105851079D01*
X145577413Y-105802995D01*
X145685717Y-105739160D01*
X145789000Y-105663264D01*
X145797696Y-105661127D01*
X145799886Y-105661683D01*
G37*
G04 #@! TD.AperFunction*
G04 #@! TA.AperFunction,Conductor*
G36*
X152330554Y-100607471D02*
G01*
X152330861Y-100608145D01*
X152459119Y-100915494D01*
X152459142Y-100924449D01*
X152459119Y-100924506D01*
X152330861Y-101231854D01*
X152324512Y-101238169D01*
X152315557Y-101238146D01*
X152314883Y-101237839D01*
X152302761Y-101231854D01*
X152188739Y-101175556D01*
X152188184Y-101175243D01*
X152092998Y-101114434D01*
X152009742Y-101065088D01*
X152009735Y-101065086D01*
X151908725Y-101032051D01*
X151908727Y-101032051D01*
X151770755Y-101020871D01*
X151762786Y-101016787D01*
X151760000Y-101009209D01*
X151760000Y-100830790D01*
X151763427Y-100822517D01*
X151770753Y-100819128D01*
X151908722Y-100807948D01*
X152009737Y-100774911D01*
X152009739Y-100774909D01*
X152009741Y-100774909D01*
X152092998Y-100725564D01*
X152092997Y-100725563D01*
X152188199Y-100664746D01*
X152188725Y-100664449D01*
X152314885Y-100602159D01*
X152323819Y-100601570D01*
X152330554Y-100607471D01*
G37*
G04 #@! TD.AperFunction*
G04 #@! TA.AperFunction,Conductor*
G36*
X144931755Y-105543488D02*
G01*
X144932631Y-105543896D01*
X145119290Y-105640393D01*
X145120781Y-105641311D01*
X145255211Y-105738695D01*
X145371849Y-105821418D01*
X145371850Y-105821418D01*
X145371851Y-105821419D01*
X145515083Y-105878632D01*
X145719459Y-105898952D01*
X145727351Y-105903180D01*
X145730000Y-105910594D01*
X145730000Y-106089405D01*
X145726573Y-106097678D01*
X145719458Y-106101048D01*
X145690421Y-106103934D01*
X145515083Y-106121367D01*
X145515081Y-106121367D01*
X145515078Y-106121368D01*
X145371850Y-106178579D01*
X145255211Y-106261303D01*
X145120781Y-106358687D01*
X145119290Y-106359605D01*
X144932630Y-106456103D01*
X144923707Y-106456858D01*
X144916864Y-106451083D01*
X144916461Y-106450219D01*
X144730871Y-106004495D01*
X144730855Y-105995544D01*
X144916457Y-105549791D01*
X144922801Y-105543471D01*
X144931755Y-105543488D01*
G37*
G04 #@! TD.AperFunction*
G04 #@! TA.AperFunction,Conductor*
G36*
X150524442Y-91071853D02*
G01*
X150525102Y-91072153D01*
X150651265Y-91134445D01*
X150651807Y-91134751D01*
X150747001Y-91195564D01*
X150830256Y-91244909D01*
X150830259Y-91244909D01*
X150830261Y-91244911D01*
X150898922Y-91267366D01*
X150931273Y-91277947D01*
X150931274Y-91277947D01*
X150931277Y-91277948D01*
X151069246Y-91289128D01*
X151077214Y-91293212D01*
X151080000Y-91300790D01*
X151080000Y-91479209D01*
X151076573Y-91487482D01*
X151069245Y-91490871D01*
X150931272Y-91502051D01*
X150830263Y-91535086D01*
X150830256Y-91535088D01*
X150747001Y-91584434D01*
X150651814Y-91645243D01*
X150651254Y-91645559D01*
X150525116Y-91707839D01*
X150516181Y-91708429D01*
X150509445Y-91702528D01*
X150509138Y-91701854D01*
X150439546Y-91535088D01*
X150380879Y-91394505D01*
X150380857Y-91385551D01*
X150380880Y-91385494D01*
X150509139Y-91078143D01*
X150515487Y-91071830D01*
X150524442Y-91071853D01*
G37*
G04 #@! TD.AperFunction*
G04 #@! TA.AperFunction,Conductor*
G36*
X150524442Y-88531853D02*
G01*
X150525102Y-88532153D01*
X150651265Y-88594445D01*
X150651807Y-88594751D01*
X150747001Y-88655564D01*
X150830256Y-88704909D01*
X150830259Y-88704909D01*
X150830261Y-88704911D01*
X150898922Y-88727366D01*
X150931273Y-88737947D01*
X150931274Y-88737947D01*
X150931277Y-88737948D01*
X151069246Y-88749128D01*
X151077214Y-88753212D01*
X151080000Y-88760790D01*
X151080000Y-88939209D01*
X151076573Y-88947482D01*
X151069245Y-88950871D01*
X150931272Y-88962051D01*
X150830263Y-88995086D01*
X150830256Y-88995088D01*
X150747001Y-89044434D01*
X150651814Y-89105243D01*
X150651254Y-89105559D01*
X150525116Y-89167839D01*
X150516181Y-89168429D01*
X150509445Y-89162528D01*
X150509138Y-89161854D01*
X150439546Y-88995088D01*
X150380879Y-88854505D01*
X150380857Y-88845551D01*
X150380880Y-88845494D01*
X150509139Y-88538143D01*
X150515487Y-88531830D01*
X150524442Y-88531853D01*
G37*
G04 #@! TD.AperFunction*
G04 #@! TA.AperFunction,Conductor*
G36*
X155159707Y-103043374D02*
G01*
X155371687Y-103084746D01*
X155589771Y-103111559D01*
X155807856Y-103122623D01*
X156017477Y-103118117D01*
X156025942Y-103117936D01*
X156062448Y-103114514D01*
X156229195Y-103098889D01*
X156237750Y-103101529D01*
X156241934Y-103109446D01*
X156241861Y-103112237D01*
X156192140Y-103450941D01*
X156187548Y-103458629D01*
X156180840Y-103460939D01*
X155075486Y-103486974D01*
X155067134Y-103483743D01*
X155063613Y-103476823D01*
X155060161Y-103450941D01*
X155054436Y-103408007D01*
X155043873Y-103338038D01*
X155033309Y-103277314D01*
X155022746Y-103225836D01*
X155013790Y-103190028D01*
X155015107Y-103181173D01*
X155016863Y-103178922D01*
X155149201Y-103046584D01*
X155157473Y-103043158D01*
X155159707Y-103043374D01*
G37*
G04 #@! TD.AperFunction*
G04 #@! TA.AperFunction,Conductor*
G36*
X152330554Y-92987471D02*
G01*
X152330861Y-92988145D01*
X152459119Y-93295493D01*
X152459142Y-93304448D01*
X152459119Y-93304505D01*
X152330861Y-93611854D01*
X152324512Y-93618169D01*
X152315557Y-93618146D01*
X152314883Y-93617839D01*
X152302761Y-93611854D01*
X152188739Y-93555556D01*
X152188184Y-93555243D01*
X152092998Y-93494434D01*
X152009742Y-93445088D01*
X152009735Y-93445086D01*
X151908725Y-93412051D01*
X151908727Y-93412051D01*
X151770755Y-93400871D01*
X151762786Y-93396787D01*
X151760000Y-93389209D01*
X151760000Y-93210790D01*
X151763427Y-93202517D01*
X151770753Y-93199128D01*
X151908722Y-93187948D01*
X152009737Y-93154911D01*
X152009739Y-93154909D01*
X152009741Y-93154909D01*
X152092998Y-93105564D01*
X152092998Y-93105563D01*
X152188199Y-93044746D01*
X152188725Y-93044449D01*
X152314885Y-92982159D01*
X152323819Y-92981570D01*
X152330554Y-92987471D01*
G37*
G04 #@! TD.AperFunction*
G04 #@! TA.AperFunction,Conductor*
G36*
X144742281Y-86450640D02*
G01*
X144888773Y-86458285D01*
X144978755Y-86462981D01*
X144979469Y-86463062D01*
X145154381Y-86493969D01*
X145154756Y-86494048D01*
X145305439Y-86531000D01*
X145305438Y-86531000D01*
X145328343Y-86535047D01*
X145480879Y-86562000D01*
X145718910Y-86574421D01*
X145726993Y-86578274D01*
X145730000Y-86586105D01*
X145730000Y-87313894D01*
X145726573Y-87322167D01*
X145718910Y-87325578D01*
X145497075Y-87337154D01*
X145480879Y-87338000D01*
X145393159Y-87353499D01*
X145305438Y-87369000D01*
X145305439Y-87369000D01*
X145154756Y-87405951D01*
X145154381Y-87406030D01*
X144979469Y-87436937D01*
X144978755Y-87437018D01*
X144742285Y-87449358D01*
X144733844Y-87446367D01*
X144729991Y-87438284D01*
X144729975Y-87437697D01*
X144729973Y-87436937D01*
X144729000Y-86950000D01*
X144729975Y-86462301D01*
X144733418Y-86454035D01*
X144741698Y-86450625D01*
X144742281Y-86450640D01*
G37*
G04 #@! TD.AperFunction*
G04 #@! TA.AperFunction,Conductor*
G36*
X150524442Y-108851853D02*
G01*
X150525102Y-108852153D01*
X150651265Y-108914445D01*
X150651807Y-108914751D01*
X150747001Y-108975563D01*
X150747001Y-108975564D01*
X150830256Y-109024909D01*
X150830259Y-109024909D01*
X150830261Y-109024911D01*
X150898922Y-109047366D01*
X150931273Y-109057947D01*
X150931274Y-109057947D01*
X150931277Y-109057948D01*
X151069246Y-109069128D01*
X151077214Y-109073212D01*
X151080000Y-109080790D01*
X151080000Y-109259209D01*
X151076573Y-109267482D01*
X151069245Y-109270871D01*
X150931272Y-109282051D01*
X150830263Y-109315086D01*
X150830256Y-109315088D01*
X150747001Y-109364434D01*
X150651814Y-109425243D01*
X150651254Y-109425559D01*
X150525116Y-109487839D01*
X150516181Y-109488429D01*
X150509445Y-109482528D01*
X150509138Y-109481854D01*
X150439545Y-109315087D01*
X150380880Y-109174505D01*
X150380857Y-109165550D01*
X150380856Y-109165550D01*
X150509139Y-108858143D01*
X150515487Y-108851830D01*
X150524442Y-108851853D01*
G37*
G04 #@! TD.AperFunction*
G04 #@! TA.AperFunction,Conductor*
G36*
X156180869Y-89489005D02*
G01*
X156189037Y-89492672D01*
X156192107Y-89499035D01*
X156240785Y-89837646D01*
X156238570Y-89846323D01*
X156230869Y-89850892D01*
X156227994Y-89850948D01*
X156148021Y-89842636D01*
X156027057Y-89830063D01*
X155811193Y-89823376D01*
X155811190Y-89823376D01*
X155811188Y-89823376D01*
X155595329Y-89832440D01*
X155379474Y-89857252D01*
X155379473Y-89857252D01*
X155379470Y-89857252D01*
X155379466Y-89857253D01*
X155325768Y-89867343D01*
X155169670Y-89896676D01*
X155160906Y-89894836D01*
X155159236Y-89893450D01*
X155026635Y-89760849D01*
X155023208Y-89752576D01*
X155023446Y-89750229D01*
X155030746Y-89714581D01*
X155039309Y-89663675D01*
X155047873Y-89603679D01*
X155056436Y-89534592D01*
X155061398Y-89489293D01*
X155063824Y-89467148D01*
X155068130Y-89459300D01*
X155075794Y-89456730D01*
X156180869Y-89489005D01*
G37*
G04 #@! TD.AperFunction*
G04 #@! TA.AperFunction,Conductor*
G36*
X147689058Y-90422109D02*
G01*
X147690999Y-90423265D01*
X147794283Y-90499161D01*
X147902572Y-90562987D01*
X147902586Y-90562995D01*
X148010891Y-90611079D01*
X148065043Y-90627246D01*
X148119193Y-90643414D01*
X148158661Y-90649458D01*
X148217572Y-90658479D01*
X148225230Y-90663118D01*
X148227500Y-90670044D01*
X148227500Y-90849955D01*
X148224073Y-90858228D01*
X148217571Y-90861520D01*
X148119193Y-90876584D01*
X148010893Y-90908919D01*
X148010884Y-90908922D01*
X147902589Y-90957002D01*
X147902572Y-90957011D01*
X147794283Y-91020837D01*
X147690999Y-91096734D01*
X147682303Y-91098872D01*
X147680113Y-91098316D01*
X146769627Y-90771010D01*
X146763001Y-90764987D01*
X146762575Y-90756042D01*
X146768598Y-90749416D01*
X146769627Y-90748990D01*
X146989235Y-90670044D01*
X147680113Y-90421683D01*
X147689058Y-90422109D01*
G37*
G04 #@! TD.AperFunction*
G04 #@! TA.AperFunction,Conductor*
G36*
X150524442Y-89801853D02*
G01*
X150525102Y-89802153D01*
X150651265Y-89864445D01*
X150651807Y-89864751D01*
X150747001Y-89925564D01*
X150830256Y-89974909D01*
X150830259Y-89974909D01*
X150830261Y-89974911D01*
X150898922Y-89997366D01*
X150931273Y-90007947D01*
X150931274Y-90007947D01*
X150931277Y-90007948D01*
X151069246Y-90019128D01*
X151077214Y-90023212D01*
X151080000Y-90030790D01*
X151080000Y-90209209D01*
X151076573Y-90217482D01*
X151069245Y-90220871D01*
X150931272Y-90232051D01*
X150830263Y-90265086D01*
X150830256Y-90265088D01*
X150747001Y-90314434D01*
X150651814Y-90375243D01*
X150651254Y-90375559D01*
X150525116Y-90437839D01*
X150516181Y-90438429D01*
X150509445Y-90432528D01*
X150509138Y-90431854D01*
X150439545Y-90265087D01*
X150380880Y-90124505D01*
X150380857Y-90115550D01*
X150380856Y-90115550D01*
X150509139Y-89808143D01*
X150515487Y-89801830D01*
X150524442Y-89801853D01*
G37*
G04 #@! TD.AperFunction*
G04 #@! TA.AperFunction,Conductor*
G36*
X147622470Y-110730595D02*
G01*
X147705501Y-110753501D01*
X147835986Y-110782748D01*
X147889725Y-110792013D01*
X147966500Y-110805250D01*
X148003785Y-110809750D01*
X148096995Y-110821000D01*
X148139712Y-110823945D01*
X148216606Y-110829248D01*
X148224623Y-110833236D01*
X148227500Y-110840920D01*
X148227500Y-111319079D01*
X148224073Y-111327352D01*
X148216605Y-111330751D01*
X148096995Y-111339000D01*
X148003785Y-111350250D01*
X147966499Y-111354750D01*
X147889730Y-111367986D01*
X147835987Y-111377252D01*
X147705501Y-111406499D01*
X147578978Y-111441402D01*
X147571212Y-111440857D01*
X147110138Y-111240930D01*
X146763753Y-111090733D01*
X146757527Y-111084299D01*
X146757675Y-111075345D01*
X146763753Y-111069266D01*
X147571213Y-110719141D01*
X147578976Y-110718597D01*
X147622470Y-110730595D01*
G37*
G04 #@! TD.AperFunction*
G04 #@! TA.AperFunction,Conductor*
G36*
X145799886Y-91691683D02*
G01*
X146710372Y-92018990D01*
X146716998Y-92025013D01*
X146717424Y-92033958D01*
X146711401Y-92040584D01*
X146710372Y-92041010D01*
X145799886Y-92368316D01*
X145790941Y-92367890D01*
X145789000Y-92366734D01*
X145685715Y-92290837D01*
X145577426Y-92227011D01*
X145577409Y-92227002D01*
X145469114Y-92178922D01*
X145469105Y-92178919D01*
X145360805Y-92146584D01*
X145262429Y-92131520D01*
X145254770Y-92126881D01*
X145252500Y-92119955D01*
X145252500Y-91940044D01*
X145255927Y-91931771D01*
X145262427Y-91928479D01*
X145335537Y-91917283D01*
X145360805Y-91913414D01*
X145387879Y-91905330D01*
X145469108Y-91881079D01*
X145577413Y-91832995D01*
X145685717Y-91769160D01*
X145789000Y-91693264D01*
X145797696Y-91691127D01*
X145799886Y-91691683D01*
G37*
G04 #@! TD.AperFunction*
G04 #@! TA.AperFunction,Conductor*
G36*
X150524442Y-99961853D02*
G01*
X150525102Y-99962153D01*
X150651265Y-100024445D01*
X150651807Y-100024751D01*
X150747000Y-100085564D01*
X150747001Y-100085564D01*
X150830256Y-100134909D01*
X150830259Y-100134909D01*
X150830261Y-100134911D01*
X150898922Y-100157366D01*
X150931273Y-100167947D01*
X150931274Y-100167947D01*
X150931277Y-100167948D01*
X151069246Y-100179128D01*
X151077214Y-100183212D01*
X151080000Y-100190790D01*
X151080000Y-100369209D01*
X151076573Y-100377482D01*
X151069245Y-100380871D01*
X150931272Y-100392051D01*
X150830263Y-100425086D01*
X150830256Y-100425088D01*
X150747001Y-100474434D01*
X150651814Y-100535243D01*
X150651254Y-100535559D01*
X150525116Y-100597839D01*
X150516181Y-100598429D01*
X150509445Y-100592528D01*
X150509138Y-100591854D01*
X150439546Y-100425088D01*
X150380879Y-100284505D01*
X150380857Y-100275551D01*
X150380880Y-100275494D01*
X150509139Y-99968143D01*
X150515487Y-99961830D01*
X150524442Y-99961853D01*
G37*
G04 #@! TD.AperFunction*
G04 #@! TA.AperFunction,Conductor*
G36*
X152330552Y-96787479D02*
G01*
X152330894Y-96788223D01*
X152459119Y-97095494D01*
X152459142Y-97104449D01*
X152459119Y-97104506D01*
X152330833Y-97411921D01*
X152324484Y-97418236D01*
X152315529Y-97418213D01*
X152314917Y-97417936D01*
X152273279Y-97397679D01*
X152189606Y-97356972D01*
X152189140Y-97356717D01*
X152094001Y-97298405D01*
X152010573Y-97251868D01*
X152010571Y-97251867D01*
X152010567Y-97251865D01*
X152010564Y-97251864D01*
X151909703Y-97221112D01*
X151909693Y-97221110D01*
X151772811Y-97210814D01*
X151764819Y-97206776D01*
X151761989Y-97199147D01*
X151761989Y-97020718D01*
X151765416Y-97012445D01*
X151772665Y-97009063D01*
X151910785Y-96996943D01*
X152011184Y-96961496D01*
X152093592Y-96909242D01*
X152188119Y-96845960D01*
X152188736Y-96845601D01*
X152314847Y-96782272D01*
X152323777Y-96781623D01*
X152330552Y-96787479D01*
G37*
G04 #@! TD.AperFunction*
G04 #@! TA.AperFunction,Conductor*
G36*
X153620554Y-95527471D02*
G01*
X153620861Y-95528145D01*
X153749119Y-95835494D01*
X153749142Y-95844449D01*
X153749119Y-95844506D01*
X153620861Y-96151854D01*
X153614512Y-96158169D01*
X153605557Y-96158146D01*
X153604883Y-96157839D01*
X153592761Y-96151854D01*
X153478739Y-96095556D01*
X153478184Y-96095243D01*
X153382998Y-96034434D01*
X153299742Y-95985088D01*
X153299735Y-95985086D01*
X153198725Y-95952051D01*
X153198727Y-95952051D01*
X153060755Y-95940871D01*
X153052786Y-95936787D01*
X153050000Y-95929209D01*
X153050000Y-95750790D01*
X153053427Y-95742517D01*
X153060753Y-95739128D01*
X153198722Y-95727948D01*
X153299737Y-95694911D01*
X153299739Y-95694909D01*
X153299741Y-95694909D01*
X153382998Y-95645564D01*
X153382997Y-95645563D01*
X153478199Y-95584746D01*
X153478725Y-95584449D01*
X153604885Y-95522159D01*
X153613819Y-95521570D01*
X153620554Y-95527471D01*
G37*
G04 #@! TD.AperFunction*
G04 #@! TA.AperFunction,Conductor*
G36*
X145799886Y-101851683D02*
G01*
X146710372Y-102178990D01*
X146716998Y-102185013D01*
X146717424Y-102193958D01*
X146711401Y-102200584D01*
X146710372Y-102201010D01*
X145799886Y-102528316D01*
X145790941Y-102527890D01*
X145789000Y-102526734D01*
X145685715Y-102450837D01*
X145577426Y-102387011D01*
X145577409Y-102387002D01*
X145469114Y-102338922D01*
X145469105Y-102338919D01*
X145360805Y-102306584D01*
X145262429Y-102291520D01*
X145254770Y-102286881D01*
X145252500Y-102279955D01*
X145252500Y-102100044D01*
X145255927Y-102091771D01*
X145262427Y-102088479D01*
X145335537Y-102077283D01*
X145360805Y-102073414D01*
X145387879Y-102065330D01*
X145469108Y-102041079D01*
X145577413Y-101992995D01*
X145685717Y-101929160D01*
X145789000Y-101853264D01*
X145797696Y-101851127D01*
X145799886Y-101851683D01*
G37*
G04 #@! TD.AperFunction*
G04 #@! TA.AperFunction,Conductor*
G36*
X155129678Y-108123338D02*
G01*
X155224132Y-108141302D01*
X155347386Y-108164745D01*
X155347387Y-108164745D01*
X155571195Y-108191560D01*
X155763520Y-108201067D01*
X155794978Y-108202623D01*
X155794979Y-108202622D01*
X155794980Y-108202623D01*
X156018770Y-108197936D01*
X156018770Y-108197935D01*
X156227826Y-108178845D01*
X156236375Y-108181506D01*
X156240540Y-108189433D01*
X156240471Y-108192151D01*
X156192096Y-108530972D01*
X156187534Y-108538677D01*
X156180876Y-108541012D01*
X155074869Y-108575345D01*
X155066494Y-108572177D01*
X155063039Y-108565974D01*
X155048436Y-108493871D01*
X155031873Y-108421776D01*
X155015309Y-108359366D01*
X155015308Y-108359361D01*
X155006588Y-108331604D01*
X154998746Y-108306641D01*
X154984914Y-108270699D01*
X154985140Y-108261748D01*
X154987557Y-108258228D01*
X155119226Y-108126559D01*
X155127498Y-108123133D01*
X155129678Y-108123338D01*
G37*
G04 #@! TD.AperFunction*
G04 #@! TA.AperFunction,Conductor*
G36*
X152330554Y-109497471D02*
G01*
X152330861Y-109498145D01*
X152459119Y-109805493D01*
X152459142Y-109814448D01*
X152459119Y-109814505D01*
X152330861Y-110121854D01*
X152324512Y-110128169D01*
X152315557Y-110128146D01*
X152314883Y-110127839D01*
X152302761Y-110121854D01*
X152188739Y-110065556D01*
X152188184Y-110065243D01*
X152092998Y-110004434D01*
X152009742Y-109955088D01*
X152009735Y-109955086D01*
X151908725Y-109922051D01*
X151908727Y-109922051D01*
X151770755Y-109910871D01*
X151762786Y-109906787D01*
X151760000Y-109899209D01*
X151760000Y-109720790D01*
X151763427Y-109712517D01*
X151770753Y-109709128D01*
X151908722Y-109697948D01*
X152009737Y-109664911D01*
X152009739Y-109664909D01*
X152009741Y-109664909D01*
X152092998Y-109615564D01*
X152092997Y-109615563D01*
X152188199Y-109554746D01*
X152188725Y-109554449D01*
X152314885Y-109492159D01*
X152323819Y-109491570D01*
X152330554Y-109497471D01*
G37*
G04 #@! TD.AperFunction*
G04 #@! TA.AperFunction,Conductor*
G36*
X152330554Y-90447471D02*
G01*
X152330861Y-90448145D01*
X152459119Y-90755493D01*
X152459142Y-90764448D01*
X152459119Y-90764505D01*
X152330861Y-91071854D01*
X152324512Y-91078169D01*
X152315557Y-91078146D01*
X152314883Y-91077839D01*
X152302761Y-91071854D01*
X152188739Y-91015556D01*
X152188184Y-91015243D01*
X152092998Y-90954434D01*
X152009742Y-90905088D01*
X152009735Y-90905086D01*
X151908725Y-90872051D01*
X151908727Y-90872051D01*
X151770755Y-90860871D01*
X151762786Y-90856787D01*
X151760000Y-90849209D01*
X151760000Y-90670790D01*
X151763427Y-90662517D01*
X151770753Y-90659128D01*
X151908722Y-90647948D01*
X152009737Y-90614911D01*
X152009739Y-90614909D01*
X152009741Y-90614909D01*
X152092998Y-90565564D01*
X152092997Y-90565563D01*
X152188199Y-90504746D01*
X152188725Y-90504449D01*
X152314885Y-90442159D01*
X152323819Y-90441570D01*
X152330554Y-90447471D01*
G37*
G04 #@! TD.AperFunction*
G04 #@! TA.AperFunction,Conductor*
G36*
X145799886Y-87881683D02*
G01*
X146710372Y-88208990D01*
X146716998Y-88215013D01*
X146717424Y-88223958D01*
X146711401Y-88230584D01*
X146710372Y-88231010D01*
X145799886Y-88558316D01*
X145790941Y-88557890D01*
X145789000Y-88556734D01*
X145685715Y-88480837D01*
X145577426Y-88417011D01*
X145577409Y-88417002D01*
X145469114Y-88368922D01*
X145469105Y-88368919D01*
X145360805Y-88336584D01*
X145262429Y-88321520D01*
X145254770Y-88316881D01*
X145252500Y-88309955D01*
X145252500Y-88130044D01*
X145255927Y-88121771D01*
X145262427Y-88118479D01*
X145335537Y-88107283D01*
X145360805Y-88103414D01*
X145387879Y-88095330D01*
X145469108Y-88071079D01*
X145577413Y-88022995D01*
X145685717Y-87959160D01*
X145789000Y-87883264D01*
X145797696Y-87881127D01*
X145799886Y-87881683D01*
G37*
G04 #@! TD.AperFunction*
G04 #@! TA.AperFunction,Conductor*
G36*
X144931755Y-87763488D02*
G01*
X144932631Y-87763896D01*
X145119290Y-87860393D01*
X145120781Y-87861311D01*
X145255211Y-87958695D01*
X145371849Y-88041418D01*
X145371850Y-88041418D01*
X145371851Y-88041419D01*
X145515083Y-88098632D01*
X145719459Y-88118952D01*
X145727351Y-88123180D01*
X145730000Y-88130594D01*
X145730000Y-88309405D01*
X145726573Y-88317678D01*
X145719458Y-88321048D01*
X145690421Y-88323934D01*
X145515083Y-88341367D01*
X145515081Y-88341367D01*
X145515078Y-88341368D01*
X145371850Y-88398579D01*
X145255211Y-88481303D01*
X145120781Y-88578687D01*
X145119290Y-88579605D01*
X144932630Y-88676103D01*
X144923707Y-88676858D01*
X144916864Y-88671083D01*
X144916461Y-88670219D01*
X144730871Y-88224495D01*
X144730855Y-88215544D01*
X144916457Y-87769791D01*
X144922801Y-87763471D01*
X144931755Y-87763488D01*
G37*
G04 #@! TD.AperFunction*
G04 #@! TA.AperFunction,Conductor*
G36*
X152220803Y-110840801D02*
G01*
X152221325Y-110841290D01*
X152459330Y-111078337D01*
X152461895Y-111082178D01*
X152589542Y-111392662D01*
X152589519Y-111401617D01*
X152583296Y-111407879D01*
X152420753Y-111476940D01*
X152295394Y-111527527D01*
X152294790Y-111527733D01*
X152183852Y-111558986D01*
X152182099Y-111559338D01*
X152050749Y-111575396D01*
X152050181Y-111575438D01*
X151875539Y-111579707D01*
X151867184Y-111576483D01*
X151863556Y-111568296D01*
X151863553Y-111568010D01*
X151863553Y-111090504D01*
X151866980Y-111082231D01*
X151873995Y-111078872D01*
X151967463Y-111068781D01*
X152035232Y-111036445D01*
X152085941Y-110984969D01*
X152138562Y-110916476D01*
X152138789Y-110916201D01*
X152204292Y-110841844D01*
X152212330Y-110837903D01*
X152220803Y-110840801D01*
G37*
G04 #@! TD.AperFunction*
G04 #@! TA.AperFunction,Conductor*
G36*
X144931755Y-109353488D02*
G01*
X144932631Y-109353896D01*
X145119290Y-109450393D01*
X145120781Y-109451311D01*
X145255211Y-109548695D01*
X145371849Y-109631418D01*
X145371850Y-109631418D01*
X145371851Y-109631419D01*
X145515083Y-109688632D01*
X145719459Y-109708952D01*
X145727351Y-109713180D01*
X145730000Y-109720594D01*
X145730000Y-109899405D01*
X145726573Y-109907678D01*
X145719458Y-109911048D01*
X145690421Y-109913934D01*
X145515083Y-109931367D01*
X145515081Y-109931367D01*
X145515078Y-109931368D01*
X145371850Y-109988579D01*
X145255211Y-110071303D01*
X145120781Y-110168687D01*
X145119290Y-110169605D01*
X144932630Y-110266103D01*
X144923707Y-110266858D01*
X144916864Y-110261083D01*
X144916461Y-110260219D01*
X144730871Y-109814495D01*
X144730855Y-109805544D01*
X144916457Y-109359791D01*
X144922801Y-109353471D01*
X144931755Y-109353488D01*
G37*
G04 #@! TD.AperFunction*
G04 #@! TA.AperFunction,Conductor*
G36*
X152330554Y-105687471D02*
G01*
X152330861Y-105688145D01*
X152459119Y-105995494D01*
X152459142Y-106004449D01*
X152459119Y-106004506D01*
X152330861Y-106311854D01*
X152324512Y-106318169D01*
X152315557Y-106318146D01*
X152314883Y-106317839D01*
X152302761Y-106311854D01*
X152188739Y-106255556D01*
X152188184Y-106255243D01*
X152092998Y-106194434D01*
X152009742Y-106145088D01*
X152009735Y-106145086D01*
X151908725Y-106112051D01*
X151908727Y-106112051D01*
X151770755Y-106100871D01*
X151762786Y-106096787D01*
X151760000Y-106089209D01*
X151760000Y-105910790D01*
X151763427Y-105902517D01*
X151770753Y-105899128D01*
X151908722Y-105887948D01*
X152009737Y-105854911D01*
X152009739Y-105854909D01*
X152009741Y-105854909D01*
X152092998Y-105805564D01*
X152092997Y-105805563D01*
X152188199Y-105744746D01*
X152188725Y-105744449D01*
X152314885Y-105682159D01*
X152323819Y-105681570D01*
X152330554Y-105687471D01*
G37*
G04 #@! TD.AperFunction*
G04 #@! TA.AperFunction,Conductor*
G36*
X156180841Y-94569060D02*
G01*
X156189030Y-94572681D01*
X156192140Y-94579058D01*
X156241861Y-94917762D01*
X156239672Y-94926445D01*
X156231984Y-94931037D01*
X156229193Y-94931110D01*
X156025942Y-94912063D01*
X155938706Y-94910188D01*
X155807856Y-94907376D01*
X155807855Y-94907376D01*
X155807853Y-94907376D01*
X155774661Y-94909060D01*
X155589771Y-94918440D01*
X155371687Y-94945253D01*
X155276870Y-94963758D01*
X155159714Y-94986624D01*
X155150938Y-94984846D01*
X155149200Y-94983414D01*
X155016867Y-94851081D01*
X155013440Y-94842808D01*
X155013789Y-94839974D01*
X155022746Y-94804163D01*
X155033309Y-94752684D01*
X155043873Y-94691960D01*
X155054436Y-94621991D01*
X155063613Y-94553174D01*
X155068103Y-94545427D01*
X155075486Y-94543024D01*
X156180841Y-94569060D01*
G37*
G04 #@! TD.AperFunction*
G04 #@! TA.AperFunction,Conductor*
G36*
X155119674Y-109393328D02*
G01*
X155136770Y-109396552D01*
X155339300Y-109434746D01*
X155564997Y-109461559D01*
X155790695Y-109472623D01*
X155790697Y-109472622D01*
X155790699Y-109472623D01*
X156016400Y-109467936D01*
X156114231Y-109459077D01*
X156227383Y-109448831D01*
X156235929Y-109451497D01*
X156240088Y-109459428D01*
X156240021Y-109462122D01*
X156192082Y-109800981D01*
X156187530Y-109808692D01*
X156180888Y-109811035D01*
X155074683Y-109848045D01*
X155066300Y-109844897D01*
X155062876Y-109838917D01*
X155046436Y-109765726D01*
X155027873Y-109692928D01*
X155009309Y-109629975D01*
X155009307Y-109629969D01*
X155009304Y-109629959D01*
X154999706Y-109602502D01*
X154990746Y-109576866D01*
X154975306Y-109540883D01*
X154975194Y-109531932D01*
X154977784Y-109528001D01*
X155109234Y-109396551D01*
X155117506Y-109393125D01*
X155119674Y-109393328D01*
G37*
G04 #@! TD.AperFunction*
G04 #@! TA.AperFunction,Conductor*
G36*
X144931755Y-101733488D02*
G01*
X144932631Y-101733896D01*
X145119290Y-101830393D01*
X145120781Y-101831311D01*
X145255211Y-101928695D01*
X145371849Y-102011418D01*
X145371850Y-102011418D01*
X145371851Y-102011419D01*
X145515083Y-102068632D01*
X145719459Y-102088952D01*
X145727351Y-102093180D01*
X145730000Y-102100594D01*
X145730000Y-102279405D01*
X145726573Y-102287678D01*
X145719458Y-102291048D01*
X145690421Y-102293934D01*
X145515083Y-102311367D01*
X145515081Y-102311367D01*
X145515078Y-102311368D01*
X145371850Y-102368579D01*
X145255211Y-102451303D01*
X145120781Y-102548687D01*
X145119290Y-102549605D01*
X144932630Y-102646103D01*
X144923707Y-102646858D01*
X144916864Y-102641083D01*
X144916461Y-102640219D01*
X144730871Y-102194495D01*
X144730855Y-102185544D01*
X144916457Y-101739791D01*
X144922801Y-101733471D01*
X144931755Y-101733488D01*
G37*
G04 #@! TD.AperFunction*
G04 #@! TA.AperFunction,Conductor*
G36*
X147689058Y-104392109D02*
G01*
X147690999Y-104393265D01*
X147794283Y-104469161D01*
X147902572Y-104532987D01*
X147902586Y-104532995D01*
X148010891Y-104581079D01*
X148065043Y-104597246D01*
X148119193Y-104613414D01*
X148158661Y-104619458D01*
X148217572Y-104628479D01*
X148225230Y-104633118D01*
X148227500Y-104640044D01*
X148227500Y-104819955D01*
X148224073Y-104828228D01*
X148217571Y-104831520D01*
X148119193Y-104846584D01*
X148010893Y-104878919D01*
X148010884Y-104878922D01*
X147902589Y-104927002D01*
X147902572Y-104927011D01*
X147794283Y-104990837D01*
X147690999Y-105066734D01*
X147682303Y-105068872D01*
X147680113Y-105068316D01*
X146769627Y-104741010D01*
X146763001Y-104734987D01*
X146762575Y-104726042D01*
X146768598Y-104719416D01*
X146769627Y-104718990D01*
X146989235Y-104640044D01*
X147680113Y-104391683D01*
X147689058Y-104392109D01*
G37*
G04 #@! TD.AperFunction*
G04 #@! TA.AperFunction,Conductor*
G36*
X151822920Y-86530549D02*
G01*
X151971995Y-86537266D01*
X151972595Y-86537325D01*
X152086146Y-86554617D01*
X152086456Y-86554674D01*
X152184448Y-86575362D01*
X152184449Y-86575362D01*
X152242198Y-86584155D01*
X152298440Y-86592720D01*
X152448860Y-86599498D01*
X152456968Y-86603293D01*
X152460031Y-86611152D01*
X152460993Y-86947638D01*
X152460091Y-86952177D01*
X152330992Y-87261539D01*
X152324643Y-87267854D01*
X152315688Y-87267831D01*
X152314734Y-87267381D01*
X152199596Y-87206631D01*
X152197947Y-87205575D01*
X152113004Y-87140588D01*
X152039411Y-87084257D01*
X151999994Y-87067171D01*
X151948477Y-87044840D01*
X151948474Y-87044839D01*
X151948473Y-87044839D01*
X151821184Y-87031125D01*
X151813325Y-87026831D01*
X151810737Y-87019492D01*
X151810737Y-86542238D01*
X151814164Y-86533965D01*
X151822437Y-86530538D01*
X151822920Y-86530549D01*
G37*
G04 #@! TD.AperFunction*
G04 #@! TA.AperFunction,Conductor*
G36*
X150524442Y-103781853D02*
G01*
X150525102Y-103782153D01*
X150651265Y-103844445D01*
X150651807Y-103844751D01*
X150747001Y-103905564D01*
X150830256Y-103954909D01*
X150830259Y-103954909D01*
X150830261Y-103954911D01*
X150898922Y-103977366D01*
X150931273Y-103987947D01*
X150931274Y-103987947D01*
X150931277Y-103987948D01*
X151069246Y-103999128D01*
X151077214Y-104003212D01*
X151080000Y-104010790D01*
X151080000Y-104189209D01*
X151076573Y-104197482D01*
X151069245Y-104200871D01*
X150931272Y-104212051D01*
X150830263Y-104245086D01*
X150830256Y-104245088D01*
X150747001Y-104294434D01*
X150651814Y-104355243D01*
X150651254Y-104355559D01*
X150525116Y-104417839D01*
X150516181Y-104418429D01*
X150509445Y-104412528D01*
X150509138Y-104411854D01*
X150439546Y-104245088D01*
X150380879Y-104104505D01*
X150380857Y-104095551D01*
X150380880Y-104095494D01*
X150509139Y-103788143D01*
X150515487Y-103781830D01*
X150524442Y-103781853D01*
G37*
G04 #@! TD.AperFunction*
G04 #@! TA.AperFunction,Conductor*
G36*
X150524442Y-110131853D02*
G01*
X150525102Y-110132153D01*
X150651265Y-110194445D01*
X150651807Y-110194751D01*
X150747001Y-110255563D01*
X150747001Y-110255564D01*
X150830256Y-110304909D01*
X150830259Y-110304909D01*
X150830261Y-110304911D01*
X150898922Y-110327366D01*
X150931273Y-110337947D01*
X150931274Y-110337947D01*
X150931277Y-110337948D01*
X151069246Y-110349128D01*
X151077214Y-110353212D01*
X151080000Y-110360790D01*
X151080000Y-110539209D01*
X151076573Y-110547482D01*
X151069245Y-110550871D01*
X150931272Y-110562051D01*
X150830263Y-110595086D01*
X150830256Y-110595088D01*
X150747001Y-110644434D01*
X150651814Y-110705243D01*
X150651254Y-110705559D01*
X150525116Y-110767839D01*
X150516181Y-110768429D01*
X150509445Y-110762528D01*
X150509138Y-110761854D01*
X150439545Y-110595087D01*
X150380880Y-110454505D01*
X150380857Y-110445550D01*
X150380856Y-110445550D01*
X150509139Y-110138143D01*
X150515487Y-110131830D01*
X150524442Y-110131853D01*
G37*
G04 #@! TD.AperFunction*
G04 #@! TA.AperFunction,Conductor*
G36*
X144931755Y-106813488D02*
G01*
X144932631Y-106813896D01*
X145119290Y-106910393D01*
X145120781Y-106911311D01*
X145255211Y-107008695D01*
X145371849Y-107091418D01*
X145371850Y-107091418D01*
X145371851Y-107091419D01*
X145515083Y-107148632D01*
X145719459Y-107168952D01*
X145727351Y-107173180D01*
X145730000Y-107180594D01*
X145730000Y-107359405D01*
X145726573Y-107367678D01*
X145719458Y-107371048D01*
X145690421Y-107373934D01*
X145515083Y-107391367D01*
X145515081Y-107391367D01*
X145515078Y-107391368D01*
X145371850Y-107448579D01*
X145255211Y-107531303D01*
X145120781Y-107628687D01*
X145119290Y-107629605D01*
X144932630Y-107726103D01*
X144923707Y-107726858D01*
X144916864Y-107721083D01*
X144916461Y-107720219D01*
X144730871Y-107274495D01*
X144730855Y-107265544D01*
X144916457Y-106819791D01*
X144922801Y-106813471D01*
X144931755Y-106813488D01*
G37*
G04 #@! TD.AperFunction*
G04 #@! TA.AperFunction,Conductor*
G36*
X150524442Y-98691853D02*
G01*
X150525102Y-98692153D01*
X150651265Y-98754445D01*
X150651807Y-98754751D01*
X150747000Y-98815564D01*
X150747001Y-98815564D01*
X150830256Y-98864909D01*
X150830259Y-98864909D01*
X150830261Y-98864911D01*
X150898922Y-98887366D01*
X150931273Y-98897947D01*
X150931274Y-98897947D01*
X150931277Y-98897948D01*
X151069246Y-98909128D01*
X151077214Y-98913212D01*
X151080000Y-98920790D01*
X151080000Y-99099209D01*
X151076573Y-99107482D01*
X151069245Y-99110871D01*
X150931272Y-99122051D01*
X150830263Y-99155086D01*
X150830256Y-99155088D01*
X150747001Y-99204434D01*
X150651814Y-99265243D01*
X150651254Y-99265559D01*
X150525116Y-99327839D01*
X150516181Y-99328429D01*
X150509445Y-99322528D01*
X150509138Y-99321854D01*
X150439546Y-99155088D01*
X150380879Y-99014505D01*
X150380857Y-99005551D01*
X150380880Y-99005494D01*
X150509139Y-98698143D01*
X150515487Y-98691830D01*
X150524442Y-98691853D01*
G37*
G04 #@! TD.AperFunction*
G04 #@! TA.AperFunction,Conductor*
G36*
X150524442Y-107581853D02*
G01*
X150525102Y-107582153D01*
X150651265Y-107644445D01*
X150651807Y-107644751D01*
X150747001Y-107705564D01*
X150830256Y-107754909D01*
X150830259Y-107754909D01*
X150830261Y-107754911D01*
X150898922Y-107777366D01*
X150931273Y-107787947D01*
X150931274Y-107787947D01*
X150931277Y-107787948D01*
X151069246Y-107799128D01*
X151077214Y-107803212D01*
X151080000Y-107810790D01*
X151080000Y-107989209D01*
X151076573Y-107997482D01*
X151069245Y-108000871D01*
X150931272Y-108012051D01*
X150830263Y-108045086D01*
X150830256Y-108045088D01*
X150747001Y-108094434D01*
X150651814Y-108155243D01*
X150651254Y-108155559D01*
X150525116Y-108217839D01*
X150516181Y-108218429D01*
X150509445Y-108212528D01*
X150509138Y-108211854D01*
X150439546Y-108045088D01*
X150380879Y-107904505D01*
X150380857Y-107895551D01*
X150380880Y-107895494D01*
X150509139Y-107588143D01*
X150515487Y-107581830D01*
X150524442Y-107581853D01*
G37*
G04 #@! TD.AperFunction*
G04 #@! TA.AperFunction,Conductor*
G36*
X152330554Y-101877471D02*
G01*
X152330861Y-101878145D01*
X152459119Y-102185494D01*
X152459142Y-102194449D01*
X152459119Y-102194506D01*
X152330861Y-102501854D01*
X152324512Y-102508169D01*
X152315557Y-102508146D01*
X152314883Y-102507839D01*
X152302761Y-102501854D01*
X152188739Y-102445556D01*
X152188184Y-102445243D01*
X152092998Y-102384434D01*
X152009742Y-102335088D01*
X152009735Y-102335086D01*
X151908725Y-102302051D01*
X151908727Y-102302051D01*
X151770755Y-102290871D01*
X151762786Y-102286787D01*
X151760000Y-102279209D01*
X151760000Y-102100790D01*
X151763427Y-102092517D01*
X151770753Y-102089128D01*
X151908722Y-102077948D01*
X152009737Y-102044911D01*
X152009739Y-102044909D01*
X152009741Y-102044909D01*
X152092998Y-101995564D01*
X152092998Y-101995563D01*
X152188199Y-101934746D01*
X152188725Y-101934449D01*
X152314885Y-101872159D01*
X152323819Y-101871570D01*
X152330554Y-101877471D01*
G37*
G04 #@! TD.AperFunction*
G04 #@! TA.AperFunction,Conductor*
G36*
X145799886Y-108201683D02*
G01*
X146710372Y-108528990D01*
X146716998Y-108535013D01*
X146717424Y-108543958D01*
X146711401Y-108550584D01*
X146710372Y-108551010D01*
X145799886Y-108878316D01*
X145790941Y-108877890D01*
X145789000Y-108876734D01*
X145685715Y-108800837D01*
X145577426Y-108737011D01*
X145577409Y-108737002D01*
X145469114Y-108688922D01*
X145469105Y-108688919D01*
X145360805Y-108656584D01*
X145262429Y-108641520D01*
X145254770Y-108636881D01*
X145252500Y-108629955D01*
X145252500Y-108450044D01*
X145255927Y-108441771D01*
X145262427Y-108438479D01*
X145335537Y-108427283D01*
X145360805Y-108423414D01*
X145387879Y-108415330D01*
X145469108Y-108391079D01*
X145577413Y-108342995D01*
X145685717Y-108279160D01*
X145789000Y-108203264D01*
X145797696Y-108201127D01*
X145799886Y-108201683D01*
G37*
G04 #@! TD.AperFunction*
G04 #@! TA.AperFunction,Conductor*
G36*
X144742281Y-110580640D02*
G01*
X144888773Y-110588285D01*
X144978755Y-110592981D01*
X144979469Y-110593062D01*
X145154381Y-110623969D01*
X145154756Y-110624048D01*
X145305439Y-110661000D01*
X145305438Y-110661000D01*
X145328343Y-110665047D01*
X145480879Y-110692000D01*
X145718910Y-110704421D01*
X145726993Y-110708274D01*
X145730000Y-110716105D01*
X145730000Y-111443894D01*
X145726573Y-111452167D01*
X145718910Y-111455578D01*
X145497075Y-111467154D01*
X145480879Y-111468000D01*
X145393159Y-111483499D01*
X145305438Y-111499000D01*
X145305439Y-111499000D01*
X145154756Y-111535951D01*
X145154381Y-111536030D01*
X144979469Y-111566937D01*
X144978755Y-111567018D01*
X144742285Y-111579358D01*
X144733844Y-111576367D01*
X144729991Y-111568284D01*
X144729975Y-111567697D01*
X144729973Y-111566937D01*
X144729000Y-111080000D01*
X144729975Y-110592301D01*
X144733418Y-110584035D01*
X144741698Y-110580625D01*
X144742281Y-110580640D01*
G37*
G04 #@! TD.AperFunction*
G04 #@! TA.AperFunction,Conductor*
G36*
X145188674Y-96923713D02*
G01*
X145194999Y-96930052D01*
X145195462Y-96931399D01*
X145247825Y-97120794D01*
X145248180Y-97122657D01*
X145267027Y-97297303D01*
X145292169Y-97441110D01*
X145292170Y-97441111D01*
X145366880Y-97548768D01*
X145525519Y-97612318D01*
X145531923Y-97618575D01*
X145532642Y-97625460D01*
X145497766Y-97800805D01*
X145492791Y-97808251D01*
X145484203Y-97810035D01*
X145253980Y-97768283D01*
X145253980Y-97768282D01*
X145080954Y-97740350D01*
X145056459Y-97735375D01*
X144933279Y-97710358D01*
X144932754Y-97710226D01*
X144766934Y-97660225D01*
X144766512Y-97660080D01*
X144549808Y-97576253D01*
X144543328Y-97570072D01*
X144543117Y-97561120D01*
X144543185Y-97560948D01*
X144727166Y-97114304D01*
X144733482Y-97107962D01*
X145179722Y-96923703D01*
X145188674Y-96923713D01*
G37*
G04 #@! TD.AperFunction*
G04 #@! TA.AperFunction,Conductor*
G36*
X145799886Y-103121683D02*
G01*
X146710372Y-103448990D01*
X146716998Y-103455013D01*
X146717424Y-103463958D01*
X146711401Y-103470584D01*
X146710372Y-103471010D01*
X145799886Y-103798316D01*
X145790941Y-103797890D01*
X145789000Y-103796734D01*
X145685715Y-103720837D01*
X145577426Y-103657011D01*
X145577409Y-103657002D01*
X145469114Y-103608922D01*
X145469105Y-103608919D01*
X145360805Y-103576584D01*
X145262429Y-103561520D01*
X145254770Y-103556881D01*
X145252500Y-103549955D01*
X145252500Y-103370044D01*
X145255927Y-103361771D01*
X145262427Y-103358479D01*
X145335537Y-103347283D01*
X145360805Y-103343414D01*
X145387879Y-103335330D01*
X145469108Y-103311079D01*
X145577413Y-103262995D01*
X145685717Y-103199160D01*
X145789000Y-103123264D01*
X145797696Y-103121127D01*
X145799886Y-103121683D01*
G37*
G04 #@! TD.AperFunction*
G04 #@! TA.AperFunction,Conductor*
G36*
X145799886Y-99311683D02*
G01*
X146710372Y-99638990D01*
X146716998Y-99645013D01*
X146717424Y-99653958D01*
X146711401Y-99660584D01*
X146710372Y-99661010D01*
X145799886Y-99988316D01*
X145790941Y-99987890D01*
X145789000Y-99986734D01*
X145685715Y-99910837D01*
X145577426Y-99847011D01*
X145577409Y-99847002D01*
X145469114Y-99798922D01*
X145469105Y-99798919D01*
X145360805Y-99766584D01*
X145262429Y-99751520D01*
X145254770Y-99746881D01*
X145252500Y-99739955D01*
X145252500Y-99560044D01*
X145255927Y-99551771D01*
X145262427Y-99548479D01*
X145335537Y-99537283D01*
X145360805Y-99533414D01*
X145387879Y-99525330D01*
X145469108Y-99501079D01*
X145577413Y-99452995D01*
X145685717Y-99389160D01*
X145789000Y-99313264D01*
X145797696Y-99311127D01*
X145799886Y-99311683D01*
G37*
G04 #@! TD.AperFunction*
G04 #@! TA.AperFunction,Conductor*
G36*
X150524442Y-102501853D02*
G01*
X150525102Y-102502153D01*
X150651265Y-102564445D01*
X150651807Y-102564751D01*
X150747001Y-102625564D01*
X150830256Y-102674909D01*
X150830259Y-102674909D01*
X150830261Y-102674911D01*
X150898922Y-102697366D01*
X150931273Y-102707947D01*
X150931274Y-102707947D01*
X150931277Y-102707948D01*
X151069246Y-102719128D01*
X151077214Y-102723212D01*
X151080000Y-102730790D01*
X151080000Y-102909209D01*
X151076573Y-102917482D01*
X151069245Y-102920871D01*
X150931272Y-102932051D01*
X150830263Y-102965086D01*
X150830256Y-102965088D01*
X150747001Y-103014434D01*
X150651814Y-103075243D01*
X150651254Y-103075559D01*
X150525116Y-103137839D01*
X150516181Y-103138429D01*
X150509445Y-103132528D01*
X150509138Y-103131854D01*
X150439546Y-102965088D01*
X150380879Y-102824505D01*
X150380857Y-102815551D01*
X150380880Y-102815494D01*
X150509139Y-102508143D01*
X150515487Y-102501830D01*
X150524442Y-102501853D01*
G37*
G04 #@! TD.AperFunction*
G04 #@! TA.AperFunction,Conductor*
G36*
X145799886Y-109471683D02*
G01*
X146710372Y-109798990D01*
X146716998Y-109805013D01*
X146717424Y-109813958D01*
X146711401Y-109820584D01*
X146710372Y-109821010D01*
X145799886Y-110148316D01*
X145790941Y-110147890D01*
X145789000Y-110146734D01*
X145685715Y-110070837D01*
X145577426Y-110007011D01*
X145577409Y-110007002D01*
X145469114Y-109958922D01*
X145469105Y-109958919D01*
X145360805Y-109926584D01*
X145262429Y-109911520D01*
X145254770Y-109906881D01*
X145252500Y-109899955D01*
X145252500Y-109720044D01*
X145255927Y-109711771D01*
X145262427Y-109708479D01*
X145335537Y-109697283D01*
X145360805Y-109693414D01*
X145387879Y-109685330D01*
X145469108Y-109661079D01*
X145577413Y-109612995D01*
X145685717Y-109549160D01*
X145789000Y-109473264D01*
X145797696Y-109471127D01*
X145799886Y-109471683D01*
G37*
G04 #@! TD.AperFunction*
G04 #@! TA.AperFunction,Conductor*
G36*
X147689058Y-89152109D02*
G01*
X147690999Y-89153265D01*
X147794283Y-89229161D01*
X147902572Y-89292987D01*
X147902586Y-89292995D01*
X148010891Y-89341079D01*
X148065043Y-89357246D01*
X148119193Y-89373414D01*
X148158661Y-89379458D01*
X148217572Y-89388479D01*
X148225230Y-89393118D01*
X148227500Y-89400044D01*
X148227500Y-89579955D01*
X148224073Y-89588228D01*
X148217571Y-89591520D01*
X148119193Y-89606584D01*
X148010893Y-89638919D01*
X148010884Y-89638922D01*
X147902589Y-89687002D01*
X147902572Y-89687011D01*
X147794283Y-89750837D01*
X147690999Y-89826734D01*
X147682303Y-89828872D01*
X147680113Y-89828316D01*
X146769627Y-89501010D01*
X146763001Y-89494987D01*
X146762575Y-89486042D01*
X146768598Y-89479416D01*
X146769627Y-89478990D01*
X146989235Y-89400044D01*
X147680113Y-89151683D01*
X147689058Y-89152109D01*
G37*
G04 #@! TD.AperFunction*
G04 #@! TA.AperFunction,Conductor*
G36*
X155159707Y-100503374D02*
G01*
X155371687Y-100544746D01*
X155589771Y-100571559D01*
X155807856Y-100582623D01*
X156017477Y-100578117D01*
X156025942Y-100577936D01*
X156062448Y-100574514D01*
X156229195Y-100558889D01*
X156237750Y-100561529D01*
X156241934Y-100569446D01*
X156241861Y-100572237D01*
X156192140Y-100910941D01*
X156187548Y-100918629D01*
X156180840Y-100920939D01*
X155075486Y-100946974D01*
X155067134Y-100943743D01*
X155063613Y-100936823D01*
X155060161Y-100910941D01*
X155054436Y-100868007D01*
X155043873Y-100798038D01*
X155033309Y-100737314D01*
X155022746Y-100685836D01*
X155013790Y-100650028D01*
X155015107Y-100641173D01*
X155016863Y-100638922D01*
X155149201Y-100506584D01*
X155157473Y-100503158D01*
X155159707Y-100503374D01*
G37*
G04 #@! TD.AperFunction*
G04 #@! TA.AperFunction,Conductor*
G36*
X155139637Y-104323287D02*
G01*
X155355176Y-104362746D01*
X155355182Y-104362746D01*
X155355184Y-104362747D01*
X155355185Y-104362747D01*
X155576757Y-104387560D01*
X155798319Y-104396623D01*
X155798320Y-104396623D01*
X155798321Y-104396622D01*
X155798323Y-104396623D01*
X155931267Y-104392610D01*
X156019899Y-104389936D01*
X156069197Y-104384943D01*
X156226642Y-104369001D01*
X156235218Y-104371576D01*
X156239460Y-104379462D01*
X156239407Y-104382261D01*
X156192064Y-104720993D01*
X156187525Y-104728712D01*
X156180905Y-104731065D01*
X155075139Y-104771564D01*
X155066746Y-104768442D01*
X155063197Y-104761950D01*
X155055803Y-104720993D01*
X155050436Y-104691260D01*
X155035873Y-104620090D01*
X155021309Y-104558423D01*
X155006746Y-104506261D01*
X154994537Y-104470498D01*
X154995108Y-104461565D01*
X154997334Y-104458451D01*
X155129262Y-104326523D01*
X155137534Y-104323097D01*
X155139637Y-104323287D01*
G37*
G04 #@! TD.AperFunction*
G04 #@! TA.AperFunction,Conductor*
G36*
X147689058Y-109472109D02*
G01*
X147690999Y-109473265D01*
X147794283Y-109549161D01*
X147902572Y-109612987D01*
X147902586Y-109612995D01*
X148010891Y-109661079D01*
X148065043Y-109677246D01*
X148119193Y-109693414D01*
X148158661Y-109699458D01*
X148217572Y-109708479D01*
X148225230Y-109713118D01*
X148227500Y-109720044D01*
X148227500Y-109899955D01*
X148224073Y-109908228D01*
X148217571Y-109911520D01*
X148119193Y-109926584D01*
X148010893Y-109958919D01*
X148010884Y-109958922D01*
X147902589Y-110007002D01*
X147902572Y-110007011D01*
X147794283Y-110070837D01*
X147690999Y-110146734D01*
X147682303Y-110148872D01*
X147680113Y-110148316D01*
X146769627Y-109821009D01*
X146763001Y-109814986D01*
X146762575Y-109806041D01*
X146768598Y-109799415D01*
X146769608Y-109798996D01*
X147680113Y-109471683D01*
X147689058Y-109472109D01*
G37*
G04 #@! TD.AperFunction*
G04 #@! TA.AperFunction,Conductor*
G36*
X144931755Y-99193488D02*
G01*
X144932631Y-99193896D01*
X145119290Y-99290393D01*
X145120781Y-99291311D01*
X145255211Y-99388695D01*
X145371849Y-99471418D01*
X145371850Y-99471418D01*
X145371851Y-99471419D01*
X145515083Y-99528632D01*
X145719459Y-99548952D01*
X145727351Y-99553180D01*
X145730000Y-99560594D01*
X145730000Y-99739405D01*
X145726573Y-99747678D01*
X145719458Y-99751048D01*
X145690421Y-99753934D01*
X145515083Y-99771367D01*
X145515081Y-99771367D01*
X145515078Y-99771368D01*
X145371850Y-99828579D01*
X145255211Y-99911303D01*
X145120781Y-100008687D01*
X145119290Y-100009605D01*
X144932630Y-100106103D01*
X144923707Y-100106858D01*
X144916864Y-100101083D01*
X144916461Y-100100219D01*
X144730871Y-99654495D01*
X144730855Y-99645544D01*
X144916457Y-99199791D01*
X144922801Y-99193471D01*
X144931755Y-99193488D01*
G37*
G04 #@! TD.AperFunction*
G04 #@! TA.AperFunction,Conductor*
G36*
X147689058Y-100582109D02*
G01*
X147690999Y-100583265D01*
X147794283Y-100659161D01*
X147902572Y-100722987D01*
X147902586Y-100722995D01*
X148010891Y-100771079D01*
X148065043Y-100787246D01*
X148119193Y-100803414D01*
X148158661Y-100809458D01*
X148217572Y-100818479D01*
X148225230Y-100823118D01*
X148227500Y-100830044D01*
X148227500Y-101009955D01*
X148224073Y-101018228D01*
X148217571Y-101021520D01*
X148119193Y-101036584D01*
X148010893Y-101068919D01*
X148010884Y-101068922D01*
X147902589Y-101117002D01*
X147902572Y-101117011D01*
X147794283Y-101180837D01*
X147690999Y-101256734D01*
X147682303Y-101258872D01*
X147680113Y-101258316D01*
X146769627Y-100931009D01*
X146763001Y-100924986D01*
X146762575Y-100916041D01*
X146768598Y-100909415D01*
X146769608Y-100908996D01*
X147680113Y-100581683D01*
X147689058Y-100582109D01*
G37*
G04 #@! TD.AperFunction*
G04 #@! TA.AperFunction,Conductor*
G36*
X144931755Y-91573488D02*
G01*
X144932631Y-91573896D01*
X145119290Y-91670393D01*
X145120781Y-91671311D01*
X145255211Y-91768695D01*
X145371849Y-91851418D01*
X145371850Y-91851418D01*
X145371851Y-91851419D01*
X145515083Y-91908632D01*
X145719459Y-91928952D01*
X145727351Y-91933180D01*
X145730000Y-91940594D01*
X145730000Y-92119405D01*
X145726573Y-92127678D01*
X145719458Y-92131048D01*
X145690421Y-92133934D01*
X145515083Y-92151367D01*
X145515081Y-92151367D01*
X145515078Y-92151368D01*
X145371850Y-92208579D01*
X145255211Y-92291303D01*
X145120781Y-92388687D01*
X145119290Y-92389605D01*
X144932630Y-92486103D01*
X144923707Y-92486858D01*
X144916864Y-92481083D01*
X144916461Y-92480219D01*
X144730871Y-92034495D01*
X144730855Y-92025544D01*
X144916457Y-91579791D01*
X144922801Y-91573471D01*
X144931755Y-91573488D01*
G37*
G04 #@! TD.AperFunction*
G04 #@! TA.AperFunction,Conductor*
G36*
X152330554Y-89177471D02*
G01*
X152330861Y-89178145D01*
X152459119Y-89485494D01*
X152459142Y-89494449D01*
X152459119Y-89494506D01*
X152330861Y-89801854D01*
X152324512Y-89808169D01*
X152315557Y-89808146D01*
X152314883Y-89807839D01*
X152302761Y-89801854D01*
X152188739Y-89745556D01*
X152188184Y-89745243D01*
X152092998Y-89684434D01*
X152009742Y-89635088D01*
X152009735Y-89635086D01*
X151908725Y-89602051D01*
X151908727Y-89602051D01*
X151770755Y-89590871D01*
X151762786Y-89586787D01*
X151760000Y-89579209D01*
X151760000Y-89400790D01*
X151763427Y-89392517D01*
X151770753Y-89389128D01*
X151908722Y-89377948D01*
X152009737Y-89344911D01*
X152009739Y-89344909D01*
X152009741Y-89344909D01*
X152092998Y-89295564D01*
X152092997Y-89295564D01*
X152188199Y-89234746D01*
X152188725Y-89234449D01*
X152314885Y-89172159D01*
X152323819Y-89171570D01*
X152330554Y-89177471D01*
G37*
G04 #@! TD.AperFunction*
G04 #@! TA.AperFunction,Conductor*
G36*
X144931755Y-103003488D02*
G01*
X144932631Y-103003896D01*
X145119290Y-103100393D01*
X145120781Y-103101311D01*
X145255211Y-103198695D01*
X145371849Y-103281418D01*
X145371850Y-103281418D01*
X145371851Y-103281419D01*
X145515083Y-103338632D01*
X145719459Y-103358952D01*
X145727351Y-103363180D01*
X145730000Y-103370594D01*
X145730000Y-103549405D01*
X145726573Y-103557678D01*
X145719458Y-103561048D01*
X145690421Y-103563934D01*
X145515083Y-103581367D01*
X145515081Y-103581367D01*
X145515078Y-103581368D01*
X145371850Y-103638579D01*
X145255211Y-103721303D01*
X145120781Y-103818687D01*
X145119290Y-103819605D01*
X144932630Y-103916103D01*
X144923707Y-103916858D01*
X144916864Y-103911083D01*
X144916461Y-103910219D01*
X144730871Y-103464495D01*
X144730855Y-103455544D01*
X144916457Y-103009791D01*
X144922801Y-103003471D01*
X144931755Y-103003488D01*
G37*
G04 #@! TD.AperFunction*
G04 #@! TA.AperFunction,Conductor*
G36*
X150524442Y-87261853D02*
G01*
X150525102Y-87262153D01*
X150651265Y-87324445D01*
X150651807Y-87324751D01*
X150747001Y-87385564D01*
X150830256Y-87434909D01*
X150830259Y-87434909D01*
X150830261Y-87434911D01*
X150898922Y-87457366D01*
X150931273Y-87467947D01*
X150931274Y-87467947D01*
X150931277Y-87467948D01*
X151069246Y-87479128D01*
X151077214Y-87483212D01*
X151080000Y-87490790D01*
X151080000Y-87669209D01*
X151076573Y-87677482D01*
X151069245Y-87680871D01*
X150931272Y-87692051D01*
X150830263Y-87725086D01*
X150830256Y-87725088D01*
X150747001Y-87774434D01*
X150651814Y-87835243D01*
X150651254Y-87835559D01*
X150525116Y-87897839D01*
X150516181Y-87898429D01*
X150509445Y-87892528D01*
X150509138Y-87891854D01*
X150439545Y-87725087D01*
X150380880Y-87584505D01*
X150380857Y-87575550D01*
X150380856Y-87575550D01*
X150509139Y-87268143D01*
X150515487Y-87261830D01*
X150524442Y-87261853D01*
G37*
G04 #@! TD.AperFunction*
G04 #@! TA.AperFunction,Conductor*
G36*
X147689058Y-108202109D02*
G01*
X147690999Y-108203265D01*
X147794283Y-108279161D01*
X147902572Y-108342987D01*
X147902586Y-108342995D01*
X148010891Y-108391079D01*
X148065043Y-108407246D01*
X148119193Y-108423414D01*
X148158661Y-108429458D01*
X148217572Y-108438479D01*
X148225230Y-108443118D01*
X148227500Y-108450044D01*
X148227500Y-108629955D01*
X148224073Y-108638228D01*
X148217571Y-108641520D01*
X148119193Y-108656584D01*
X148010893Y-108688919D01*
X148010884Y-108688922D01*
X147902589Y-108737002D01*
X147902572Y-108737011D01*
X147794283Y-108800837D01*
X147690999Y-108876734D01*
X147682303Y-108878872D01*
X147680113Y-108878316D01*
X146769627Y-108551010D01*
X146763001Y-108544987D01*
X146762575Y-108536042D01*
X146768598Y-108529416D01*
X146769627Y-108528990D01*
X146989235Y-108450044D01*
X147680113Y-108201683D01*
X147689058Y-108202109D01*
G37*
G04 #@! TD.AperFunction*
G04 #@! TA.AperFunction,Conductor*
G36*
X147689058Y-106932109D02*
G01*
X147690999Y-106933265D01*
X147794283Y-107009161D01*
X147902572Y-107072987D01*
X147902586Y-107072995D01*
X148010891Y-107121079D01*
X148065043Y-107137246D01*
X148119193Y-107153414D01*
X148158661Y-107159458D01*
X148217572Y-107168479D01*
X148225230Y-107173118D01*
X148227500Y-107180044D01*
X148227500Y-107359955D01*
X148224073Y-107368228D01*
X148217571Y-107371520D01*
X148119193Y-107386584D01*
X148010893Y-107418919D01*
X148010884Y-107418922D01*
X147902589Y-107467002D01*
X147902572Y-107467011D01*
X147794283Y-107530837D01*
X147690999Y-107606734D01*
X147682303Y-107608872D01*
X147680113Y-107608316D01*
X146769627Y-107281010D01*
X146763001Y-107274987D01*
X146762575Y-107266042D01*
X146768598Y-107259416D01*
X146769627Y-107258990D01*
X146989235Y-107180044D01*
X147680113Y-106931683D01*
X147689058Y-106932109D01*
G37*
G04 #@! TD.AperFunction*
G04 #@! TA.AperFunction,Conductor*
G36*
X144931755Y-90303488D02*
G01*
X144932631Y-90303896D01*
X145119290Y-90400393D01*
X145120781Y-90401311D01*
X145255211Y-90498695D01*
X145371849Y-90581418D01*
X145371850Y-90581418D01*
X145371851Y-90581419D01*
X145515083Y-90638632D01*
X145719459Y-90658952D01*
X145727351Y-90663180D01*
X145730000Y-90670594D01*
X145730000Y-90849405D01*
X145726573Y-90857678D01*
X145719458Y-90861048D01*
X145690421Y-90863934D01*
X145515083Y-90881367D01*
X145515081Y-90881367D01*
X145515078Y-90881368D01*
X145371850Y-90938579D01*
X145255211Y-91021303D01*
X145120781Y-91118687D01*
X145119290Y-91119605D01*
X144932630Y-91216103D01*
X144923707Y-91216858D01*
X144916864Y-91211083D01*
X144916461Y-91210219D01*
X144730871Y-90764495D01*
X144730855Y-90755544D01*
X144916457Y-90309791D01*
X144922801Y-90303471D01*
X144931755Y-90303488D01*
G37*
G04 #@! TD.AperFunction*
G04 #@! TA.AperFunction,Conductor*
G36*
X145799886Y-89151683D02*
G01*
X146710372Y-89478990D01*
X146716998Y-89485013D01*
X146717424Y-89493958D01*
X146711401Y-89500584D01*
X146710372Y-89501010D01*
X145799886Y-89828316D01*
X145790941Y-89827890D01*
X145789000Y-89826734D01*
X145685715Y-89750837D01*
X145577426Y-89687011D01*
X145577409Y-89687002D01*
X145469114Y-89638922D01*
X145469105Y-89638919D01*
X145360805Y-89606584D01*
X145262429Y-89591520D01*
X145254770Y-89586881D01*
X145252500Y-89579955D01*
X145252500Y-89400044D01*
X145255927Y-89391771D01*
X145262427Y-89388479D01*
X145335537Y-89377283D01*
X145360805Y-89373414D01*
X145387879Y-89365330D01*
X145469108Y-89341079D01*
X145577413Y-89292995D01*
X145685717Y-89229160D01*
X145789000Y-89153264D01*
X145797696Y-89151127D01*
X145799886Y-89151683D01*
G37*
G04 #@! TD.AperFunction*
G04 #@! TA.AperFunction,Conductor*
G36*
X152330554Y-87907471D02*
G01*
X152330861Y-87908145D01*
X152459119Y-88215493D01*
X152459142Y-88224448D01*
X152459119Y-88224505D01*
X152330861Y-88531854D01*
X152324512Y-88538169D01*
X152315557Y-88538146D01*
X152314883Y-88537839D01*
X152302761Y-88531854D01*
X152188739Y-88475556D01*
X152188184Y-88475243D01*
X152092998Y-88414434D01*
X152009742Y-88365088D01*
X152009735Y-88365086D01*
X151908725Y-88332051D01*
X151908727Y-88332051D01*
X151770755Y-88320871D01*
X151762786Y-88316787D01*
X151760000Y-88309209D01*
X151760000Y-88130790D01*
X151763427Y-88122517D01*
X151770753Y-88119128D01*
X151908722Y-88107948D01*
X152009737Y-88074911D01*
X152009739Y-88074909D01*
X152009741Y-88074909D01*
X152092998Y-88025564D01*
X152092997Y-88025563D01*
X152188199Y-87964746D01*
X152188725Y-87964449D01*
X152314885Y-87902159D01*
X152323819Y-87901570D01*
X152330554Y-87907471D01*
G37*
G04 #@! TD.AperFunction*
G04 #@! TA.AperFunction,Conductor*
G36*
X145799886Y-95501683D02*
G01*
X146710372Y-95828990D01*
X146716998Y-95835013D01*
X146717424Y-95843958D01*
X146711401Y-95850584D01*
X146710372Y-95851010D01*
X145799886Y-96178316D01*
X145790941Y-96177890D01*
X145789000Y-96176734D01*
X145685715Y-96100837D01*
X145577426Y-96037011D01*
X145577409Y-96037002D01*
X145469114Y-95988922D01*
X145469105Y-95988919D01*
X145360805Y-95956584D01*
X145262429Y-95941520D01*
X145254770Y-95936881D01*
X145252500Y-95929955D01*
X145252500Y-95750044D01*
X145255927Y-95741771D01*
X145262427Y-95738479D01*
X145335537Y-95727283D01*
X145360805Y-95723414D01*
X145387879Y-95715330D01*
X145469108Y-95691079D01*
X145577413Y-95642995D01*
X145685717Y-95579160D01*
X145789000Y-95503264D01*
X145797696Y-95501127D01*
X145799886Y-95501683D01*
G37*
G04 #@! TD.AperFunction*
G04 #@! TA.AperFunction,Conductor*
G36*
X152330554Y-106957471D02*
G01*
X152330861Y-106958145D01*
X152459119Y-107265493D01*
X152459142Y-107274448D01*
X152459119Y-107274505D01*
X152330861Y-107581854D01*
X152324512Y-107588169D01*
X152315557Y-107588146D01*
X152314883Y-107587839D01*
X152302761Y-107581854D01*
X152188739Y-107525556D01*
X152188184Y-107525243D01*
X152092998Y-107464434D01*
X152009742Y-107415088D01*
X152009735Y-107415086D01*
X151908725Y-107382051D01*
X151908727Y-107382051D01*
X151770755Y-107370871D01*
X151762786Y-107366787D01*
X151760000Y-107359209D01*
X151760000Y-107180790D01*
X151763427Y-107172517D01*
X151770753Y-107169128D01*
X151908722Y-107157948D01*
X152009737Y-107124911D01*
X152009739Y-107124909D01*
X152009741Y-107124909D01*
X152092998Y-107075564D01*
X152092997Y-107075563D01*
X152188199Y-107014746D01*
X152188725Y-107014449D01*
X152314885Y-106952159D01*
X152323819Y-106951570D01*
X152330554Y-106957471D01*
G37*
G04 #@! TD.AperFunction*
G04 #@! TA.AperFunction,Conductor*
G36*
X147689058Y-95502109D02*
G01*
X147690999Y-95503265D01*
X147794283Y-95579161D01*
X147902572Y-95642987D01*
X147902586Y-95642995D01*
X148010891Y-95691079D01*
X148065043Y-95707246D01*
X148119193Y-95723414D01*
X148158661Y-95729458D01*
X148217572Y-95738479D01*
X148225230Y-95743118D01*
X148227500Y-95750044D01*
X148227500Y-95929955D01*
X148224073Y-95938228D01*
X148217571Y-95941520D01*
X148119193Y-95956584D01*
X148010893Y-95988919D01*
X148010884Y-95988922D01*
X147902589Y-96037002D01*
X147902572Y-96037011D01*
X147794283Y-96100837D01*
X147690999Y-96176734D01*
X147682303Y-96178872D01*
X147680113Y-96178316D01*
X146769627Y-95851010D01*
X146763001Y-95844987D01*
X146762575Y-95836042D01*
X146768598Y-95829416D01*
X146769627Y-95828990D01*
X146989235Y-95750044D01*
X147680113Y-95501683D01*
X147689058Y-95502109D01*
G37*
G04 #@! TD.AperFunction*
G04 #@! TA.AperFunction,Conductor*
G36*
X156180827Y-93299085D02*
G01*
X156189026Y-93302684D01*
X156192155Y-93309067D01*
X156242338Y-93647731D01*
X156240160Y-93656417D01*
X156232479Y-93661020D01*
X156229663Y-93661094D01*
X156101101Y-93648941D01*
X156028342Y-93642063D01*
X155812157Y-93637376D01*
X155812156Y-93637376D01*
X155812154Y-93637376D01*
X155682445Y-93644014D01*
X155595972Y-93648440D01*
X155379787Y-93675253D01*
X155342197Y-93682653D01*
X155169723Y-93716611D01*
X155160944Y-93714846D01*
X155159190Y-93713404D01*
X155026632Y-93580846D01*
X155023205Y-93572573D01*
X155023441Y-93570236D01*
X155030746Y-93534479D01*
X155039309Y-93483449D01*
X155047873Y-93423306D01*
X155056436Y-93354051D01*
X155063836Y-93286334D01*
X155068142Y-93278483D01*
X155075710Y-93275909D01*
X156180827Y-93299085D01*
G37*
G04 #@! TD.AperFunction*
G04 #@! TA.AperFunction,Conductor*
G36*
X152330554Y-91717471D02*
G01*
X152330861Y-91718145D01*
X152459119Y-92025494D01*
X152459142Y-92034449D01*
X152459119Y-92034506D01*
X152330861Y-92341854D01*
X152324512Y-92348169D01*
X152315557Y-92348146D01*
X152314883Y-92347839D01*
X152302761Y-92341854D01*
X152188739Y-92285556D01*
X152188184Y-92285243D01*
X152092998Y-92224434D01*
X152009742Y-92175088D01*
X152009735Y-92175086D01*
X151908725Y-92142051D01*
X151908727Y-92142051D01*
X151770755Y-92130871D01*
X151762786Y-92126787D01*
X151760000Y-92119209D01*
X151760000Y-91940790D01*
X151763427Y-91932517D01*
X151770753Y-91929128D01*
X151908722Y-91917948D01*
X152009737Y-91884911D01*
X152009739Y-91884909D01*
X152009741Y-91884909D01*
X152092998Y-91835564D01*
X152092998Y-91835563D01*
X152188199Y-91774746D01*
X152188725Y-91774449D01*
X152314885Y-91712159D01*
X152323819Y-91711570D01*
X152330554Y-91717471D01*
G37*
G04 #@! TD.AperFunction*
G04 #@! TA.AperFunction,Conductor*
G36*
X152330554Y-99337471D02*
G01*
X152330861Y-99338145D01*
X152459119Y-99645494D01*
X152459142Y-99654449D01*
X152459119Y-99654506D01*
X152330861Y-99961854D01*
X152324512Y-99968169D01*
X152315557Y-99968146D01*
X152314883Y-99967839D01*
X152302761Y-99961854D01*
X152188739Y-99905556D01*
X152188184Y-99905243D01*
X152092998Y-99844434D01*
X152009742Y-99795088D01*
X152009735Y-99795086D01*
X151908725Y-99762051D01*
X151908727Y-99762051D01*
X151770755Y-99750871D01*
X151762786Y-99746787D01*
X151760000Y-99739209D01*
X151760000Y-99560790D01*
X151763427Y-99552517D01*
X151770753Y-99549128D01*
X151908722Y-99537948D01*
X152009737Y-99504911D01*
X152009739Y-99504909D01*
X152009741Y-99504909D01*
X152092998Y-99455564D01*
X152092997Y-99455564D01*
X152188199Y-99394746D01*
X152188725Y-99394449D01*
X152314885Y-99332159D01*
X152323819Y-99331570D01*
X152330554Y-99337471D01*
G37*
G04 #@! TD.AperFunction*
G04 #@! TA.AperFunction,Conductor*
G36*
X150524442Y-105041853D02*
G01*
X150525102Y-105042153D01*
X150651265Y-105104445D01*
X150651807Y-105104751D01*
X150747001Y-105165564D01*
X150830256Y-105214909D01*
X150830259Y-105214909D01*
X150830261Y-105214911D01*
X150898922Y-105237366D01*
X150931273Y-105247947D01*
X150931274Y-105247947D01*
X150931277Y-105247948D01*
X151069246Y-105259128D01*
X151077214Y-105263212D01*
X151080000Y-105270790D01*
X151080000Y-105449209D01*
X151076573Y-105457482D01*
X151069245Y-105460871D01*
X150931272Y-105472051D01*
X150830263Y-105505086D01*
X150830256Y-105505088D01*
X150747001Y-105554434D01*
X150651814Y-105615243D01*
X150651254Y-105615559D01*
X150525116Y-105677839D01*
X150516181Y-105678429D01*
X150509445Y-105672528D01*
X150509138Y-105671854D01*
X150439546Y-105505088D01*
X150380879Y-105364505D01*
X150380857Y-105355551D01*
X150380880Y-105355494D01*
X150509139Y-105048143D01*
X150515487Y-105041830D01*
X150524442Y-105041853D01*
G37*
G04 #@! TD.AperFunction*
G04 #@! TA.AperFunction,Conductor*
G36*
X155159707Y-101773374D02*
G01*
X155371687Y-101814746D01*
X155589771Y-101841559D01*
X155807856Y-101852623D01*
X156017477Y-101848117D01*
X156025942Y-101847936D01*
X156062448Y-101844514D01*
X156229195Y-101828889D01*
X156237750Y-101831529D01*
X156241934Y-101839446D01*
X156241861Y-101842237D01*
X156192140Y-102180941D01*
X156187548Y-102188629D01*
X156180840Y-102190939D01*
X155075486Y-102216974D01*
X155067134Y-102213743D01*
X155063613Y-102206823D01*
X155060161Y-102180941D01*
X155054436Y-102138007D01*
X155043873Y-102068038D01*
X155033309Y-102007314D01*
X155022746Y-101955836D01*
X155013790Y-101920028D01*
X155015107Y-101911173D01*
X155016863Y-101908922D01*
X155149201Y-101776584D01*
X155157473Y-101773158D01*
X155159707Y-101773374D01*
G37*
G04 #@! TD.AperFunction*
G04 #@! TA.AperFunction,Conductor*
G36*
X156180773Y-97109193D02*
G01*
X156189011Y-97112703D01*
X156192219Y-97119111D01*
X156244379Y-97457787D01*
X156242251Y-97466485D01*
X156234596Y-97471132D01*
X156231814Y-97471225D01*
X156032036Y-97454063D01*
X155817437Y-97451376D01*
X155817435Y-97451376D01*
X155817428Y-97451376D01*
X155602819Y-97464440D01*
X155388211Y-97493253D01*
X155325378Y-97506300D01*
X155179787Y-97536532D01*
X155170990Y-97534858D01*
X155169135Y-97533349D01*
X155036394Y-97400608D01*
X155032967Y-97392335D01*
X155033109Y-97390515D01*
X155038746Y-97354723D01*
X155045309Y-97304043D01*
X155051873Y-97244357D01*
X155058436Y-97175664D01*
X155064085Y-97108785D01*
X155068195Y-97100832D01*
X155075860Y-97098073D01*
X156180773Y-97109193D01*
G37*
G04 #@! TD.AperFunction*
G04 #@! TA.AperFunction,Conductor*
G36*
X147689058Y-101852109D02*
G01*
X147690999Y-101853265D01*
X147794283Y-101929161D01*
X147902572Y-101992987D01*
X147902586Y-101992995D01*
X148010891Y-102041079D01*
X148065043Y-102057246D01*
X148119193Y-102073414D01*
X148158661Y-102079458D01*
X148217572Y-102088479D01*
X148225230Y-102093118D01*
X148227500Y-102100044D01*
X148227500Y-102279955D01*
X148224073Y-102288228D01*
X148217571Y-102291520D01*
X148119193Y-102306584D01*
X148010893Y-102338919D01*
X148010884Y-102338922D01*
X147902589Y-102387002D01*
X147902572Y-102387011D01*
X147794283Y-102450837D01*
X147690999Y-102526734D01*
X147682303Y-102528872D01*
X147680113Y-102528316D01*
X146769627Y-102201010D01*
X146763001Y-102194987D01*
X146762575Y-102186042D01*
X146768598Y-102179416D01*
X146769627Y-102178990D01*
X146989235Y-102100044D01*
X147680113Y-101851683D01*
X147689058Y-101852109D01*
G37*
G04 #@! TD.AperFunction*
G04 #@! TA.AperFunction,Conductor*
G36*
X152330554Y-108227471D02*
G01*
X152330861Y-108228145D01*
X152459119Y-108535494D01*
X152459142Y-108544449D01*
X152459119Y-108544506D01*
X152330861Y-108851854D01*
X152324512Y-108858169D01*
X152315557Y-108858146D01*
X152314883Y-108857839D01*
X152302761Y-108851854D01*
X152188739Y-108795556D01*
X152188184Y-108795243D01*
X152092998Y-108734434D01*
X152009742Y-108685088D01*
X152009735Y-108685086D01*
X151908725Y-108652051D01*
X151908727Y-108652051D01*
X151770755Y-108640871D01*
X151762786Y-108636787D01*
X151760000Y-108629209D01*
X151760000Y-108450790D01*
X151763427Y-108442517D01*
X151770753Y-108439128D01*
X151908722Y-108427948D01*
X152009737Y-108394911D01*
X152009739Y-108394909D01*
X152009741Y-108394909D01*
X152092998Y-108345564D01*
X152092997Y-108345564D01*
X152188199Y-108284746D01*
X152188725Y-108284449D01*
X152314885Y-108222159D01*
X152323819Y-108221570D01*
X152330554Y-108227471D01*
G37*
G04 #@! TD.AperFunction*
M02*
