G04 #@! TF.GenerationSoftware,KiCad,Pcbnew,7.0.6-0*
G04 #@! TF.CreationDate,2023-09-15T02:22:18-04:00*
G04 #@! TF.ProjectId,RAM Module,52414d20-4d6f-4647-956c-652e6b696361,1*
G04 #@! TF.SameCoordinates,Original*
G04 #@! TF.FileFunction,Legend,Bot*
G04 #@! TF.FilePolarity,Positive*
%FSLAX46Y46*%
G04 Gerber Fmt 4.6, Leading zero omitted, Abs format (unit mm)*
G04 Created by KiCad (PCBNEW 7.0.6-0) date 2023-09-15 02:22:18*
%MOMM*%
%LPD*%
G01*
G04 APERTURE LIST*
G04 Aperture macros list*
%AMRoundRect*
0 Rectangle with rounded corners*
0 $1 Rounding radius*
0 $2 $3 $4 $5 $6 $7 $8 $9 X,Y pos of 4 corners*
0 Add a 4 corners polygon primitive as box body*
4,1,4,$2,$3,$4,$5,$6,$7,$8,$9,$2,$3,0*
0 Add four circle primitives for the rounded corners*
1,1,$1+$1,$2,$3*
1,1,$1+$1,$4,$5*
1,1,$1+$1,$6,$7*
1,1,$1+$1,$8,$9*
0 Add four rect primitives between the rounded corners*
20,1,$1+$1,$2,$3,$4,$5,0*
20,1,$1+$1,$4,$5,$6,$7,0*
20,1,$1+$1,$6,$7,$8,$9,0*
20,1,$1+$1,$8,$9,$2,$3,0*%
G04 Aperture macros list end*
%ADD10C,0.127000*%
%ADD11C,0.200000*%
%ADD12C,0.300000*%
%ADD13C,1.076000*%
%ADD14RoundRect,0.328000X-0.835000X-0.072500X0.835000X-0.072500X0.835000X0.072500X-0.835000X0.072500X0*%
G04 APERTURE END LIST*
D10*
G36*
X150627076Y-87734702D02*
G01*
X150648159Y-87738926D01*
X150667422Y-87745967D01*
X150684864Y-87755825D01*
X150700486Y-87768499D01*
X150705289Y-87773349D01*
X150717906Y-87789612D01*
X150727912Y-87808726D01*
X150735308Y-87830691D01*
X150739477Y-87851172D01*
X150741834Y-87873634D01*
X150742414Y-87893028D01*
X150742414Y-88440132D01*
X150741507Y-88464189D01*
X150738788Y-88486290D01*
X150734256Y-88506435D01*
X150726425Y-88528028D01*
X150715984Y-88546804D01*
X150705289Y-88560300D01*
X150690274Y-88573746D01*
X150673438Y-88584411D01*
X150654782Y-88592293D01*
X150634306Y-88597394D01*
X150612009Y-88599712D01*
X150604172Y-88599867D01*
X150581120Y-88598476D01*
X150559957Y-88594303D01*
X150540683Y-88587348D01*
X150523297Y-88577610D01*
X150507801Y-88565091D01*
X150503056Y-88560300D01*
X150490273Y-88543870D01*
X150480135Y-88524625D01*
X150472642Y-88502563D01*
X150468418Y-88482026D01*
X150466030Y-88459534D01*
X150465442Y-88440132D01*
X150465442Y-87893028D01*
X150466361Y-87868983D01*
X150469116Y-87846918D01*
X150473707Y-87826832D01*
X150481641Y-87805343D01*
X150492220Y-87786704D01*
X150503056Y-87773349D01*
X150517922Y-87759736D01*
X150534678Y-87748940D01*
X150553322Y-87740960D01*
X150573856Y-87735797D01*
X150596278Y-87733450D01*
X150604172Y-87733293D01*
X150627076Y-87734702D01*
G37*
G36*
X152803768Y-87734702D02*
G01*
X152824851Y-87738926D01*
X152844114Y-87745967D01*
X152861556Y-87755825D01*
X152877178Y-87768499D01*
X152881981Y-87773349D01*
X152894598Y-87789612D01*
X152904604Y-87808726D01*
X152912000Y-87830691D01*
X152916169Y-87851172D01*
X152918526Y-87873634D01*
X152919106Y-87893028D01*
X152919106Y-88440132D01*
X152918200Y-88464189D01*
X152915481Y-88486290D01*
X152910949Y-88506435D01*
X152903118Y-88528028D01*
X152892676Y-88546804D01*
X152881981Y-88560300D01*
X152866966Y-88573746D01*
X152850130Y-88584411D01*
X152831474Y-88592293D01*
X152810998Y-88597394D01*
X152788701Y-88599712D01*
X152780865Y-88599867D01*
X152757812Y-88598476D01*
X152736649Y-88594303D01*
X152717375Y-88587348D01*
X152699990Y-88577610D01*
X152684494Y-88565091D01*
X152679748Y-88560300D01*
X152666965Y-88543870D01*
X152656827Y-88524625D01*
X152649334Y-88502563D01*
X152645110Y-88482026D01*
X152642722Y-88459534D01*
X152642135Y-88440132D01*
X152642135Y-87893028D01*
X152643053Y-87868983D01*
X152645808Y-87846918D01*
X152650399Y-87826832D01*
X152658333Y-87805343D01*
X152668912Y-87786704D01*
X152679748Y-87773349D01*
X152694614Y-87759736D01*
X152711370Y-87748940D01*
X152730014Y-87740960D01*
X152750548Y-87735797D01*
X152772971Y-87733450D01*
X152780865Y-87733293D01*
X152803768Y-87734702D01*
G37*
G36*
X154079748Y-88584235D02*
G01*
X153957627Y-88584235D01*
X153936606Y-88583831D01*
X153916777Y-88582617D01*
X153893665Y-88579963D01*
X153872413Y-88576044D01*
X153853021Y-88570861D01*
X153832207Y-88562972D01*
X153822805Y-88558346D01*
X153805477Y-88547950D01*
X153789763Y-88536181D01*
X153773471Y-88520713D01*
X153759376Y-88503376D01*
X153749043Y-88487027D01*
X153740554Y-88469207D01*
X153733404Y-88450184D01*
X153727594Y-88429960D01*
X153723123Y-88408533D01*
X153719992Y-88385904D01*
X153719246Y-88378094D01*
X153717557Y-88358128D01*
X153716154Y-88337613D01*
X153715038Y-88316550D01*
X153714208Y-88294937D01*
X153713664Y-88272777D01*
X153713407Y-88250067D01*
X153713384Y-88240830D01*
X153713587Y-88217200D01*
X153714195Y-88194548D01*
X153715208Y-88172874D01*
X153716628Y-88152177D01*
X153718452Y-88132459D01*
X153721177Y-88110088D01*
X153721688Y-88106496D01*
X153725386Y-88085648D01*
X153730252Y-88065967D01*
X153737404Y-88044483D01*
X153746147Y-88024587D01*
X153754905Y-88008799D01*
X153768022Y-87992494D01*
X153783008Y-87978198D01*
X153799865Y-87965913D01*
X153818591Y-87955638D01*
X153830132Y-87950669D01*
X153848799Y-87944361D01*
X153869630Y-87939358D01*
X153892626Y-87935660D01*
X153913441Y-87933575D01*
X153935759Y-87932397D01*
X153954696Y-87932107D01*
X154079748Y-87932107D01*
X154079748Y-88584235D01*
G37*
G36*
X154079748Y-87682002D02*
G01*
X153952253Y-87682002D01*
X153926425Y-87681401D01*
X153902245Y-87679598D01*
X153879713Y-87676593D01*
X153858830Y-87672385D01*
X153839596Y-87666976D01*
X153816515Y-87657893D01*
X153796365Y-87646673D01*
X153779146Y-87633316D01*
X153764858Y-87617822D01*
X153761744Y-87613614D01*
X153750409Y-87595411D01*
X153740586Y-87575238D01*
X153732274Y-87553095D01*
X153725474Y-87528984D01*
X153721365Y-87509608D01*
X153718106Y-87489125D01*
X153715698Y-87467534D01*
X153714139Y-87444835D01*
X153713431Y-87421028D01*
X153713384Y-87412847D01*
X153713860Y-87389321D01*
X153715290Y-87366919D01*
X153717673Y-87345643D01*
X153721009Y-87325492D01*
X153726939Y-87300373D01*
X153734564Y-87277254D01*
X153743884Y-87256134D01*
X153754897Y-87237015D01*
X153767606Y-87219895D01*
X153782413Y-87204668D01*
X153799968Y-87191471D01*
X153820271Y-87180305D01*
X153843321Y-87171168D01*
X153862412Y-87165649D01*
X153883049Y-87161271D01*
X153905231Y-87158035D01*
X153928959Y-87155941D01*
X153954232Y-87154990D01*
X153963000Y-87154926D01*
X154079748Y-87154926D01*
X154079748Y-87682002D01*
G37*
G36*
X154651226Y-89171345D02*
G01*
X148264376Y-89171345D01*
X148264376Y-88870000D01*
X148550090Y-88870000D01*
X148835854Y-88870000D01*
X148835854Y-87898890D01*
X148836725Y-87875582D01*
X148839336Y-87853896D01*
X148843689Y-87833832D01*
X148851211Y-87811896D01*
X148861241Y-87792295D01*
X148871514Y-87777745D01*
X148885951Y-87762639D01*
X148902517Y-87750657D01*
X148921213Y-87741802D01*
X148942039Y-87736072D01*
X148964994Y-87733467D01*
X148973119Y-87733293D01*
X148996796Y-87734510D01*
X149018065Y-87738159D01*
X149036925Y-87744241D01*
X149056376Y-87754751D01*
X149072359Y-87768765D01*
X149083028Y-87783119D01*
X149093154Y-87803200D01*
X149099993Y-87822348D01*
X149105376Y-87843691D01*
X149109304Y-87867228D01*
X149111400Y-87887638D01*
X149112564Y-87909452D01*
X149112825Y-87926734D01*
X149112825Y-88870000D01*
X149398590Y-88870000D01*
X149398590Y-87898890D01*
X149399460Y-87875582D01*
X149402072Y-87853896D01*
X149406425Y-87833832D01*
X149413947Y-87811896D01*
X149423976Y-87792295D01*
X149434249Y-87777745D01*
X149448669Y-87762639D01*
X149465184Y-87750657D01*
X149483794Y-87741802D01*
X149504499Y-87736072D01*
X149527300Y-87733467D01*
X149535366Y-87733293D01*
X149559043Y-87734510D01*
X149580312Y-87738159D01*
X149599172Y-87744241D01*
X149618623Y-87754751D01*
X149634606Y-87768765D01*
X149645275Y-87783119D01*
X149655567Y-87803200D01*
X149662518Y-87822348D01*
X149667989Y-87843691D01*
X149671982Y-87867228D01*
X149674112Y-87887638D01*
X149675295Y-87909452D01*
X149675561Y-87926734D01*
X149675561Y-88870000D01*
X149961325Y-88870000D01*
X149961325Y-88398611D01*
X150179678Y-88398611D01*
X150179854Y-88419661D01*
X150180375Y-88440132D01*
X150180380Y-88440315D01*
X150181258Y-88460572D01*
X150182487Y-88480432D01*
X150184517Y-88504699D01*
X150187095Y-88528346D01*
X150190222Y-88551372D01*
X150190913Y-88555903D01*
X150194901Y-88578090D01*
X150199844Y-88599466D01*
X150205740Y-88620031D01*
X150212590Y-88639785D01*
X150220394Y-88658728D01*
X150229153Y-88676861D01*
X150232923Y-88683886D01*
X150246067Y-88706158D01*
X150260584Y-88727301D01*
X150276475Y-88747313D01*
X150293740Y-88766196D01*
X150312378Y-88783950D01*
X150332391Y-88800573D01*
X150348302Y-88812300D01*
X150364986Y-88823391D01*
X150376538Y-88830432D01*
X150394393Y-88840297D01*
X150412968Y-88849191D01*
X150432265Y-88857115D01*
X150452284Y-88864069D01*
X150473023Y-88870052D01*
X150494484Y-88875066D01*
X150516667Y-88879109D01*
X150539570Y-88882181D01*
X150563195Y-88884283D01*
X150587541Y-88885415D01*
X150604172Y-88885631D01*
X150628916Y-88885146D01*
X150652956Y-88883690D01*
X150676292Y-88881265D01*
X150698923Y-88877869D01*
X150720851Y-88873502D01*
X150734780Y-88870000D01*
X151129783Y-88870000D01*
X151242623Y-88870000D01*
X151265590Y-88869526D01*
X151287594Y-88868107D01*
X151308637Y-88865741D01*
X151328719Y-88862428D01*
X151347838Y-88858169D01*
X151370386Y-88851514D01*
X151391430Y-88843381D01*
X151399427Y-88839713D01*
X151418358Y-88829691D01*
X151436073Y-88818857D01*
X151452571Y-88807213D01*
X151467853Y-88794757D01*
X151484586Y-88778740D01*
X151499567Y-88761556D01*
X151512968Y-88743358D01*
X151524960Y-88724301D01*
X151535545Y-88704386D01*
X151544721Y-88683612D01*
X151552489Y-88661979D01*
X151554765Y-88654577D01*
X151560576Y-88632200D01*
X151565184Y-88610133D01*
X151568590Y-88588374D01*
X151570794Y-88566925D01*
X151571796Y-88545784D01*
X151571862Y-88538806D01*
X151571862Y-87682002D01*
X151700334Y-87682002D01*
X151723782Y-87682002D01*
X151856650Y-87682002D01*
X151856650Y-88447948D01*
X151856229Y-88468481D01*
X151854718Y-88489371D01*
X151851704Y-88509589D01*
X151847857Y-88524640D01*
X151839751Y-88542935D01*
X151827559Y-88558569D01*
X151819525Y-88565184D01*
X151801882Y-88574524D01*
X151781497Y-88580316D01*
X151771165Y-88581793D01*
X151750012Y-88583184D01*
X151730216Y-88583892D01*
X151708178Y-88584214D01*
X151700334Y-88584235D01*
X151700334Y-88870000D01*
X151813174Y-88870000D01*
X151836141Y-88869526D01*
X151858146Y-88868107D01*
X151879189Y-88865741D01*
X151899270Y-88862428D01*
X151918390Y-88858169D01*
X151940937Y-88851514D01*
X151961981Y-88843381D01*
X151969978Y-88839713D01*
X151988910Y-88829691D01*
X152006624Y-88818857D01*
X152023123Y-88807213D01*
X152038404Y-88794757D01*
X152055137Y-88778740D01*
X152070118Y-88761556D01*
X152083519Y-88743358D01*
X152095512Y-88724301D01*
X152106096Y-88704386D01*
X152115272Y-88683612D01*
X152123040Y-88661979D01*
X152125317Y-88654577D01*
X152131127Y-88632200D01*
X152135735Y-88610133D01*
X152139141Y-88588374D01*
X152141345Y-88566925D01*
X152142347Y-88545784D01*
X152142414Y-88538806D01*
X152142414Y-88398611D01*
X152356371Y-88398611D01*
X152356546Y-88419661D01*
X152357068Y-88440132D01*
X152357073Y-88440315D01*
X152357950Y-88460572D01*
X152359179Y-88480432D01*
X152361209Y-88504699D01*
X152363787Y-88528346D01*
X152366914Y-88551372D01*
X152367606Y-88555903D01*
X152371594Y-88578090D01*
X152376536Y-88599466D01*
X152382432Y-88620031D01*
X152389282Y-88639785D01*
X152397087Y-88658728D01*
X152405845Y-88676861D01*
X152409615Y-88683886D01*
X152422759Y-88706158D01*
X152437276Y-88727301D01*
X152453167Y-88747313D01*
X152470432Y-88766196D01*
X152489071Y-88783950D01*
X152509083Y-88800573D01*
X152524994Y-88812300D01*
X152541678Y-88823391D01*
X152553230Y-88830432D01*
X152571085Y-88840297D01*
X152589661Y-88849191D01*
X152608958Y-88857115D01*
X152628976Y-88864069D01*
X152649716Y-88870052D01*
X152671177Y-88875066D01*
X152693359Y-88879109D01*
X152716262Y-88882181D01*
X152739887Y-88884283D01*
X152764233Y-88885415D01*
X152780865Y-88885631D01*
X152805608Y-88885146D01*
X152829648Y-88883690D01*
X152852984Y-88881265D01*
X152875616Y-88877869D01*
X152897543Y-88873502D01*
X152918766Y-88868166D01*
X152939286Y-88861859D01*
X152959101Y-88854582D01*
X152978212Y-88846334D01*
X152996619Y-88837116D01*
X153008499Y-88830432D01*
X153025611Y-88819765D01*
X153041958Y-88808462D01*
X153057542Y-88796523D01*
X153077131Y-88779617D01*
X153095361Y-88761581D01*
X153112233Y-88742416D01*
X153127746Y-88722121D01*
X153141901Y-88700696D01*
X153151625Y-88683886D01*
X153160765Y-88666079D01*
X153168951Y-88647460D01*
X153176183Y-88628030D01*
X153182461Y-88607790D01*
X153187785Y-88586738D01*
X153192154Y-88564875D01*
X153193635Y-88555903D01*
X153196872Y-88533001D01*
X153199560Y-88509478D01*
X153201699Y-88485335D01*
X153203016Y-88465574D01*
X153203981Y-88445417D01*
X153204596Y-88424862D01*
X153204859Y-88403911D01*
X153204870Y-88398611D01*
X153204870Y-88320453D01*
X153427620Y-88320453D01*
X153428125Y-88353245D01*
X153429642Y-88385063D01*
X153432171Y-88415908D01*
X153435710Y-88445780D01*
X153440261Y-88474679D01*
X153445823Y-88502605D01*
X153452397Y-88529557D01*
X153459982Y-88555537D01*
X153468578Y-88580543D01*
X153478186Y-88604576D01*
X153488804Y-88627636D01*
X153500435Y-88649723D01*
X153513076Y-88670837D01*
X153526729Y-88690977D01*
X153541393Y-88710144D01*
X153557068Y-88728339D01*
X153573852Y-88745493D01*
X153591842Y-88761540D01*
X153611038Y-88776481D01*
X153631440Y-88790315D01*
X153653048Y-88803043D01*
X153675862Y-88814663D01*
X153699882Y-88825177D01*
X153725107Y-88834584D01*
X153751539Y-88842885D01*
X153779177Y-88850078D01*
X153808020Y-88856165D01*
X153838070Y-88861146D01*
X153869325Y-88865019D01*
X153901787Y-88867786D01*
X153935454Y-88869446D01*
X153970327Y-88870000D01*
X154365512Y-88870000D01*
X154365512Y-86869162D01*
X153941995Y-86869162D01*
X153916252Y-86869531D01*
X153891231Y-86870639D01*
X153866930Y-86872485D01*
X153843351Y-86875070D01*
X153820494Y-86878393D01*
X153798357Y-86882454D01*
X153776942Y-86887254D01*
X153756248Y-86892793D01*
X153736276Y-86899069D01*
X153717025Y-86906085D01*
X153704591Y-86911172D01*
X153686495Y-86919202D01*
X153663341Y-86930670D01*
X153641302Y-86943008D01*
X153620377Y-86956216D01*
X153600567Y-86970294D01*
X153581871Y-86985243D01*
X153564289Y-87001061D01*
X153547822Y-87017750D01*
X153543879Y-87022058D01*
X153528919Y-87039842D01*
X153515059Y-87058267D01*
X153502297Y-87077333D01*
X153490634Y-87097041D01*
X153480071Y-87117389D01*
X153470606Y-87138379D01*
X153462241Y-87160010D01*
X153454975Y-87182281D01*
X153448563Y-87204981D01*
X153443007Y-87227894D01*
X153438305Y-87251021D01*
X153434458Y-87274361D01*
X153431466Y-87297915D01*
X153429329Y-87321683D01*
X153428047Y-87345665D01*
X153427620Y-87369860D01*
X153427620Y-87412847D01*
X153427620Y-87442644D01*
X153427833Y-87462405D01*
X153428702Y-87486011D01*
X153430238Y-87508401D01*
X153432442Y-87529574D01*
X153435313Y-87549531D01*
X153439641Y-87571874D01*
X153441297Y-87578932D01*
X153446707Y-87599334D01*
X153453044Y-87618774D01*
X153460308Y-87637252D01*
X153469955Y-87657595D01*
X153480865Y-87676629D01*
X153494405Y-87695703D01*
X153509624Y-87714090D01*
X153526523Y-87731790D01*
X153545100Y-87748803D01*
X153565357Y-87765129D01*
X153581652Y-87776923D01*
X153598891Y-87788330D01*
X153617075Y-87799351D01*
X153636203Y-87809986D01*
X153616555Y-87819448D01*
X153597912Y-87829701D01*
X153580274Y-87840743D01*
X153563640Y-87852575D01*
X153548011Y-87865198D01*
X153533386Y-87878610D01*
X153519766Y-87892812D01*
X153507151Y-87907805D01*
X153495541Y-87923587D01*
X153484935Y-87940159D01*
X153478422Y-87951646D01*
X153469343Y-87969741D01*
X153461157Y-87989038D01*
X153453864Y-88009538D01*
X153447464Y-88031239D01*
X153441957Y-88054143D01*
X153437344Y-88078248D01*
X153433623Y-88103556D01*
X153430795Y-88130066D01*
X153428860Y-88157778D01*
X153427818Y-88186692D01*
X153427620Y-88206636D01*
X153427620Y-88240830D01*
X153427620Y-88320453D01*
X153204870Y-88320453D01*
X153204870Y-87935038D01*
X153204695Y-87913766D01*
X153204168Y-87892937D01*
X153203290Y-87872550D01*
X153202061Y-87852606D01*
X153200481Y-87833105D01*
X153198013Y-87809351D01*
X153194995Y-87786288D01*
X153193635Y-87777257D01*
X153189647Y-87755211D01*
X153184705Y-87733952D01*
X153178809Y-87713480D01*
X153171958Y-87693795D01*
X153164154Y-87674897D01*
X153155396Y-87656786D01*
X153151625Y-87649762D01*
X153138490Y-87627490D01*
X153123995Y-87606348D01*
X153108142Y-87586335D01*
X153090931Y-87567452D01*
X153072361Y-87549699D01*
X153052432Y-87533075D01*
X153036594Y-87521349D01*
X153019992Y-87510258D01*
X153008499Y-87503217D01*
X152990561Y-87493265D01*
X152971920Y-87484292D01*
X152952574Y-87476297D01*
X152932524Y-87469282D01*
X152911770Y-87463246D01*
X152890312Y-87458188D01*
X152868150Y-87454109D01*
X152845284Y-87451010D01*
X152821713Y-87448889D01*
X152797439Y-87447747D01*
X152780865Y-87447529D01*
X152756038Y-87448019D01*
X152731932Y-87449487D01*
X152708548Y-87451934D01*
X152685885Y-87455360D01*
X152663943Y-87459765D01*
X152642722Y-87465149D01*
X152622223Y-87471512D01*
X152602445Y-87478853D01*
X152583389Y-87487174D01*
X152565053Y-87496473D01*
X152553230Y-87503217D01*
X152536031Y-87513884D01*
X152519605Y-87525187D01*
X152503951Y-87537125D01*
X152484282Y-87554031D01*
X152465987Y-87572067D01*
X152449065Y-87591233D01*
X152433518Y-87611528D01*
X152419344Y-87632952D01*
X152409615Y-87649762D01*
X152400475Y-87667558D01*
X152392289Y-87686141D01*
X152385058Y-87705511D01*
X152378780Y-87725668D01*
X152373456Y-87746613D01*
X152369086Y-87768344D01*
X152367606Y-87777257D01*
X152364369Y-87800043D01*
X152361681Y-87823520D01*
X152359541Y-87847689D01*
X152358225Y-87867522D01*
X152357259Y-87887798D01*
X152356645Y-87908517D01*
X152356381Y-87929678D01*
X152356371Y-87935038D01*
X152356371Y-88398611D01*
X152142414Y-88398611D01*
X152142414Y-87682002D01*
X152294333Y-87682002D01*
X152294333Y-87463161D01*
X152142414Y-87463161D01*
X152142414Y-87009846D01*
X151856650Y-87009846D01*
X151856650Y-87463161D01*
X151723782Y-87463161D01*
X151571862Y-87463161D01*
X151571862Y-87009846D01*
X151286098Y-87009846D01*
X151286098Y-87463161D01*
X151129783Y-87463161D01*
X151129783Y-87682002D01*
X151286098Y-87682002D01*
X151286098Y-88447948D01*
X151285678Y-88468481D01*
X151284166Y-88489371D01*
X151281152Y-88509589D01*
X151277306Y-88524640D01*
X151269200Y-88542935D01*
X151257008Y-88558569D01*
X151248973Y-88565184D01*
X151231330Y-88574524D01*
X151210946Y-88580316D01*
X151200613Y-88581793D01*
X151179461Y-88583184D01*
X151159665Y-88583892D01*
X151137627Y-88584214D01*
X151129783Y-88584235D01*
X151129783Y-88870000D01*
X150734780Y-88870000D01*
X150742074Y-88868166D01*
X150762593Y-88861859D01*
X150782409Y-88854582D01*
X150801520Y-88846334D01*
X150819927Y-88837116D01*
X150831807Y-88830432D01*
X150848918Y-88819765D01*
X150865266Y-88808462D01*
X150880849Y-88796523D01*
X150900438Y-88779617D01*
X150918669Y-88761581D01*
X150935541Y-88742416D01*
X150951054Y-88722121D01*
X150965209Y-88700696D01*
X150974933Y-88683886D01*
X150984073Y-88666079D01*
X150992259Y-88647460D01*
X150999491Y-88628030D01*
X151005769Y-88607790D01*
X151011092Y-88586738D01*
X151015462Y-88564875D01*
X151016943Y-88555903D01*
X151020179Y-88533001D01*
X151022868Y-88509478D01*
X151025007Y-88485335D01*
X151026324Y-88465574D01*
X151027289Y-88445417D01*
X151027904Y-88424862D01*
X151028167Y-88403911D01*
X151028178Y-88398611D01*
X151028178Y-87935038D01*
X151028002Y-87913766D01*
X151027476Y-87892937D01*
X151026598Y-87872550D01*
X151025369Y-87852606D01*
X151023789Y-87833105D01*
X151021320Y-87809351D01*
X151018303Y-87786288D01*
X151016943Y-87777257D01*
X151012955Y-87755211D01*
X151008013Y-87733952D01*
X151002116Y-87713480D01*
X150995266Y-87693795D01*
X150987462Y-87674897D01*
X150978703Y-87656786D01*
X150974933Y-87649762D01*
X150961797Y-87627490D01*
X150947303Y-87606348D01*
X150931450Y-87586335D01*
X150914239Y-87567452D01*
X150895669Y-87549699D01*
X150875740Y-87533075D01*
X150859902Y-87521349D01*
X150843299Y-87510258D01*
X150831807Y-87503217D01*
X150813869Y-87493265D01*
X150795227Y-87484292D01*
X150775882Y-87476297D01*
X150755832Y-87469282D01*
X150735078Y-87463246D01*
X150713620Y-87458188D01*
X150691458Y-87454109D01*
X150668591Y-87451010D01*
X150645021Y-87448889D01*
X150620746Y-87447747D01*
X150604172Y-87447529D01*
X150579345Y-87448019D01*
X150555240Y-87449487D01*
X150531855Y-87451934D01*
X150509192Y-87455360D01*
X150487251Y-87459765D01*
X150466030Y-87465149D01*
X150445531Y-87471512D01*
X150425753Y-87478853D01*
X150406696Y-87487174D01*
X150388361Y-87496473D01*
X150376538Y-87503217D01*
X150359339Y-87513884D01*
X150342913Y-87525187D01*
X150327259Y-87537125D01*
X150307590Y-87554031D01*
X150289295Y-87572067D01*
X150272373Y-87591233D01*
X150256826Y-87611528D01*
X150242652Y-87632952D01*
X150232923Y-87649762D01*
X150223783Y-87667558D01*
X150215597Y-87686141D01*
X150208365Y-87705511D01*
X150202088Y-87725668D01*
X150196764Y-87746613D01*
X150192394Y-87768344D01*
X150190913Y-87777257D01*
X150187677Y-87800043D01*
X150184989Y-87823520D01*
X150182849Y-87847689D01*
X150181532Y-87867522D01*
X150180567Y-87887798D01*
X150179953Y-87908517D01*
X150179689Y-87929678D01*
X150179678Y-87935038D01*
X150179678Y-88398611D01*
X149961325Y-88398611D01*
X149961325Y-87463161D01*
X149675561Y-87463161D01*
X149675561Y-87600914D01*
X149669699Y-87600914D01*
X149658311Y-87584557D01*
X149646374Y-87568948D01*
X149630679Y-87550489D01*
X149614126Y-87533199D01*
X149596714Y-87517078D01*
X149578444Y-87502125D01*
X149563209Y-87491004D01*
X149542835Y-87478480D01*
X149520791Y-87468078D01*
X149501954Y-87461285D01*
X149482048Y-87455851D01*
X149461074Y-87451775D01*
X149439031Y-87449058D01*
X149415919Y-87447699D01*
X149403963Y-87447529D01*
X149381599Y-87448231D01*
X149360182Y-87450338D01*
X149339712Y-87453849D01*
X149320188Y-87458764D01*
X149301610Y-87465084D01*
X149279719Y-87474959D01*
X149259306Y-87487028D01*
X149251555Y-87492470D01*
X149233023Y-87506564D01*
X149215587Y-87521063D01*
X149199248Y-87535968D01*
X149184007Y-87551279D01*
X149169863Y-87566995D01*
X149156816Y-87583116D01*
X149151904Y-87589678D01*
X149138547Y-87575398D01*
X149121379Y-87558256D01*
X149103685Y-87541900D01*
X149085467Y-87526332D01*
X149066725Y-87511551D01*
X149047457Y-87497557D01*
X149035645Y-87489539D01*
X149014572Y-87477437D01*
X148995944Y-87469231D01*
X148975745Y-87462339D01*
X148953973Y-87456760D01*
X148930628Y-87452493D01*
X148905712Y-87449539D01*
X148885993Y-87448186D01*
X148865389Y-87447570D01*
X148858324Y-87447529D01*
X148838438Y-87448165D01*
X148818345Y-87450071D01*
X148798046Y-87453248D01*
X148777541Y-87457696D01*
X148756830Y-87463414D01*
X148749881Y-87465603D01*
X148729410Y-87473205D01*
X148709764Y-87482456D01*
X148690942Y-87493355D01*
X148672944Y-87505903D01*
X148655771Y-87520100D01*
X148650230Y-87525198D01*
X148634144Y-87541610D01*
X148619226Y-87559705D01*
X148607686Y-87576070D01*
X148596958Y-87593604D01*
X148587040Y-87612306D01*
X148577934Y-87632177D01*
X148569912Y-87653195D01*
X148563250Y-87675644D01*
X148557948Y-87699525D01*
X148554685Y-87719660D01*
X148552292Y-87740710D01*
X148550770Y-87762677D01*
X148550117Y-87785559D01*
X148550090Y-87791423D01*
X148550090Y-88870000D01*
X148264376Y-88870000D01*
X148264376Y-86583448D01*
X154651226Y-86583448D01*
X154651226Y-89171345D01*
G37*
D11*
X152206471Y-106885714D02*
X152206471Y-106600000D01*
X152206471Y-106600000D02*
X152135042Y-106457143D01*
X152135042Y-106457143D02*
X151992185Y-106314286D01*
X151992185Y-106314286D02*
X151706471Y-106242857D01*
X151706471Y-106242857D02*
X151206471Y-106242857D01*
X151206471Y-106242857D02*
X150920757Y-106314286D01*
X150920757Y-106314286D02*
X150777900Y-106457143D01*
X150777900Y-106457143D02*
X150706471Y-106600000D01*
X150706471Y-106600000D02*
X150706471Y-106885714D01*
X150706471Y-106885714D02*
X150777900Y-107028572D01*
X150777900Y-107028572D02*
X150920757Y-107171429D01*
X150920757Y-107171429D02*
X151206471Y-107242857D01*
X151206471Y-107242857D02*
X151706471Y-107242857D01*
X151706471Y-107242857D02*
X151992185Y-107171429D01*
X151992185Y-107171429D02*
X152135042Y-107028572D01*
X152135042Y-107028572D02*
X152206471Y-106885714D01*
X150706471Y-105600000D02*
X151706471Y-105600000D01*
X151420757Y-105600000D02*
X151563614Y-105528571D01*
X151563614Y-105528571D02*
X151635042Y-105457143D01*
X151635042Y-105457143D02*
X151706471Y-105314285D01*
X151706471Y-105314285D02*
X151706471Y-105171428D01*
X150706471Y-104671429D02*
X151706471Y-104671429D01*
X152206471Y-104671429D02*
X152135042Y-104742857D01*
X152135042Y-104742857D02*
X152063614Y-104671429D01*
X152063614Y-104671429D02*
X152135042Y-104600000D01*
X152135042Y-104600000D02*
X152206471Y-104671429D01*
X152206471Y-104671429D02*
X152063614Y-104671429D01*
X151706471Y-103314286D02*
X150492185Y-103314286D01*
X150492185Y-103314286D02*
X150349328Y-103385714D01*
X150349328Y-103385714D02*
X150277900Y-103457143D01*
X150277900Y-103457143D02*
X150206471Y-103600000D01*
X150206471Y-103600000D02*
X150206471Y-103814286D01*
X150206471Y-103814286D02*
X150277900Y-103957143D01*
X150777900Y-103314286D02*
X150706471Y-103457143D01*
X150706471Y-103457143D02*
X150706471Y-103742857D01*
X150706471Y-103742857D02*
X150777900Y-103885714D01*
X150777900Y-103885714D02*
X150849328Y-103957143D01*
X150849328Y-103957143D02*
X150992185Y-104028571D01*
X150992185Y-104028571D02*
X151420757Y-104028571D01*
X151420757Y-104028571D02*
X151563614Y-103957143D01*
X151563614Y-103957143D02*
X151635042Y-103885714D01*
X151635042Y-103885714D02*
X151706471Y-103742857D01*
X151706471Y-103742857D02*
X151706471Y-103457143D01*
X151706471Y-103457143D02*
X151635042Y-103314286D01*
X150706471Y-102600000D02*
X151706471Y-102600000D01*
X152206471Y-102600000D02*
X152135042Y-102671428D01*
X152135042Y-102671428D02*
X152063614Y-102600000D01*
X152063614Y-102600000D02*
X152135042Y-102528571D01*
X152135042Y-102528571D02*
X152206471Y-102600000D01*
X152206471Y-102600000D02*
X152063614Y-102600000D01*
X151706471Y-101885714D02*
X150706471Y-101885714D01*
X151563614Y-101885714D02*
X151635042Y-101814285D01*
X151635042Y-101814285D02*
X151706471Y-101671428D01*
X151706471Y-101671428D02*
X151706471Y-101457142D01*
X151706471Y-101457142D02*
X151635042Y-101314285D01*
X151635042Y-101314285D02*
X151492185Y-101242857D01*
X151492185Y-101242857D02*
X150706471Y-101242857D01*
X150706471Y-99885714D02*
X151492185Y-99885714D01*
X151492185Y-99885714D02*
X151635042Y-99957142D01*
X151635042Y-99957142D02*
X151706471Y-100099999D01*
X151706471Y-100099999D02*
X151706471Y-100385714D01*
X151706471Y-100385714D02*
X151635042Y-100528571D01*
X150777900Y-99885714D02*
X150706471Y-100028571D01*
X150706471Y-100028571D02*
X150706471Y-100385714D01*
X150706471Y-100385714D02*
X150777900Y-100528571D01*
X150777900Y-100528571D02*
X150920757Y-100599999D01*
X150920757Y-100599999D02*
X151063614Y-100599999D01*
X151063614Y-100599999D02*
X151206471Y-100528571D01*
X151206471Y-100528571D02*
X151277900Y-100385714D01*
X151277900Y-100385714D02*
X151277900Y-100028571D01*
X151277900Y-100028571D02*
X151349328Y-99885714D01*
X150706471Y-98957142D02*
X150777900Y-99099999D01*
X150777900Y-99099999D02*
X150920757Y-99171428D01*
X150920757Y-99171428D02*
X152206471Y-99171428D01*
X151492185Y-96742857D02*
X151420757Y-96528571D01*
X151420757Y-96528571D02*
X151349328Y-96457142D01*
X151349328Y-96457142D02*
X151206471Y-96385714D01*
X151206471Y-96385714D02*
X150992185Y-96385714D01*
X150992185Y-96385714D02*
X150849328Y-96457142D01*
X150849328Y-96457142D02*
X150777900Y-96528571D01*
X150777900Y-96528571D02*
X150706471Y-96671428D01*
X150706471Y-96671428D02*
X150706471Y-97242857D01*
X150706471Y-97242857D02*
X152206471Y-97242857D01*
X152206471Y-97242857D02*
X152206471Y-96742857D01*
X152206471Y-96742857D02*
X152135042Y-96600000D01*
X152135042Y-96600000D02*
X152063614Y-96528571D01*
X152063614Y-96528571D02*
X151920757Y-96457142D01*
X151920757Y-96457142D02*
X151777900Y-96457142D01*
X151777900Y-96457142D02*
X151635042Y-96528571D01*
X151635042Y-96528571D02*
X151563614Y-96600000D01*
X151563614Y-96600000D02*
X151492185Y-96742857D01*
X151492185Y-96742857D02*
X151492185Y-97242857D01*
X150706471Y-95100000D02*
X151492185Y-95100000D01*
X151492185Y-95100000D02*
X151635042Y-95171428D01*
X151635042Y-95171428D02*
X151706471Y-95314285D01*
X151706471Y-95314285D02*
X151706471Y-95600000D01*
X151706471Y-95600000D02*
X151635042Y-95742857D01*
X150777900Y-95100000D02*
X150706471Y-95242857D01*
X150706471Y-95242857D02*
X150706471Y-95600000D01*
X150706471Y-95600000D02*
X150777900Y-95742857D01*
X150777900Y-95742857D02*
X150920757Y-95814285D01*
X150920757Y-95814285D02*
X151063614Y-95814285D01*
X151063614Y-95814285D02*
X151206471Y-95742857D01*
X151206471Y-95742857D02*
X151277900Y-95600000D01*
X151277900Y-95600000D02*
X151277900Y-95242857D01*
X151277900Y-95242857D02*
X151349328Y-95100000D01*
X151706471Y-94385714D02*
X150706471Y-94385714D01*
X151563614Y-94385714D02*
X151635042Y-94314285D01*
X151635042Y-94314285D02*
X151706471Y-94171428D01*
X151706471Y-94171428D02*
X151706471Y-93957142D01*
X151706471Y-93957142D02*
X151635042Y-93814285D01*
X151635042Y-93814285D02*
X151492185Y-93742857D01*
X151492185Y-93742857D02*
X150706471Y-93742857D01*
X150706471Y-93028571D02*
X152206471Y-93028571D01*
X151277900Y-92885714D02*
X150706471Y-92457142D01*
X151706471Y-92457142D02*
X151135042Y-93028571D01*
D12*
X148820000Y-111080000D02*
G75*
G03*
X148820000Y-111080000I-100000J0D01*
G01*
%LPC*%
D13*
X144730000Y-111080000D03*
X144730000Y-109810000D03*
X144730000Y-108540000D03*
X144730000Y-107270000D03*
X144730000Y-106000000D03*
X144730000Y-104730000D03*
X144730000Y-103460000D03*
X144730000Y-102190000D03*
X144730000Y-100920000D03*
X144730000Y-99650000D03*
X144730000Y-98380000D03*
X144730000Y-97110000D03*
X144730000Y-95840000D03*
X144730000Y-94570000D03*
X144730000Y-93300000D03*
X144730000Y-92030000D03*
X144730000Y-90760000D03*
X144730000Y-89490000D03*
X144730000Y-88220000D03*
X144730000Y-86950000D03*
X143460000Y-86950000D03*
X143460000Y-88220000D03*
X143460000Y-89490000D03*
X143460000Y-90760000D03*
X143460000Y-92030000D03*
X143460000Y-93300000D03*
X143460000Y-94570000D03*
X143460000Y-95840000D03*
X143460000Y-97110000D03*
X143460000Y-98380000D03*
X143460000Y-99650000D03*
X143460000Y-100920000D03*
X143460000Y-102190000D03*
X143460000Y-103460000D03*
X143460000Y-104730000D03*
X143460000Y-106000000D03*
X143460000Y-107270000D03*
X143460000Y-108540000D03*
X143460000Y-109810000D03*
X143460000Y-111080000D03*
D14*
X146740000Y-111080000D03*
X146740000Y-109810000D03*
X146740000Y-108540000D03*
X146740000Y-107270000D03*
X146740000Y-106000000D03*
X146740000Y-104730000D03*
X146740000Y-103460000D03*
X146740000Y-102190000D03*
X146740000Y-100920000D03*
X146740000Y-99650000D03*
X146740000Y-98380000D03*
X146740000Y-97110000D03*
X146740000Y-95840000D03*
X146740000Y-94570000D03*
X146740000Y-93300000D03*
X146740000Y-92030000D03*
X146740000Y-90760000D03*
X146740000Y-89490000D03*
X146740000Y-88220000D03*
X146740000Y-86950000D03*
X156190000Y-86950000D03*
X156190000Y-88220000D03*
X156190000Y-89490000D03*
X156190000Y-90760000D03*
X156190000Y-92030000D03*
X156190000Y-93300000D03*
X156190000Y-94570000D03*
X156190000Y-95840000D03*
X156190000Y-97110000D03*
X156190000Y-98380000D03*
X156190000Y-99650000D03*
X156190000Y-100920000D03*
X156190000Y-102190000D03*
X156190000Y-103460000D03*
X156190000Y-104730000D03*
X156190000Y-106000000D03*
X156190000Y-107270000D03*
X156190000Y-108540000D03*
X156190000Y-109810000D03*
X156190000Y-111080000D03*
%LPD*%
M02*
