%TF.GenerationSoftware,KiCad,Pcbnew,7.0.6-0*%
%TF.CreationDate,2023-10-14T16:51:07-04:00*%
%TF.ProjectId,RAM Module,52414d20-4d6f-4647-956c-652e6b696361,1*%
%TF.SameCoordinates,Original*%
%TF.FileFunction,Drillmap*%
%TF.FilePolarity,Positive*%
%FSLAX45Y45*%
G04 Gerber Fmt 4.5, Leading zero omitted, Abs format (unit mm)*
G04 Created by KiCad (PCBNEW 7.0.6-0) date 2023-10-14 16:51:07*
%MOMM*%
%LPD*%
G01*
G04 APERTURE LIST*
%ADD10C,0.150000*%
%ADD11C,0.200000*%
G04 APERTURE END LIST*
D10*
X14259000Y-8687000D02*
X14259000Y-11116284D01*
X15766008Y-8687000D02*
G75*
G03*
X15666000Y-8586992I-100008J0D01*
G01*
X14358716Y-11216291D02*
X15666284Y-11216291D01*
X14359008Y-8586990D02*
G75*
G03*
X14259000Y-8687000I2J-100010D01*
G01*
X15766291Y-11116284D02*
X15766291Y-8687000D01*
X15666284Y-11216291D02*
G75*
G03*
X15766291Y-11116284I-4J100011D01*
G01*
X14258708Y-11116284D02*
G75*
G03*
X14358716Y-11216291I100012J4D01*
G01*
X15666000Y-8586992D02*
X14359008Y-8586992D01*
D11*
X14511985Y-11535275D02*
X14511985Y-11335275D01*
X14511985Y-11335275D02*
X14559604Y-11335275D01*
X14559604Y-11335275D02*
X14588176Y-11344799D01*
X14588176Y-11344799D02*
X14607223Y-11363847D01*
X14607223Y-11363847D02*
X14616747Y-11382894D01*
X14616747Y-11382894D02*
X14626271Y-11420989D01*
X14626271Y-11420989D02*
X14626271Y-11449561D01*
X14626271Y-11449561D02*
X14616747Y-11487656D01*
X14616747Y-11487656D02*
X14607223Y-11506704D01*
X14607223Y-11506704D02*
X14588176Y-11525751D01*
X14588176Y-11525751D02*
X14559604Y-11535275D01*
X14559604Y-11535275D02*
X14511985Y-11535275D01*
X14711985Y-11535275D02*
X14711985Y-11401942D01*
X14711985Y-11440037D02*
X14721509Y-11420989D01*
X14721509Y-11420989D02*
X14731033Y-11411466D01*
X14731033Y-11411466D02*
X14750080Y-11401942D01*
X14750080Y-11401942D02*
X14769128Y-11401942D01*
X14835795Y-11535275D02*
X14835795Y-11401942D01*
X14835795Y-11335275D02*
X14826271Y-11344799D01*
X14826271Y-11344799D02*
X14835795Y-11354323D01*
X14835795Y-11354323D02*
X14845319Y-11344799D01*
X14845319Y-11344799D02*
X14835795Y-11335275D01*
X14835795Y-11335275D02*
X14835795Y-11354323D01*
X14959604Y-11535275D02*
X14940557Y-11525751D01*
X14940557Y-11525751D02*
X14931033Y-11506704D01*
X14931033Y-11506704D02*
X14931033Y-11335275D01*
X15064366Y-11535275D02*
X15045319Y-11525751D01*
X15045319Y-11525751D02*
X15035795Y-11506704D01*
X15035795Y-11506704D02*
X15035795Y-11335275D01*
X15292938Y-11535275D02*
X15292938Y-11335275D01*
X15292938Y-11335275D02*
X15359604Y-11478132D01*
X15359604Y-11478132D02*
X15426271Y-11335275D01*
X15426271Y-11335275D02*
X15426271Y-11535275D01*
X15607223Y-11535275D02*
X15607223Y-11430513D01*
X15607223Y-11430513D02*
X15597700Y-11411466D01*
X15597700Y-11411466D02*
X15578652Y-11401942D01*
X15578652Y-11401942D02*
X15540557Y-11401942D01*
X15540557Y-11401942D02*
X15521509Y-11411466D01*
X15607223Y-11525751D02*
X15588176Y-11535275D01*
X15588176Y-11535275D02*
X15540557Y-11535275D01*
X15540557Y-11535275D02*
X15521509Y-11525751D01*
X15521509Y-11525751D02*
X15511985Y-11506704D01*
X15511985Y-11506704D02*
X15511985Y-11487656D01*
X15511985Y-11487656D02*
X15521509Y-11468609D01*
X15521509Y-11468609D02*
X15540557Y-11459085D01*
X15540557Y-11459085D02*
X15588176Y-11459085D01*
X15588176Y-11459085D02*
X15607223Y-11449561D01*
X15702461Y-11401942D02*
X15702461Y-11601942D01*
X15702461Y-11411466D02*
X15721509Y-11401942D01*
X15721509Y-11401942D02*
X15759604Y-11401942D01*
X15759604Y-11401942D02*
X15778652Y-11411466D01*
X15778652Y-11411466D02*
X15788176Y-11420989D01*
X15788176Y-11420989D02*
X15797700Y-11440037D01*
X15797700Y-11440037D02*
X15797700Y-11497180D01*
X15797700Y-11497180D02*
X15788176Y-11516228D01*
X15788176Y-11516228D02*
X15778652Y-11525751D01*
X15778652Y-11525751D02*
X15759604Y-11535275D01*
X15759604Y-11535275D02*
X15721509Y-11535275D01*
X15721509Y-11535275D02*
X15702461Y-11525751D01*
X15883414Y-11516228D02*
X15892938Y-11525751D01*
X15892938Y-11525751D02*
X15883414Y-11535275D01*
X15883414Y-11535275D02*
X15873890Y-11525751D01*
X15873890Y-11525751D02*
X15883414Y-11516228D01*
X15883414Y-11516228D02*
X15883414Y-11535275D01*
X15883414Y-11411466D02*
X15892938Y-11420989D01*
X15892938Y-11420989D02*
X15883414Y-11430513D01*
X15883414Y-11430513D02*
X15873890Y-11420989D01*
X15873890Y-11420989D02*
X15883414Y-11411466D01*
X15883414Y-11411466D02*
X15883414Y-11430513D01*
M02*
