G04 #@! TF.GenerationSoftware,KiCad,Pcbnew,7.0.6-0*
G04 #@! TF.CreationDate,2023-10-14T16:51:03-04:00*
G04 #@! TF.ProjectId,RAM Module,52414d20-4d6f-4647-956c-652e6b696361,1*
G04 #@! TF.SameCoordinates,Original*
G04 #@! TF.FileFunction,Copper,L2,Inr*
G04 #@! TF.FilePolarity,Positive*
%FSLAX46Y46*%
G04 Gerber Fmt 4.6, Leading zero omitted, Abs format (unit mm)*
G04 Created by KiCad (PCBNEW 7.0.6-0) date 2023-10-14 16:51:03*
%MOMM*%
%LPD*%
G01*
G04 APERTURE LIST*
G04 #@! TA.AperFunction,ComponentPad*
%ADD10C,1.000000*%
G04 #@! TD*
G04 #@! TA.AperFunction,ViaPad*
%ADD11C,0.700000*%
G04 #@! TD*
G04 #@! TA.AperFunction,Conductor*
%ADD12C,0.150000*%
G04 #@! TD*
G04 APERTURE END LIST*
D10*
X143460000Y-88220000D03*
X143460000Y-89490000D03*
X143460000Y-90760000D03*
X143460000Y-92030000D03*
X143460000Y-93300000D03*
X143460000Y-94570000D03*
X143460000Y-95840000D03*
X143460000Y-97110000D03*
X143460000Y-99650000D03*
X143460000Y-100920000D03*
X143460000Y-102190000D03*
X143460000Y-103460000D03*
X143460000Y-106000000D03*
X143460000Y-107270000D03*
X143460000Y-108540000D03*
X143460000Y-109810000D03*
D11*
X152460000Y-104730000D03*
X152460000Y-111080000D03*
X152460000Y-86950000D03*
X152460000Y-109810000D03*
X152460000Y-108540000D03*
X152460000Y-107270000D03*
X152460000Y-106000000D03*
X152460000Y-103460000D03*
X152460000Y-102190000D03*
X152460000Y-100920000D03*
X152460000Y-99650000D03*
X152460000Y-97100000D03*
X153750000Y-95840000D03*
X152460000Y-92030000D03*
X152460000Y-90760000D03*
X152460000Y-89490000D03*
X152460000Y-88220000D03*
X152460000Y-93300000D03*
X150380000Y-104100000D03*
X150380000Y-87580000D03*
X150380000Y-110450000D03*
X150380000Y-88850000D03*
X150380000Y-90120000D03*
X150380000Y-91390000D03*
X150380000Y-92660000D03*
X150380000Y-93940000D03*
X150380000Y-95210000D03*
X150380000Y-96520000D03*
X149510000Y-97750000D03*
X150380000Y-99010000D03*
X150380000Y-100280000D03*
X150380000Y-101550000D03*
X150380000Y-102820000D03*
X150380000Y-105360000D03*
X150380000Y-106630000D03*
X150380000Y-107900000D03*
X150380000Y-109170000D03*
D12*
X150380000Y-88850000D02*
X150375083Y-88854917D01*
X143802024Y-88562024D02*
X143460000Y-88220000D01*
X150375083Y-88854917D02*
X144509131Y-88854917D01*
X143802005Y-88562043D02*
G75*
G03*
X144509131Y-88854917I707095J707143D01*
G01*
X143802127Y-89832127D02*
X143460000Y-89490000D01*
X150380000Y-90120000D02*
X150374980Y-90125020D01*
X150374980Y-90125020D02*
X144509234Y-90125020D01*
X143802106Y-89832148D02*
G75*
G03*
X144509234Y-90125020I707094J707148D01*
G01*
X143807107Y-91107107D02*
X143460000Y-90760000D01*
X150380000Y-91390000D02*
X150370000Y-91400000D01*
X150370000Y-91400000D02*
X144514214Y-91400000D01*
X143807100Y-91107114D02*
G75*
G03*
X144514214Y-91400000I707100J707114D01*
G01*
X150380000Y-92660000D02*
X150377722Y-92662278D01*
X143799385Y-92369385D02*
X143460000Y-92030000D01*
X150377722Y-92662278D02*
X144506492Y-92662278D01*
X143799394Y-92369376D02*
G75*
G03*
X144506492Y-92662278I707106J707076D01*
G01*
X150380000Y-93940000D02*
X150375954Y-93935954D01*
X143803061Y-93643061D02*
X143460000Y-93300000D01*
X150375954Y-93935954D02*
X144510168Y-93935954D01*
X143803087Y-93643035D02*
G75*
G03*
X144510168Y-93935954I707113J707035D01*
G01*
X150374950Y-95204950D02*
X144509164Y-95204950D01*
X150380000Y-95210000D02*
X150374950Y-95204950D01*
X143802057Y-94912057D02*
X143460000Y-94570000D01*
X143802086Y-94912028D02*
G75*
G03*
X144509164Y-95204950I707114J707028D01*
G01*
X150335051Y-96475051D02*
X144509265Y-96475051D01*
X143802158Y-96182158D02*
X143460000Y-95840000D01*
X150380000Y-96520000D02*
X150335051Y-96475051D01*
X143802186Y-96182130D02*
G75*
G03*
X144509265Y-96475051I707114J707030D01*
G01*
X143803576Y-97453576D02*
X143460000Y-97110000D01*
X149506469Y-97746469D02*
X144510683Y-97746469D01*
X149510000Y-97750000D02*
X149506469Y-97746469D01*
X143803591Y-97453561D02*
G75*
G03*
X144510683Y-97746469I707109J707061D01*
G01*
X150380000Y-99010000D02*
X150376605Y-99013395D01*
X150376605Y-99013395D02*
X144510819Y-99013395D01*
X143803712Y-99306288D02*
X143460000Y-99650000D01*
X144510819Y-99013410D02*
G75*
G03*
X143803712Y-99306288I-19J-999990D01*
G01*
X150374541Y-100285459D02*
X144508755Y-100285459D01*
X143801648Y-100578352D02*
X143460000Y-100920000D01*
X150380000Y-100280000D02*
X150374541Y-100285459D01*
X144508755Y-100285439D02*
G75*
G03*
X143801648Y-100578352I45J-1000061D01*
G01*
X143802495Y-101847505D02*
X143460000Y-102190000D01*
X150380000Y-101550000D02*
X150375388Y-101554612D01*
X150375388Y-101554612D02*
X144509602Y-101554612D01*
X144509602Y-101554610D02*
G75*
G03*
X143802495Y-101847505I-2J-999990D01*
G01*
X150375078Y-102824922D02*
X144509292Y-102824922D01*
X150380000Y-102820000D02*
X150375078Y-102824922D01*
X143802185Y-103117815D02*
X143460000Y-103460000D01*
X144509292Y-102824910D02*
G75*
G03*
X143802185Y-103117815I8J-999990D01*
G01*
X143801519Y-105658481D02*
X143460000Y-106000000D01*
X150380000Y-105360000D02*
X150374412Y-105365588D01*
X150374412Y-105365588D02*
X144508626Y-105365588D01*
X144508626Y-105365610D02*
G75*
G03*
X143801519Y-105658481I-26J-999990D01*
G01*
X150374663Y-106635337D02*
X144508877Y-106635337D01*
X143801770Y-106928230D02*
X143460000Y-107270000D01*
X150380000Y-106630000D02*
X150374663Y-106635337D01*
X144508877Y-106635310D02*
G75*
G03*
X143801770Y-106928230I23J-999990D01*
G01*
X150375020Y-107904980D02*
X144509234Y-107904980D01*
X143802127Y-108197873D02*
X143460000Y-108540000D01*
X150380000Y-107900000D02*
X150375020Y-107904980D01*
X144509234Y-107905010D02*
G75*
G03*
X143802127Y-108197873I-34J-999990D01*
G01*
X150374760Y-109175240D02*
X144508974Y-109175240D01*
X150380000Y-109170000D02*
X150374760Y-109175240D01*
X143801867Y-109468133D02*
X143460000Y-109810000D01*
X144508974Y-109175210D02*
G75*
G03*
X143801867Y-109468133I26J-999990D01*
G01*
G04 #@! TA.AperFunction,Conductor*
G36*
X150250546Y-106317495D02*
G01*
X150250953Y-106318367D01*
X150379119Y-106625494D01*
X150379142Y-106634449D01*
X150379119Y-106634506D01*
X150250921Y-106941710D01*
X150244572Y-106948025D01*
X150235617Y-106948002D01*
X150234821Y-106947632D01*
X150108078Y-106883073D01*
X150107397Y-106882666D01*
X150013010Y-106816975D01*
X149930966Y-106761987D01*
X149930964Y-106761986D01*
X149830632Y-106724312D01*
X149830633Y-106724312D01*
X149691673Y-106711328D01*
X149683755Y-106707147D01*
X149681062Y-106699679D01*
X149681062Y-106570926D01*
X149684489Y-106562653D01*
X149691598Y-106559284D01*
X149831270Y-106545329D01*
X149931323Y-106505165D01*
X150012771Y-106447136D01*
X150106455Y-106379049D01*
X150107944Y-106378129D01*
X150234778Y-106312481D01*
X150243699Y-106311723D01*
X150250546Y-106317495D01*
G37*
G04 #@! TD.AperFunction*
G04 #@! TA.AperFunction,Conductor*
G36*
X144229915Y-106600242D02*
G01*
X144234608Y-106607493D01*
X144259772Y-106733982D01*
X144258025Y-106742765D01*
X144252701Y-106747104D01*
X144091360Y-106812656D01*
X144091359Y-106812657D01*
X144017593Y-106923970D01*
X143995003Y-107072467D01*
X143995003Y-107072466D01*
X143978327Y-107252239D01*
X143977971Y-107254213D01*
X143925411Y-107448509D01*
X143919943Y-107455600D01*
X143911062Y-107456748D01*
X143909652Y-107456268D01*
X143463519Y-107272052D01*
X143457180Y-107265727D01*
X143457166Y-107265694D01*
X143273268Y-106819251D01*
X143273285Y-106810296D01*
X143279630Y-106803977D01*
X143279958Y-106803848D01*
X143497184Y-106722887D01*
X143497750Y-106722710D01*
X143665158Y-106679771D01*
X143665742Y-106679655D01*
X143815394Y-106658082D01*
X143815393Y-106658081D01*
X143990116Y-106637207D01*
X144116333Y-106615921D01*
X144221188Y-106598239D01*
X144229915Y-106600242D01*
G37*
G04 #@! TD.AperFunction*
G04 #@! TA.AperFunction,Conductor*
G36*
X143918605Y-95653742D02*
G01*
X143924930Y-95660081D01*
X143925410Y-95661492D01*
X143977962Y-95855847D01*
X143978318Y-95857824D01*
X143994937Y-96037646D01*
X143994937Y-96037645D01*
X144017466Y-96186230D01*
X144017466Y-96186231D01*
X144017467Y-96186233D01*
X144091196Y-96297601D01*
X144252556Y-96363184D01*
X144258930Y-96369474D01*
X144259626Y-96376306D01*
X144234460Y-96502794D01*
X144229485Y-96510239D01*
X144221038Y-96512048D01*
X144035145Y-96480671D01*
X143989991Y-96473050D01*
X143815304Y-96452100D01*
X143665700Y-96430440D01*
X143665083Y-96430317D01*
X143497733Y-96387315D01*
X143497144Y-96387130D01*
X143279998Y-96306168D01*
X143273443Y-96300067D01*
X143273122Y-96291118D01*
X143273250Y-96290790D01*
X143457166Y-95844304D01*
X143463482Y-95837962D01*
X143909651Y-95653732D01*
X143918605Y-95653742D01*
G37*
G04 #@! TD.AperFunction*
G04 #@! TA.AperFunction,Conductor*
G36*
X143918606Y-88033741D02*
G01*
X143924931Y-88040080D01*
X143925411Y-88041490D01*
X143977973Y-88235786D01*
X143978329Y-88237760D01*
X143995007Y-88417539D01*
X144017599Y-88566032D01*
X144017599Y-88566033D01*
X144017600Y-88566035D01*
X144091371Y-88677345D01*
X144252716Y-88742889D01*
X144259091Y-88749177D01*
X144259787Y-88756010D01*
X144234630Y-88882501D01*
X144229655Y-88889947D01*
X144221210Y-88891756D01*
X143990127Y-88852798D01*
X143990128Y-88852798D01*
X143815404Y-88831926D01*
X143665762Y-88810352D01*
X143665151Y-88810230D01*
X143576758Y-88787557D01*
X143497764Y-88767295D01*
X143497174Y-88767110D01*
X143280000Y-88686167D01*
X143273444Y-88680067D01*
X143273123Y-88671118D01*
X143273268Y-88670748D01*
X143316401Y-88566035D01*
X143457166Y-88224304D01*
X143463482Y-88217962D01*
X143909654Y-88033731D01*
X143918606Y-88033741D01*
G37*
G04 #@! TD.AperFunction*
G04 #@! TA.AperFunction,Conductor*
G36*
X150250546Y-108857494D02*
G01*
X150250953Y-108858365D01*
X150379119Y-109165494D01*
X150379142Y-109174449D01*
X150379119Y-109174506D01*
X150250922Y-109481708D01*
X150244573Y-109488023D01*
X150235618Y-109488000D01*
X150234813Y-109487627D01*
X150108071Y-109423060D01*
X150107383Y-109422648D01*
X150013000Y-109356936D01*
X149930963Y-109301923D01*
X149930958Y-109301921D01*
X149830630Y-109264226D01*
X149830621Y-109264224D01*
X149691653Y-109251232D01*
X149683735Y-109247050D01*
X149681042Y-109239583D01*
X149681042Y-109110829D01*
X149684469Y-109102556D01*
X149691578Y-109099187D01*
X149831248Y-109085241D01*
X149931308Y-109045101D01*
X150012765Y-108987100D01*
X150106458Y-108919035D01*
X150107956Y-108918112D01*
X150234780Y-108852479D01*
X150243700Y-108851721D01*
X150250546Y-108857494D01*
G37*
G04 #@! TD.AperFunction*
G04 #@! TA.AperFunction,Conductor*
G36*
X150250548Y-92347492D02*
G01*
X150250944Y-92348343D01*
X150379119Y-92655494D01*
X150379142Y-92664449D01*
X150379119Y-92664506D01*
X150250930Y-92971689D01*
X150244581Y-92978004D01*
X150235626Y-92977981D01*
X150234804Y-92977599D01*
X150107799Y-92912633D01*
X150107099Y-92912211D01*
X150012697Y-92845751D01*
X149930719Y-92789907D01*
X149830352Y-92751540D01*
X149830351Y-92751539D01*
X149830349Y-92751539D01*
X149691045Y-92738285D01*
X149683133Y-92734090D01*
X149680453Y-92726638D01*
X149680453Y-92597888D01*
X149683880Y-92589615D01*
X149691012Y-92586244D01*
X149830622Y-92572575D01*
X149904786Y-92543404D01*
X149930868Y-92533146D01*
X149930868Y-92533145D01*
X149930870Y-92533145D01*
X150012595Y-92476003D01*
X150106504Y-92408656D01*
X150107947Y-92407774D01*
X150234789Y-92342446D01*
X150243713Y-92341706D01*
X150250548Y-92347492D01*
G37*
G04 #@! TD.AperFunction*
G04 #@! TA.AperFunction,Conductor*
G36*
X150250557Y-96207461D02*
G01*
X150250810Y-96208023D01*
X150379119Y-96515494D01*
X150379142Y-96524449D01*
X150379119Y-96524506D01*
X150251082Y-96831325D01*
X150244733Y-96837640D01*
X150235778Y-96837617D01*
X150234640Y-96837068D01*
X150107709Y-96767172D01*
X150105745Y-96765811D01*
X150014974Y-96688070D01*
X149937280Y-96618599D01*
X149937278Y-96618598D01*
X149937277Y-96618597D01*
X149839845Y-96568988D01*
X149839846Y-96568988D01*
X149699184Y-96551336D01*
X149691402Y-96546906D01*
X149688941Y-96539727D01*
X149688941Y-96410954D01*
X149692368Y-96402681D01*
X149699815Y-96399284D01*
X149834453Y-96389790D01*
X149934250Y-96361133D01*
X150017003Y-96317266D01*
X150111173Y-96261496D01*
X150111605Y-96261265D01*
X150234946Y-96201983D01*
X150243885Y-96201488D01*
X150250557Y-96207461D01*
G37*
G04 #@! TD.AperFunction*
G04 #@! TA.AperFunction,Conductor*
G36*
X150250546Y-89807494D02*
G01*
X150250952Y-89808364D01*
X150379119Y-90115494D01*
X150379142Y-90124449D01*
X150379119Y-90124506D01*
X150250922Y-90431707D01*
X150244573Y-90438022D01*
X150235618Y-90437999D01*
X150234821Y-90437630D01*
X150108045Y-90373026D01*
X150107363Y-90372617D01*
X150012977Y-90306848D01*
X149930941Y-90251772D01*
X149930942Y-90251772D01*
X149930940Y-90251771D01*
X149830606Y-90214026D01*
X149830605Y-90214026D01*
X149691608Y-90201013D01*
X149683691Y-90196830D01*
X149680999Y-90189364D01*
X149680999Y-90060611D01*
X149684426Y-90052338D01*
X149691537Y-90048969D01*
X149831202Y-90035043D01*
X149931276Y-89994956D01*
X150012753Y-89937019D01*
X150106459Y-89869009D01*
X150107945Y-89868093D01*
X150234780Y-89802477D01*
X150243701Y-89801721D01*
X150250546Y-89807494D01*
G37*
G04 #@! TD.AperFunction*
G04 #@! TA.AperFunction,Conductor*
G36*
X144229210Y-98978858D02*
G01*
X144233909Y-98986114D01*
X144259068Y-99112603D01*
X144257321Y-99121385D01*
X144252002Y-99125722D01*
X144090564Y-99191401D01*
X144090562Y-99191403D01*
X144016985Y-99302974D01*
X144016984Y-99302978D01*
X143994698Y-99451810D01*
X143994698Y-99451811D01*
X143978277Y-99631926D01*
X143977921Y-99633913D01*
X143925405Y-99828500D01*
X143919941Y-99835594D01*
X143911060Y-99836747D01*
X143909646Y-99836266D01*
X143806452Y-99793655D01*
X143463519Y-99652052D01*
X143457180Y-99645727D01*
X143457166Y-99645694D01*
X143377302Y-99451811D01*
X143273265Y-99199244D01*
X143273282Y-99190290D01*
X143279627Y-99183971D01*
X143279980Y-99183831D01*
X143497060Y-99102765D01*
X143497632Y-99102585D01*
X143664869Y-99059304D01*
X143665468Y-99059182D01*
X143814969Y-99037178D01*
X143989539Y-99015948D01*
X144220482Y-98976860D01*
X144229210Y-98978858D01*
G37*
G04 #@! TD.AperFunction*
G04 #@! TA.AperFunction,Conductor*
G36*
X150250547Y-98697493D02*
G01*
X150250947Y-98698352D01*
X150379119Y-99005494D01*
X150379142Y-99014449D01*
X150379119Y-99014506D01*
X150250927Y-99321696D01*
X150244578Y-99328011D01*
X150235623Y-99327988D01*
X150234807Y-99327610D01*
X150107895Y-99262790D01*
X150107200Y-99262372D01*
X150012811Y-99196198D01*
X149930809Y-99140666D01*
X149830455Y-99102552D01*
X149830453Y-99102551D01*
X149691274Y-99089396D01*
X149683360Y-99085206D01*
X149680675Y-99077748D01*
X149680675Y-98948997D01*
X149684102Y-98940724D01*
X149691226Y-98937354D01*
X149830858Y-98923581D01*
X149931035Y-98883883D01*
X150012659Y-98826416D01*
X150106483Y-98758801D01*
X150107942Y-98757905D01*
X150234785Y-98692459D01*
X150243708Y-98691712D01*
X150250547Y-98697493D01*
G37*
G04 #@! TD.AperFunction*
G04 #@! TA.AperFunction,Conductor*
G36*
X150250549Y-94897486D02*
G01*
X150250922Y-94898292D01*
X150379119Y-95205494D01*
X150379142Y-95214449D01*
X150379119Y-95214506D01*
X150250953Y-95521635D01*
X150244604Y-95527950D01*
X150235649Y-95527927D01*
X150234779Y-95527521D01*
X150107948Y-95461904D01*
X150106451Y-95460980D01*
X150012755Y-95392968D01*
X149931280Y-95335023D01*
X149831209Y-95294929D01*
X149691544Y-95281001D01*
X149683652Y-95276770D01*
X149681005Y-95269359D01*
X149681005Y-95140605D01*
X149684432Y-95132332D01*
X149691612Y-95128957D01*
X149830609Y-95115946D01*
X149930943Y-95078207D01*
X150012980Y-95023139D01*
X150107372Y-94957372D01*
X150108044Y-94956969D01*
X150234814Y-94892372D01*
X150243739Y-94891671D01*
X150250549Y-94897486D01*
G37*
G04 #@! TD.AperFunction*
G04 #@! TA.AperFunction,Conductor*
G36*
X144229767Y-102789949D02*
G01*
X144234461Y-102797201D01*
X144259623Y-102923691D01*
X144257876Y-102932474D01*
X144252553Y-102936813D01*
X144091191Y-103002391D01*
X144017464Y-103113759D01*
X144017463Y-103113760D01*
X143994935Y-103262349D01*
X143994935Y-103262348D01*
X143978317Y-103442172D01*
X143977961Y-103444149D01*
X143925410Y-103638507D01*
X143919943Y-103645599D01*
X143911062Y-103646747D01*
X143909651Y-103646267D01*
X143463519Y-103462052D01*
X143457180Y-103455727D01*
X143457166Y-103455694D01*
X143436944Y-103406603D01*
X143273267Y-103009249D01*
X143273284Y-103000295D01*
X143279629Y-102993976D01*
X143279945Y-102993851D01*
X143497154Y-102912861D01*
X143497720Y-102912683D01*
X143643202Y-102875298D01*
X143665083Y-102869676D01*
X143665694Y-102869553D01*
X143815305Y-102847889D01*
X143989991Y-102826939D01*
X144221041Y-102787947D01*
X144229767Y-102789949D01*
G37*
G04 #@! TD.AperFunction*
G04 #@! TA.AperFunction,Conductor*
G36*
X144229901Y-107870173D02*
G01*
X144234594Y-107877425D01*
X144257555Y-107992881D01*
X144259750Y-108003915D01*
X144258003Y-108012697D01*
X144252679Y-108017037D01*
X144121284Y-108070417D01*
X144096969Y-108080296D01*
X144091327Y-108082588D01*
X144017570Y-108193905D01*
X144017568Y-108193912D01*
X143994990Y-108342428D01*
X143978326Y-108522220D01*
X143977970Y-108524195D01*
X143925411Y-108718509D01*
X143919943Y-108725600D01*
X143911062Y-108726748D01*
X143909652Y-108726268D01*
X143463519Y-108542052D01*
X143457180Y-108535727D01*
X143457166Y-108535694D01*
X143273268Y-108089251D01*
X143273285Y-108080296D01*
X143279630Y-108073977D01*
X143279969Y-108073843D01*
X143497177Y-107992878D01*
X143497748Y-107992698D01*
X143665135Y-107949743D01*
X143665737Y-107949622D01*
X143815382Y-107928024D01*
X143815382Y-107928023D01*
X143990098Y-107907133D01*
X144166286Y-107877425D01*
X144221174Y-107868170D01*
X144229901Y-107870173D01*
G37*
G04 #@! TD.AperFunction*
G04 #@! TA.AperFunction,Conductor*
G36*
X143918601Y-93113743D02*
G01*
X143924926Y-93120082D01*
X143925407Y-93121496D01*
X143977939Y-93315988D01*
X143978295Y-93317971D01*
X143994794Y-93497963D01*
X143994794Y-93497964D01*
X144017180Y-93646699D01*
X144086147Y-93751117D01*
X144090820Y-93758191D01*
X144252227Y-93823838D01*
X144258598Y-93830128D01*
X144259293Y-93836958D01*
X144234127Y-93963446D01*
X144229152Y-93970891D01*
X144220701Y-93972699D01*
X144094594Y-93951375D01*
X143989719Y-93933642D01*
X143815103Y-93912523D01*
X143665567Y-93890660D01*
X143664951Y-93890536D01*
X143497678Y-93847373D01*
X143497094Y-93847190D01*
X143279993Y-93766170D01*
X143273440Y-93760066D01*
X143273122Y-93751117D01*
X143273253Y-93750783D01*
X143457166Y-93304304D01*
X143463482Y-93297962D01*
X143909649Y-93113733D01*
X143918601Y-93113743D01*
G37*
G04 #@! TD.AperFunction*
G04 #@! TA.AperFunction,Conductor*
G36*
X149380548Y-97437487D02*
G01*
X149380926Y-97438302D01*
X149509119Y-97745494D01*
X149509142Y-97754449D01*
X149509119Y-97754506D01*
X149380948Y-98061647D01*
X149374599Y-98067962D01*
X149365644Y-98067939D01*
X149364784Y-98067538D01*
X149237952Y-98002082D01*
X149236475Y-98001175D01*
X149142667Y-97933532D01*
X149061058Y-97876027D01*
X149061056Y-97876026D01*
X149032259Y-97864604D01*
X148960886Y-97836296D01*
X148960882Y-97836295D01*
X148960881Y-97836295D01*
X148821252Y-97822510D01*
X148813356Y-97818287D01*
X148810702Y-97810867D01*
X148810702Y-97682115D01*
X148814129Y-97673842D01*
X148821299Y-97670467D01*
X148960467Y-97657323D01*
X149060819Y-97619240D01*
X149142825Y-97563746D01*
X149237216Y-97497604D01*
X149237914Y-97497185D01*
X149364808Y-97432387D01*
X149373734Y-97431677D01*
X149380548Y-97437487D01*
G37*
G04 #@! TD.AperFunction*
G04 #@! TA.AperFunction,Conductor*
G36*
X143918615Y-91843738D02*
G01*
X143924940Y-91850077D01*
X143925418Y-91851478D01*
X143978034Y-92045411D01*
X143978390Y-92047371D01*
X143995383Y-92226707D01*
X144012184Y-92335022D01*
X144018353Y-92374794D01*
X144092355Y-92485772D01*
X144092357Y-92485773D01*
X144253579Y-92551153D01*
X144259958Y-92557437D01*
X144260657Y-92564278D01*
X144235494Y-92690771D01*
X144230519Y-92698216D01*
X144222083Y-92700027D01*
X144132403Y-92684978D01*
X143990836Y-92661223D01*
X143815930Y-92640797D01*
X143666094Y-92619758D01*
X143665476Y-92619637D01*
X143497926Y-92577144D01*
X143497325Y-92576956D01*
X143280013Y-92496161D01*
X143273452Y-92490065D01*
X143273123Y-92481117D01*
X143273272Y-92480738D01*
X143457166Y-92034304D01*
X143463482Y-92027962D01*
X143909661Y-91843728D01*
X143918615Y-91843738D01*
G37*
G04 #@! TD.AperFunction*
G04 #@! TA.AperFunction,Conductor*
G36*
X143918586Y-90573750D02*
G01*
X143924911Y-90580089D01*
X143925396Y-90581517D01*
X143977834Y-90776616D01*
X143978190Y-90778623D01*
X143994155Y-90959348D01*
X144015902Y-91108774D01*
X144015903Y-91108777D01*
X144065720Y-91184982D01*
X144089149Y-91220822D01*
X144089150Y-91220822D01*
X144089151Y-91220823D01*
X144250756Y-91286745D01*
X144257122Y-91293042D01*
X144257812Y-91299860D01*
X144232654Y-91426344D01*
X144227679Y-91433790D01*
X144219213Y-91435596D01*
X143988511Y-91396277D01*
X143814209Y-91374411D01*
X143664981Y-91351648D01*
X143664394Y-91351526D01*
X143497406Y-91307624D01*
X143496841Y-91307445D01*
X143279972Y-91226179D01*
X143273427Y-91220067D01*
X143273121Y-91211118D01*
X143273230Y-91210839D01*
X143457166Y-90764304D01*
X143463482Y-90757962D01*
X143909632Y-90573740D01*
X143918586Y-90573750D01*
G37*
G04 #@! TD.AperFunction*
G04 #@! TA.AperFunction,Conductor*
G36*
X150250546Y-101237493D02*
G01*
X150250951Y-101238360D01*
X150379119Y-101545494D01*
X150379142Y-101554449D01*
X150379119Y-101554506D01*
X150250923Y-101861704D01*
X150244574Y-101868019D01*
X150235619Y-101867996D01*
X150234810Y-101867621D01*
X150108016Y-101802971D01*
X150107325Y-101802556D01*
X150012935Y-101736684D01*
X149930913Y-101681497D01*
X149930898Y-101681490D01*
X149830566Y-101643655D01*
X149830567Y-101643655D01*
X149691524Y-101630607D01*
X149683607Y-101626422D01*
X149680917Y-101618958D01*
X149680917Y-101490206D01*
X149684344Y-101481933D01*
X149691457Y-101478563D01*
X149831115Y-101464676D01*
X149905867Y-101434812D01*
X149931208Y-101424690D01*
X149931209Y-101424689D01*
X149931215Y-101424687D01*
X150012729Y-101366868D01*
X150106475Y-101298949D01*
X150107941Y-101298046D01*
X150234782Y-101232472D01*
X150243703Y-101231718D01*
X150250546Y-101237493D01*
G37*
G04 #@! TD.AperFunction*
G04 #@! TA.AperFunction,Conductor*
G36*
X150250546Y-99967494D02*
G01*
X150250954Y-99968367D01*
X150379119Y-100275493D01*
X150379142Y-100284448D01*
X150379119Y-100284505D01*
X150250921Y-100591709D01*
X150244572Y-100598024D01*
X150235617Y-100598001D01*
X150234813Y-100597629D01*
X150108090Y-100533090D01*
X150107403Y-100532679D01*
X150013022Y-100467023D01*
X149930978Y-100412071D01*
X149930973Y-100412069D01*
X149830652Y-100374426D01*
X149830650Y-100374425D01*
X149830646Y-100374424D01*
X149830641Y-100374423D01*
X149830639Y-100374423D01*
X149691698Y-100361449D01*
X149683780Y-100357268D01*
X149681086Y-100349800D01*
X149681086Y-100221047D01*
X149684513Y-100212774D01*
X149691620Y-100209405D01*
X149831295Y-100195439D01*
X149931340Y-100155246D01*
X150012778Y-100097182D01*
X150106462Y-100029058D01*
X150107943Y-100028144D01*
X150234778Y-99962482D01*
X150243700Y-99961723D01*
X150250546Y-99967494D01*
G37*
G04 #@! TD.AperFunction*
G04 #@! TA.AperFunction,Conductor*
G36*
X150250546Y-88537494D02*
G01*
X150250952Y-88538363D01*
X150379119Y-88845494D01*
X150379142Y-88854449D01*
X150379119Y-88854506D01*
X150250923Y-89161706D01*
X150244574Y-89168021D01*
X150235619Y-89167998D01*
X150234812Y-89167624D01*
X150108042Y-89103014D01*
X150107352Y-89102600D01*
X150012967Y-89036806D01*
X149930932Y-88981701D01*
X149830596Y-88943932D01*
X149815431Y-88942511D01*
X149691587Y-88930910D01*
X149683669Y-88926726D01*
X149680978Y-88919261D01*
X149680978Y-88790508D01*
X149684405Y-88782235D01*
X149691515Y-88778867D01*
X149784583Y-88769593D01*
X149831174Y-88764952D01*
X149831176Y-88764951D01*
X149831180Y-88764951D01*
X149931260Y-88724888D01*
X150012747Y-88666981D01*
X150106462Y-88598995D01*
X150107945Y-88598080D01*
X150234780Y-88532476D01*
X150243702Y-88531720D01*
X150250546Y-88537494D01*
G37*
G04 #@! TD.AperFunction*
G04 #@! TA.AperFunction,Conductor*
G36*
X150250546Y-107587494D02*
G01*
X150250952Y-107588364D01*
X150379119Y-107895494D01*
X150379142Y-107904449D01*
X150379119Y-107904506D01*
X150250922Y-108211707D01*
X150244573Y-108218022D01*
X150235618Y-108217999D01*
X150234817Y-108217627D01*
X150108043Y-108153020D01*
X150107360Y-108152611D01*
X150012973Y-108086832D01*
X149930939Y-108031745D01*
X149930931Y-108031741D01*
X149830607Y-107993990D01*
X149830603Y-107993989D01*
X149830602Y-107993989D01*
X149785196Y-107989737D01*
X149691600Y-107980973D01*
X149683683Y-107976790D01*
X149680991Y-107969324D01*
X149680991Y-107840571D01*
X149684418Y-107832298D01*
X149691528Y-107828929D01*
X149831194Y-107815007D01*
X149931269Y-107774930D01*
X150012751Y-107717004D01*
X150106467Y-107648998D01*
X150107945Y-107648087D01*
X150234779Y-107582477D01*
X150243701Y-107581721D01*
X150250546Y-107587494D01*
G37*
G04 #@! TD.AperFunction*
G04 #@! TA.AperFunction,Conductor*
G36*
X144229657Y-101519732D02*
G01*
X144234352Y-101526984D01*
X144259512Y-101653473D01*
X144257765Y-101662256D01*
X144252443Y-101666595D01*
X144091066Y-101732192D01*
X144017367Y-101843603D01*
X144017366Y-101843605D01*
X143994889Y-101992231D01*
X143978309Y-102172123D01*
X143977953Y-102174102D01*
X143925409Y-102368506D01*
X143919942Y-102375598D01*
X143911061Y-102376748D01*
X143909649Y-102376267D01*
X143890853Y-102368506D01*
X143832300Y-102344328D01*
X143463519Y-102192052D01*
X143457180Y-102185727D01*
X143457166Y-102185694D01*
X143273267Y-101739249D01*
X143273284Y-101730294D01*
X143279629Y-101723975D01*
X143279996Y-101723831D01*
X143497145Y-101642839D01*
X143497704Y-101642663D01*
X143665046Y-101599599D01*
X143665642Y-101599479D01*
X143815238Y-101577747D01*
X143989898Y-101556742D01*
X143989899Y-101556742D01*
X144166127Y-101526984D01*
X144220929Y-101517730D01*
X144229657Y-101519732D01*
G37*
G04 #@! TD.AperFunction*
G04 #@! TA.AperFunction,Conductor*
G36*
X150250549Y-93627487D02*
G01*
X150250925Y-93628299D01*
X150379119Y-93935494D01*
X150379142Y-93944449D01*
X150379119Y-93944506D01*
X150250949Y-94251643D01*
X150244600Y-94257958D01*
X150235645Y-94257935D01*
X150234782Y-94257532D01*
X150107956Y-94192025D01*
X150106472Y-94191113D01*
X150012697Y-94123341D01*
X149971913Y-94094513D01*
X149931132Y-94065686D01*
X149931131Y-94065685D01*
X149830995Y-94025831D01*
X149691352Y-94011998D01*
X149683457Y-94007772D01*
X149680805Y-94000355D01*
X149680805Y-93871603D01*
X149684232Y-93863330D01*
X149691406Y-93859955D01*
X149830515Y-93846856D01*
X149930860Y-93808891D01*
X149930860Y-93808890D01*
X149930862Y-93808890D01*
X150012878Y-93753540D01*
X150107273Y-93687522D01*
X150107953Y-93687114D01*
X150234810Y-93622382D01*
X150243736Y-93621676D01*
X150250549Y-93627487D01*
G37*
G04 #@! TD.AperFunction*
G04 #@! TA.AperFunction,Conductor*
G36*
X144229879Y-109140169D02*
G01*
X144234571Y-109147419D01*
X144241558Y-109182537D01*
X144259736Y-109273910D01*
X144257989Y-109282693D01*
X144252665Y-109287032D01*
X144091320Y-109352591D01*
X144017563Y-109463913D01*
X144017561Y-109463918D01*
X144017561Y-109463919D01*
X143994987Y-109612433D01*
X143994987Y-109612432D01*
X143978325Y-109792222D01*
X143977969Y-109794197D01*
X143925411Y-109988509D01*
X143919943Y-109995600D01*
X143911062Y-109996748D01*
X143909652Y-109996268D01*
X143463519Y-109812052D01*
X143457180Y-109805727D01*
X143457166Y-109805694D01*
X143377558Y-109612433D01*
X143273267Y-109359249D01*
X143273284Y-109350296D01*
X143279629Y-109343977D01*
X143279962Y-109343846D01*
X143497176Y-109262880D01*
X143497744Y-109262702D01*
X143665124Y-109219752D01*
X143665733Y-109219630D01*
X143815372Y-109198036D01*
X143815372Y-109198035D01*
X143990063Y-109177145D01*
X143990062Y-109177145D01*
X143990074Y-109177142D01*
X143990082Y-109177142D01*
X144221153Y-109138166D01*
X144229879Y-109140169D01*
G37*
G04 #@! TD.AperFunction*
G04 #@! TA.AperFunction,Conductor*
G36*
X144230124Y-105330611D02*
G01*
X144234815Y-105337861D01*
X144259972Y-105464353D01*
X144258225Y-105473135D01*
X144252899Y-105477475D01*
X144091580Y-105542982D01*
X144017760Y-105654222D01*
X143995085Y-105802646D01*
X143995085Y-105802645D01*
X143978342Y-105982319D01*
X143977986Y-105984290D01*
X143925412Y-106178511D01*
X143919942Y-106185601D01*
X143911061Y-106186748D01*
X143909653Y-106186268D01*
X143463519Y-106002052D01*
X143457180Y-105995727D01*
X143457166Y-105995694D01*
X143316507Y-105654222D01*
X143273268Y-105549251D01*
X143273285Y-105540298D01*
X143279630Y-105533979D01*
X143279948Y-105533854D01*
X143497202Y-105452921D01*
X143497796Y-105452735D01*
X143665212Y-105409894D01*
X143665824Y-105409771D01*
X143815516Y-105388308D01*
X143990278Y-105367530D01*
X143990281Y-105367529D01*
X143990285Y-105367529D01*
X144042808Y-105358682D01*
X144221398Y-105328605D01*
X144230124Y-105330611D01*
G37*
G04 #@! TD.AperFunction*
G04 #@! TA.AperFunction,Conductor*
G36*
X144230059Y-100250494D02*
G01*
X144234751Y-100257744D01*
X144259917Y-100384234D01*
X144258170Y-100393017D01*
X144252845Y-100397357D01*
X144091518Y-100462886D01*
X144017712Y-100574151D01*
X143995062Y-100722598D01*
X143978339Y-100902293D01*
X143977983Y-100904266D01*
X143925412Y-101098511D01*
X143919943Y-101105601D01*
X143911061Y-101106748D01*
X143909653Y-101106268D01*
X143463519Y-100922052D01*
X143457180Y-100915727D01*
X143457166Y-100915694D01*
X143316478Y-100574151D01*
X143273268Y-100469251D01*
X143273285Y-100460298D01*
X143279630Y-100453979D01*
X143279955Y-100453850D01*
X143497206Y-100372910D01*
X143497782Y-100372729D01*
X143665208Y-100329859D01*
X143665802Y-100329741D01*
X143815480Y-100308246D01*
X143990228Y-100287437D01*
X143990228Y-100287436D01*
X143990236Y-100287436D01*
X144052255Y-100276983D01*
X144221334Y-100248490D01*
X144230059Y-100250494D01*
G37*
G04 #@! TD.AperFunction*
G04 #@! TA.AperFunction,Conductor*
G36*
X150250546Y-102507494D02*
G01*
X150250952Y-102508363D01*
X150379119Y-102815493D01*
X150379142Y-102824448D01*
X150379119Y-102824505D01*
X150250923Y-103131706D01*
X150244574Y-103138021D01*
X150235619Y-103137998D01*
X150234812Y-103137624D01*
X150108042Y-103073015D01*
X150107352Y-103072601D01*
X150012967Y-103006809D01*
X149930932Y-102951705D01*
X149930932Y-102951704D01*
X149830596Y-102913937D01*
X149815547Y-102912527D01*
X149691588Y-102900915D01*
X149683670Y-102896731D01*
X149680979Y-102889266D01*
X149680979Y-102760513D01*
X149684406Y-102752240D01*
X149691517Y-102748871D01*
X149781707Y-102739884D01*
X149831175Y-102734956D01*
X149831177Y-102734955D01*
X149831181Y-102734955D01*
X149931261Y-102694891D01*
X150012747Y-102636982D01*
X150106461Y-102568996D01*
X150107944Y-102568081D01*
X150234780Y-102502476D01*
X150243701Y-102501720D01*
X150250546Y-102507494D01*
G37*
G04 #@! TD.AperFunction*
G04 #@! TA.AperFunction,Conductor*
G36*
X150250544Y-91077498D02*
G01*
X150250968Y-91078402D01*
X150379119Y-91385494D01*
X150379142Y-91394449D01*
X150379119Y-91394506D01*
X150250909Y-91701740D01*
X150244560Y-91708055D01*
X150235605Y-91708032D01*
X150234828Y-91707673D01*
X150193848Y-91686935D01*
X150108499Y-91643743D01*
X150107857Y-91643363D01*
X150013485Y-91578838D01*
X149931344Y-91525156D01*
X149931342Y-91525155D01*
X149831074Y-91488541D01*
X149831071Y-91488540D01*
X149831070Y-91488540D01*
X149811122Y-91486728D01*
X149692631Y-91475966D01*
X149684701Y-91471805D01*
X149681989Y-91464314D01*
X149681989Y-91335556D01*
X149685416Y-91327283D01*
X149692489Y-91323918D01*
X149759546Y-91317014D01*
X149832257Y-91309528D01*
X149832259Y-91309527D01*
X149832260Y-91309527D01*
X149932013Y-91268247D01*
X150013037Y-91208867D01*
X150106386Y-91139642D01*
X150107936Y-91138671D01*
X150234762Y-91072533D01*
X150243680Y-91071747D01*
X150250544Y-91077498D01*
G37*
G04 #@! TD.AperFunction*
G04 #@! TA.AperFunction,Conductor*
G36*
X143918605Y-94383742D02*
G01*
X143924930Y-94390081D01*
X143925410Y-94391492D01*
X143977964Y-94585831D01*
X143978320Y-94587807D01*
X143994954Y-94767614D01*
X143994955Y-94767624D01*
X144017499Y-94916180D01*
X144017500Y-94916181D01*
X144091236Y-95027532D01*
X144091238Y-95027534D01*
X144252594Y-95093111D01*
X144258967Y-95099400D01*
X144259663Y-95106232D01*
X144234497Y-95232722D01*
X144229522Y-95240167D01*
X144221075Y-95241976D01*
X143990023Y-95202984D01*
X143815327Y-95182052D01*
X143665704Y-95160412D01*
X143665097Y-95160291D01*
X143575726Y-95137338D01*
X143497744Y-95117310D01*
X143497155Y-95117126D01*
X143279998Y-95036167D01*
X143273443Y-95030066D01*
X143273122Y-95021117D01*
X143273242Y-95020810D01*
X143457166Y-94574304D01*
X143463482Y-94567962D01*
X143909651Y-94383732D01*
X143918605Y-94383742D01*
G37*
G04 #@! TD.AperFunction*
G04 #@! TA.AperFunction,Conductor*
G36*
X143918599Y-96923744D02*
G01*
X143924924Y-96930083D01*
X143925406Y-96931499D01*
X143977925Y-97126066D01*
X143978281Y-97128052D01*
X143994716Y-97308147D01*
X143994716Y-97308146D01*
X144017019Y-97456959D01*
X144090611Y-97568523D01*
X144252041Y-97634202D01*
X144258413Y-97640494D01*
X144259107Y-97647322D01*
X144233945Y-97773809D01*
X144228970Y-97781254D01*
X144220517Y-97783062D01*
X143989577Y-97743974D01*
X143814992Y-97722762D01*
X143665491Y-97700785D01*
X143664880Y-97700661D01*
X143606140Y-97685468D01*
X143497644Y-97657405D01*
X143497062Y-97657222D01*
X143279990Y-97576171D01*
X143273439Y-97570067D01*
X143273122Y-97561117D01*
X143273249Y-97560794D01*
X143457166Y-97114304D01*
X143463482Y-97107962D01*
X143909646Y-96923734D01*
X143918599Y-96923744D01*
G37*
G04 #@! TD.AperFunction*
G04 #@! TA.AperFunction,Conductor*
G36*
X143918606Y-89303741D02*
G01*
X143924931Y-89310080D01*
X143925411Y-89311490D01*
X143977970Y-89505802D01*
X143978326Y-89507777D01*
X143990167Y-89635536D01*
X143994989Y-89687564D01*
X144017568Y-89836087D01*
X144017569Y-89836088D01*
X144017570Y-89836092D01*
X144091327Y-89947409D01*
X144091329Y-89947411D01*
X144252679Y-90012962D01*
X144259054Y-90019251D01*
X144259750Y-90026084D01*
X144234594Y-90152574D01*
X144229619Y-90160020D01*
X144221174Y-90161829D01*
X144039214Y-90131147D01*
X143990097Y-90122865D01*
X143990092Y-90122864D01*
X143990078Y-90122862D01*
X143815382Y-90101974D01*
X143665750Y-90080377D01*
X143665131Y-90080253D01*
X143497755Y-90037300D01*
X143497166Y-90037115D01*
X143279999Y-89956167D01*
X143273443Y-89950067D01*
X143273122Y-89941118D01*
X143273243Y-89940807D01*
X143457166Y-89494304D01*
X143463482Y-89487962D01*
X143909654Y-89303731D01*
X143918606Y-89303741D01*
G37*
G04 #@! TD.AperFunction*
G04 #@! TA.AperFunction,Conductor*
G36*
X150250546Y-105047494D02*
G01*
X150250954Y-105048368D01*
X150379119Y-105355494D01*
X150379142Y-105364449D01*
X150379119Y-105364506D01*
X150250921Y-105671711D01*
X150244572Y-105678026D01*
X150235617Y-105678003D01*
X150234814Y-105677631D01*
X150108103Y-105613110D01*
X150107417Y-105612699D01*
X150013036Y-105547075D01*
X150013036Y-105547074D01*
X149930987Y-105492157D01*
X149930984Y-105492156D01*
X149930983Y-105492155D01*
X149830663Y-105454541D01*
X149830656Y-105454540D01*
X149691725Y-105441578D01*
X149683806Y-105437398D01*
X149681112Y-105429929D01*
X149681112Y-105301175D01*
X149684539Y-105292902D01*
X149691645Y-105289533D01*
X149831323Y-105275555D01*
X149931359Y-105235331D01*
X150012785Y-105177229D01*
X150106456Y-105109077D01*
X150107938Y-105108161D01*
X150234779Y-105042483D01*
X150243699Y-105041723D01*
X150250546Y-105047494D01*
G37*
G04 #@! TD.AperFunction*
M02*
