M48
; DRILL file {KiCad 7.0.6-0} date 2023 October 14, Saturday 16:51:06
; FORMAT={-:-/ absolute / metric / decimal}
; #@! TF.CreationDate,2023-10-14T16:51:06-04:00
; #@! TF.GenerationSoftware,Kicad,Pcbnew,7.0.6-0
; #@! TF.FileFunction,Plated,1,4,PTH
FMAT,2
METRIC
; #@! TA.AperFunction,Plated,PTH,ViaDrill
T1C0.300
; #@! TA.AperFunction,Plated,PTH,ComponentDrill
T2C0.650
%
G90
G05
T1
X149.51Y-97.75
X150.38Y-87.58
X150.38Y-88.85
X150.38Y-90.12
X150.38Y-91.39
X150.38Y-92.66
X150.38Y-93.94
X150.38Y-95.21
X150.38Y-96.52
X150.38Y-99.01
X150.38Y-100.28
X150.38Y-101.55
X150.38Y-102.82
X150.38Y-104.1
X150.38Y-105.36
X150.38Y-106.63
X150.38Y-107.9
X150.38Y-109.17
X150.38Y-110.45
X152.46Y-86.95
X152.46Y-88.22
X152.46Y-89.49
X152.46Y-90.76
X152.46Y-92.03
X152.46Y-93.3
X152.46Y-97.1
X152.46Y-99.65
X152.46Y-100.92
X152.46Y-102.19
X152.46Y-103.46
X152.46Y-104.73
X152.46Y-106.0
X152.46Y-107.27
X152.46Y-108.54
X152.46Y-109.81
X152.46Y-111.08
X153.75Y-95.84
T2
X143.46Y-86.95
X143.46Y-88.22
X143.46Y-89.49
X143.46Y-90.76
X143.46Y-92.03
X143.46Y-93.3
X143.46Y-94.57
X143.46Y-95.84
X143.46Y-97.11
X143.46Y-98.38
X143.46Y-99.65
X143.46Y-100.92
X143.46Y-102.19
X143.46Y-103.46
X143.46Y-104.73
X143.46Y-106.0
X143.46Y-107.27
X143.46Y-108.54
X143.46Y-109.81
X143.46Y-111.08
X144.73Y-86.95
X144.73Y-88.22
X144.73Y-89.49
X144.73Y-90.76
X144.73Y-92.03
X144.73Y-93.3
X144.73Y-94.57
X144.73Y-95.84
X144.73Y-97.11
X144.73Y-98.38
X144.73Y-99.65
X144.73Y-100.92
X144.73Y-102.19
X144.73Y-103.46
X144.73Y-104.73
X144.73Y-106.0
X144.73Y-107.27
X144.73Y-108.54
X144.73Y-109.81
X144.73Y-111.08
T0
M30
