M48
; DRILL file {KiCad 7.0.6-0} date 2023 October 14, Saturday 16:46:20
; FORMAT={-:-/ absolute / metric / decimal}
; #@! TF.CreationDate,2023-10-14T16:46:20-04:00
; #@! TF.GenerationSoftware,Kicad,Pcbnew,7.0.6-0
; #@! TF.FileFunction,Plated,1,2,PTH
FMAT,2
METRIC
; #@! TA.AperFunction,Plated,PTH,ViaDrill
T1C0.300
; #@! TA.AperFunction,Plated,PTH,ComponentDrill
T2C0.650
%
G90
G05
T1
X120.59Y-86.55
X120.6Y-99.22
X129.09Y-86.58
X132.37Y-85.66
X135.97Y-99.18
X136.47Y-87.21
X150.98Y-99.3
X166.08Y-99.28
T2
X112.23Y-88.5
X112.23Y-89.77
X112.23Y-91.04
X112.23Y-92.31
X112.23Y-93.58
X112.23Y-94.85
X112.23Y-96.12
X112.23Y-97.39
X112.23Y-98.66
X112.23Y-101.2
X112.23Y-102.47
X112.23Y-103.74
X112.23Y-105.01
X112.23Y-106.28
X112.23Y-107.55
X112.23Y-108.82
X112.23Y-110.09
X112.23Y-111.36
X112.23Y-112.63
X122.48Y-88.49
X122.48Y-89.76
X122.48Y-91.03
X122.48Y-92.3
X122.48Y-93.57
X122.48Y-96.11
X122.48Y-97.38
X122.48Y-101.19
X122.48Y-102.46
X122.48Y-103.73
X122.48Y-105.0
X122.48Y-106.27
X122.48Y-107.54
X122.48Y-108.81
X122.48Y-110.08
X122.48Y-111.35
X122.48Y-112.62
X127.43Y-88.5
X127.43Y-89.77
X127.43Y-91.04
X127.43Y-92.31
X127.43Y-93.58
X127.43Y-94.85
X127.43Y-96.12
X127.43Y-97.39
X127.43Y-98.66
X127.43Y-101.2
X127.43Y-102.47
X127.43Y-103.74
X127.43Y-105.01
X127.43Y-106.28
X127.43Y-107.55
X127.43Y-108.82
X127.43Y-110.09
X127.43Y-111.36
X127.43Y-112.63
X137.68Y-88.49
X137.68Y-89.76
X137.68Y-91.03
X137.68Y-92.3
X137.68Y-93.57
X137.68Y-96.11
X137.68Y-97.38
X137.68Y-101.19
X137.68Y-102.46
X137.68Y-103.73
X137.68Y-105.0
X137.68Y-106.27
X137.68Y-107.54
X137.68Y-108.81
X137.68Y-110.08
X137.68Y-111.35
X137.68Y-112.62
X142.63Y-88.5
X142.63Y-89.77
X142.63Y-91.04
X142.63Y-92.31
X142.63Y-93.58
X142.63Y-94.85
X142.63Y-96.12
X142.63Y-97.39
X142.63Y-98.66
X142.63Y-101.2
X142.63Y-102.47
X142.63Y-103.74
X142.63Y-105.01
X142.63Y-106.28
X142.63Y-107.55
X142.63Y-108.82
X142.63Y-110.09
X142.63Y-111.36
X142.63Y-112.63
X152.88Y-88.49
X152.88Y-89.76
X152.88Y-91.03
X152.88Y-92.3
X152.88Y-93.57
X152.88Y-96.11
X152.88Y-97.38
X152.88Y-101.19
X152.88Y-102.46
X152.88Y-103.73
X152.88Y-105.0
X152.88Y-106.27
X152.88Y-107.54
X152.88Y-108.81
X152.88Y-110.08
X152.88Y-111.35
X152.88Y-112.62
X157.84Y-88.5
X157.84Y-89.77
X157.84Y-91.04
X157.84Y-92.31
X157.84Y-93.58
X157.84Y-94.85
X157.84Y-96.12
X157.84Y-97.39
X157.84Y-98.66
X157.84Y-101.2
X157.84Y-102.47
X157.84Y-103.74
X157.84Y-105.01
X157.84Y-106.28
X157.84Y-107.55
X157.84Y-108.82
X157.84Y-110.09
X157.84Y-111.36
X157.84Y-112.63
X168.09Y-88.49
X168.09Y-89.76
X168.09Y-91.03
X168.09Y-92.3
X168.09Y-93.57
X168.09Y-96.11
X168.09Y-97.38
X168.09Y-101.19
X168.09Y-102.46
X168.09Y-103.73
X168.09Y-105.0
X168.09Y-106.27
X168.09Y-107.54
X168.09Y-108.81
X168.09Y-110.08
X168.09Y-111.35
X168.09Y-112.62
T0
M30
