G04 #@! TF.GenerationSoftware,KiCad,Pcbnew,7.0.6-0*
G04 #@! TF.CreationDate,2023-09-15T02:16:25-04:00*
G04 #@! TF.ProjectId,FBI Board,46424920-426f-4617-9264-2e6b69636164,1*
G04 #@! TF.SameCoordinates,Original*
G04 #@! TF.FileFunction,Legend,Bot*
G04 #@! TF.FilePolarity,Positive*
%FSLAX46Y46*%
G04 Gerber Fmt 4.6, Leading zero omitted, Abs format (unit mm)*
G04 Created by KiCad (PCBNEW 7.0.6-0) date 2023-09-15 02:16:25*
%MOMM*%
%LPD*%
G01*
G04 APERTURE LIST*
G04 Aperture macros list*
%AMRoundRect*
0 Rectangle with rounded corners*
0 $1 Rounding radius*
0 $2 $3 $4 $5 $6 $7 $8 $9 X,Y pos of 4 corners*
0 Add a 4 corners polygon primitive as box body*
4,1,4,$2,$3,$4,$5,$6,$7,$8,$9,$2,$3,0*
0 Add four circle primitives for the rounded corners*
1,1,$1+$1,$2,$3*
1,1,$1+$1,$4,$5*
1,1,$1+$1,$6,$7*
1,1,$1+$1,$8,$9*
0 Add four rect primitives between the rounded corners*
20,1,$1+$1,$2,$3,$4,$5,0*
20,1,$1+$1,$4,$5,$6,$7,0*
20,1,$1+$1,$6,$7,$8,$9,0*
20,1,$1+$1,$8,$9,$2,$3,0*%
G04 Aperture macros list end*
%ADD10C,0.127000*%
%ADD11RoundRect,0.278300X0.477500X0.227500X-0.477500X0.227500X-0.477500X-0.227500X0.477500X-0.227500X0*%
%ADD12RoundRect,0.278300X-0.477500X-0.227500X0.477500X-0.227500X0.477500X0.227500X-0.477500X0.227500X0*%
%ADD13RoundRect,0.240800X0.310000X0.190000X-0.310000X0.190000X-0.310000X-0.190000X0.310000X-0.190000X0*%
%ADD14RoundRect,0.240800X-0.310000X-0.190000X0.310000X-0.190000X0.310000X0.190000X-0.310000X0.190000X0*%
G04 APERTURE END LIST*
D10*
G36*
X139317076Y-115424702D02*
G01*
X139338159Y-115428926D01*
X139357422Y-115435967D01*
X139374864Y-115445825D01*
X139390486Y-115458499D01*
X139395289Y-115463349D01*
X139407906Y-115479612D01*
X139417912Y-115498726D01*
X139425308Y-115520691D01*
X139429477Y-115541172D01*
X139431834Y-115563634D01*
X139432414Y-115583028D01*
X139432414Y-116130132D01*
X139431507Y-116154189D01*
X139428788Y-116176290D01*
X139424256Y-116196435D01*
X139416425Y-116218028D01*
X139405984Y-116236804D01*
X139395289Y-116250300D01*
X139380274Y-116263746D01*
X139363438Y-116274411D01*
X139344782Y-116282293D01*
X139324306Y-116287394D01*
X139302009Y-116289712D01*
X139294172Y-116289867D01*
X139271120Y-116288476D01*
X139249957Y-116284303D01*
X139230683Y-116277348D01*
X139213297Y-116267610D01*
X139197801Y-116255091D01*
X139193056Y-116250300D01*
X139180273Y-116233870D01*
X139170135Y-116214625D01*
X139162642Y-116192563D01*
X139158418Y-116172026D01*
X139156030Y-116149534D01*
X139155442Y-116130132D01*
X139155442Y-115583028D01*
X139156361Y-115558983D01*
X139159116Y-115536918D01*
X139163707Y-115516832D01*
X139171641Y-115495343D01*
X139182220Y-115476704D01*
X139193056Y-115463349D01*
X139207922Y-115449736D01*
X139224678Y-115438940D01*
X139243322Y-115430960D01*
X139263856Y-115425797D01*
X139286278Y-115423450D01*
X139294172Y-115423293D01*
X139317076Y-115424702D01*
G37*
G36*
X141493768Y-115424702D02*
G01*
X141514851Y-115428926D01*
X141534114Y-115435967D01*
X141551556Y-115445825D01*
X141567178Y-115458499D01*
X141571981Y-115463349D01*
X141584598Y-115479612D01*
X141594604Y-115498726D01*
X141602000Y-115520691D01*
X141606169Y-115541172D01*
X141608526Y-115563634D01*
X141609106Y-115583028D01*
X141609106Y-116130132D01*
X141608200Y-116154189D01*
X141605481Y-116176290D01*
X141600949Y-116196435D01*
X141593118Y-116218028D01*
X141582676Y-116236804D01*
X141571981Y-116250300D01*
X141556966Y-116263746D01*
X141540130Y-116274411D01*
X141521474Y-116282293D01*
X141500998Y-116287394D01*
X141478701Y-116289712D01*
X141470865Y-116289867D01*
X141447812Y-116288476D01*
X141426649Y-116284303D01*
X141407375Y-116277348D01*
X141389990Y-116267610D01*
X141374494Y-116255091D01*
X141369748Y-116250300D01*
X141356965Y-116233870D01*
X141346827Y-116214625D01*
X141339334Y-116192563D01*
X141335110Y-116172026D01*
X141332722Y-116149534D01*
X141332135Y-116130132D01*
X141332135Y-115583028D01*
X141333053Y-115558983D01*
X141335808Y-115536918D01*
X141340399Y-115516832D01*
X141348333Y-115495343D01*
X141358912Y-115476704D01*
X141369748Y-115463349D01*
X141384614Y-115449736D01*
X141401370Y-115438940D01*
X141420014Y-115430960D01*
X141440548Y-115425797D01*
X141462971Y-115423450D01*
X141470865Y-115423293D01*
X141493768Y-115424702D01*
G37*
G36*
X142769748Y-116274235D02*
G01*
X142647627Y-116274235D01*
X142626606Y-116273831D01*
X142606777Y-116272617D01*
X142583665Y-116269963D01*
X142562413Y-116266044D01*
X142543021Y-116260861D01*
X142522207Y-116252972D01*
X142512805Y-116248346D01*
X142495477Y-116237950D01*
X142479763Y-116226181D01*
X142463471Y-116210713D01*
X142449376Y-116193376D01*
X142439043Y-116177027D01*
X142430554Y-116159207D01*
X142423404Y-116140184D01*
X142417594Y-116119960D01*
X142413123Y-116098533D01*
X142409992Y-116075904D01*
X142409246Y-116068094D01*
X142407557Y-116048128D01*
X142406154Y-116027613D01*
X142405038Y-116006550D01*
X142404208Y-115984937D01*
X142403664Y-115962777D01*
X142403407Y-115940067D01*
X142403384Y-115930830D01*
X142403587Y-115907200D01*
X142404195Y-115884548D01*
X142405208Y-115862874D01*
X142406628Y-115842177D01*
X142408452Y-115822459D01*
X142411177Y-115800088D01*
X142411688Y-115796496D01*
X142415386Y-115775648D01*
X142420252Y-115755967D01*
X142427404Y-115734483D01*
X142436147Y-115714587D01*
X142444905Y-115698799D01*
X142458022Y-115682494D01*
X142473008Y-115668198D01*
X142489865Y-115655913D01*
X142508591Y-115645638D01*
X142520132Y-115640669D01*
X142538799Y-115634361D01*
X142559630Y-115629358D01*
X142582626Y-115625660D01*
X142603441Y-115623575D01*
X142625759Y-115622397D01*
X142644696Y-115622107D01*
X142769748Y-115622107D01*
X142769748Y-116274235D01*
G37*
G36*
X142769748Y-115372002D02*
G01*
X142642253Y-115372002D01*
X142616425Y-115371401D01*
X142592245Y-115369598D01*
X142569713Y-115366593D01*
X142548830Y-115362385D01*
X142529596Y-115356976D01*
X142506515Y-115347893D01*
X142486365Y-115336673D01*
X142469146Y-115323316D01*
X142454858Y-115307822D01*
X142451744Y-115303614D01*
X142440409Y-115285411D01*
X142430586Y-115265238D01*
X142422274Y-115243095D01*
X142415474Y-115218984D01*
X142411365Y-115199608D01*
X142408106Y-115179125D01*
X142405698Y-115157534D01*
X142404139Y-115134835D01*
X142403431Y-115111028D01*
X142403384Y-115102847D01*
X142403860Y-115079321D01*
X142405290Y-115056919D01*
X142407673Y-115035643D01*
X142411009Y-115015492D01*
X142416939Y-114990373D01*
X142424564Y-114967254D01*
X142433884Y-114946134D01*
X142444897Y-114927015D01*
X142457606Y-114909895D01*
X142472413Y-114894668D01*
X142489968Y-114881471D01*
X142510271Y-114870305D01*
X142533321Y-114861168D01*
X142552412Y-114855649D01*
X142573049Y-114851271D01*
X142595231Y-114848035D01*
X142618959Y-114845941D01*
X142644232Y-114844990D01*
X142653000Y-114844926D01*
X142769748Y-114844926D01*
X142769748Y-115372002D01*
G37*
G36*
X143341226Y-116861345D02*
G01*
X136954376Y-116861345D01*
X136954376Y-116560000D01*
X137240090Y-116560000D01*
X137525854Y-116560000D01*
X137525854Y-115588890D01*
X137526725Y-115565582D01*
X137529336Y-115543896D01*
X137533689Y-115523832D01*
X137541211Y-115501896D01*
X137551241Y-115482295D01*
X137561514Y-115467745D01*
X137575951Y-115452639D01*
X137592517Y-115440657D01*
X137611213Y-115431802D01*
X137632039Y-115426072D01*
X137654994Y-115423467D01*
X137663119Y-115423293D01*
X137686796Y-115424510D01*
X137708065Y-115428159D01*
X137726925Y-115434241D01*
X137746376Y-115444751D01*
X137762359Y-115458765D01*
X137773028Y-115473119D01*
X137783154Y-115493200D01*
X137789993Y-115512348D01*
X137795376Y-115533691D01*
X137799304Y-115557228D01*
X137801400Y-115577638D01*
X137802564Y-115599452D01*
X137802825Y-115616734D01*
X137802825Y-116560000D01*
X138088590Y-116560000D01*
X138088590Y-115588890D01*
X138089460Y-115565582D01*
X138092072Y-115543896D01*
X138096425Y-115523832D01*
X138103947Y-115501896D01*
X138113976Y-115482295D01*
X138124249Y-115467745D01*
X138138669Y-115452639D01*
X138155184Y-115440657D01*
X138173794Y-115431802D01*
X138194499Y-115426072D01*
X138217300Y-115423467D01*
X138225366Y-115423293D01*
X138249043Y-115424510D01*
X138270312Y-115428159D01*
X138289172Y-115434241D01*
X138308623Y-115444751D01*
X138324606Y-115458765D01*
X138335275Y-115473119D01*
X138345567Y-115493200D01*
X138352518Y-115512348D01*
X138357989Y-115533691D01*
X138361982Y-115557228D01*
X138364112Y-115577638D01*
X138365295Y-115599452D01*
X138365561Y-115616734D01*
X138365561Y-116560000D01*
X138651325Y-116560000D01*
X138651325Y-116088611D01*
X138869678Y-116088611D01*
X138869854Y-116109661D01*
X138870375Y-116130132D01*
X138870380Y-116130315D01*
X138871258Y-116150572D01*
X138872487Y-116170432D01*
X138874517Y-116194699D01*
X138877095Y-116218346D01*
X138880222Y-116241372D01*
X138880913Y-116245903D01*
X138884901Y-116268090D01*
X138889844Y-116289466D01*
X138895740Y-116310031D01*
X138902590Y-116329785D01*
X138910394Y-116348728D01*
X138919153Y-116366861D01*
X138922923Y-116373886D01*
X138936067Y-116396158D01*
X138950584Y-116417301D01*
X138966475Y-116437313D01*
X138983740Y-116456196D01*
X139002378Y-116473950D01*
X139022391Y-116490573D01*
X139038302Y-116502300D01*
X139054986Y-116513391D01*
X139066538Y-116520432D01*
X139084393Y-116530297D01*
X139102968Y-116539191D01*
X139122265Y-116547115D01*
X139142284Y-116554069D01*
X139163023Y-116560052D01*
X139184484Y-116565066D01*
X139206667Y-116569109D01*
X139229570Y-116572181D01*
X139253195Y-116574283D01*
X139277541Y-116575415D01*
X139294172Y-116575631D01*
X139318916Y-116575146D01*
X139342956Y-116573690D01*
X139366292Y-116571265D01*
X139388923Y-116567869D01*
X139410851Y-116563502D01*
X139424780Y-116560000D01*
X139819783Y-116560000D01*
X139932623Y-116560000D01*
X139955590Y-116559526D01*
X139977594Y-116558107D01*
X139998637Y-116555741D01*
X140018719Y-116552428D01*
X140037838Y-116548169D01*
X140060386Y-116541514D01*
X140081430Y-116533381D01*
X140089427Y-116529713D01*
X140108358Y-116519691D01*
X140126073Y-116508857D01*
X140142571Y-116497213D01*
X140157853Y-116484757D01*
X140174586Y-116468740D01*
X140189567Y-116451556D01*
X140202968Y-116433358D01*
X140214960Y-116414301D01*
X140225545Y-116394386D01*
X140234721Y-116373612D01*
X140242489Y-116351979D01*
X140244765Y-116344577D01*
X140250576Y-116322200D01*
X140255184Y-116300133D01*
X140258590Y-116278374D01*
X140260794Y-116256925D01*
X140261796Y-116235784D01*
X140261862Y-116228806D01*
X140261862Y-115372002D01*
X140390334Y-115372002D01*
X140413782Y-115372002D01*
X140546650Y-115372002D01*
X140546650Y-116137948D01*
X140546229Y-116158481D01*
X140544718Y-116179371D01*
X140541704Y-116199589D01*
X140537857Y-116214640D01*
X140529751Y-116232935D01*
X140517559Y-116248569D01*
X140509525Y-116255184D01*
X140491882Y-116264524D01*
X140471497Y-116270316D01*
X140461165Y-116271793D01*
X140440012Y-116273184D01*
X140420216Y-116273892D01*
X140398178Y-116274214D01*
X140390334Y-116274235D01*
X140390334Y-116560000D01*
X140503174Y-116560000D01*
X140526141Y-116559526D01*
X140548146Y-116558107D01*
X140569189Y-116555741D01*
X140589270Y-116552428D01*
X140608390Y-116548169D01*
X140630937Y-116541514D01*
X140651981Y-116533381D01*
X140659978Y-116529713D01*
X140678910Y-116519691D01*
X140696624Y-116508857D01*
X140713123Y-116497213D01*
X140728404Y-116484757D01*
X140745137Y-116468740D01*
X140760118Y-116451556D01*
X140773519Y-116433358D01*
X140785512Y-116414301D01*
X140796096Y-116394386D01*
X140805272Y-116373612D01*
X140813040Y-116351979D01*
X140815317Y-116344577D01*
X140821127Y-116322200D01*
X140825735Y-116300133D01*
X140829141Y-116278374D01*
X140831345Y-116256925D01*
X140832347Y-116235784D01*
X140832414Y-116228806D01*
X140832414Y-116088611D01*
X141046371Y-116088611D01*
X141046546Y-116109661D01*
X141047068Y-116130132D01*
X141047073Y-116130315D01*
X141047950Y-116150572D01*
X141049179Y-116170432D01*
X141051209Y-116194699D01*
X141053787Y-116218346D01*
X141056914Y-116241372D01*
X141057606Y-116245903D01*
X141061594Y-116268090D01*
X141066536Y-116289466D01*
X141072432Y-116310031D01*
X141079282Y-116329785D01*
X141087087Y-116348728D01*
X141095845Y-116366861D01*
X141099615Y-116373886D01*
X141112759Y-116396158D01*
X141127276Y-116417301D01*
X141143167Y-116437313D01*
X141160432Y-116456196D01*
X141179071Y-116473950D01*
X141199083Y-116490573D01*
X141214994Y-116502300D01*
X141231678Y-116513391D01*
X141243230Y-116520432D01*
X141261085Y-116530297D01*
X141279661Y-116539191D01*
X141298958Y-116547115D01*
X141318976Y-116554069D01*
X141339716Y-116560052D01*
X141361177Y-116565066D01*
X141383359Y-116569109D01*
X141406262Y-116572181D01*
X141429887Y-116574283D01*
X141454233Y-116575415D01*
X141470865Y-116575631D01*
X141495608Y-116575146D01*
X141519648Y-116573690D01*
X141542984Y-116571265D01*
X141565616Y-116567869D01*
X141587543Y-116563502D01*
X141608766Y-116558166D01*
X141629286Y-116551859D01*
X141649101Y-116544582D01*
X141668212Y-116536334D01*
X141686619Y-116527116D01*
X141698499Y-116520432D01*
X141715611Y-116509765D01*
X141731958Y-116498462D01*
X141747542Y-116486523D01*
X141767131Y-116469617D01*
X141785361Y-116451581D01*
X141802233Y-116432416D01*
X141817746Y-116412121D01*
X141831901Y-116390696D01*
X141841625Y-116373886D01*
X141850765Y-116356079D01*
X141858951Y-116337460D01*
X141866183Y-116318030D01*
X141872461Y-116297790D01*
X141877785Y-116276738D01*
X141882154Y-116254875D01*
X141883635Y-116245903D01*
X141886872Y-116223001D01*
X141889560Y-116199478D01*
X141891699Y-116175335D01*
X141893016Y-116155574D01*
X141893981Y-116135417D01*
X141894596Y-116114862D01*
X141894859Y-116093911D01*
X141894870Y-116088611D01*
X141894870Y-116010453D01*
X142117620Y-116010453D01*
X142118125Y-116043245D01*
X142119642Y-116075063D01*
X142122171Y-116105908D01*
X142125710Y-116135780D01*
X142130261Y-116164679D01*
X142135823Y-116192605D01*
X142142397Y-116219557D01*
X142149982Y-116245537D01*
X142158578Y-116270543D01*
X142168186Y-116294576D01*
X142178804Y-116317636D01*
X142190435Y-116339723D01*
X142203076Y-116360837D01*
X142216729Y-116380977D01*
X142231393Y-116400144D01*
X142247068Y-116418339D01*
X142263852Y-116435493D01*
X142281842Y-116451540D01*
X142301038Y-116466481D01*
X142321440Y-116480315D01*
X142343048Y-116493043D01*
X142365862Y-116504663D01*
X142389882Y-116515177D01*
X142415107Y-116524584D01*
X142441539Y-116532885D01*
X142469177Y-116540078D01*
X142498020Y-116546165D01*
X142528070Y-116551146D01*
X142559325Y-116555019D01*
X142591787Y-116557786D01*
X142625454Y-116559446D01*
X142660327Y-116560000D01*
X143055512Y-116560000D01*
X143055512Y-114559162D01*
X142631995Y-114559162D01*
X142606252Y-114559531D01*
X142581231Y-114560639D01*
X142556930Y-114562485D01*
X142533351Y-114565070D01*
X142510494Y-114568393D01*
X142488357Y-114572454D01*
X142466942Y-114577254D01*
X142446248Y-114582793D01*
X142426276Y-114589069D01*
X142407025Y-114596085D01*
X142394591Y-114601172D01*
X142376495Y-114609202D01*
X142353341Y-114620670D01*
X142331302Y-114633008D01*
X142310377Y-114646216D01*
X142290567Y-114660294D01*
X142271871Y-114675243D01*
X142254289Y-114691061D01*
X142237822Y-114707750D01*
X142233879Y-114712058D01*
X142218919Y-114729842D01*
X142205059Y-114748267D01*
X142192297Y-114767333D01*
X142180634Y-114787041D01*
X142170071Y-114807389D01*
X142160606Y-114828379D01*
X142152241Y-114850010D01*
X142144975Y-114872281D01*
X142138563Y-114894981D01*
X142133007Y-114917894D01*
X142128305Y-114941021D01*
X142124458Y-114964361D01*
X142121466Y-114987915D01*
X142119329Y-115011683D01*
X142118047Y-115035665D01*
X142117620Y-115059860D01*
X142117620Y-115102847D01*
X142117620Y-115132644D01*
X142117833Y-115152405D01*
X142118702Y-115176011D01*
X142120238Y-115198401D01*
X142122442Y-115219574D01*
X142125313Y-115239531D01*
X142129641Y-115261874D01*
X142131297Y-115268932D01*
X142136707Y-115289334D01*
X142143044Y-115308774D01*
X142150308Y-115327252D01*
X142159955Y-115347595D01*
X142170865Y-115366629D01*
X142184405Y-115385703D01*
X142199624Y-115404090D01*
X142216523Y-115421790D01*
X142235100Y-115438803D01*
X142255357Y-115455129D01*
X142271652Y-115466923D01*
X142288891Y-115478330D01*
X142307075Y-115489351D01*
X142326203Y-115499986D01*
X142306555Y-115509448D01*
X142287912Y-115519701D01*
X142270274Y-115530743D01*
X142253640Y-115542575D01*
X142238011Y-115555198D01*
X142223386Y-115568610D01*
X142209766Y-115582812D01*
X142197151Y-115597805D01*
X142185541Y-115613587D01*
X142174935Y-115630159D01*
X142168422Y-115641646D01*
X142159343Y-115659741D01*
X142151157Y-115679038D01*
X142143864Y-115699538D01*
X142137464Y-115721239D01*
X142131957Y-115744143D01*
X142127344Y-115768248D01*
X142123623Y-115793556D01*
X142120795Y-115820066D01*
X142118860Y-115847778D01*
X142117818Y-115876692D01*
X142117620Y-115896636D01*
X142117620Y-115930830D01*
X142117620Y-116010453D01*
X141894870Y-116010453D01*
X141894870Y-115625038D01*
X141894695Y-115603766D01*
X141894168Y-115582937D01*
X141893290Y-115562550D01*
X141892061Y-115542606D01*
X141890481Y-115523105D01*
X141888013Y-115499351D01*
X141884995Y-115476288D01*
X141883635Y-115467257D01*
X141879647Y-115445211D01*
X141874705Y-115423952D01*
X141868809Y-115403480D01*
X141861958Y-115383795D01*
X141854154Y-115364897D01*
X141845396Y-115346786D01*
X141841625Y-115339762D01*
X141828490Y-115317490D01*
X141813995Y-115296348D01*
X141798142Y-115276335D01*
X141780931Y-115257452D01*
X141762361Y-115239699D01*
X141742432Y-115223075D01*
X141726594Y-115211349D01*
X141709992Y-115200258D01*
X141698499Y-115193217D01*
X141680561Y-115183265D01*
X141661920Y-115174292D01*
X141642574Y-115166297D01*
X141622524Y-115159282D01*
X141601770Y-115153246D01*
X141580312Y-115148188D01*
X141558150Y-115144109D01*
X141535284Y-115141010D01*
X141511713Y-115138889D01*
X141487439Y-115137747D01*
X141470865Y-115137529D01*
X141446038Y-115138019D01*
X141421932Y-115139487D01*
X141398548Y-115141934D01*
X141375885Y-115145360D01*
X141353943Y-115149765D01*
X141332722Y-115155149D01*
X141312223Y-115161512D01*
X141292445Y-115168853D01*
X141273389Y-115177174D01*
X141255053Y-115186473D01*
X141243230Y-115193217D01*
X141226031Y-115203884D01*
X141209605Y-115215187D01*
X141193951Y-115227125D01*
X141174282Y-115244031D01*
X141155987Y-115262067D01*
X141139065Y-115281233D01*
X141123518Y-115301528D01*
X141109344Y-115322952D01*
X141099615Y-115339762D01*
X141090475Y-115357558D01*
X141082289Y-115376141D01*
X141075058Y-115395511D01*
X141068780Y-115415668D01*
X141063456Y-115436613D01*
X141059086Y-115458344D01*
X141057606Y-115467257D01*
X141054369Y-115490043D01*
X141051681Y-115513520D01*
X141049541Y-115537689D01*
X141048225Y-115557522D01*
X141047259Y-115577798D01*
X141046645Y-115598517D01*
X141046381Y-115619678D01*
X141046371Y-115625038D01*
X141046371Y-116088611D01*
X140832414Y-116088611D01*
X140832414Y-115372002D01*
X140984333Y-115372002D01*
X140984333Y-115153161D01*
X140832414Y-115153161D01*
X140832414Y-114699846D01*
X140546650Y-114699846D01*
X140546650Y-115153161D01*
X140413782Y-115153161D01*
X140261862Y-115153161D01*
X140261862Y-114699846D01*
X139976098Y-114699846D01*
X139976098Y-115153161D01*
X139819783Y-115153161D01*
X139819783Y-115372002D01*
X139976098Y-115372002D01*
X139976098Y-116137948D01*
X139975678Y-116158481D01*
X139974166Y-116179371D01*
X139971152Y-116199589D01*
X139967306Y-116214640D01*
X139959200Y-116232935D01*
X139947008Y-116248569D01*
X139938973Y-116255184D01*
X139921330Y-116264524D01*
X139900946Y-116270316D01*
X139890613Y-116271793D01*
X139869461Y-116273184D01*
X139849665Y-116273892D01*
X139827627Y-116274214D01*
X139819783Y-116274235D01*
X139819783Y-116560000D01*
X139424780Y-116560000D01*
X139432074Y-116558166D01*
X139452593Y-116551859D01*
X139472409Y-116544582D01*
X139491520Y-116536334D01*
X139509927Y-116527116D01*
X139521807Y-116520432D01*
X139538918Y-116509765D01*
X139555266Y-116498462D01*
X139570849Y-116486523D01*
X139590438Y-116469617D01*
X139608669Y-116451581D01*
X139625541Y-116432416D01*
X139641054Y-116412121D01*
X139655209Y-116390696D01*
X139664933Y-116373886D01*
X139674073Y-116356079D01*
X139682259Y-116337460D01*
X139689491Y-116318030D01*
X139695769Y-116297790D01*
X139701092Y-116276738D01*
X139705462Y-116254875D01*
X139706943Y-116245903D01*
X139710179Y-116223001D01*
X139712868Y-116199478D01*
X139715007Y-116175335D01*
X139716324Y-116155574D01*
X139717289Y-116135417D01*
X139717904Y-116114862D01*
X139718167Y-116093911D01*
X139718178Y-116088611D01*
X139718178Y-115625038D01*
X139718002Y-115603766D01*
X139717476Y-115582937D01*
X139716598Y-115562550D01*
X139715369Y-115542606D01*
X139713789Y-115523105D01*
X139711320Y-115499351D01*
X139708303Y-115476288D01*
X139706943Y-115467257D01*
X139702955Y-115445211D01*
X139698013Y-115423952D01*
X139692116Y-115403480D01*
X139685266Y-115383795D01*
X139677462Y-115364897D01*
X139668703Y-115346786D01*
X139664933Y-115339762D01*
X139651797Y-115317490D01*
X139637303Y-115296348D01*
X139621450Y-115276335D01*
X139604239Y-115257452D01*
X139585669Y-115239699D01*
X139565740Y-115223075D01*
X139549902Y-115211349D01*
X139533299Y-115200258D01*
X139521807Y-115193217D01*
X139503869Y-115183265D01*
X139485227Y-115174292D01*
X139465882Y-115166297D01*
X139445832Y-115159282D01*
X139425078Y-115153246D01*
X139403620Y-115148188D01*
X139381458Y-115144109D01*
X139358591Y-115141010D01*
X139335021Y-115138889D01*
X139310746Y-115137747D01*
X139294172Y-115137529D01*
X139269345Y-115138019D01*
X139245240Y-115139487D01*
X139221855Y-115141934D01*
X139199192Y-115145360D01*
X139177251Y-115149765D01*
X139156030Y-115155149D01*
X139135531Y-115161512D01*
X139115753Y-115168853D01*
X139096696Y-115177174D01*
X139078361Y-115186473D01*
X139066538Y-115193217D01*
X139049339Y-115203884D01*
X139032913Y-115215187D01*
X139017259Y-115227125D01*
X138997590Y-115244031D01*
X138979295Y-115262067D01*
X138962373Y-115281233D01*
X138946826Y-115301528D01*
X138932652Y-115322952D01*
X138922923Y-115339762D01*
X138913783Y-115357558D01*
X138905597Y-115376141D01*
X138898365Y-115395511D01*
X138892088Y-115415668D01*
X138886764Y-115436613D01*
X138882394Y-115458344D01*
X138880913Y-115467257D01*
X138877677Y-115490043D01*
X138874989Y-115513520D01*
X138872849Y-115537689D01*
X138871532Y-115557522D01*
X138870567Y-115577798D01*
X138869953Y-115598517D01*
X138869689Y-115619678D01*
X138869678Y-115625038D01*
X138869678Y-116088611D01*
X138651325Y-116088611D01*
X138651325Y-115153161D01*
X138365561Y-115153161D01*
X138365561Y-115290914D01*
X138359699Y-115290914D01*
X138348311Y-115274557D01*
X138336374Y-115258948D01*
X138320679Y-115240489D01*
X138304126Y-115223199D01*
X138286714Y-115207078D01*
X138268444Y-115192125D01*
X138253209Y-115181004D01*
X138232835Y-115168480D01*
X138210791Y-115158078D01*
X138191954Y-115151285D01*
X138172048Y-115145851D01*
X138151074Y-115141775D01*
X138129031Y-115139058D01*
X138105919Y-115137699D01*
X138093963Y-115137529D01*
X138071599Y-115138231D01*
X138050182Y-115140338D01*
X138029712Y-115143849D01*
X138010188Y-115148764D01*
X137991610Y-115155084D01*
X137969719Y-115164959D01*
X137949306Y-115177028D01*
X137941555Y-115182470D01*
X137923023Y-115196564D01*
X137905587Y-115211063D01*
X137889248Y-115225968D01*
X137874007Y-115241279D01*
X137859863Y-115256995D01*
X137846816Y-115273116D01*
X137841904Y-115279678D01*
X137828547Y-115265398D01*
X137811379Y-115248256D01*
X137793685Y-115231900D01*
X137775467Y-115216332D01*
X137756725Y-115201551D01*
X137737457Y-115187557D01*
X137725645Y-115179539D01*
X137704572Y-115167437D01*
X137685944Y-115159231D01*
X137665745Y-115152339D01*
X137643973Y-115146760D01*
X137620628Y-115142493D01*
X137595712Y-115139539D01*
X137575993Y-115138186D01*
X137555389Y-115137570D01*
X137548324Y-115137529D01*
X137528438Y-115138165D01*
X137508345Y-115140071D01*
X137488046Y-115143248D01*
X137467541Y-115147696D01*
X137446830Y-115153414D01*
X137439881Y-115155603D01*
X137419410Y-115163205D01*
X137399764Y-115172456D01*
X137380942Y-115183355D01*
X137362944Y-115195903D01*
X137345771Y-115210100D01*
X137340230Y-115215198D01*
X137324144Y-115231610D01*
X137309226Y-115249705D01*
X137297686Y-115266070D01*
X137286958Y-115283604D01*
X137277040Y-115302306D01*
X137267934Y-115322177D01*
X137259912Y-115343195D01*
X137253250Y-115365644D01*
X137247948Y-115389525D01*
X137244685Y-115409660D01*
X137242292Y-115430710D01*
X137240770Y-115452677D01*
X137240117Y-115475559D01*
X137240090Y-115481423D01*
X137240090Y-116560000D01*
X136954376Y-116560000D01*
X136954376Y-114273448D01*
X143341226Y-114273448D01*
X143341226Y-116861345D01*
G37*
%LPC*%
D11*
X137420000Y-112620000D03*
X137420000Y-111350000D03*
X137420000Y-110080000D03*
X137420000Y-108810000D03*
X137420000Y-107540000D03*
X137420000Y-106270000D03*
X137420000Y-105000000D03*
X137420000Y-103730000D03*
X137420000Y-102460000D03*
X137420000Y-101190000D03*
X137420000Y-97380000D03*
X137420000Y-96110000D03*
X137420000Y-93570000D03*
X137420000Y-92300000D03*
X137420000Y-91030000D03*
X137420000Y-89760000D03*
X137420000Y-88490000D03*
D12*
X127690000Y-88500000D03*
X127690000Y-89770000D03*
X127690000Y-91040000D03*
X127690000Y-92310000D03*
X127690000Y-93580000D03*
X127690000Y-94850000D03*
X127690000Y-96120000D03*
X127690000Y-97390000D03*
X127690000Y-98660000D03*
X127690000Y-101200000D03*
X127690000Y-102470000D03*
X127690000Y-103740000D03*
X127690000Y-105010000D03*
X127690000Y-106280000D03*
X127690000Y-107550000D03*
X127690000Y-108820000D03*
X127690000Y-110090000D03*
X127690000Y-111360000D03*
X127690000Y-112630000D03*
D13*
X149820000Y-112620000D03*
X149820000Y-111350000D03*
X149820000Y-110080000D03*
X149820000Y-108810000D03*
X149820000Y-107540000D03*
X149820000Y-106270000D03*
X149820000Y-105000000D03*
X149820000Y-103730000D03*
X149820000Y-102460000D03*
X149820000Y-101190000D03*
X149820000Y-99920000D03*
X149820000Y-98650000D03*
X149820000Y-97380000D03*
X149820000Y-96110000D03*
X149820000Y-94840000D03*
X149820000Y-93570000D03*
X149820000Y-92300000D03*
X149820000Y-91030000D03*
X149820000Y-89760000D03*
X149820000Y-88490000D03*
D14*
X145720000Y-88480000D03*
X145720000Y-89750000D03*
X145720000Y-91020000D03*
X145720000Y-92290000D03*
X145720000Y-93560000D03*
X145720000Y-94830000D03*
X145720000Y-96100000D03*
X145720000Y-97370000D03*
X145720000Y-98640000D03*
X145720000Y-99910000D03*
X145720000Y-101180000D03*
X145720000Y-102450000D03*
X145720000Y-103720000D03*
X145720000Y-104990000D03*
X145720000Y-106260000D03*
X145720000Y-107530000D03*
X145720000Y-108800000D03*
X145720000Y-110070000D03*
X145720000Y-111340000D03*
X145720000Y-112610000D03*
D13*
X119400000Y-112620000D03*
X119400000Y-111350000D03*
X119400000Y-110080000D03*
X119400000Y-108810000D03*
X119400000Y-107540000D03*
X119400000Y-106270000D03*
X119400000Y-105000000D03*
X119400000Y-103730000D03*
X119400000Y-102460000D03*
X119400000Y-101190000D03*
X119400000Y-99920000D03*
X119400000Y-98650000D03*
X119400000Y-97380000D03*
X119400000Y-96110000D03*
X119400000Y-94840000D03*
X119400000Y-93570000D03*
X119400000Y-92300000D03*
X119400000Y-91030000D03*
X119400000Y-89760000D03*
X119400000Y-88490000D03*
D14*
X115300000Y-88480000D03*
X115300000Y-89750000D03*
X115300000Y-91020000D03*
X115300000Y-92290000D03*
X115300000Y-93560000D03*
X115300000Y-94830000D03*
X115300000Y-96100000D03*
X115300000Y-97370000D03*
X115300000Y-98640000D03*
X115300000Y-99910000D03*
X115300000Y-101180000D03*
X115300000Y-102450000D03*
X115300000Y-103720000D03*
X115300000Y-104990000D03*
X115300000Y-106260000D03*
X115300000Y-107530000D03*
X115300000Y-108800000D03*
X115300000Y-110070000D03*
X115300000Y-111340000D03*
X115300000Y-112610000D03*
D13*
X165010000Y-112620000D03*
X165010000Y-111350000D03*
X165010000Y-110080000D03*
X165010000Y-108810000D03*
X165010000Y-107540000D03*
X165010000Y-106270000D03*
X165010000Y-105000000D03*
X165010000Y-103730000D03*
X165010000Y-102460000D03*
X165010000Y-101190000D03*
X165010000Y-99920000D03*
X165010000Y-98650000D03*
X165010000Y-97380000D03*
X165010000Y-96110000D03*
X165010000Y-94840000D03*
X165010000Y-93570000D03*
X165010000Y-92300000D03*
X165010000Y-91030000D03*
X165010000Y-89760000D03*
X165010000Y-88490000D03*
D14*
X160910000Y-88480000D03*
X160910000Y-89750000D03*
X160910000Y-91020000D03*
X160910000Y-92290000D03*
X160910000Y-93560000D03*
X160910000Y-94830000D03*
X160910000Y-96100000D03*
X160910000Y-97370000D03*
X160910000Y-98640000D03*
X160910000Y-99910000D03*
X160910000Y-101180000D03*
X160910000Y-102450000D03*
X160910000Y-103720000D03*
X160910000Y-104990000D03*
X160910000Y-106260000D03*
X160910000Y-107530000D03*
X160910000Y-108800000D03*
X160910000Y-110070000D03*
X160910000Y-111340000D03*
X160910000Y-112610000D03*
D11*
X167830000Y-112620000D03*
X167830000Y-111350000D03*
X167830000Y-110080000D03*
X167830000Y-108810000D03*
X167830000Y-107540000D03*
X167830000Y-106270000D03*
X167830000Y-105000000D03*
X167830000Y-103730000D03*
X167830000Y-102460000D03*
X167830000Y-101190000D03*
X167830000Y-97380000D03*
X167830000Y-96110000D03*
X167830000Y-93570000D03*
X167830000Y-92300000D03*
X167830000Y-91030000D03*
X167830000Y-89760000D03*
X167830000Y-88490000D03*
D12*
X158100000Y-88500000D03*
X158100000Y-89770000D03*
X158100000Y-91040000D03*
X158100000Y-92310000D03*
X158100000Y-93580000D03*
X158100000Y-94850000D03*
X158100000Y-96120000D03*
X158100000Y-97390000D03*
X158100000Y-98660000D03*
X158100000Y-101200000D03*
X158100000Y-102470000D03*
X158100000Y-103740000D03*
X158100000Y-105010000D03*
X158100000Y-106280000D03*
X158100000Y-107550000D03*
X158100000Y-108820000D03*
X158100000Y-110090000D03*
X158100000Y-111360000D03*
X158100000Y-112630000D03*
D13*
X134610000Y-112620000D03*
X134610000Y-111350000D03*
X134610000Y-110080000D03*
X134610000Y-108810000D03*
X134610000Y-107540000D03*
X134610000Y-106270000D03*
X134610000Y-105000000D03*
X134610000Y-103730000D03*
X134610000Y-102460000D03*
X134610000Y-101190000D03*
X134610000Y-99920000D03*
X134610000Y-98650000D03*
X134610000Y-97380000D03*
X134610000Y-96110000D03*
X134610000Y-94840000D03*
X134610000Y-93570000D03*
X134610000Y-92300000D03*
X134610000Y-91030000D03*
X134610000Y-89760000D03*
X134610000Y-88490000D03*
D14*
X130510000Y-88480000D03*
X130510000Y-89750000D03*
X130510000Y-91020000D03*
X130510000Y-92290000D03*
X130510000Y-93560000D03*
X130510000Y-94830000D03*
X130510000Y-96100000D03*
X130510000Y-97370000D03*
X130510000Y-98640000D03*
X130510000Y-99910000D03*
X130510000Y-101180000D03*
X130510000Y-102450000D03*
X130510000Y-103720000D03*
X130510000Y-104990000D03*
X130510000Y-106260000D03*
X130510000Y-107530000D03*
X130510000Y-108800000D03*
X130510000Y-110070000D03*
X130510000Y-111340000D03*
X130510000Y-112610000D03*
D11*
X122220000Y-112620000D03*
X122220000Y-111350000D03*
X122220000Y-110080000D03*
X122220000Y-108810000D03*
X122220000Y-107540000D03*
X122220000Y-106270000D03*
X122220000Y-105000000D03*
X122220000Y-103730000D03*
X122220000Y-102460000D03*
X122220000Y-101190000D03*
X122220000Y-97380000D03*
X122220000Y-96110000D03*
X122220000Y-93570000D03*
X122220000Y-92300000D03*
X122220000Y-91030000D03*
X122220000Y-89760000D03*
X122220000Y-88490000D03*
D12*
X112490000Y-88500000D03*
X112490000Y-89770000D03*
X112490000Y-91040000D03*
X112490000Y-92310000D03*
X112490000Y-93580000D03*
X112490000Y-94850000D03*
X112490000Y-96120000D03*
X112490000Y-97390000D03*
X112490000Y-98660000D03*
X112490000Y-101200000D03*
X112490000Y-102470000D03*
X112490000Y-103740000D03*
X112490000Y-105010000D03*
X112490000Y-106280000D03*
X112490000Y-107550000D03*
X112490000Y-108820000D03*
X112490000Y-110090000D03*
X112490000Y-111360000D03*
X112490000Y-112630000D03*
D11*
X152620000Y-112620000D03*
X152620000Y-111350000D03*
X152620000Y-110080000D03*
X152620000Y-108810000D03*
X152620000Y-107540000D03*
X152620000Y-106270000D03*
X152620000Y-105000000D03*
X152620000Y-103730000D03*
X152620000Y-102460000D03*
X152620000Y-101190000D03*
X152620000Y-97380000D03*
X152620000Y-96110000D03*
X152620000Y-93570000D03*
X152620000Y-92300000D03*
X152620000Y-91030000D03*
X152620000Y-89760000D03*
X152620000Y-88490000D03*
D12*
X142890000Y-88500000D03*
X142890000Y-89770000D03*
X142890000Y-91040000D03*
X142890000Y-92310000D03*
X142890000Y-93580000D03*
X142890000Y-94850000D03*
X142890000Y-96120000D03*
X142890000Y-97390000D03*
X142890000Y-98660000D03*
X142890000Y-101200000D03*
X142890000Y-102470000D03*
X142890000Y-103740000D03*
X142890000Y-105010000D03*
X142890000Y-106280000D03*
X142890000Y-107550000D03*
X142890000Y-108820000D03*
X142890000Y-110090000D03*
X142890000Y-111360000D03*
X142890000Y-112630000D03*
%LPD*%
M02*
