%TF.GenerationSoftware,KiCad,Pcbnew,7.0.6-0*%
%TF.CreationDate,2023-10-14T16:46:22-04:00*%
%TF.ProjectId,FBI Board,46424920-426f-4617-9264-2e6b69636164,1*%
%TF.SameCoordinates,Original*%
%TF.FileFunction,Drillmap*%
%TF.FilePolarity,Positive*%
%FSLAX45Y45*%
G04 Gerber Fmt 4.5, Leading zero omitted, Abs format (unit mm)*
G04 Created by KiCad (PCBNEW 7.0.6-0) date 2023-10-14 16:46:22*
%MOMM*%
%LPD*%
G01*
G04 APERTURE LIST*
%ADD10C,0.150000*%
%ADD11C,0.200000*%
%ADD12C,0.030000*%
%ADD13C,0.065000*%
G04 APERTURE END LIST*
D10*
X11223000Y-8405000D02*
X11223000Y-11403852D01*
X15320000Y-8706000D02*
G75*
G03*
X15288000Y-8738000I0J-32000D01*
G01*
X12743000Y-8737000D02*
G75*
G03*
X12711000Y-8705000I-32000J0D01*
G01*
X13768000Y-11371000D02*
X13768000Y-8738000D01*
X12248000Y-11371000D02*
G75*
G03*
X12280000Y-11403000I32000J0D01*
G01*
X15784000Y-8738000D02*
X15784000Y-11371000D01*
X16508978Y-8405000D02*
X11223000Y-8405000D01*
X12248000Y-11371000D02*
X12248000Y-8737000D01*
X15752000Y-11403000D02*
X15320000Y-11403000D01*
X16508977Y-11704000D02*
X11523000Y-11704000D01*
X13800000Y-8706000D02*
G75*
G03*
X13768000Y-8738000I0J-32000D01*
G01*
X16809000Y-8705022D02*
X16809000Y-11403978D01*
X12743000Y-8737000D02*
X12743000Y-11371000D01*
X14263000Y-8738000D02*
G75*
G03*
X14231000Y-8706000I-32000J0D01*
G01*
X14263000Y-8738000D02*
X14263000Y-11371000D01*
X12280000Y-8705000D02*
X12711000Y-8705000D01*
X11222996Y-11403852D02*
G75*
G03*
X11523022Y-11703874I300024J2D01*
G01*
X13800000Y-8706000D02*
X14231000Y-8706000D01*
X12280000Y-8705000D02*
G75*
G03*
X12248000Y-8737000I0J-32000D01*
G01*
X15784000Y-8738000D02*
G75*
G03*
X15752000Y-8706000I-32000J0D01*
G01*
X16809000Y-8705022D02*
G75*
G03*
X16508978Y-8405000I-300020J2D01*
G01*
X13768000Y-11371000D02*
G75*
G03*
X13800000Y-11403000I32000J0D01*
G01*
X15320000Y-8706000D02*
X15752000Y-8706000D01*
X12711000Y-11403000D02*
G75*
G03*
X12743000Y-11371000I0J32000D01*
G01*
X15752000Y-11403000D02*
G75*
G03*
X15784000Y-11371000I0J32000D01*
G01*
X16508977Y-11704000D02*
G75*
G03*
X16809000Y-11403978I3J300020D01*
G01*
X14231000Y-11403000D02*
G75*
G03*
X14263000Y-11371000I0J32000D01*
G01*
X15288000Y-11371000D02*
G75*
G03*
X15320000Y-11403000I32000J0D01*
G01*
X12711000Y-11403000D02*
X12280000Y-11403000D01*
X14231000Y-11403000D02*
X13800000Y-11403000D01*
X15288000Y-11371000D02*
X15288000Y-8738000D01*
D11*
D12*
X12044000Y-8640000D02*
X12074000Y-8670000D01*
X12074000Y-8640000D02*
X12044000Y-8670000D01*
X12045000Y-9907000D02*
X12075000Y-9937000D01*
X12075000Y-9907000D02*
X12045000Y-9937000D01*
X12894000Y-8643000D02*
X12924000Y-8673000D01*
X12924000Y-8643000D02*
X12894000Y-8673000D01*
X13222000Y-8551000D02*
X13252000Y-8581000D01*
X13252000Y-8551000D02*
X13222000Y-8581000D01*
X13582000Y-9903000D02*
X13612000Y-9933000D01*
X13612000Y-9903000D02*
X13582000Y-9933000D01*
X13632000Y-8706000D02*
X13662000Y-8736000D01*
X13662000Y-8706000D02*
X13632000Y-8736000D01*
X15083000Y-9915000D02*
X15113000Y-9945000D01*
X15113000Y-9915000D02*
X15083000Y-9945000D01*
X16593000Y-9913000D02*
X16623000Y-9943000D01*
X16623000Y-9913000D02*
X16593000Y-9943000D01*
D13*
X11255500Y-8850000D02*
G75*
G03*
X11255500Y-8850000I-32500J0D01*
G01*
X11255500Y-8977000D02*
G75*
G03*
X11255500Y-8977000I-32500J0D01*
G01*
X11255500Y-9104000D02*
G75*
G03*
X11255500Y-9104000I-32500J0D01*
G01*
X11255500Y-9231000D02*
G75*
G03*
X11255500Y-9231000I-32500J0D01*
G01*
X11255500Y-9358000D02*
G75*
G03*
X11255500Y-9358000I-32500J0D01*
G01*
X11255500Y-9485000D02*
G75*
G03*
X11255500Y-9485000I-32500J0D01*
G01*
X11255500Y-9612000D02*
G75*
G03*
X11255500Y-9612000I-32500J0D01*
G01*
X11255500Y-9739000D02*
G75*
G03*
X11255500Y-9739000I-32500J0D01*
G01*
X11255500Y-9866000D02*
G75*
G03*
X11255500Y-9866000I-32500J0D01*
G01*
X11255500Y-10120000D02*
G75*
G03*
X11255500Y-10120000I-32500J0D01*
G01*
X11255500Y-10247000D02*
G75*
G03*
X11255500Y-10247000I-32500J0D01*
G01*
X11255500Y-10374000D02*
G75*
G03*
X11255500Y-10374000I-32500J0D01*
G01*
X11255500Y-10501000D02*
G75*
G03*
X11255500Y-10501000I-32500J0D01*
G01*
X11255500Y-10628000D02*
G75*
G03*
X11255500Y-10628000I-32500J0D01*
G01*
X11255500Y-10755000D02*
G75*
G03*
X11255500Y-10755000I-32500J0D01*
G01*
X11255500Y-10882000D02*
G75*
G03*
X11255500Y-10882000I-32500J0D01*
G01*
X11255500Y-11009000D02*
G75*
G03*
X11255500Y-11009000I-32500J0D01*
G01*
X11255500Y-11136000D02*
G75*
G03*
X11255500Y-11136000I-32500J0D01*
G01*
X11255500Y-11263000D02*
G75*
G03*
X11255500Y-11263000I-32500J0D01*
G01*
X12280500Y-8849000D02*
G75*
G03*
X12280500Y-8849000I-32500J0D01*
G01*
X12280500Y-8976000D02*
G75*
G03*
X12280500Y-8976000I-32500J0D01*
G01*
X12280500Y-9103000D02*
G75*
G03*
X12280500Y-9103000I-32500J0D01*
G01*
X12280500Y-9230000D02*
G75*
G03*
X12280500Y-9230000I-32500J0D01*
G01*
X12280500Y-9357000D02*
G75*
G03*
X12280500Y-9357000I-32500J0D01*
G01*
X12280500Y-9611000D02*
G75*
G03*
X12280500Y-9611000I-32500J0D01*
G01*
X12280500Y-9738000D02*
G75*
G03*
X12280500Y-9738000I-32500J0D01*
G01*
X12280500Y-10119000D02*
G75*
G03*
X12280500Y-10119000I-32500J0D01*
G01*
X12280500Y-10246000D02*
G75*
G03*
X12280500Y-10246000I-32500J0D01*
G01*
X12280500Y-10373000D02*
G75*
G03*
X12280500Y-10373000I-32500J0D01*
G01*
X12280500Y-10500000D02*
G75*
G03*
X12280500Y-10500000I-32500J0D01*
G01*
X12280500Y-10627000D02*
G75*
G03*
X12280500Y-10627000I-32500J0D01*
G01*
X12280500Y-10754000D02*
G75*
G03*
X12280500Y-10754000I-32500J0D01*
G01*
X12280500Y-10881000D02*
G75*
G03*
X12280500Y-10881000I-32500J0D01*
G01*
X12280500Y-11008000D02*
G75*
G03*
X12280500Y-11008000I-32500J0D01*
G01*
X12280500Y-11135000D02*
G75*
G03*
X12280500Y-11135000I-32500J0D01*
G01*
X12280500Y-11262000D02*
G75*
G03*
X12280500Y-11262000I-32500J0D01*
G01*
X12775500Y-8850000D02*
G75*
G03*
X12775500Y-8850000I-32500J0D01*
G01*
X12775500Y-8977000D02*
G75*
G03*
X12775500Y-8977000I-32500J0D01*
G01*
X12775500Y-9104000D02*
G75*
G03*
X12775500Y-9104000I-32500J0D01*
G01*
X12775500Y-9231000D02*
G75*
G03*
X12775500Y-9231000I-32500J0D01*
G01*
X12775500Y-9358000D02*
G75*
G03*
X12775500Y-9358000I-32500J0D01*
G01*
X12775500Y-9485000D02*
G75*
G03*
X12775500Y-9485000I-32500J0D01*
G01*
X12775500Y-9612000D02*
G75*
G03*
X12775500Y-9612000I-32500J0D01*
G01*
X12775500Y-9739000D02*
G75*
G03*
X12775500Y-9739000I-32500J0D01*
G01*
X12775500Y-9866000D02*
G75*
G03*
X12775500Y-9866000I-32500J0D01*
G01*
X12775500Y-10120000D02*
G75*
G03*
X12775500Y-10120000I-32500J0D01*
G01*
X12775500Y-10247000D02*
G75*
G03*
X12775500Y-10247000I-32500J0D01*
G01*
X12775500Y-10374000D02*
G75*
G03*
X12775500Y-10374000I-32500J0D01*
G01*
X12775500Y-10501000D02*
G75*
G03*
X12775500Y-10501000I-32500J0D01*
G01*
X12775500Y-10628000D02*
G75*
G03*
X12775500Y-10628000I-32500J0D01*
G01*
X12775500Y-10755000D02*
G75*
G03*
X12775500Y-10755000I-32500J0D01*
G01*
X12775500Y-10882000D02*
G75*
G03*
X12775500Y-10882000I-32500J0D01*
G01*
X12775500Y-11009000D02*
G75*
G03*
X12775500Y-11009000I-32500J0D01*
G01*
X12775500Y-11136000D02*
G75*
G03*
X12775500Y-11136000I-32500J0D01*
G01*
X12775500Y-11263000D02*
G75*
G03*
X12775500Y-11263000I-32500J0D01*
G01*
X13800500Y-8849000D02*
G75*
G03*
X13800500Y-8849000I-32500J0D01*
G01*
X13800500Y-8976000D02*
G75*
G03*
X13800500Y-8976000I-32500J0D01*
G01*
X13800500Y-9103000D02*
G75*
G03*
X13800500Y-9103000I-32500J0D01*
G01*
X13800500Y-9230000D02*
G75*
G03*
X13800500Y-9230000I-32500J0D01*
G01*
X13800500Y-9357000D02*
G75*
G03*
X13800500Y-9357000I-32500J0D01*
G01*
X13800500Y-9611000D02*
G75*
G03*
X13800500Y-9611000I-32500J0D01*
G01*
X13800500Y-9738000D02*
G75*
G03*
X13800500Y-9738000I-32500J0D01*
G01*
X13800500Y-10119000D02*
G75*
G03*
X13800500Y-10119000I-32500J0D01*
G01*
X13800500Y-10246000D02*
G75*
G03*
X13800500Y-10246000I-32500J0D01*
G01*
X13800500Y-10373000D02*
G75*
G03*
X13800500Y-10373000I-32500J0D01*
G01*
X13800500Y-10500000D02*
G75*
G03*
X13800500Y-10500000I-32500J0D01*
G01*
X13800500Y-10627000D02*
G75*
G03*
X13800500Y-10627000I-32500J0D01*
G01*
X13800500Y-10754000D02*
G75*
G03*
X13800500Y-10754000I-32500J0D01*
G01*
X13800500Y-10881000D02*
G75*
G03*
X13800500Y-10881000I-32500J0D01*
G01*
X13800500Y-11008000D02*
G75*
G03*
X13800500Y-11008000I-32500J0D01*
G01*
X13800500Y-11135000D02*
G75*
G03*
X13800500Y-11135000I-32500J0D01*
G01*
X13800500Y-11262000D02*
G75*
G03*
X13800500Y-11262000I-32500J0D01*
G01*
X14295500Y-8850000D02*
G75*
G03*
X14295500Y-8850000I-32500J0D01*
G01*
X14295500Y-8977000D02*
G75*
G03*
X14295500Y-8977000I-32500J0D01*
G01*
X14295500Y-9104000D02*
G75*
G03*
X14295500Y-9104000I-32500J0D01*
G01*
X14295500Y-9231000D02*
G75*
G03*
X14295500Y-9231000I-32500J0D01*
G01*
X14295500Y-9358000D02*
G75*
G03*
X14295500Y-9358000I-32500J0D01*
G01*
X14295500Y-9485000D02*
G75*
G03*
X14295500Y-9485000I-32500J0D01*
G01*
X14295500Y-9612000D02*
G75*
G03*
X14295500Y-9612000I-32500J0D01*
G01*
X14295500Y-9739000D02*
G75*
G03*
X14295500Y-9739000I-32500J0D01*
G01*
X14295500Y-9866000D02*
G75*
G03*
X14295500Y-9866000I-32500J0D01*
G01*
X14295500Y-10120000D02*
G75*
G03*
X14295500Y-10120000I-32500J0D01*
G01*
X14295500Y-10247000D02*
G75*
G03*
X14295500Y-10247000I-32500J0D01*
G01*
X14295500Y-10374000D02*
G75*
G03*
X14295500Y-10374000I-32500J0D01*
G01*
X14295500Y-10501000D02*
G75*
G03*
X14295500Y-10501000I-32500J0D01*
G01*
X14295500Y-10628000D02*
G75*
G03*
X14295500Y-10628000I-32500J0D01*
G01*
X14295500Y-10755000D02*
G75*
G03*
X14295500Y-10755000I-32500J0D01*
G01*
X14295500Y-10882000D02*
G75*
G03*
X14295500Y-10882000I-32500J0D01*
G01*
X14295500Y-11009000D02*
G75*
G03*
X14295500Y-11009000I-32500J0D01*
G01*
X14295500Y-11136000D02*
G75*
G03*
X14295500Y-11136000I-32500J0D01*
G01*
X14295500Y-11263000D02*
G75*
G03*
X14295500Y-11263000I-32500J0D01*
G01*
X15320500Y-8849000D02*
G75*
G03*
X15320500Y-8849000I-32500J0D01*
G01*
X15320500Y-8976000D02*
G75*
G03*
X15320500Y-8976000I-32500J0D01*
G01*
X15320500Y-9103000D02*
G75*
G03*
X15320500Y-9103000I-32500J0D01*
G01*
X15320500Y-9230000D02*
G75*
G03*
X15320500Y-9230000I-32500J0D01*
G01*
X15320500Y-9357000D02*
G75*
G03*
X15320500Y-9357000I-32500J0D01*
G01*
X15320500Y-9611000D02*
G75*
G03*
X15320500Y-9611000I-32500J0D01*
G01*
X15320500Y-9738000D02*
G75*
G03*
X15320500Y-9738000I-32500J0D01*
G01*
X15320500Y-10119000D02*
G75*
G03*
X15320500Y-10119000I-32500J0D01*
G01*
X15320500Y-10246000D02*
G75*
G03*
X15320500Y-10246000I-32500J0D01*
G01*
X15320500Y-10373000D02*
G75*
G03*
X15320500Y-10373000I-32500J0D01*
G01*
X15320500Y-10500000D02*
G75*
G03*
X15320500Y-10500000I-32500J0D01*
G01*
X15320500Y-10627000D02*
G75*
G03*
X15320500Y-10627000I-32500J0D01*
G01*
X15320500Y-10754000D02*
G75*
G03*
X15320500Y-10754000I-32500J0D01*
G01*
X15320500Y-10881000D02*
G75*
G03*
X15320500Y-10881000I-32500J0D01*
G01*
X15320500Y-11008000D02*
G75*
G03*
X15320500Y-11008000I-32500J0D01*
G01*
X15320500Y-11135000D02*
G75*
G03*
X15320500Y-11135000I-32500J0D01*
G01*
X15320500Y-11262000D02*
G75*
G03*
X15320500Y-11262000I-32500J0D01*
G01*
X15816500Y-8850000D02*
G75*
G03*
X15816500Y-8850000I-32500J0D01*
G01*
X15816500Y-8977000D02*
G75*
G03*
X15816500Y-8977000I-32500J0D01*
G01*
X15816500Y-9104000D02*
G75*
G03*
X15816500Y-9104000I-32500J0D01*
G01*
X15816500Y-9231000D02*
G75*
G03*
X15816500Y-9231000I-32500J0D01*
G01*
X15816500Y-9358000D02*
G75*
G03*
X15816500Y-9358000I-32500J0D01*
G01*
X15816500Y-9485000D02*
G75*
G03*
X15816500Y-9485000I-32500J0D01*
G01*
X15816500Y-9612000D02*
G75*
G03*
X15816500Y-9612000I-32500J0D01*
G01*
X15816500Y-9739000D02*
G75*
G03*
X15816500Y-9739000I-32500J0D01*
G01*
X15816500Y-9866000D02*
G75*
G03*
X15816500Y-9866000I-32500J0D01*
G01*
X15816500Y-10120000D02*
G75*
G03*
X15816500Y-10120000I-32500J0D01*
G01*
X15816500Y-10247000D02*
G75*
G03*
X15816500Y-10247000I-32500J0D01*
G01*
X15816500Y-10374000D02*
G75*
G03*
X15816500Y-10374000I-32500J0D01*
G01*
X15816500Y-10501000D02*
G75*
G03*
X15816500Y-10501000I-32500J0D01*
G01*
X15816500Y-10628000D02*
G75*
G03*
X15816500Y-10628000I-32500J0D01*
G01*
X15816500Y-10755000D02*
G75*
G03*
X15816500Y-10755000I-32500J0D01*
G01*
X15816500Y-10882000D02*
G75*
G03*
X15816500Y-10882000I-32500J0D01*
G01*
X15816500Y-11009000D02*
G75*
G03*
X15816500Y-11009000I-32500J0D01*
G01*
X15816500Y-11136000D02*
G75*
G03*
X15816500Y-11136000I-32500J0D01*
G01*
X15816500Y-11263000D02*
G75*
G03*
X15816500Y-11263000I-32500J0D01*
G01*
X16841500Y-8849000D02*
G75*
G03*
X16841500Y-8849000I-32500J0D01*
G01*
X16841500Y-8976000D02*
G75*
G03*
X16841500Y-8976000I-32500J0D01*
G01*
X16841500Y-9103000D02*
G75*
G03*
X16841500Y-9103000I-32500J0D01*
G01*
X16841500Y-9230000D02*
G75*
G03*
X16841500Y-9230000I-32500J0D01*
G01*
X16841500Y-9357000D02*
G75*
G03*
X16841500Y-9357000I-32500J0D01*
G01*
X16841500Y-9611000D02*
G75*
G03*
X16841500Y-9611000I-32500J0D01*
G01*
X16841500Y-9738000D02*
G75*
G03*
X16841500Y-9738000I-32500J0D01*
G01*
X16841500Y-10119000D02*
G75*
G03*
X16841500Y-10119000I-32500J0D01*
G01*
X16841500Y-10246000D02*
G75*
G03*
X16841500Y-10246000I-32500J0D01*
G01*
X16841500Y-10373000D02*
G75*
G03*
X16841500Y-10373000I-32500J0D01*
G01*
X16841500Y-10500000D02*
G75*
G03*
X16841500Y-10500000I-32500J0D01*
G01*
X16841500Y-10627000D02*
G75*
G03*
X16841500Y-10627000I-32500J0D01*
G01*
X16841500Y-10754000D02*
G75*
G03*
X16841500Y-10754000I-32500J0D01*
G01*
X16841500Y-10881000D02*
G75*
G03*
X16841500Y-10881000I-32500J0D01*
G01*
X16841500Y-11008000D02*
G75*
G03*
X16841500Y-11008000I-32500J0D01*
G01*
X16841500Y-11135000D02*
G75*
G03*
X16841500Y-11135000I-32500J0D01*
G01*
X16841500Y-11262000D02*
G75*
G03*
X16841500Y-11262000I-32500J0D01*
G01*
D11*
X11476277Y-12022984D02*
X11476277Y-11822984D01*
X11476277Y-11822984D02*
X11523896Y-11822984D01*
X11523896Y-11822984D02*
X11552467Y-11832508D01*
X11552467Y-11832508D02*
X11571515Y-11851555D01*
X11571515Y-11851555D02*
X11581039Y-11870603D01*
X11581039Y-11870603D02*
X11590562Y-11908698D01*
X11590562Y-11908698D02*
X11590562Y-11937269D01*
X11590562Y-11937269D02*
X11581039Y-11975365D01*
X11581039Y-11975365D02*
X11571515Y-11994412D01*
X11571515Y-11994412D02*
X11552467Y-12013460D01*
X11552467Y-12013460D02*
X11523896Y-12022984D01*
X11523896Y-12022984D02*
X11476277Y-12022984D01*
X11676277Y-12022984D02*
X11676277Y-11889650D01*
X11676277Y-11927746D02*
X11685801Y-11908698D01*
X11685801Y-11908698D02*
X11695324Y-11899174D01*
X11695324Y-11899174D02*
X11714372Y-11889650D01*
X11714372Y-11889650D02*
X11733420Y-11889650D01*
X11800086Y-12022984D02*
X11800086Y-11889650D01*
X11800086Y-11822984D02*
X11790562Y-11832508D01*
X11790562Y-11832508D02*
X11800086Y-11842031D01*
X11800086Y-11842031D02*
X11809610Y-11832508D01*
X11809610Y-11832508D02*
X11800086Y-11822984D01*
X11800086Y-11822984D02*
X11800086Y-11842031D01*
X11923896Y-12022984D02*
X11904848Y-12013460D01*
X11904848Y-12013460D02*
X11895324Y-11994412D01*
X11895324Y-11994412D02*
X11895324Y-11822984D01*
X12028658Y-12022984D02*
X12009610Y-12013460D01*
X12009610Y-12013460D02*
X12000086Y-11994412D01*
X12000086Y-11994412D02*
X12000086Y-11822984D01*
X12257229Y-12022984D02*
X12257229Y-11822984D01*
X12257229Y-11822984D02*
X12323896Y-11965841D01*
X12323896Y-11965841D02*
X12390562Y-11822984D01*
X12390562Y-11822984D02*
X12390562Y-12022984D01*
X12571515Y-12022984D02*
X12571515Y-11918222D01*
X12571515Y-11918222D02*
X12561991Y-11899174D01*
X12561991Y-11899174D02*
X12542943Y-11889650D01*
X12542943Y-11889650D02*
X12504848Y-11889650D01*
X12504848Y-11889650D02*
X12485801Y-11899174D01*
X12571515Y-12013460D02*
X12552467Y-12022984D01*
X12552467Y-12022984D02*
X12504848Y-12022984D01*
X12504848Y-12022984D02*
X12485801Y-12013460D01*
X12485801Y-12013460D02*
X12476277Y-11994412D01*
X12476277Y-11994412D02*
X12476277Y-11975365D01*
X12476277Y-11975365D02*
X12485801Y-11956317D01*
X12485801Y-11956317D02*
X12504848Y-11946793D01*
X12504848Y-11946793D02*
X12552467Y-11946793D01*
X12552467Y-11946793D02*
X12571515Y-11937269D01*
X12666753Y-11889650D02*
X12666753Y-12089650D01*
X12666753Y-11899174D02*
X12685801Y-11889650D01*
X12685801Y-11889650D02*
X12723896Y-11889650D01*
X12723896Y-11889650D02*
X12742943Y-11899174D01*
X12742943Y-11899174D02*
X12752467Y-11908698D01*
X12752467Y-11908698D02*
X12761991Y-11927746D01*
X12761991Y-11927746D02*
X12761991Y-11984888D01*
X12761991Y-11984888D02*
X12752467Y-12003936D01*
X12752467Y-12003936D02*
X12742943Y-12013460D01*
X12742943Y-12013460D02*
X12723896Y-12022984D01*
X12723896Y-12022984D02*
X12685801Y-12022984D01*
X12685801Y-12022984D02*
X12666753Y-12013460D01*
X12847705Y-12003936D02*
X12857229Y-12013460D01*
X12857229Y-12013460D02*
X12847705Y-12022984D01*
X12847705Y-12022984D02*
X12838182Y-12013460D01*
X12838182Y-12013460D02*
X12847705Y-12003936D01*
X12847705Y-12003936D02*
X12847705Y-12022984D01*
X12847705Y-11899174D02*
X12857229Y-11908698D01*
X12857229Y-11908698D02*
X12847705Y-11918222D01*
X12847705Y-11918222D02*
X12838182Y-11908698D01*
X12838182Y-11908698D02*
X12847705Y-11899174D01*
X12847705Y-11899174D02*
X12847705Y-11918222D01*
D12*
X11185500Y-12336500D02*
X11215500Y-12366500D01*
X11215500Y-12336500D02*
X11185500Y-12366500D01*
D11*
X11514372Y-12242984D02*
X11533420Y-12242984D01*
X11533420Y-12242984D02*
X11552467Y-12252508D01*
X11552467Y-12252508D02*
X11561991Y-12262031D01*
X11561991Y-12262031D02*
X11571515Y-12281079D01*
X11571515Y-12281079D02*
X11581039Y-12319174D01*
X11581039Y-12319174D02*
X11581039Y-12366793D01*
X11581039Y-12366793D02*
X11571515Y-12404888D01*
X11571515Y-12404888D02*
X11561991Y-12423936D01*
X11561991Y-12423936D02*
X11552467Y-12433460D01*
X11552467Y-12433460D02*
X11533420Y-12442984D01*
X11533420Y-12442984D02*
X11514372Y-12442984D01*
X11514372Y-12442984D02*
X11495324Y-12433460D01*
X11495324Y-12433460D02*
X11485801Y-12423936D01*
X11485801Y-12423936D02*
X11476277Y-12404888D01*
X11476277Y-12404888D02*
X11466753Y-12366793D01*
X11466753Y-12366793D02*
X11466753Y-12319174D01*
X11466753Y-12319174D02*
X11476277Y-12281079D01*
X11476277Y-12281079D02*
X11485801Y-12262031D01*
X11485801Y-12262031D02*
X11495324Y-12252508D01*
X11495324Y-12252508D02*
X11514372Y-12242984D01*
X11666753Y-12423936D02*
X11676277Y-12433460D01*
X11676277Y-12433460D02*
X11666753Y-12442984D01*
X11666753Y-12442984D02*
X11657229Y-12433460D01*
X11657229Y-12433460D02*
X11666753Y-12423936D01*
X11666753Y-12423936D02*
X11666753Y-12442984D01*
X11742943Y-12242984D02*
X11866753Y-12242984D01*
X11866753Y-12242984D02*
X11800086Y-12319174D01*
X11800086Y-12319174D02*
X11828658Y-12319174D01*
X11828658Y-12319174D02*
X11847705Y-12328698D01*
X11847705Y-12328698D02*
X11857229Y-12338222D01*
X11857229Y-12338222D02*
X11866753Y-12357269D01*
X11866753Y-12357269D02*
X11866753Y-12404888D01*
X11866753Y-12404888D02*
X11857229Y-12423936D01*
X11857229Y-12423936D02*
X11847705Y-12433460D01*
X11847705Y-12433460D02*
X11828658Y-12442984D01*
X11828658Y-12442984D02*
X11771515Y-12442984D01*
X11771515Y-12442984D02*
X11752467Y-12433460D01*
X11752467Y-12433460D02*
X11742943Y-12423936D01*
X11990562Y-12242984D02*
X12009610Y-12242984D01*
X12009610Y-12242984D02*
X12028658Y-12252508D01*
X12028658Y-12252508D02*
X12038182Y-12262031D01*
X12038182Y-12262031D02*
X12047705Y-12281079D01*
X12047705Y-12281079D02*
X12057229Y-12319174D01*
X12057229Y-12319174D02*
X12057229Y-12366793D01*
X12057229Y-12366793D02*
X12047705Y-12404888D01*
X12047705Y-12404888D02*
X12038182Y-12423936D01*
X12038182Y-12423936D02*
X12028658Y-12433460D01*
X12028658Y-12433460D02*
X12009610Y-12442984D01*
X12009610Y-12442984D02*
X11990562Y-12442984D01*
X11990562Y-12442984D02*
X11971515Y-12433460D01*
X11971515Y-12433460D02*
X11961991Y-12423936D01*
X11961991Y-12423936D02*
X11952467Y-12404888D01*
X11952467Y-12404888D02*
X11942943Y-12366793D01*
X11942943Y-12366793D02*
X11942943Y-12319174D01*
X11942943Y-12319174D02*
X11952467Y-12281079D01*
X11952467Y-12281079D02*
X11961991Y-12262031D01*
X11961991Y-12262031D02*
X11971515Y-12252508D01*
X11971515Y-12252508D02*
X11990562Y-12242984D01*
X12181039Y-12242984D02*
X12200086Y-12242984D01*
X12200086Y-12242984D02*
X12219134Y-12252508D01*
X12219134Y-12252508D02*
X12228658Y-12262031D01*
X12228658Y-12262031D02*
X12238182Y-12281079D01*
X12238182Y-12281079D02*
X12247705Y-12319174D01*
X12247705Y-12319174D02*
X12247705Y-12366793D01*
X12247705Y-12366793D02*
X12238182Y-12404888D01*
X12238182Y-12404888D02*
X12228658Y-12423936D01*
X12228658Y-12423936D02*
X12219134Y-12433460D01*
X12219134Y-12433460D02*
X12200086Y-12442984D01*
X12200086Y-12442984D02*
X12181039Y-12442984D01*
X12181039Y-12442984D02*
X12161991Y-12433460D01*
X12161991Y-12433460D02*
X12152467Y-12423936D01*
X12152467Y-12423936D02*
X12142943Y-12404888D01*
X12142943Y-12404888D02*
X12133420Y-12366793D01*
X12133420Y-12366793D02*
X12133420Y-12319174D01*
X12133420Y-12319174D02*
X12142943Y-12281079D01*
X12142943Y-12281079D02*
X12152467Y-12262031D01*
X12152467Y-12262031D02*
X12161991Y-12252508D01*
X12161991Y-12252508D02*
X12181039Y-12242984D01*
X12333420Y-12442984D02*
X12333420Y-12309650D01*
X12333420Y-12328698D02*
X12342943Y-12319174D01*
X12342943Y-12319174D02*
X12361991Y-12309650D01*
X12361991Y-12309650D02*
X12390563Y-12309650D01*
X12390563Y-12309650D02*
X12409610Y-12319174D01*
X12409610Y-12319174D02*
X12419134Y-12338222D01*
X12419134Y-12338222D02*
X12419134Y-12442984D01*
X12419134Y-12338222D02*
X12428658Y-12319174D01*
X12428658Y-12319174D02*
X12447705Y-12309650D01*
X12447705Y-12309650D02*
X12476277Y-12309650D01*
X12476277Y-12309650D02*
X12495324Y-12319174D01*
X12495324Y-12319174D02*
X12504848Y-12338222D01*
X12504848Y-12338222D02*
X12504848Y-12442984D01*
X12600086Y-12442984D02*
X12600086Y-12309650D01*
X12600086Y-12328698D02*
X12609610Y-12319174D01*
X12609610Y-12319174D02*
X12628658Y-12309650D01*
X12628658Y-12309650D02*
X12657229Y-12309650D01*
X12657229Y-12309650D02*
X12676277Y-12319174D01*
X12676277Y-12319174D02*
X12685801Y-12338222D01*
X12685801Y-12338222D02*
X12685801Y-12442984D01*
X12685801Y-12338222D02*
X12695324Y-12319174D01*
X12695324Y-12319174D02*
X12714372Y-12309650D01*
X12714372Y-12309650D02*
X12742943Y-12309650D01*
X12742943Y-12309650D02*
X12761991Y-12319174D01*
X12761991Y-12319174D02*
X12771515Y-12338222D01*
X12771515Y-12338222D02*
X12771515Y-12442984D01*
X13161991Y-12233460D02*
X12990563Y-12490603D01*
X13419134Y-12242984D02*
X13438182Y-12242984D01*
X13438182Y-12242984D02*
X13457229Y-12252508D01*
X13457229Y-12252508D02*
X13466753Y-12262031D01*
X13466753Y-12262031D02*
X13476277Y-12281079D01*
X13476277Y-12281079D02*
X13485801Y-12319174D01*
X13485801Y-12319174D02*
X13485801Y-12366793D01*
X13485801Y-12366793D02*
X13476277Y-12404888D01*
X13476277Y-12404888D02*
X13466753Y-12423936D01*
X13466753Y-12423936D02*
X13457229Y-12433460D01*
X13457229Y-12433460D02*
X13438182Y-12442984D01*
X13438182Y-12442984D02*
X13419134Y-12442984D01*
X13419134Y-12442984D02*
X13400086Y-12433460D01*
X13400086Y-12433460D02*
X13390563Y-12423936D01*
X13390563Y-12423936D02*
X13381039Y-12404888D01*
X13381039Y-12404888D02*
X13371515Y-12366793D01*
X13371515Y-12366793D02*
X13371515Y-12319174D01*
X13371515Y-12319174D02*
X13381039Y-12281079D01*
X13381039Y-12281079D02*
X13390563Y-12262031D01*
X13390563Y-12262031D02*
X13400086Y-12252508D01*
X13400086Y-12252508D02*
X13419134Y-12242984D01*
X13571515Y-12423936D02*
X13581039Y-12433460D01*
X13581039Y-12433460D02*
X13571515Y-12442984D01*
X13571515Y-12442984D02*
X13561991Y-12433460D01*
X13561991Y-12433460D02*
X13571515Y-12423936D01*
X13571515Y-12423936D02*
X13571515Y-12442984D01*
X13704848Y-12242984D02*
X13723896Y-12242984D01*
X13723896Y-12242984D02*
X13742944Y-12252508D01*
X13742944Y-12252508D02*
X13752467Y-12262031D01*
X13752467Y-12262031D02*
X13761991Y-12281079D01*
X13761991Y-12281079D02*
X13771515Y-12319174D01*
X13771515Y-12319174D02*
X13771515Y-12366793D01*
X13771515Y-12366793D02*
X13761991Y-12404888D01*
X13761991Y-12404888D02*
X13752467Y-12423936D01*
X13752467Y-12423936D02*
X13742944Y-12433460D01*
X13742944Y-12433460D02*
X13723896Y-12442984D01*
X13723896Y-12442984D02*
X13704848Y-12442984D01*
X13704848Y-12442984D02*
X13685801Y-12433460D01*
X13685801Y-12433460D02*
X13676277Y-12423936D01*
X13676277Y-12423936D02*
X13666753Y-12404888D01*
X13666753Y-12404888D02*
X13657229Y-12366793D01*
X13657229Y-12366793D02*
X13657229Y-12319174D01*
X13657229Y-12319174D02*
X13666753Y-12281079D01*
X13666753Y-12281079D02*
X13676277Y-12262031D01*
X13676277Y-12262031D02*
X13685801Y-12252508D01*
X13685801Y-12252508D02*
X13704848Y-12242984D01*
X13961991Y-12442984D02*
X13847706Y-12442984D01*
X13904848Y-12442984D02*
X13904848Y-12242984D01*
X13904848Y-12242984D02*
X13885801Y-12271555D01*
X13885801Y-12271555D02*
X13866753Y-12290603D01*
X13866753Y-12290603D02*
X13847706Y-12300127D01*
X14152467Y-12442984D02*
X14038182Y-12442984D01*
X14095325Y-12442984D02*
X14095325Y-12242984D01*
X14095325Y-12242984D02*
X14076277Y-12271555D01*
X14076277Y-12271555D02*
X14057229Y-12290603D01*
X14057229Y-12290603D02*
X14038182Y-12300127D01*
X14266753Y-12328698D02*
X14247706Y-12319174D01*
X14247706Y-12319174D02*
X14238182Y-12309650D01*
X14238182Y-12309650D02*
X14228658Y-12290603D01*
X14228658Y-12290603D02*
X14228658Y-12281079D01*
X14228658Y-12281079D02*
X14238182Y-12262031D01*
X14238182Y-12262031D02*
X14247706Y-12252508D01*
X14247706Y-12252508D02*
X14266753Y-12242984D01*
X14266753Y-12242984D02*
X14304848Y-12242984D01*
X14304848Y-12242984D02*
X14323896Y-12252508D01*
X14323896Y-12252508D02*
X14333420Y-12262031D01*
X14333420Y-12262031D02*
X14342944Y-12281079D01*
X14342944Y-12281079D02*
X14342944Y-12290603D01*
X14342944Y-12290603D02*
X14333420Y-12309650D01*
X14333420Y-12309650D02*
X14323896Y-12319174D01*
X14323896Y-12319174D02*
X14304848Y-12328698D01*
X14304848Y-12328698D02*
X14266753Y-12328698D01*
X14266753Y-12328698D02*
X14247706Y-12338222D01*
X14247706Y-12338222D02*
X14238182Y-12347746D01*
X14238182Y-12347746D02*
X14228658Y-12366793D01*
X14228658Y-12366793D02*
X14228658Y-12404888D01*
X14228658Y-12404888D02*
X14238182Y-12423936D01*
X14238182Y-12423936D02*
X14247706Y-12433460D01*
X14247706Y-12433460D02*
X14266753Y-12442984D01*
X14266753Y-12442984D02*
X14304848Y-12442984D01*
X14304848Y-12442984D02*
X14323896Y-12433460D01*
X14323896Y-12433460D02*
X14333420Y-12423936D01*
X14333420Y-12423936D02*
X14342944Y-12404888D01*
X14342944Y-12404888D02*
X14342944Y-12366793D01*
X14342944Y-12366793D02*
X14333420Y-12347746D01*
X14333420Y-12347746D02*
X14323896Y-12338222D01*
X14323896Y-12338222D02*
X14304848Y-12328698D01*
X14419134Y-12242984D02*
X14419134Y-12281079D01*
X14495325Y-12242984D02*
X14495325Y-12281079D01*
X14790563Y-12519174D02*
X14781039Y-12509650D01*
X14781039Y-12509650D02*
X14761991Y-12481079D01*
X14761991Y-12481079D02*
X14752468Y-12462031D01*
X14752468Y-12462031D02*
X14742944Y-12433460D01*
X14742944Y-12433460D02*
X14733420Y-12385841D01*
X14733420Y-12385841D02*
X14733420Y-12347746D01*
X14733420Y-12347746D02*
X14742944Y-12300127D01*
X14742944Y-12300127D02*
X14752468Y-12271555D01*
X14752468Y-12271555D02*
X14761991Y-12252508D01*
X14761991Y-12252508D02*
X14781039Y-12223936D01*
X14781039Y-12223936D02*
X14790563Y-12214412D01*
X14895325Y-12328698D02*
X14876277Y-12319174D01*
X14876277Y-12319174D02*
X14866753Y-12309650D01*
X14866753Y-12309650D02*
X14857229Y-12290603D01*
X14857229Y-12290603D02*
X14857229Y-12281079D01*
X14857229Y-12281079D02*
X14866753Y-12262031D01*
X14866753Y-12262031D02*
X14876277Y-12252508D01*
X14876277Y-12252508D02*
X14895325Y-12242984D01*
X14895325Y-12242984D02*
X14933420Y-12242984D01*
X14933420Y-12242984D02*
X14952468Y-12252508D01*
X14952468Y-12252508D02*
X14961991Y-12262031D01*
X14961991Y-12262031D02*
X14971515Y-12281079D01*
X14971515Y-12281079D02*
X14971515Y-12290603D01*
X14971515Y-12290603D02*
X14961991Y-12309650D01*
X14961991Y-12309650D02*
X14952468Y-12319174D01*
X14952468Y-12319174D02*
X14933420Y-12328698D01*
X14933420Y-12328698D02*
X14895325Y-12328698D01*
X14895325Y-12328698D02*
X14876277Y-12338222D01*
X14876277Y-12338222D02*
X14866753Y-12347746D01*
X14866753Y-12347746D02*
X14857229Y-12366793D01*
X14857229Y-12366793D02*
X14857229Y-12404888D01*
X14857229Y-12404888D02*
X14866753Y-12423936D01*
X14866753Y-12423936D02*
X14876277Y-12433460D01*
X14876277Y-12433460D02*
X14895325Y-12442984D01*
X14895325Y-12442984D02*
X14933420Y-12442984D01*
X14933420Y-12442984D02*
X14952468Y-12433460D01*
X14952468Y-12433460D02*
X14961991Y-12423936D01*
X14961991Y-12423936D02*
X14971515Y-12404888D01*
X14971515Y-12404888D02*
X14971515Y-12366793D01*
X14971515Y-12366793D02*
X14961991Y-12347746D01*
X14961991Y-12347746D02*
X14952468Y-12338222D01*
X14952468Y-12338222D02*
X14933420Y-12328698D01*
X15209610Y-12442984D02*
X15209610Y-12242984D01*
X15295325Y-12442984D02*
X15295325Y-12338222D01*
X15295325Y-12338222D02*
X15285801Y-12319174D01*
X15285801Y-12319174D02*
X15266753Y-12309650D01*
X15266753Y-12309650D02*
X15238182Y-12309650D01*
X15238182Y-12309650D02*
X15219134Y-12319174D01*
X15219134Y-12319174D02*
X15209610Y-12328698D01*
X15419134Y-12442984D02*
X15400087Y-12433460D01*
X15400087Y-12433460D02*
X15390563Y-12423936D01*
X15390563Y-12423936D02*
X15381039Y-12404888D01*
X15381039Y-12404888D02*
X15381039Y-12347746D01*
X15381039Y-12347746D02*
X15390563Y-12328698D01*
X15390563Y-12328698D02*
X15400087Y-12319174D01*
X15400087Y-12319174D02*
X15419134Y-12309650D01*
X15419134Y-12309650D02*
X15447706Y-12309650D01*
X15447706Y-12309650D02*
X15466753Y-12319174D01*
X15466753Y-12319174D02*
X15476277Y-12328698D01*
X15476277Y-12328698D02*
X15485801Y-12347746D01*
X15485801Y-12347746D02*
X15485801Y-12404888D01*
X15485801Y-12404888D02*
X15476277Y-12423936D01*
X15476277Y-12423936D02*
X15466753Y-12433460D01*
X15466753Y-12433460D02*
X15447706Y-12442984D01*
X15447706Y-12442984D02*
X15419134Y-12442984D01*
X15600087Y-12442984D02*
X15581039Y-12433460D01*
X15581039Y-12433460D02*
X15571515Y-12414412D01*
X15571515Y-12414412D02*
X15571515Y-12242984D01*
X15752468Y-12433460D02*
X15733420Y-12442984D01*
X15733420Y-12442984D02*
X15695325Y-12442984D01*
X15695325Y-12442984D02*
X15676277Y-12433460D01*
X15676277Y-12433460D02*
X15666753Y-12414412D01*
X15666753Y-12414412D02*
X15666753Y-12338222D01*
X15666753Y-12338222D02*
X15676277Y-12319174D01*
X15676277Y-12319174D02*
X15695325Y-12309650D01*
X15695325Y-12309650D02*
X15733420Y-12309650D01*
X15733420Y-12309650D02*
X15752468Y-12319174D01*
X15752468Y-12319174D02*
X15761991Y-12338222D01*
X15761991Y-12338222D02*
X15761991Y-12357269D01*
X15761991Y-12357269D02*
X15666753Y-12376317D01*
X15838182Y-12433460D02*
X15857230Y-12442984D01*
X15857230Y-12442984D02*
X15895325Y-12442984D01*
X15895325Y-12442984D02*
X15914372Y-12433460D01*
X15914372Y-12433460D02*
X15923896Y-12414412D01*
X15923896Y-12414412D02*
X15923896Y-12404888D01*
X15923896Y-12404888D02*
X15914372Y-12385841D01*
X15914372Y-12385841D02*
X15895325Y-12376317D01*
X15895325Y-12376317D02*
X15866753Y-12376317D01*
X15866753Y-12376317D02*
X15847706Y-12366793D01*
X15847706Y-12366793D02*
X15838182Y-12347746D01*
X15838182Y-12347746D02*
X15838182Y-12338222D01*
X15838182Y-12338222D02*
X15847706Y-12319174D01*
X15847706Y-12319174D02*
X15866753Y-12309650D01*
X15866753Y-12309650D02*
X15895325Y-12309650D01*
X15895325Y-12309650D02*
X15914372Y-12319174D01*
X15990563Y-12519174D02*
X16000087Y-12509650D01*
X16000087Y-12509650D02*
X16019134Y-12481079D01*
X16019134Y-12481079D02*
X16028658Y-12462031D01*
X16028658Y-12462031D02*
X16038182Y-12433460D01*
X16038182Y-12433460D02*
X16047706Y-12385841D01*
X16047706Y-12385841D02*
X16047706Y-12347746D01*
X16047706Y-12347746D02*
X16038182Y-12300127D01*
X16038182Y-12300127D02*
X16028658Y-12271555D01*
X16028658Y-12271555D02*
X16019134Y-12252508D01*
X16019134Y-12252508D02*
X16000087Y-12223936D01*
X16000087Y-12223936D02*
X15990563Y-12214412D01*
D13*
X11215500Y-12615500D02*
G75*
G03*
X11215500Y-12615500I-32500J0D01*
G01*
D11*
X11514372Y-12506984D02*
X11533420Y-12506984D01*
X11533420Y-12506984D02*
X11552467Y-12516508D01*
X11552467Y-12516508D02*
X11561991Y-12526031D01*
X11561991Y-12526031D02*
X11571515Y-12545079D01*
X11571515Y-12545079D02*
X11581039Y-12583174D01*
X11581039Y-12583174D02*
X11581039Y-12630793D01*
X11581039Y-12630793D02*
X11571515Y-12668888D01*
X11571515Y-12668888D02*
X11561991Y-12687936D01*
X11561991Y-12687936D02*
X11552467Y-12697460D01*
X11552467Y-12697460D02*
X11533420Y-12706984D01*
X11533420Y-12706984D02*
X11514372Y-12706984D01*
X11514372Y-12706984D02*
X11495324Y-12697460D01*
X11495324Y-12697460D02*
X11485801Y-12687936D01*
X11485801Y-12687936D02*
X11476277Y-12668888D01*
X11476277Y-12668888D02*
X11466753Y-12630793D01*
X11466753Y-12630793D02*
X11466753Y-12583174D01*
X11466753Y-12583174D02*
X11476277Y-12545079D01*
X11476277Y-12545079D02*
X11485801Y-12526031D01*
X11485801Y-12526031D02*
X11495324Y-12516508D01*
X11495324Y-12516508D02*
X11514372Y-12506984D01*
X11666753Y-12687936D02*
X11676277Y-12697460D01*
X11676277Y-12697460D02*
X11666753Y-12706984D01*
X11666753Y-12706984D02*
X11657229Y-12697460D01*
X11657229Y-12697460D02*
X11666753Y-12687936D01*
X11666753Y-12687936D02*
X11666753Y-12706984D01*
X11847705Y-12506984D02*
X11809610Y-12506984D01*
X11809610Y-12506984D02*
X11790562Y-12516508D01*
X11790562Y-12516508D02*
X11781039Y-12526031D01*
X11781039Y-12526031D02*
X11761991Y-12554603D01*
X11761991Y-12554603D02*
X11752467Y-12592698D01*
X11752467Y-12592698D02*
X11752467Y-12668888D01*
X11752467Y-12668888D02*
X11761991Y-12687936D01*
X11761991Y-12687936D02*
X11771515Y-12697460D01*
X11771515Y-12697460D02*
X11790562Y-12706984D01*
X11790562Y-12706984D02*
X11828658Y-12706984D01*
X11828658Y-12706984D02*
X11847705Y-12697460D01*
X11847705Y-12697460D02*
X11857229Y-12687936D01*
X11857229Y-12687936D02*
X11866753Y-12668888D01*
X11866753Y-12668888D02*
X11866753Y-12621269D01*
X11866753Y-12621269D02*
X11857229Y-12602222D01*
X11857229Y-12602222D02*
X11847705Y-12592698D01*
X11847705Y-12592698D02*
X11828658Y-12583174D01*
X11828658Y-12583174D02*
X11790562Y-12583174D01*
X11790562Y-12583174D02*
X11771515Y-12592698D01*
X11771515Y-12592698D02*
X11761991Y-12602222D01*
X11761991Y-12602222D02*
X11752467Y-12621269D01*
X12047705Y-12506984D02*
X11952467Y-12506984D01*
X11952467Y-12506984D02*
X11942943Y-12602222D01*
X11942943Y-12602222D02*
X11952467Y-12592698D01*
X11952467Y-12592698D02*
X11971515Y-12583174D01*
X11971515Y-12583174D02*
X12019134Y-12583174D01*
X12019134Y-12583174D02*
X12038182Y-12592698D01*
X12038182Y-12592698D02*
X12047705Y-12602222D01*
X12047705Y-12602222D02*
X12057229Y-12621269D01*
X12057229Y-12621269D02*
X12057229Y-12668888D01*
X12057229Y-12668888D02*
X12047705Y-12687936D01*
X12047705Y-12687936D02*
X12038182Y-12697460D01*
X12038182Y-12697460D02*
X12019134Y-12706984D01*
X12019134Y-12706984D02*
X11971515Y-12706984D01*
X11971515Y-12706984D02*
X11952467Y-12697460D01*
X11952467Y-12697460D02*
X11942943Y-12687936D01*
X12181039Y-12506984D02*
X12200086Y-12506984D01*
X12200086Y-12506984D02*
X12219134Y-12516508D01*
X12219134Y-12516508D02*
X12228658Y-12526031D01*
X12228658Y-12526031D02*
X12238182Y-12545079D01*
X12238182Y-12545079D02*
X12247705Y-12583174D01*
X12247705Y-12583174D02*
X12247705Y-12630793D01*
X12247705Y-12630793D02*
X12238182Y-12668888D01*
X12238182Y-12668888D02*
X12228658Y-12687936D01*
X12228658Y-12687936D02*
X12219134Y-12697460D01*
X12219134Y-12697460D02*
X12200086Y-12706984D01*
X12200086Y-12706984D02*
X12181039Y-12706984D01*
X12181039Y-12706984D02*
X12161991Y-12697460D01*
X12161991Y-12697460D02*
X12152467Y-12687936D01*
X12152467Y-12687936D02*
X12142943Y-12668888D01*
X12142943Y-12668888D02*
X12133420Y-12630793D01*
X12133420Y-12630793D02*
X12133420Y-12583174D01*
X12133420Y-12583174D02*
X12142943Y-12545079D01*
X12142943Y-12545079D02*
X12152467Y-12526031D01*
X12152467Y-12526031D02*
X12161991Y-12516508D01*
X12161991Y-12516508D02*
X12181039Y-12506984D01*
X12333420Y-12706984D02*
X12333420Y-12573650D01*
X12333420Y-12592698D02*
X12342943Y-12583174D01*
X12342943Y-12583174D02*
X12361991Y-12573650D01*
X12361991Y-12573650D02*
X12390563Y-12573650D01*
X12390563Y-12573650D02*
X12409610Y-12583174D01*
X12409610Y-12583174D02*
X12419134Y-12602222D01*
X12419134Y-12602222D02*
X12419134Y-12706984D01*
X12419134Y-12602222D02*
X12428658Y-12583174D01*
X12428658Y-12583174D02*
X12447705Y-12573650D01*
X12447705Y-12573650D02*
X12476277Y-12573650D01*
X12476277Y-12573650D02*
X12495324Y-12583174D01*
X12495324Y-12583174D02*
X12504848Y-12602222D01*
X12504848Y-12602222D02*
X12504848Y-12706984D01*
X12600086Y-12706984D02*
X12600086Y-12573650D01*
X12600086Y-12592698D02*
X12609610Y-12583174D01*
X12609610Y-12583174D02*
X12628658Y-12573650D01*
X12628658Y-12573650D02*
X12657229Y-12573650D01*
X12657229Y-12573650D02*
X12676277Y-12583174D01*
X12676277Y-12583174D02*
X12685801Y-12602222D01*
X12685801Y-12602222D02*
X12685801Y-12706984D01*
X12685801Y-12602222D02*
X12695324Y-12583174D01*
X12695324Y-12583174D02*
X12714372Y-12573650D01*
X12714372Y-12573650D02*
X12742943Y-12573650D01*
X12742943Y-12573650D02*
X12761991Y-12583174D01*
X12761991Y-12583174D02*
X12771515Y-12602222D01*
X12771515Y-12602222D02*
X12771515Y-12706984D01*
X13161991Y-12497460D02*
X12990563Y-12754603D01*
X13419134Y-12506984D02*
X13438182Y-12506984D01*
X13438182Y-12506984D02*
X13457229Y-12516508D01*
X13457229Y-12516508D02*
X13466753Y-12526031D01*
X13466753Y-12526031D02*
X13476277Y-12545079D01*
X13476277Y-12545079D02*
X13485801Y-12583174D01*
X13485801Y-12583174D02*
X13485801Y-12630793D01*
X13485801Y-12630793D02*
X13476277Y-12668888D01*
X13476277Y-12668888D02*
X13466753Y-12687936D01*
X13466753Y-12687936D02*
X13457229Y-12697460D01*
X13457229Y-12697460D02*
X13438182Y-12706984D01*
X13438182Y-12706984D02*
X13419134Y-12706984D01*
X13419134Y-12706984D02*
X13400086Y-12697460D01*
X13400086Y-12697460D02*
X13390563Y-12687936D01*
X13390563Y-12687936D02*
X13381039Y-12668888D01*
X13381039Y-12668888D02*
X13371515Y-12630793D01*
X13371515Y-12630793D02*
X13371515Y-12583174D01*
X13371515Y-12583174D02*
X13381039Y-12545079D01*
X13381039Y-12545079D02*
X13390563Y-12526031D01*
X13390563Y-12526031D02*
X13400086Y-12516508D01*
X13400086Y-12516508D02*
X13419134Y-12506984D01*
X13571515Y-12687936D02*
X13581039Y-12697460D01*
X13581039Y-12697460D02*
X13571515Y-12706984D01*
X13571515Y-12706984D02*
X13561991Y-12697460D01*
X13561991Y-12697460D02*
X13571515Y-12687936D01*
X13571515Y-12687936D02*
X13571515Y-12706984D01*
X13704848Y-12506984D02*
X13723896Y-12506984D01*
X13723896Y-12506984D02*
X13742944Y-12516508D01*
X13742944Y-12516508D02*
X13752467Y-12526031D01*
X13752467Y-12526031D02*
X13761991Y-12545079D01*
X13761991Y-12545079D02*
X13771515Y-12583174D01*
X13771515Y-12583174D02*
X13771515Y-12630793D01*
X13771515Y-12630793D02*
X13761991Y-12668888D01*
X13761991Y-12668888D02*
X13752467Y-12687936D01*
X13752467Y-12687936D02*
X13742944Y-12697460D01*
X13742944Y-12697460D02*
X13723896Y-12706984D01*
X13723896Y-12706984D02*
X13704848Y-12706984D01*
X13704848Y-12706984D02*
X13685801Y-12697460D01*
X13685801Y-12697460D02*
X13676277Y-12687936D01*
X13676277Y-12687936D02*
X13666753Y-12668888D01*
X13666753Y-12668888D02*
X13657229Y-12630793D01*
X13657229Y-12630793D02*
X13657229Y-12583174D01*
X13657229Y-12583174D02*
X13666753Y-12545079D01*
X13666753Y-12545079D02*
X13676277Y-12526031D01*
X13676277Y-12526031D02*
X13685801Y-12516508D01*
X13685801Y-12516508D02*
X13704848Y-12506984D01*
X13847706Y-12526031D02*
X13857229Y-12516508D01*
X13857229Y-12516508D02*
X13876277Y-12506984D01*
X13876277Y-12506984D02*
X13923896Y-12506984D01*
X13923896Y-12506984D02*
X13942944Y-12516508D01*
X13942944Y-12516508D02*
X13952467Y-12526031D01*
X13952467Y-12526031D02*
X13961991Y-12545079D01*
X13961991Y-12545079D02*
X13961991Y-12564127D01*
X13961991Y-12564127D02*
X13952467Y-12592698D01*
X13952467Y-12592698D02*
X13838182Y-12706984D01*
X13838182Y-12706984D02*
X13961991Y-12706984D01*
X14142944Y-12506984D02*
X14047706Y-12506984D01*
X14047706Y-12506984D02*
X14038182Y-12602222D01*
X14038182Y-12602222D02*
X14047706Y-12592698D01*
X14047706Y-12592698D02*
X14066753Y-12583174D01*
X14066753Y-12583174D02*
X14114372Y-12583174D01*
X14114372Y-12583174D02*
X14133420Y-12592698D01*
X14133420Y-12592698D02*
X14142944Y-12602222D01*
X14142944Y-12602222D02*
X14152467Y-12621269D01*
X14152467Y-12621269D02*
X14152467Y-12668888D01*
X14152467Y-12668888D02*
X14142944Y-12687936D01*
X14142944Y-12687936D02*
X14133420Y-12697460D01*
X14133420Y-12697460D02*
X14114372Y-12706984D01*
X14114372Y-12706984D02*
X14066753Y-12706984D01*
X14066753Y-12706984D02*
X14047706Y-12697460D01*
X14047706Y-12697460D02*
X14038182Y-12687936D01*
X14323896Y-12506984D02*
X14285801Y-12506984D01*
X14285801Y-12506984D02*
X14266753Y-12516508D01*
X14266753Y-12516508D02*
X14257229Y-12526031D01*
X14257229Y-12526031D02*
X14238182Y-12554603D01*
X14238182Y-12554603D02*
X14228658Y-12592698D01*
X14228658Y-12592698D02*
X14228658Y-12668888D01*
X14228658Y-12668888D02*
X14238182Y-12687936D01*
X14238182Y-12687936D02*
X14247706Y-12697460D01*
X14247706Y-12697460D02*
X14266753Y-12706984D01*
X14266753Y-12706984D02*
X14304848Y-12706984D01*
X14304848Y-12706984D02*
X14323896Y-12697460D01*
X14323896Y-12697460D02*
X14333420Y-12687936D01*
X14333420Y-12687936D02*
X14342944Y-12668888D01*
X14342944Y-12668888D02*
X14342944Y-12621269D01*
X14342944Y-12621269D02*
X14333420Y-12602222D01*
X14333420Y-12602222D02*
X14323896Y-12592698D01*
X14323896Y-12592698D02*
X14304848Y-12583174D01*
X14304848Y-12583174D02*
X14266753Y-12583174D01*
X14266753Y-12583174D02*
X14247706Y-12592698D01*
X14247706Y-12592698D02*
X14238182Y-12602222D01*
X14238182Y-12602222D02*
X14228658Y-12621269D01*
X14419134Y-12506984D02*
X14419134Y-12545079D01*
X14495325Y-12506984D02*
X14495325Y-12545079D01*
X14790563Y-12783174D02*
X14781039Y-12773650D01*
X14781039Y-12773650D02*
X14761991Y-12745079D01*
X14761991Y-12745079D02*
X14752468Y-12726031D01*
X14752468Y-12726031D02*
X14742944Y-12697460D01*
X14742944Y-12697460D02*
X14733420Y-12649841D01*
X14733420Y-12649841D02*
X14733420Y-12611746D01*
X14733420Y-12611746D02*
X14742944Y-12564127D01*
X14742944Y-12564127D02*
X14752468Y-12535555D01*
X14752468Y-12535555D02*
X14761991Y-12516508D01*
X14761991Y-12516508D02*
X14781039Y-12487936D01*
X14781039Y-12487936D02*
X14790563Y-12478412D01*
X14971515Y-12706984D02*
X14857229Y-12706984D01*
X14914372Y-12706984D02*
X14914372Y-12506984D01*
X14914372Y-12506984D02*
X14895325Y-12535555D01*
X14895325Y-12535555D02*
X14876277Y-12554603D01*
X14876277Y-12554603D02*
X14857229Y-12564127D01*
X15142944Y-12573650D02*
X15142944Y-12706984D01*
X15095325Y-12497460D02*
X15047706Y-12640317D01*
X15047706Y-12640317D02*
X15171515Y-12640317D01*
X15333420Y-12573650D02*
X15333420Y-12706984D01*
X15285801Y-12497460D02*
X15238182Y-12640317D01*
X15238182Y-12640317D02*
X15361991Y-12640317D01*
X15590563Y-12706984D02*
X15590563Y-12506984D01*
X15676277Y-12706984D02*
X15676277Y-12602222D01*
X15676277Y-12602222D02*
X15666753Y-12583174D01*
X15666753Y-12583174D02*
X15647706Y-12573650D01*
X15647706Y-12573650D02*
X15619134Y-12573650D01*
X15619134Y-12573650D02*
X15600087Y-12583174D01*
X15600087Y-12583174D02*
X15590563Y-12592698D01*
X15800087Y-12706984D02*
X15781039Y-12697460D01*
X15781039Y-12697460D02*
X15771515Y-12687936D01*
X15771515Y-12687936D02*
X15761991Y-12668888D01*
X15761991Y-12668888D02*
X15761991Y-12611746D01*
X15761991Y-12611746D02*
X15771515Y-12592698D01*
X15771515Y-12592698D02*
X15781039Y-12583174D01*
X15781039Y-12583174D02*
X15800087Y-12573650D01*
X15800087Y-12573650D02*
X15828658Y-12573650D01*
X15828658Y-12573650D02*
X15847706Y-12583174D01*
X15847706Y-12583174D02*
X15857230Y-12592698D01*
X15857230Y-12592698D02*
X15866753Y-12611746D01*
X15866753Y-12611746D02*
X15866753Y-12668888D01*
X15866753Y-12668888D02*
X15857230Y-12687936D01*
X15857230Y-12687936D02*
X15847706Y-12697460D01*
X15847706Y-12697460D02*
X15828658Y-12706984D01*
X15828658Y-12706984D02*
X15800087Y-12706984D01*
X15981039Y-12706984D02*
X15961991Y-12697460D01*
X15961991Y-12697460D02*
X15952468Y-12678412D01*
X15952468Y-12678412D02*
X15952468Y-12506984D01*
X16133420Y-12697460D02*
X16114372Y-12706984D01*
X16114372Y-12706984D02*
X16076277Y-12706984D01*
X16076277Y-12706984D02*
X16057230Y-12697460D01*
X16057230Y-12697460D02*
X16047706Y-12678412D01*
X16047706Y-12678412D02*
X16047706Y-12602222D01*
X16047706Y-12602222D02*
X16057230Y-12583174D01*
X16057230Y-12583174D02*
X16076277Y-12573650D01*
X16076277Y-12573650D02*
X16114372Y-12573650D01*
X16114372Y-12573650D02*
X16133420Y-12583174D01*
X16133420Y-12583174D02*
X16142944Y-12602222D01*
X16142944Y-12602222D02*
X16142944Y-12621269D01*
X16142944Y-12621269D02*
X16047706Y-12640317D01*
X16219134Y-12697460D02*
X16238182Y-12706984D01*
X16238182Y-12706984D02*
X16276277Y-12706984D01*
X16276277Y-12706984D02*
X16295325Y-12697460D01*
X16295325Y-12697460D02*
X16304849Y-12678412D01*
X16304849Y-12678412D02*
X16304849Y-12668888D01*
X16304849Y-12668888D02*
X16295325Y-12649841D01*
X16295325Y-12649841D02*
X16276277Y-12640317D01*
X16276277Y-12640317D02*
X16247706Y-12640317D01*
X16247706Y-12640317D02*
X16228658Y-12630793D01*
X16228658Y-12630793D02*
X16219134Y-12611746D01*
X16219134Y-12611746D02*
X16219134Y-12602222D01*
X16219134Y-12602222D02*
X16228658Y-12583174D01*
X16228658Y-12583174D02*
X16247706Y-12573650D01*
X16247706Y-12573650D02*
X16276277Y-12573650D01*
X16276277Y-12573650D02*
X16295325Y-12583174D01*
X16371515Y-12783174D02*
X16381039Y-12773650D01*
X16381039Y-12773650D02*
X16400087Y-12745079D01*
X16400087Y-12745079D02*
X16409611Y-12726031D01*
X16409611Y-12726031D02*
X16419134Y-12697460D01*
X16419134Y-12697460D02*
X16428658Y-12649841D01*
X16428658Y-12649841D02*
X16428658Y-12611746D01*
X16428658Y-12611746D02*
X16419134Y-12564127D01*
X16419134Y-12564127D02*
X16409611Y-12535555D01*
X16409611Y-12535555D02*
X16400087Y-12516508D01*
X16400087Y-12516508D02*
X16381039Y-12487936D01*
X16381039Y-12487936D02*
X16371515Y-12478412D01*
M02*
