G04 #@! TF.GenerationSoftware,KiCad,Pcbnew,7.0.6-0*
G04 #@! TF.CreationDate,2023-10-14T16:46:18-04:00*
G04 #@! TF.ProjectId,FBI Board,46424920-426f-4617-9264-2e6b69636164,1*
G04 #@! TF.SameCoordinates,Original*
G04 #@! TF.FileFunction,Profile,NP*
%FSLAX46Y46*%
G04 Gerber Fmt 4.6, Leading zero omitted, Abs format (unit mm)*
G04 Created by KiCad (PCBNEW 7.0.6-0) date 2023-10-14 16:46:18*
%MOMM*%
%LPD*%
G01*
G04 APERTURE LIST*
G04 #@! TA.AperFunction,Profile*
%ADD10C,0.150000*%
G04 #@! TD*
G04 APERTURE END LIST*
D10*
X112230000Y-84050000D02*
X112230000Y-114038521D01*
X153200000Y-87060000D02*
G75*
G03*
X152880000Y-87380000I0J-320000D01*
G01*
X127430000Y-87370000D02*
G75*
G03*
X127110000Y-87050000I-320000J0D01*
G01*
X137680000Y-113710000D02*
X137680000Y-87380000D01*
X122480000Y-113710000D02*
G75*
G03*
X122799999Y-114030000I320000J0D01*
G01*
X157840000Y-87380000D02*
X157840000Y-113710000D01*
X165089776Y-84050000D02*
X112230000Y-84050000D01*
X122480000Y-113710000D02*
X122480000Y-87370000D01*
X157520000Y-114030000D02*
X153199999Y-114030000D01*
X165089775Y-117040000D02*
X115230000Y-117040000D01*
X138000000Y-87060000D02*
G75*
G03*
X137680000Y-87380000I0J-320000D01*
G01*
X168090000Y-87050224D02*
X168090000Y-114039778D01*
X127430000Y-87370000D02*
X127430000Y-113710000D01*
X142630000Y-87380000D02*
G75*
G03*
X142310000Y-87060000I-320000J0D01*
G01*
X142630000Y-87380000D02*
X142630000Y-113710000D01*
X122800000Y-87050000D02*
X127110000Y-87050000D01*
X112229956Y-114038521D02*
G75*
G03*
X115230223Y-117038744I3000244J21D01*
G01*
X138000000Y-87060000D02*
X142310000Y-87060000D01*
X122800000Y-87050000D02*
G75*
G03*
X122480000Y-87370000I0J-320000D01*
G01*
X157840000Y-87380000D02*
G75*
G03*
X157520000Y-87060000I-320000J0D01*
G01*
X168090000Y-87050224D02*
G75*
G03*
X165089776Y-84050000I-3000200J24D01*
G01*
X137680000Y-113710000D02*
G75*
G03*
X137999999Y-114030000I320000J0D01*
G01*
X153200000Y-87060000D02*
X157520000Y-87060000D01*
X127110000Y-114030000D02*
G75*
G03*
X127430000Y-113710000I0J320000D01*
G01*
X157520000Y-114030000D02*
G75*
G03*
X157840000Y-113710000I0J320000D01*
G01*
X165089775Y-117040000D02*
G75*
G03*
X168090000Y-114039778I25J3000200D01*
G01*
X142310000Y-114030000D02*
G75*
G03*
X142630000Y-113710000I0J320000D01*
G01*
X152880000Y-113710000D02*
G75*
G03*
X153199999Y-114030000I320000J0D01*
G01*
X127110000Y-114030000D02*
X122799999Y-114030000D01*
X142310000Y-114030000D02*
X137999999Y-114030000D01*
X152880000Y-113710000D02*
X152880000Y-87380000D01*
X146226983Y-87639588D02*
X146226983Y-113439588D01*
X146546902Y-113759507D02*
X148990385Y-113759507D01*
X148990385Y-87319669D02*
X146546902Y-87319669D01*
X149310304Y-113439588D02*
X149310304Y-87639588D01*
X146546902Y-87319673D02*
G75*
G03*
X146226983Y-87639588I-2J-319917D01*
G01*
X146226983Y-113439588D02*
G75*
G03*
X146546902Y-113759507I319927J8D01*
G01*
X149310331Y-87639588D02*
G75*
G03*
X148990385Y-87319669I-319931J-12D01*
G01*
X148990385Y-113759504D02*
G75*
G03*
X149310304Y-113439588I15J319904D01*
G01*
X115806983Y-87639588D02*
X115806983Y-113439588D01*
X116126902Y-113759507D02*
X118570385Y-113759507D01*
X118570385Y-87319669D02*
X116126902Y-87319669D01*
X118890304Y-113439588D02*
X118890304Y-87639588D01*
X116126902Y-87319673D02*
G75*
G03*
X115806983Y-87639588I-2J-319917D01*
G01*
X115806983Y-113439588D02*
G75*
G03*
X116126902Y-113759507I319927J8D01*
G01*
X118890331Y-87639588D02*
G75*
G03*
X118570385Y-87319669I-319931J-12D01*
G01*
X118570385Y-113759504D02*
G75*
G03*
X118890304Y-113439588I15J319904D01*
G01*
X161416983Y-87639588D02*
X161416983Y-113439588D01*
X161736902Y-113759507D02*
X164180385Y-113759507D01*
X164180385Y-87319669D02*
X161736902Y-87319669D01*
X164500304Y-113439588D02*
X164500304Y-87639588D01*
X161736902Y-87319673D02*
G75*
G03*
X161416983Y-87639588I-2J-319917D01*
G01*
X161416983Y-113439588D02*
G75*
G03*
X161736902Y-113759507I319927J8D01*
G01*
X164500331Y-87639588D02*
G75*
G03*
X164180385Y-87319669I-319931J-12D01*
G01*
X164180385Y-113759504D02*
G75*
G03*
X164500304Y-113439588I15J319904D01*
G01*
X131016983Y-87639588D02*
X131016983Y-113439588D01*
X131336902Y-113759507D02*
X133780385Y-113759507D01*
X133780385Y-87319669D02*
X131336902Y-87319669D01*
X134100304Y-113439588D02*
X134100304Y-87639588D01*
X131336902Y-87319673D02*
G75*
G03*
X131016983Y-87639588I-2J-319917D01*
G01*
X131016983Y-113439588D02*
G75*
G03*
X131336902Y-113759507I319927J8D01*
G01*
X134100331Y-87639588D02*
G75*
G03*
X133780385Y-87319669I-319931J-12D01*
G01*
X133780385Y-113759504D02*
G75*
G03*
X134100304Y-113439588I15J319904D01*
G01*
M02*
