G04 #@! TF.GenerationSoftware,KiCad,Pcbnew,7.0.6-0*
G04 #@! TF.CreationDate,2023-09-15T02:16:25-04:00*
G04 #@! TF.ProjectId,FBI Board,46424920-426f-4617-9264-2e6b69636164,1*
G04 #@! TF.SameCoordinates,Original*
G04 #@! TF.FileFunction,Copper,L2,Bot*
G04 #@! TF.FilePolarity,Positive*
%FSLAX46Y46*%
G04 Gerber Fmt 4.6, Leading zero omitted, Abs format (unit mm)*
G04 Created by KiCad (PCBNEW 7.0.6-0) date 2023-09-15 02:16:25*
%MOMM*%
%LPD*%
G01*
G04 APERTURE LIST*
G04 Aperture macros list*
%AMRoundRect*
0 Rectangle with rounded corners*
0 $1 Rounding radius*
0 $2 $3 $4 $5 $6 $7 $8 $9 X,Y pos of 4 corners*
0 Add a 4 corners polygon primitive as box body*
4,1,4,$2,$3,$4,$5,$6,$7,$8,$9,$2,$3,0*
0 Add four circle primitives for the rounded corners*
1,1,$1+$1,$2,$3*
1,1,$1+$1,$4,$5*
1,1,$1+$1,$6,$7*
1,1,$1+$1,$8,$9*
0 Add four rect primitives between the rounded corners*
20,1,$1+$1,$2,$3,$4,$5,0*
20,1,$1+$1,$4,$5,$6,$7,0*
20,1,$1+$1,$6,$7,$8,$9,0*
20,1,$1+$1,$8,$9,$2,$3,0*%
G04 Aperture macros list end*
G04 #@! TA.AperFunction,CastellatedPad*
%ADD10RoundRect,0.227500X0.477500X0.227500X-0.477500X0.227500X-0.477500X-0.227500X0.477500X-0.227500X0*%
G04 #@! TD*
G04 #@! TA.AperFunction,CastellatedPad*
%ADD11RoundRect,0.227500X-0.477500X-0.227500X0.477500X-0.227500X0.477500X0.227500X-0.477500X0.227500X0*%
G04 #@! TD*
G04 #@! TA.AperFunction,SMDPad,CuDef*
%ADD12RoundRect,0.190000X0.310000X0.190000X-0.310000X0.190000X-0.310000X-0.190000X0.310000X-0.190000X0*%
G04 #@! TD*
G04 #@! TA.AperFunction,SMDPad,CuDef*
%ADD13RoundRect,0.190000X-0.310000X-0.190000X0.310000X-0.190000X0.310000X0.190000X-0.310000X0.190000X0*%
G04 #@! TD*
G04 #@! TA.AperFunction,ViaPad*
%ADD14C,0.700000*%
G04 #@! TD*
G04 #@! TA.AperFunction,Conductor*
%ADD15C,0.250000*%
G04 #@! TD*
G04 APERTURE END LIST*
D10*
X137420000Y-112620000D03*
X137420000Y-111350000D03*
X137420000Y-110080000D03*
X137420000Y-108810000D03*
X137420000Y-107540000D03*
X137420000Y-106270000D03*
X137420000Y-105000000D03*
X137420000Y-103730000D03*
X137420000Y-102460000D03*
X137420000Y-101190000D03*
X137420000Y-97380000D03*
X137420000Y-96110000D03*
X137420000Y-93570000D03*
X137420000Y-92300000D03*
X137420000Y-91030000D03*
X137420000Y-89760000D03*
X137420000Y-88490000D03*
D11*
X127690000Y-88500000D03*
X127690000Y-89770000D03*
X127690000Y-91040000D03*
X127690000Y-92310000D03*
X127690000Y-93580000D03*
X127690000Y-94850000D03*
X127690000Y-96120000D03*
X127690000Y-97390000D03*
X127690000Y-98660000D03*
X127690000Y-101200000D03*
X127690000Y-102470000D03*
X127690000Y-103740000D03*
X127690000Y-105010000D03*
X127690000Y-106280000D03*
X127690000Y-107550000D03*
X127690000Y-108820000D03*
X127690000Y-110090000D03*
X127690000Y-111360000D03*
X127690000Y-112630000D03*
D12*
X149820000Y-112620000D03*
X149820000Y-111350000D03*
X149820000Y-110080000D03*
X149820000Y-108810000D03*
X149820000Y-107540000D03*
X149820000Y-106270000D03*
X149820000Y-105000000D03*
X149820000Y-103730000D03*
X149820000Y-102460000D03*
X149820000Y-101190000D03*
X149820000Y-99920000D03*
X149820000Y-98650000D03*
X149820000Y-97380000D03*
X149820000Y-96110000D03*
X149820000Y-94840000D03*
X149820000Y-93570000D03*
X149820000Y-92300000D03*
X149820000Y-91030000D03*
X149820000Y-89760000D03*
X149820000Y-88490000D03*
D13*
X145720000Y-88480000D03*
X145720000Y-89750000D03*
X145720000Y-91020000D03*
X145720000Y-92290000D03*
X145720000Y-93560000D03*
X145720000Y-94830000D03*
X145720000Y-96100000D03*
X145720000Y-97370000D03*
X145720000Y-98640000D03*
X145720000Y-99910000D03*
X145720000Y-101180000D03*
X145720000Y-102450000D03*
X145720000Y-103720000D03*
X145720000Y-104990000D03*
X145720000Y-106260000D03*
X145720000Y-107530000D03*
X145720000Y-108800000D03*
X145720000Y-110070000D03*
X145720000Y-111340000D03*
X145720000Y-112610000D03*
D12*
X119400000Y-112620000D03*
X119400000Y-111350000D03*
X119400000Y-110080000D03*
X119400000Y-108810000D03*
X119400000Y-107540000D03*
X119400000Y-106270000D03*
X119400000Y-105000000D03*
X119400000Y-103730000D03*
X119400000Y-102460000D03*
X119400000Y-101190000D03*
X119400000Y-99920000D03*
X119400000Y-98650000D03*
X119400000Y-97380000D03*
X119400000Y-96110000D03*
X119400000Y-94840000D03*
X119400000Y-93570000D03*
X119400000Y-92300000D03*
X119400000Y-91030000D03*
X119400000Y-89760000D03*
X119400000Y-88490000D03*
D13*
X115300000Y-88480000D03*
X115300000Y-89750000D03*
X115300000Y-91020000D03*
X115300000Y-92290000D03*
X115300000Y-93560000D03*
X115300000Y-94830000D03*
X115300000Y-96100000D03*
X115300000Y-97370000D03*
X115300000Y-98640000D03*
X115300000Y-99910000D03*
X115300000Y-101180000D03*
X115300000Y-102450000D03*
X115300000Y-103720000D03*
X115300000Y-104990000D03*
X115300000Y-106260000D03*
X115300000Y-107530000D03*
X115300000Y-108800000D03*
X115300000Y-110070000D03*
X115300000Y-111340000D03*
X115300000Y-112610000D03*
D12*
X165010000Y-112620000D03*
X165010000Y-111350000D03*
X165010000Y-110080000D03*
X165010000Y-108810000D03*
X165010000Y-107540000D03*
X165010000Y-106270000D03*
X165010000Y-105000000D03*
X165010000Y-103730000D03*
X165010000Y-102460000D03*
X165010000Y-101190000D03*
X165010000Y-99920000D03*
X165010000Y-98650000D03*
X165010000Y-97380000D03*
X165010000Y-96110000D03*
X165010000Y-94840000D03*
X165010000Y-93570000D03*
X165010000Y-92300000D03*
X165010000Y-91030000D03*
X165010000Y-89760000D03*
X165010000Y-88490000D03*
D13*
X160910000Y-88480000D03*
X160910000Y-89750000D03*
X160910000Y-91020000D03*
X160910000Y-92290000D03*
X160910000Y-93560000D03*
X160910000Y-94830000D03*
X160910000Y-96100000D03*
X160910000Y-97370000D03*
X160910000Y-98640000D03*
X160910000Y-99910000D03*
X160910000Y-101180000D03*
X160910000Y-102450000D03*
X160910000Y-103720000D03*
X160910000Y-104990000D03*
X160910000Y-106260000D03*
X160910000Y-107530000D03*
X160910000Y-108800000D03*
X160910000Y-110070000D03*
X160910000Y-111340000D03*
X160910000Y-112610000D03*
D10*
X167830000Y-112620000D03*
X167830000Y-111350000D03*
X167830000Y-110080000D03*
X167830000Y-108810000D03*
X167830000Y-107540000D03*
X167830000Y-106270000D03*
X167830000Y-105000000D03*
X167830000Y-103730000D03*
X167830000Y-102460000D03*
X167830000Y-101190000D03*
X167830000Y-97380000D03*
X167830000Y-96110000D03*
X167830000Y-93570000D03*
X167830000Y-92300000D03*
X167830000Y-91030000D03*
X167830000Y-89760000D03*
X167830000Y-88490000D03*
D11*
X158100000Y-88500000D03*
X158100000Y-89770000D03*
X158100000Y-91040000D03*
X158100000Y-92310000D03*
X158100000Y-93580000D03*
X158100000Y-94850000D03*
X158100000Y-96120000D03*
X158100000Y-97390000D03*
X158100000Y-98660000D03*
X158100000Y-101200000D03*
X158100000Y-102470000D03*
X158100000Y-103740000D03*
X158100000Y-105010000D03*
X158100000Y-106280000D03*
X158100000Y-107550000D03*
X158100000Y-108820000D03*
X158100000Y-110090000D03*
X158100000Y-111360000D03*
X158100000Y-112630000D03*
D12*
X134610000Y-112620000D03*
X134610000Y-111350000D03*
X134610000Y-110080000D03*
X134610000Y-108810000D03*
X134610000Y-107540000D03*
X134610000Y-106270000D03*
X134610000Y-105000000D03*
X134610000Y-103730000D03*
X134610000Y-102460000D03*
X134610000Y-101190000D03*
X134610000Y-99920000D03*
X134610000Y-98650000D03*
X134610000Y-97380000D03*
X134610000Y-96110000D03*
X134610000Y-94840000D03*
X134610000Y-93570000D03*
X134610000Y-92300000D03*
X134610000Y-91030000D03*
X134610000Y-89760000D03*
X134610000Y-88490000D03*
D13*
X130510000Y-88480000D03*
X130510000Y-89750000D03*
X130510000Y-91020000D03*
X130510000Y-92290000D03*
X130510000Y-93560000D03*
X130510000Y-94830000D03*
X130510000Y-96100000D03*
X130510000Y-97370000D03*
X130510000Y-98640000D03*
X130510000Y-99910000D03*
X130510000Y-101180000D03*
X130510000Y-102450000D03*
X130510000Y-103720000D03*
X130510000Y-104990000D03*
X130510000Y-106260000D03*
X130510000Y-107530000D03*
X130510000Y-108800000D03*
X130510000Y-110070000D03*
X130510000Y-111340000D03*
X130510000Y-112610000D03*
D10*
X122220000Y-112620000D03*
X122220000Y-111350000D03*
X122220000Y-110080000D03*
X122220000Y-108810000D03*
X122220000Y-107540000D03*
X122220000Y-106270000D03*
X122220000Y-105000000D03*
X122220000Y-103730000D03*
X122220000Y-102460000D03*
X122220000Y-101190000D03*
X122220000Y-97380000D03*
X122220000Y-96110000D03*
X122220000Y-93570000D03*
X122220000Y-92300000D03*
X122220000Y-91030000D03*
X122220000Y-89760000D03*
X122220000Y-88490000D03*
D11*
X112490000Y-88500000D03*
X112490000Y-89770000D03*
X112490000Y-91040000D03*
X112490000Y-92310000D03*
X112490000Y-93580000D03*
X112490000Y-94850000D03*
X112490000Y-96120000D03*
X112490000Y-97390000D03*
X112490000Y-98660000D03*
X112490000Y-101200000D03*
X112490000Y-102470000D03*
X112490000Y-103740000D03*
X112490000Y-105010000D03*
X112490000Y-106280000D03*
X112490000Y-107550000D03*
X112490000Y-108820000D03*
X112490000Y-110090000D03*
X112490000Y-111360000D03*
X112490000Y-112630000D03*
D10*
X152620000Y-112620000D03*
X152620000Y-111350000D03*
X152620000Y-110080000D03*
X152620000Y-108810000D03*
X152620000Y-107540000D03*
X152620000Y-106270000D03*
X152620000Y-105000000D03*
X152620000Y-103730000D03*
X152620000Y-102460000D03*
X152620000Y-101190000D03*
X152620000Y-97380000D03*
X152620000Y-96110000D03*
X152620000Y-93570000D03*
X152620000Y-92300000D03*
X152620000Y-91030000D03*
X152620000Y-89760000D03*
X152620000Y-88490000D03*
D11*
X142890000Y-88500000D03*
X142890000Y-89770000D03*
X142890000Y-91040000D03*
X142890000Y-92310000D03*
X142890000Y-93580000D03*
X142890000Y-94850000D03*
X142890000Y-96120000D03*
X142890000Y-97390000D03*
X142890000Y-98660000D03*
X142890000Y-101200000D03*
X142890000Y-102470000D03*
X142890000Y-103740000D03*
X142890000Y-105010000D03*
X142890000Y-106280000D03*
X142890000Y-107550000D03*
X142890000Y-108820000D03*
X142890000Y-110090000D03*
X142890000Y-111360000D03*
X142890000Y-112630000D03*
D14*
X120600000Y-99220000D03*
X135970000Y-99180000D03*
X150980000Y-99300000D03*
X166080000Y-99280000D03*
X120590000Y-86550000D03*
X132370000Y-85660000D03*
X129090000Y-86580000D03*
X136470000Y-87210000D03*
D15*
X119400000Y-88490000D02*
X122355000Y-88490000D01*
X119400000Y-106270000D02*
X122355000Y-106270000D01*
X119400000Y-112620000D02*
X122355000Y-112620000D01*
X119400000Y-111350000D02*
X122355000Y-111350000D01*
X119400000Y-110080000D02*
X122355000Y-110080000D01*
X119400000Y-108810000D02*
X122355000Y-108810000D01*
X119400000Y-107540000D02*
X122480000Y-107540000D01*
X119400000Y-105000000D02*
X122355000Y-105000000D01*
X119400000Y-103730000D02*
X122355000Y-103730000D01*
X119400000Y-102460000D02*
X122355000Y-102460000D01*
X119400000Y-101190000D02*
X122355000Y-101190000D01*
X135970000Y-99180000D02*
X135732893Y-98942893D01*
X120600000Y-99220000D02*
X120322893Y-98942893D01*
X135025786Y-98650000D02*
X134610000Y-98650000D01*
X119615786Y-98650000D02*
X119400000Y-98650000D01*
X135732900Y-98942886D02*
G75*
G03*
X135025786Y-98650000I-707100J-707114D01*
G01*
X120322900Y-98942886D02*
G75*
G03*
X119615786Y-98650000I-707100J-707114D01*
G01*
X119400000Y-97380000D02*
X122355000Y-97380000D01*
X119400000Y-96110000D02*
X122355000Y-96110000D01*
X119400000Y-93570000D02*
X122355000Y-93570000D01*
X119400000Y-92300000D02*
X122355000Y-92300000D01*
X119400000Y-91030000D02*
X122355000Y-91030000D01*
X119400000Y-89760000D02*
X122355000Y-89760000D01*
X112355000Y-106260000D02*
X112355000Y-106280000D01*
X115300000Y-112610000D02*
X112355000Y-112610000D01*
X115300000Y-88480000D02*
X112355000Y-88480000D01*
X112355000Y-112610000D02*
X112355000Y-112630000D01*
X115300000Y-106260000D02*
X112355000Y-106260000D01*
X112355000Y-88480000D02*
X112355000Y-88500000D01*
X112355000Y-89750000D02*
X112355000Y-89770000D01*
X115300000Y-89750000D02*
X112355000Y-89750000D01*
X112355000Y-91020000D02*
X112355000Y-91040000D01*
X115300000Y-91020000D02*
X112355000Y-91020000D01*
X112355000Y-92290000D02*
X112355000Y-92310000D01*
X115300000Y-92290000D02*
X112355000Y-92290000D01*
X115300000Y-93560000D02*
X115280000Y-93580000D01*
X115280000Y-93580000D02*
X112355000Y-93580000D01*
X112355000Y-94830000D02*
X112355000Y-94850000D01*
X115300000Y-94830000D02*
X112355000Y-94830000D01*
X115280000Y-96120000D02*
X112355000Y-96120000D01*
X115300000Y-96100000D02*
X115280000Y-96120000D01*
X115300000Y-97370000D02*
X112355000Y-97370000D01*
X112355000Y-97370000D02*
X112355000Y-97390000D01*
X115300000Y-98640000D02*
X115280000Y-98660000D01*
X115280000Y-98660000D02*
X112355000Y-98660000D01*
X115280000Y-101200000D02*
X112355000Y-101200000D01*
X115300000Y-101180000D02*
X115280000Y-101200000D01*
X112355000Y-102450000D02*
X112355000Y-102470000D01*
X115300000Y-102450000D02*
X112355000Y-102450000D01*
X115300000Y-103720000D02*
X115280000Y-103740000D01*
X115280000Y-103740000D02*
X112355000Y-103740000D01*
X115300000Y-104990000D02*
X112355000Y-104990000D01*
X112355000Y-104990000D02*
X112355000Y-105010000D01*
X115300000Y-107530000D02*
X115280000Y-107550000D01*
X115280000Y-107550000D02*
X112355000Y-107550000D01*
X115280000Y-108820000D02*
X112355000Y-108820000D01*
X115300000Y-108800000D02*
X115280000Y-108820000D01*
X112355000Y-110070000D02*
X112355000Y-110090000D01*
X115300000Y-110070000D02*
X112355000Y-110070000D01*
X115300000Y-111340000D02*
X112355000Y-111340000D01*
X112355000Y-111340000D02*
X112355000Y-111360000D01*
X134610000Y-88490000D02*
X137420000Y-88490000D01*
X134610000Y-106270000D02*
X137420000Y-106270000D01*
X134610000Y-112620000D02*
X137420000Y-112620000D01*
X134610000Y-111350000D02*
X137420000Y-111350000D01*
X134610000Y-110080000D02*
X137420000Y-110080000D01*
X134610000Y-108810000D02*
X137420000Y-108810000D01*
X134610000Y-107540000D02*
X137420000Y-107540000D01*
X134610000Y-105000000D02*
X137420000Y-105000000D01*
X134610000Y-103730000D02*
X137420000Y-103730000D01*
X134610000Y-102460000D02*
X137420000Y-102460000D01*
X134610000Y-101190000D02*
X137420000Y-101190000D01*
X134610000Y-97380000D02*
X137420000Y-97380000D01*
X134610000Y-96110000D02*
X137420000Y-96110000D01*
X134610000Y-93570000D02*
X137420000Y-93570000D01*
X134610000Y-92300000D02*
X137420000Y-92300000D01*
X134610000Y-91030000D02*
X137420000Y-91030000D01*
X134610000Y-89760000D02*
X137420000Y-89760000D01*
X130510000Y-106260000D02*
X127720000Y-106260000D01*
X130510000Y-88480000D02*
X127720000Y-88480000D01*
X127720000Y-88480000D02*
X127700000Y-88500000D01*
X130510000Y-112610000D02*
X127720000Y-112610000D01*
X127720000Y-112610000D02*
X127700000Y-112630000D01*
X127720000Y-106260000D02*
X127700000Y-106280000D01*
X130490000Y-89770000D02*
X127700000Y-89770000D01*
X130510000Y-89750000D02*
X130490000Y-89770000D01*
X130490000Y-91040000D02*
X127700000Y-91040000D01*
X130510000Y-91020000D02*
X130490000Y-91040000D01*
X130510000Y-92290000D02*
X127720000Y-92290000D01*
X127720000Y-92290000D02*
X127700000Y-92310000D01*
X127720000Y-93560000D02*
X127700000Y-93580000D01*
X130510000Y-93560000D02*
X127720000Y-93560000D01*
X127720000Y-94830000D02*
X127700000Y-94850000D01*
X130510000Y-94830000D02*
X127720000Y-94830000D01*
X127720000Y-96100000D02*
X127700000Y-96120000D01*
X130510000Y-96100000D02*
X127720000Y-96100000D01*
X130510000Y-97370000D02*
X127720000Y-97370000D01*
X127720000Y-97370000D02*
X127700000Y-97390000D01*
X130510000Y-98640000D02*
X130490000Y-98660000D01*
X130490000Y-98660000D02*
X127700000Y-98660000D01*
X130510000Y-101180000D02*
X127720000Y-101180000D01*
X127720000Y-101180000D02*
X127700000Y-101200000D01*
X127720000Y-102450000D02*
X127700000Y-102470000D01*
X130510000Y-102450000D02*
X127720000Y-102450000D01*
X127720000Y-103720000D02*
X127700000Y-103740000D01*
X130510000Y-103720000D02*
X127720000Y-103720000D01*
X130490000Y-105010000D02*
X127700000Y-105010000D01*
X130510000Y-104990000D02*
X130490000Y-105010000D01*
X127720000Y-107530000D02*
X127700000Y-107550000D01*
X130510000Y-107530000D02*
X127720000Y-107530000D01*
X130510000Y-108800000D02*
X127720000Y-108800000D01*
X127720000Y-108800000D02*
X127700000Y-108820000D01*
X130490000Y-110090000D02*
X127700000Y-110090000D01*
X130510000Y-110070000D02*
X130490000Y-110090000D01*
X130510000Y-111340000D02*
X127720000Y-111340000D01*
X127720000Y-111340000D02*
X127700000Y-111360000D01*
X166080000Y-99280000D02*
X165742893Y-98942893D01*
X165035786Y-98650000D02*
X165010000Y-98650000D01*
X150980000Y-99300000D02*
X150622893Y-98942893D01*
X149915786Y-98650000D02*
X149820000Y-98650000D01*
X150622900Y-98942886D02*
G75*
G03*
X149915786Y-98650000I-707100J-707114D01*
G01*
X165742900Y-98942886D02*
G75*
G03*
X165035786Y-98650000I-707100J-707114D01*
G01*
X149820000Y-88490000D02*
X152620000Y-88490000D01*
X149820000Y-112620000D02*
X152620000Y-112620000D01*
X149820000Y-106270000D02*
X152620000Y-106270000D01*
X149820000Y-111350000D02*
X152620000Y-111350000D01*
X149820000Y-110080000D02*
X152620000Y-110080000D01*
X149820000Y-108810000D02*
X152620000Y-108810000D01*
X149820000Y-107540000D02*
X152620000Y-107540000D01*
X149820000Y-105000000D02*
X152620000Y-105000000D01*
X149820000Y-103730000D02*
X152620000Y-103730000D01*
X149820000Y-102460000D02*
X152620000Y-102460000D01*
X149820000Y-101190000D02*
X152620000Y-101190000D01*
X149820000Y-97380000D02*
X152620000Y-97380000D01*
X149820000Y-96110000D02*
X152620000Y-96110000D01*
X149820000Y-93570000D02*
X152620000Y-93570000D01*
X149820000Y-92300000D02*
X152620000Y-92300000D01*
X149820000Y-91030000D02*
X152620000Y-91030000D01*
X149820000Y-89760000D02*
X152620000Y-89760000D01*
X142920000Y-106260000D02*
X142900000Y-106280000D01*
X142920000Y-88480000D02*
X142900000Y-88500000D01*
X145720000Y-106260000D02*
X142920000Y-106260000D01*
X142920000Y-112610000D02*
X142900000Y-112630000D01*
X145720000Y-112610000D02*
X142920000Y-112610000D01*
X145720000Y-88480000D02*
X142920000Y-88480000D01*
X145720000Y-89750000D02*
X142920000Y-89750000D01*
X142920000Y-89750000D02*
X142900000Y-89770000D01*
X145720000Y-91020000D02*
X142920000Y-91020000D01*
X142920000Y-91020000D02*
X142900000Y-91040000D01*
X145720000Y-92290000D02*
X142920000Y-92290000D01*
X142920000Y-92290000D02*
X142900000Y-92310000D01*
X142920000Y-93560000D02*
X142900000Y-93580000D01*
X145720000Y-93560000D02*
X142920000Y-93560000D01*
X142920000Y-94830000D02*
X142900000Y-94850000D01*
X145720000Y-94830000D02*
X142920000Y-94830000D01*
X145720000Y-96100000D02*
X142920000Y-96100000D01*
X142920000Y-96100000D02*
X142900000Y-96120000D01*
X145720000Y-97370000D02*
X145700000Y-97390000D01*
X145700000Y-97390000D02*
X142900000Y-97390000D01*
X145720000Y-98640000D02*
X145700000Y-98660000D01*
X145700000Y-98660000D02*
X142900000Y-98660000D01*
X145700000Y-101200000D02*
X142900000Y-101200000D01*
X145720000Y-101180000D02*
X145700000Y-101200000D01*
X142920000Y-102450000D02*
X142900000Y-102470000D01*
X145720000Y-102450000D02*
X142920000Y-102450000D01*
X145700000Y-103740000D02*
X142900000Y-103740000D01*
X145720000Y-103720000D02*
X145700000Y-103740000D01*
X145720000Y-104990000D02*
X142920000Y-104990000D01*
X142920000Y-104990000D02*
X142900000Y-105010000D01*
X142920000Y-107530000D02*
X142900000Y-107550000D01*
X145720000Y-107530000D02*
X142920000Y-107530000D01*
X142920000Y-108800000D02*
X142900000Y-108820000D01*
X145720000Y-108800000D02*
X142920000Y-108800000D01*
X145700000Y-110090000D02*
X142900000Y-110090000D01*
X145720000Y-110070000D02*
X145700000Y-110090000D01*
X145720000Y-111340000D02*
X142920000Y-111340000D01*
X142920000Y-111340000D02*
X142900000Y-111360000D01*
X165010000Y-112620000D02*
X167830000Y-112620000D01*
X165010000Y-106270000D02*
X167830000Y-106270000D01*
X165010000Y-88490000D02*
X167830000Y-88490000D01*
X165010000Y-111350000D02*
X167830000Y-111350000D01*
X165010000Y-110080000D02*
X167830000Y-110080000D01*
X165010000Y-108810000D02*
X167830000Y-108810000D01*
X165010000Y-107540000D02*
X167830000Y-107540000D01*
X165010000Y-105000000D02*
X167830000Y-105000000D01*
X165010000Y-103730000D02*
X167830000Y-103730000D01*
X165010000Y-102460000D02*
X167830000Y-102460000D01*
X165010000Y-101190000D02*
X167830000Y-101190000D01*
X165010000Y-97380000D02*
X167830000Y-97380000D01*
X165010000Y-96110000D02*
X167830000Y-96110000D01*
X165010000Y-93570000D02*
X167830000Y-93570000D01*
X165010000Y-92300000D02*
X167830000Y-92300000D01*
X165010000Y-91030000D02*
X167830000Y-91030000D01*
X165010000Y-89760000D02*
X167830000Y-89760000D01*
X158130000Y-112610000D02*
X158110000Y-112630000D01*
X158130000Y-88480000D02*
X158110000Y-88500000D01*
X160910000Y-88480000D02*
X158130000Y-88480000D01*
X160910000Y-106260000D02*
X158130000Y-106260000D01*
X158130000Y-106260000D02*
X158110000Y-106280000D01*
X160910000Y-112610000D02*
X158130000Y-112610000D01*
X158130000Y-89750000D02*
X158110000Y-89770000D01*
X160910000Y-89750000D02*
X158130000Y-89750000D01*
X158130000Y-91020000D02*
X158110000Y-91040000D01*
X160910000Y-91020000D02*
X158130000Y-91020000D01*
X160890000Y-92310000D02*
X158110000Y-92310000D01*
X160910000Y-92290000D02*
X160890000Y-92310000D01*
X158130000Y-93560000D02*
X158110000Y-93580000D01*
X160910000Y-93560000D02*
X158130000Y-93560000D01*
X160910000Y-94830000D02*
X158130000Y-94830000D01*
X158130000Y-94830000D02*
X158110000Y-94850000D01*
X158130000Y-96100000D02*
X158110000Y-96120000D01*
X160910000Y-96100000D02*
X158130000Y-96100000D01*
X160910000Y-97370000D02*
X158130000Y-97370000D01*
X158130000Y-97370000D02*
X158110000Y-97390000D01*
X158130000Y-98640000D02*
X158110000Y-98660000D01*
X160910000Y-98640000D02*
X158130000Y-98640000D01*
X158130000Y-101180000D02*
X158110000Y-101200000D01*
X160910000Y-101180000D02*
X158130000Y-101180000D01*
X158130000Y-102450000D02*
X158110000Y-102470000D01*
X160910000Y-102450000D02*
X158130000Y-102450000D01*
X160910000Y-103720000D02*
X158130000Y-103720000D01*
X158130000Y-103720000D02*
X158110000Y-103740000D01*
X160910000Y-104990000D02*
X158130000Y-104990000D01*
X158130000Y-104990000D02*
X158110000Y-105010000D01*
X160910000Y-107530000D02*
X160890000Y-107550000D01*
X160890000Y-107550000D02*
X158110000Y-107550000D01*
X158130000Y-108800000D02*
X158110000Y-108820000D01*
X160910000Y-108800000D02*
X158130000Y-108800000D01*
X160890000Y-110090000D02*
X158110000Y-110090000D01*
X160910000Y-110070000D02*
X160890000Y-110090000D01*
X160910000Y-111340000D02*
X160890000Y-111360000D01*
X160890000Y-111360000D02*
X158110000Y-111360000D01*
X132350000Y-85640000D02*
X132370000Y-85660000D01*
X127822893Y-86257107D02*
X128147107Y-85932893D01*
X120590000Y-86550000D02*
X127115786Y-86550000D01*
X128854214Y-85640000D02*
X132350000Y-85640000D01*
X128854214Y-85640010D02*
G75*
G03*
X128147107Y-85932893I-14J-999990D01*
G01*
X127115786Y-86549990D02*
G75*
G03*
X127822893Y-86257107I14J999990D01*
G01*
X136132893Y-86872893D02*
X136470000Y-87210000D01*
X129090000Y-86580000D02*
X135425786Y-86580000D01*
X136132900Y-86872886D02*
G75*
G03*
X135425786Y-86580000I-707100J-707114D01*
G01*
G04 #@! TA.AperFunction,Conductor*
G36*
X143459915Y-95684949D02*
G01*
X144043462Y-95971786D01*
X144049374Y-95978510D01*
X144050000Y-95982285D01*
X144050000Y-96218134D01*
X144046573Y-96226407D01*
X144044007Y-96228348D01*
X143460119Y-96554576D01*
X143451225Y-96555620D01*
X143448932Y-96554699D01*
X142648496Y-96130336D01*
X142642791Y-96123433D01*
X142643639Y-96114519D01*
X142648493Y-96109664D01*
X143449282Y-95685114D01*
X143458195Y-95684267D01*
X143459915Y-95684949D01*
G37*
G04 #@! TD.AperFunction*
G04 #@! TA.AperFunction,Conductor*
G36*
X130133159Y-95740054D02*
G01*
X130502107Y-96091529D01*
X130505734Y-96099716D01*
X130502508Y-96108070D01*
X130502107Y-96108471D01*
X130133159Y-96459945D01*
X130124805Y-96463171D01*
X130119994Y-96462007D01*
X129636605Y-96228194D01*
X129630650Y-96221506D01*
X129630000Y-96217661D01*
X129630000Y-95982338D01*
X129633427Y-95974065D01*
X129636605Y-95971805D01*
X130119994Y-95737992D01*
X130128934Y-95737475D01*
X130133159Y-95740054D01*
G37*
G04 #@! TD.AperFunction*
G04 #@! TA.AperFunction,Conductor*
G36*
X158669915Y-102034949D02*
G01*
X159253462Y-102321786D01*
X159259374Y-102328510D01*
X159260000Y-102332285D01*
X159260000Y-102568134D01*
X159256573Y-102576407D01*
X159254007Y-102578348D01*
X158670119Y-102904576D01*
X158661225Y-102905620D01*
X158658932Y-102904699D01*
X157858496Y-102480336D01*
X157852791Y-102473433D01*
X157853639Y-102464519D01*
X157858493Y-102459664D01*
X158659282Y-102035114D01*
X158668195Y-102034267D01*
X158669915Y-102034949D01*
G37*
G04 #@! TD.AperFunction*
G04 #@! TA.AperFunction,Conductor*
G36*
X167270889Y-109645206D02*
G01*
X168071503Y-110069662D01*
X168077208Y-110076565D01*
X168076360Y-110085479D01*
X168071503Y-110090336D01*
X167270894Y-110514791D01*
X167261980Y-110515639D01*
X167259977Y-110514814D01*
X166947390Y-110350665D01*
X166676260Y-110208287D01*
X166670529Y-110201406D01*
X166670000Y-110197928D01*
X166670000Y-109962071D01*
X166673427Y-109953798D01*
X166676256Y-109951714D01*
X167259977Y-109645185D01*
X167268892Y-109644374D01*
X167270889Y-109645206D01*
G37*
G04 #@! TD.AperFunction*
G04 #@! TA.AperFunction,Conductor*
G36*
X143459915Y-107114949D02*
G01*
X144043462Y-107401786D01*
X144049374Y-107408510D01*
X144050000Y-107412285D01*
X144050000Y-107648134D01*
X144046573Y-107656407D01*
X144044007Y-107658348D01*
X143460119Y-107984576D01*
X143451225Y-107985620D01*
X143448932Y-107984699D01*
X142648496Y-107560336D01*
X142642791Y-107553433D01*
X142643639Y-107544519D01*
X142648493Y-107539664D01*
X143449282Y-107115114D01*
X143458195Y-107114267D01*
X143459915Y-107114949D01*
G37*
G04 #@! TD.AperFunction*
G04 #@! TA.AperFunction,Conductor*
G36*
X130133362Y-104630247D02*
G01*
X130502107Y-104981529D01*
X130505734Y-104989716D01*
X130502508Y-104998070D01*
X130502107Y-104998471D01*
X130132953Y-105350142D01*
X130124599Y-105353368D01*
X130120140Y-105352366D01*
X129636957Y-105138085D01*
X129630783Y-105131599D01*
X129630000Y-105127390D01*
X129630000Y-104892079D01*
X129633427Y-104883806D01*
X129636270Y-104881715D01*
X130119863Y-104628353D01*
X130128781Y-104627550D01*
X130133362Y-104630247D01*
G37*
G04 #@! TD.AperFunction*
G04 #@! TA.AperFunction,Conductor*
G36*
X136860889Y-110915206D02*
G01*
X137661503Y-111339662D01*
X137667208Y-111346565D01*
X137666360Y-111355479D01*
X137661503Y-111360336D01*
X136860894Y-111784791D01*
X136851980Y-111785639D01*
X136849977Y-111784814D01*
X136537390Y-111620665D01*
X136266260Y-111478287D01*
X136260529Y-111471406D01*
X136260000Y-111467928D01*
X136260000Y-111232071D01*
X136263427Y-111223798D01*
X136266256Y-111221714D01*
X136849977Y-110915185D01*
X136858892Y-110914374D01*
X136860889Y-110915206D01*
G37*
G04 #@! TD.AperFunction*
G04 #@! TA.AperFunction,Conductor*
G36*
X143460017Y-103305182D02*
G01*
X144043741Y-103611713D01*
X144049471Y-103618593D01*
X144050000Y-103622071D01*
X144050000Y-103857928D01*
X144046573Y-103866201D01*
X144043740Y-103868287D01*
X143460025Y-104174813D01*
X143451107Y-104175625D01*
X143449105Y-104174791D01*
X142648496Y-103750336D01*
X142642791Y-103743433D01*
X142643639Y-103734519D01*
X142648493Y-103729664D01*
X143449107Y-103305207D01*
X143458019Y-103304360D01*
X143460017Y-103305182D01*
G37*
G04 #@! TD.AperFunction*
G04 #@! TA.AperFunction,Conductor*
G36*
X121660889Y-102025206D02*
G01*
X122258563Y-102342071D01*
X122461502Y-102449662D01*
X122467207Y-102456565D01*
X122466359Y-102465479D01*
X122461502Y-102470336D01*
X121660894Y-102894791D01*
X121651980Y-102895639D01*
X121649977Y-102894814D01*
X121337390Y-102730665D01*
X121066260Y-102588287D01*
X121060529Y-102581406D01*
X121060000Y-102577928D01*
X121060000Y-102342071D01*
X121063427Y-102333798D01*
X121066256Y-102331714D01*
X121649977Y-102025185D01*
X121658892Y-102024374D01*
X121660889Y-102025206D01*
G37*
G04 #@! TD.AperFunction*
G04 #@! TA.AperFunction,Conductor*
G36*
X150210005Y-112257992D02*
G01*
X150693394Y-112491805D01*
X150699349Y-112498493D01*
X150699999Y-112502338D01*
X150699999Y-112737661D01*
X150696572Y-112745934D01*
X150693394Y-112748194D01*
X150210005Y-112982007D01*
X150201065Y-112982524D01*
X150196840Y-112979945D01*
X149827892Y-112628471D01*
X149824265Y-112620284D01*
X149827491Y-112611930D01*
X149827892Y-112611529D01*
X150196841Y-112260053D01*
X150205194Y-112256828D01*
X150210005Y-112257992D01*
G37*
G04 #@! TD.AperFunction*
G04 #@! TA.AperFunction,Conductor*
G36*
X167270889Y-105835206D02*
G01*
X168071503Y-106259662D01*
X168077208Y-106266565D01*
X168076360Y-106275479D01*
X168071503Y-106280336D01*
X167270894Y-106704791D01*
X167261980Y-106705639D01*
X167259977Y-106704814D01*
X166947390Y-106540665D01*
X166676260Y-106398287D01*
X166670529Y-106391406D01*
X166670000Y-106387928D01*
X166670000Y-106152071D01*
X166673427Y-106143798D01*
X166676256Y-106141714D01*
X167259977Y-105835185D01*
X167268892Y-105834374D01*
X167270889Y-105835206D01*
G37*
G04 #@! TD.AperFunction*
G04 #@! TA.AperFunction,Conductor*
G36*
X114923159Y-112250054D02*
G01*
X115292107Y-112601528D01*
X115295734Y-112609715D01*
X115292508Y-112618069D01*
X115292107Y-112618470D01*
X114923159Y-112969945D01*
X114914805Y-112973171D01*
X114909994Y-112972007D01*
X114426605Y-112738194D01*
X114420650Y-112731506D01*
X114420000Y-112727661D01*
X114420000Y-112492338D01*
X114423427Y-112484065D01*
X114426605Y-112481805D01*
X114909994Y-112247992D01*
X114918934Y-112247475D01*
X114923159Y-112250054D01*
G37*
G04 #@! TD.AperFunction*
G04 #@! TA.AperFunction,Conductor*
G36*
X121660889Y-100755206D02*
G01*
X122258563Y-101072071D01*
X122461502Y-101179662D01*
X122467207Y-101186565D01*
X122466359Y-101195479D01*
X122461502Y-101200336D01*
X121660894Y-101624791D01*
X121651980Y-101625639D01*
X121649977Y-101624814D01*
X121337390Y-101460665D01*
X121066260Y-101318287D01*
X121060529Y-101311406D01*
X121060000Y-101307928D01*
X121060000Y-101072071D01*
X121063427Y-101063798D01*
X121066256Y-101061714D01*
X121649977Y-100755185D01*
X121658892Y-100754374D01*
X121660889Y-100755206D01*
G37*
G04 #@! TD.AperFunction*
G04 #@! TA.AperFunction,Conductor*
G36*
X152060889Y-102025206D02*
G01*
X152861503Y-102449662D01*
X152867208Y-102456565D01*
X152866360Y-102465479D01*
X152861503Y-102470336D01*
X152060894Y-102894791D01*
X152051980Y-102895639D01*
X152049977Y-102894814D01*
X151737390Y-102730665D01*
X151466260Y-102588287D01*
X151460529Y-102581406D01*
X151460000Y-102577928D01*
X151460000Y-102342071D01*
X151463427Y-102333798D01*
X151466256Y-102331714D01*
X152049977Y-102025185D01*
X152058892Y-102024374D01*
X152060889Y-102025206D01*
G37*
G04 #@! TD.AperFunction*
G04 #@! TA.AperFunction,Conductor*
G36*
X121660889Y-96945206D02*
G01*
X122258563Y-97262071D01*
X122461502Y-97369662D01*
X122467207Y-97376565D01*
X122466359Y-97385479D01*
X122461502Y-97390336D01*
X121660894Y-97814791D01*
X121651980Y-97815639D01*
X121649977Y-97814814D01*
X121337390Y-97650665D01*
X121066260Y-97508287D01*
X121060529Y-97501406D01*
X121060000Y-97497928D01*
X121060000Y-97262071D01*
X121063427Y-97253798D01*
X121066256Y-97251714D01*
X121649977Y-96945185D01*
X121658892Y-96944374D01*
X121660889Y-96945206D01*
G37*
G04 #@! TD.AperFunction*
G04 #@! TA.AperFunction,Conductor*
G36*
X114923159Y-104630054D02*
G01*
X115292107Y-104981529D01*
X115295734Y-104989716D01*
X115292508Y-104998070D01*
X115292107Y-104998471D01*
X114923159Y-105349945D01*
X114914805Y-105353171D01*
X114909994Y-105352007D01*
X114426605Y-105118194D01*
X114420650Y-105111506D01*
X114420000Y-105107661D01*
X114420000Y-104872338D01*
X114423427Y-104864065D01*
X114426605Y-104861805D01*
X114909994Y-104627992D01*
X114918934Y-104627475D01*
X114923159Y-104630054D01*
G37*
G04 #@! TD.AperFunction*
G04 #@! TA.AperFunction,Conductor*
G36*
X130133159Y-102090054D02*
G01*
X130502107Y-102441529D01*
X130505734Y-102449716D01*
X130502508Y-102458070D01*
X130502107Y-102458471D01*
X130133159Y-102809945D01*
X130124805Y-102813171D01*
X130119994Y-102812007D01*
X129636605Y-102578194D01*
X129630650Y-102571506D01*
X129630000Y-102567661D01*
X129630000Y-102332338D01*
X129633427Y-102324065D01*
X129636605Y-102321805D01*
X130119994Y-102087992D01*
X130128934Y-102087475D01*
X130133159Y-102090054D01*
G37*
G04 #@! TD.AperFunction*
G04 #@! TA.AperFunction,Conductor*
G36*
X121660889Y-103295206D02*
G01*
X122258563Y-103612071D01*
X122461502Y-103719662D01*
X122467207Y-103726565D01*
X122466359Y-103735479D01*
X122461502Y-103740336D01*
X121660894Y-104164791D01*
X121651980Y-104165639D01*
X121649977Y-104164814D01*
X121337390Y-104000665D01*
X121066260Y-103858287D01*
X121060529Y-103851406D01*
X121060000Y-103847928D01*
X121060000Y-103612071D01*
X121063427Y-103603798D01*
X121066256Y-103601714D01*
X121649977Y-103295185D01*
X121658892Y-103294374D01*
X121660889Y-103295206D01*
G37*
G04 #@! TD.AperFunction*
G04 #@! TA.AperFunction,Conductor*
G36*
X121660889Y-91865206D02*
G01*
X122258563Y-92182071D01*
X122461502Y-92289662D01*
X122467207Y-92296565D01*
X122466359Y-92305479D01*
X122461502Y-92310336D01*
X121660894Y-92734791D01*
X121651980Y-92735639D01*
X121649977Y-92734814D01*
X121337390Y-92570665D01*
X121066260Y-92428287D01*
X121060529Y-92421406D01*
X121060000Y-92417928D01*
X121060000Y-92182071D01*
X121063427Y-92173798D01*
X121066256Y-92171714D01*
X121649977Y-91865185D01*
X121658892Y-91864374D01*
X121660889Y-91865206D01*
G37*
G04 #@! TD.AperFunction*
G04 #@! TA.AperFunction,Conductor*
G36*
X121660889Y-105835206D02*
G01*
X122258563Y-106152071D01*
X122461502Y-106259662D01*
X122467207Y-106266565D01*
X122466359Y-106275479D01*
X122461502Y-106280336D01*
X121660894Y-106704791D01*
X121651980Y-106705639D01*
X121649977Y-106704814D01*
X121337390Y-106540665D01*
X121066260Y-106398287D01*
X121060529Y-106391406D01*
X121060000Y-106387928D01*
X121060000Y-106152071D01*
X121063427Y-106143798D01*
X121066256Y-106141714D01*
X121649977Y-105835185D01*
X121658892Y-105834374D01*
X121660889Y-105835206D01*
G37*
G04 #@! TD.AperFunction*
G04 #@! TA.AperFunction,Conductor*
G36*
X128259915Y-110924949D02*
G01*
X128843462Y-111211786D01*
X128849374Y-111218510D01*
X128850000Y-111222285D01*
X128850000Y-111458134D01*
X128846573Y-111466407D01*
X128844007Y-111468348D01*
X128260119Y-111794576D01*
X128251225Y-111795620D01*
X128248932Y-111794699D01*
X128025523Y-111676255D01*
X127448494Y-111370334D01*
X127442790Y-111363433D01*
X127443638Y-111354519D01*
X127448491Y-111349665D01*
X128249282Y-110925114D01*
X128258195Y-110924267D01*
X128259915Y-110924949D01*
G37*
G04 #@! TD.AperFunction*
G04 #@! TA.AperFunction,Conductor*
G36*
X167270889Y-107105206D02*
G01*
X168071503Y-107529662D01*
X168077208Y-107536565D01*
X168076360Y-107545479D01*
X168071503Y-107550336D01*
X167270894Y-107974791D01*
X167261980Y-107975639D01*
X167259977Y-107974814D01*
X166947390Y-107810665D01*
X166676260Y-107668287D01*
X166670529Y-107661406D01*
X166670000Y-107657928D01*
X166670000Y-107422071D01*
X166673427Y-107413798D01*
X166676256Y-107411714D01*
X167259977Y-107105185D01*
X167268892Y-107104374D01*
X167270889Y-107105206D01*
G37*
G04 #@! TD.AperFunction*
G04 #@! TA.AperFunction,Conductor*
G36*
X114923159Y-90660054D02*
G01*
X115292107Y-91011528D01*
X115295734Y-91019715D01*
X115292508Y-91028069D01*
X115292107Y-91028470D01*
X114923159Y-91379945D01*
X114914805Y-91383171D01*
X114909994Y-91382007D01*
X114426605Y-91148194D01*
X114420650Y-91141506D01*
X114420000Y-91137661D01*
X114420000Y-90902338D01*
X114423427Y-90894065D01*
X114426605Y-90891805D01*
X114909994Y-90657992D01*
X114918934Y-90657475D01*
X114923159Y-90660054D01*
G37*
G04 #@! TD.AperFunction*
G04 #@! TA.AperFunction,Conductor*
G36*
X113059915Y-109654949D02*
G01*
X113643462Y-109941786D01*
X113649374Y-109948510D01*
X113650000Y-109952285D01*
X113650000Y-110188134D01*
X113646573Y-110196407D01*
X113644007Y-110198348D01*
X113060119Y-110524576D01*
X113051225Y-110525620D01*
X113048932Y-110524699D01*
X112248496Y-110100336D01*
X112242791Y-110093433D01*
X112243639Y-110084519D01*
X112248493Y-110079664D01*
X113049282Y-109655114D01*
X113058195Y-109654267D01*
X113059915Y-109654949D01*
G37*
G04 #@! TD.AperFunction*
G04 #@! TA.AperFunction,Conductor*
G36*
X150210005Y-95747992D02*
G01*
X150693394Y-95981805D01*
X150699349Y-95988493D01*
X150699999Y-95992338D01*
X150699999Y-96227661D01*
X150696572Y-96235934D01*
X150693394Y-96238194D01*
X150210005Y-96472007D01*
X150201065Y-96472524D01*
X150196840Y-96469945D01*
X149827892Y-96118471D01*
X149824265Y-96110284D01*
X149827491Y-96101930D01*
X149827892Y-96101529D01*
X150196841Y-95750053D01*
X150205194Y-95746828D01*
X150210005Y-95747992D01*
G37*
G04 #@! TD.AperFunction*
G04 #@! TA.AperFunction,Conductor*
G36*
X136860889Y-102025206D02*
G01*
X137661503Y-102449662D01*
X137667208Y-102456565D01*
X137666360Y-102465479D01*
X137661503Y-102470336D01*
X136860894Y-102894791D01*
X136851980Y-102895639D01*
X136849977Y-102894814D01*
X136537390Y-102730665D01*
X136266260Y-102588287D01*
X136260529Y-102581406D01*
X136260000Y-102577928D01*
X136260000Y-102342071D01*
X136263427Y-102333798D01*
X136266256Y-102331714D01*
X136849977Y-102025185D01*
X136858892Y-102024374D01*
X136860889Y-102025206D01*
G37*
G04 #@! TD.AperFunction*
G04 #@! TA.AperFunction,Conductor*
G36*
X113060017Y-93145182D02*
G01*
X113643741Y-93451713D01*
X113649471Y-93458593D01*
X113650000Y-93462071D01*
X113650000Y-93697928D01*
X113646573Y-93706201D01*
X113643740Y-93708287D01*
X113060025Y-94014813D01*
X113051107Y-94015625D01*
X113049105Y-94014791D01*
X112248496Y-93590336D01*
X112242791Y-93583433D01*
X112243639Y-93574519D01*
X112248493Y-93569664D01*
X113049107Y-93145207D01*
X113058019Y-93144360D01*
X113060017Y-93145182D01*
G37*
G04 #@! TD.AperFunction*
G04 #@! TA.AperFunction,Conductor*
G36*
X114923360Y-95740246D02*
G01*
X115190780Y-95995000D01*
X115292107Y-96091528D01*
X115295734Y-96099715D01*
X115292508Y-96108069D01*
X115292107Y-96108470D01*
X114922953Y-96460142D01*
X114914599Y-96463368D01*
X114910140Y-96462366D01*
X114426957Y-96248085D01*
X114420783Y-96241599D01*
X114420000Y-96237390D01*
X114420000Y-96002079D01*
X114423427Y-95993806D01*
X114426270Y-95991715D01*
X114909863Y-95738353D01*
X114918781Y-95737550D01*
X114923360Y-95740246D01*
G37*
G04 #@! TD.AperFunction*
G04 #@! TA.AperFunction,Conductor*
G36*
X158669915Y-112194949D02*
G01*
X159253462Y-112481786D01*
X159259374Y-112488510D01*
X159260000Y-112492285D01*
X159260000Y-112728134D01*
X159256573Y-112736407D01*
X159254007Y-112738348D01*
X158670119Y-113064576D01*
X158661225Y-113065620D01*
X158658932Y-113064699D01*
X157858496Y-112640336D01*
X157852791Y-112633433D01*
X157853639Y-112624519D01*
X157858493Y-112619664D01*
X158659282Y-112195114D01*
X158668195Y-112194267D01*
X158669915Y-112194949D01*
G37*
G04 #@! TD.AperFunction*
G04 #@! TA.AperFunction,Conductor*
G36*
X113060017Y-98225182D02*
G01*
X113643741Y-98531713D01*
X113649471Y-98538593D01*
X113650000Y-98542071D01*
X113650000Y-98777928D01*
X113646573Y-98786201D01*
X113643740Y-98788287D01*
X113060025Y-99094813D01*
X113051107Y-99095625D01*
X113049105Y-99094791D01*
X112248496Y-98670336D01*
X112242791Y-98663433D01*
X112243639Y-98654519D01*
X112248493Y-98649664D01*
X113049107Y-98225207D01*
X113058019Y-98224360D01*
X113060017Y-98225182D01*
G37*
G04 #@! TD.AperFunction*
G04 #@! TA.AperFunction,Conductor*
G36*
X121282170Y-86422256D02*
G01*
X121288844Y-86428225D01*
X121290000Y-86433297D01*
X121290000Y-86666702D01*
X121286573Y-86674975D01*
X121282169Y-86677744D01*
X120734355Y-86869707D01*
X120725414Y-86869209D01*
X120719688Y-86863171D01*
X120590880Y-86554505D01*
X120590857Y-86545550D01*
X120590856Y-86545550D01*
X120719688Y-86236827D01*
X120726037Y-86230513D01*
X120734355Y-86230292D01*
X121282170Y-86422256D01*
G37*
G04 #@! TD.AperFunction*
G04 #@! TA.AperFunction,Conductor*
G36*
X167270889Y-102025206D02*
G01*
X168071503Y-102449662D01*
X168077208Y-102456565D01*
X168076360Y-102465479D01*
X168071503Y-102470336D01*
X167270894Y-102894791D01*
X167261980Y-102895639D01*
X167259977Y-102894814D01*
X166947390Y-102730665D01*
X166676260Y-102588287D01*
X166670529Y-102581406D01*
X166670000Y-102577928D01*
X166670000Y-102342071D01*
X166673427Y-102333798D01*
X166676256Y-102331714D01*
X167259977Y-102025185D01*
X167268892Y-102024374D01*
X167270889Y-102025206D01*
G37*
G04 #@! TD.AperFunction*
G04 #@! TA.AperFunction,Conductor*
G36*
X143459915Y-94414949D02*
G01*
X144043462Y-94701786D01*
X144049374Y-94708510D01*
X144050000Y-94712285D01*
X144050000Y-94948134D01*
X144046573Y-94956407D01*
X144044007Y-94958348D01*
X143460119Y-95284576D01*
X143451225Y-95285620D01*
X143448932Y-95284699D01*
X142648496Y-94860336D01*
X142642791Y-94853433D01*
X142643639Y-94844519D01*
X142648493Y-94839664D01*
X143449282Y-94415114D01*
X143458195Y-94414267D01*
X143459915Y-94414949D01*
G37*
G04 #@! TD.AperFunction*
G04 #@! TA.AperFunction,Conductor*
G36*
X128259915Y-103304949D02*
G01*
X128843462Y-103591786D01*
X128849374Y-103598510D01*
X128850000Y-103602285D01*
X128850000Y-103838134D01*
X128846573Y-103846407D01*
X128844007Y-103848348D01*
X128260119Y-104174576D01*
X128251225Y-104175620D01*
X128248932Y-104174699D01*
X128025523Y-104056255D01*
X127448494Y-103750334D01*
X127442790Y-103743433D01*
X127443638Y-103734519D01*
X127448491Y-103729665D01*
X128249282Y-103305114D01*
X128258195Y-103304267D01*
X128259915Y-103304949D01*
G37*
G04 #@! TD.AperFunction*
G04 #@! TA.AperFunction,Conductor*
G36*
X113059915Y-91874949D02*
G01*
X113643462Y-92161786D01*
X113649374Y-92168510D01*
X113650000Y-92172285D01*
X113650000Y-92408134D01*
X113646573Y-92416407D01*
X113644007Y-92418348D01*
X113060119Y-92744576D01*
X113051225Y-92745620D01*
X113048932Y-92744699D01*
X112248496Y-92320336D01*
X112242791Y-92313433D01*
X112243639Y-92304519D01*
X112248493Y-92299664D01*
X113049282Y-91875114D01*
X113058195Y-91874267D01*
X113059915Y-91874949D01*
G37*
G04 #@! TD.AperFunction*
G04 #@! TA.AperFunction,Conductor*
G36*
X135000005Y-110987992D02*
G01*
X135483395Y-111221805D01*
X135489350Y-111228493D01*
X135490000Y-111232338D01*
X135490000Y-111467661D01*
X135486573Y-111475934D01*
X135483395Y-111478194D01*
X135000005Y-111712007D01*
X134991065Y-111712524D01*
X134986840Y-111709945D01*
X134617892Y-111358470D01*
X134614265Y-111350283D01*
X134617491Y-111341929D01*
X134617868Y-111341551D01*
X134986841Y-110990053D01*
X134995194Y-110986828D01*
X135000005Y-110987992D01*
G37*
G04 #@! TD.AperFunction*
G04 #@! TA.AperFunction,Conductor*
G36*
X158670017Y-91875182D02*
G01*
X159253741Y-92181713D01*
X159259471Y-92188593D01*
X159260000Y-92192071D01*
X159260000Y-92427928D01*
X159256573Y-92436201D01*
X159253740Y-92438287D01*
X158670025Y-92744813D01*
X158661107Y-92745625D01*
X158659105Y-92744791D01*
X157858496Y-92320336D01*
X157852791Y-92313433D01*
X157853639Y-92304519D01*
X157858493Y-92299664D01*
X158659107Y-91875207D01*
X158668019Y-91874360D01*
X158670017Y-91875182D01*
G37*
G04 #@! TD.AperFunction*
G04 #@! TA.AperFunction,Conductor*
G36*
X160533159Y-103360054D02*
G01*
X160902107Y-103711529D01*
X160905734Y-103719716D01*
X160902508Y-103728070D01*
X160902107Y-103728471D01*
X160533159Y-104079945D01*
X160524805Y-104083171D01*
X160519994Y-104082007D01*
X160036605Y-103848194D01*
X160030650Y-103841506D01*
X160030000Y-103837661D01*
X160030000Y-103602338D01*
X160033427Y-103594065D01*
X160036605Y-103591805D01*
X160519994Y-103357992D01*
X160528934Y-103357475D01*
X160533159Y-103360054D01*
G37*
G04 #@! TD.AperFunction*
G04 #@! TA.AperFunction,Conductor*
G36*
X167270889Y-110915206D02*
G01*
X168071503Y-111339662D01*
X168077208Y-111346565D01*
X168076360Y-111355479D01*
X168071503Y-111360336D01*
X167270894Y-111784791D01*
X167261980Y-111785639D01*
X167259977Y-111784814D01*
X166947390Y-111620665D01*
X166676260Y-111478287D01*
X166670529Y-111471406D01*
X166670000Y-111467928D01*
X166670000Y-111232071D01*
X166673427Y-111223798D01*
X166676256Y-111221714D01*
X167259977Y-110915185D01*
X167268892Y-110914374D01*
X167270889Y-110915206D01*
G37*
G04 #@! TD.AperFunction*
G04 #@! TA.AperFunction,Conductor*
G36*
X113059915Y-102034949D02*
G01*
X113643462Y-102321786D01*
X113649374Y-102328510D01*
X113650000Y-102332285D01*
X113650000Y-102568134D01*
X113646573Y-102576407D01*
X113644007Y-102578348D01*
X113060119Y-102904576D01*
X113051225Y-102905620D01*
X113048932Y-102904699D01*
X112248496Y-102480336D01*
X112242791Y-102473433D01*
X112243639Y-102464519D01*
X112248493Y-102459664D01*
X113049282Y-102035114D01*
X113058195Y-102034267D01*
X113059915Y-102034949D01*
G37*
G04 #@! TD.AperFunction*
G04 #@! TA.AperFunction,Conductor*
G36*
X152060889Y-95675206D02*
G01*
X152861503Y-96099662D01*
X152867208Y-96106565D01*
X152866360Y-96115479D01*
X152861503Y-96120336D01*
X152060894Y-96544791D01*
X152051980Y-96545639D01*
X152049977Y-96544814D01*
X151737390Y-96380665D01*
X151466260Y-96238287D01*
X151460529Y-96231406D01*
X151460000Y-96227928D01*
X151460000Y-95992071D01*
X151463427Y-95983798D01*
X151466256Y-95981714D01*
X152049977Y-95675185D01*
X152058892Y-95674374D01*
X152060889Y-95675206D01*
G37*
G04 #@! TD.AperFunction*
G04 #@! TA.AperFunction,Conductor*
G36*
X160533159Y-108440054D02*
G01*
X160902107Y-108791529D01*
X160905734Y-108799716D01*
X160902508Y-108808070D01*
X160902107Y-108808471D01*
X160533159Y-109159945D01*
X160524805Y-109163171D01*
X160519994Y-109162007D01*
X160036605Y-108928194D01*
X160030650Y-108921506D01*
X160030000Y-108917661D01*
X160030000Y-108682338D01*
X160033427Y-108674065D01*
X160036605Y-108671805D01*
X160519994Y-108437992D01*
X160528934Y-108437475D01*
X160533159Y-108440054D01*
G37*
G04 #@! TD.AperFunction*
G04 #@! TA.AperFunction,Conductor*
G36*
X160533159Y-95740054D02*
G01*
X160902107Y-96091528D01*
X160905734Y-96099715D01*
X160902508Y-96108069D01*
X160902107Y-96108470D01*
X160533159Y-96459945D01*
X160524805Y-96463171D01*
X160519994Y-96462007D01*
X160036605Y-96228194D01*
X160030650Y-96221506D01*
X160030000Y-96217661D01*
X160030000Y-95982338D01*
X160033427Y-95974065D01*
X160036605Y-95971805D01*
X160519994Y-95737992D01*
X160528934Y-95737475D01*
X160533159Y-95740054D01*
G37*
G04 #@! TD.AperFunction*
G04 #@! TA.AperFunction,Conductor*
G36*
X135000005Y-103367992D02*
G01*
X135483395Y-103601805D01*
X135489350Y-103608493D01*
X135490000Y-103612338D01*
X135490000Y-103847661D01*
X135486573Y-103855934D01*
X135483395Y-103858194D01*
X135000005Y-104092007D01*
X134991065Y-104092524D01*
X134986840Y-104089945D01*
X134617892Y-103738471D01*
X134614265Y-103730284D01*
X134617491Y-103721930D01*
X134617892Y-103721529D01*
X134986841Y-103370053D01*
X134995194Y-103366828D01*
X135000005Y-103367992D01*
G37*
G04 #@! TD.AperFunction*
G04 #@! TA.AperFunction,Conductor*
G36*
X152060889Y-90595206D02*
G01*
X152861503Y-91019662D01*
X152867208Y-91026565D01*
X152866360Y-91035479D01*
X152861503Y-91040336D01*
X152060894Y-91464791D01*
X152051980Y-91465639D01*
X152049977Y-91464814D01*
X151737390Y-91300665D01*
X151466260Y-91158287D01*
X151460529Y-91151406D01*
X151460000Y-91147928D01*
X151460000Y-90912071D01*
X151463427Y-90903798D01*
X151466256Y-90901714D01*
X152049977Y-90595185D01*
X152058892Y-90594374D01*
X152060889Y-90595206D01*
G37*
G04 #@! TD.AperFunction*
G04 #@! TA.AperFunction,Conductor*
G36*
X160533159Y-88120054D02*
G01*
X160902107Y-88471529D01*
X160905734Y-88479716D01*
X160902508Y-88488070D01*
X160902107Y-88488471D01*
X160533159Y-88839945D01*
X160524805Y-88843171D01*
X160519994Y-88842007D01*
X160036605Y-88608194D01*
X160030650Y-88601506D01*
X160030000Y-88597661D01*
X160030000Y-88362338D01*
X160033427Y-88354065D01*
X160036605Y-88351805D01*
X160519994Y-88117992D01*
X160528934Y-88117475D01*
X160533159Y-88120054D01*
G37*
G04 #@! TD.AperFunction*
G04 #@! TA.AperFunction,Conductor*
G36*
X152060889Y-100755206D02*
G01*
X152861503Y-101179662D01*
X152867208Y-101186565D01*
X152866360Y-101195479D01*
X152861503Y-101200336D01*
X152060894Y-101624791D01*
X152051980Y-101625639D01*
X152049977Y-101624814D01*
X151737390Y-101460665D01*
X151466260Y-101318287D01*
X151460529Y-101311406D01*
X151460000Y-101307928D01*
X151460000Y-101072071D01*
X151463427Y-101063798D01*
X151466256Y-101061714D01*
X152049977Y-100755185D01*
X152058892Y-100754374D01*
X152060889Y-100755206D01*
G37*
G04 #@! TD.AperFunction*
G04 #@! TA.AperFunction,Conductor*
G36*
X145343159Y-112250054D02*
G01*
X145712107Y-112601529D01*
X145715734Y-112609716D01*
X145712508Y-112618070D01*
X145712107Y-112618471D01*
X145343159Y-112969945D01*
X145334805Y-112973171D01*
X145329994Y-112972007D01*
X144846605Y-112738194D01*
X144840650Y-112731506D01*
X144840000Y-112727661D01*
X144840000Y-112492338D01*
X144843427Y-112484065D01*
X144846605Y-112481805D01*
X145329994Y-112247992D01*
X145338934Y-112247475D01*
X145343159Y-112250054D01*
G37*
G04 #@! TD.AperFunction*
G04 #@! TA.AperFunction,Conductor*
G36*
X113059915Y-96954949D02*
G01*
X113643462Y-97241786D01*
X113649374Y-97248510D01*
X113650000Y-97252285D01*
X113650000Y-97488134D01*
X113646573Y-97496407D01*
X113644007Y-97498348D01*
X113060119Y-97824576D01*
X113051225Y-97825620D01*
X113048932Y-97824699D01*
X112248496Y-97400336D01*
X112242791Y-97393433D01*
X112243639Y-97384519D01*
X112248493Y-97379664D01*
X113049282Y-96955114D01*
X113058195Y-96954267D01*
X113059915Y-96954949D01*
G37*
G04 #@! TD.AperFunction*
G04 #@! TA.AperFunction,Conductor*
G36*
X119790005Y-89397992D02*
G01*
X120273395Y-89631805D01*
X120279350Y-89638493D01*
X120280000Y-89642338D01*
X120280000Y-89877661D01*
X120276573Y-89885934D01*
X120273395Y-89888194D01*
X119790005Y-90122007D01*
X119781065Y-90122524D01*
X119776840Y-90119945D01*
X119407892Y-89768471D01*
X119404265Y-89760284D01*
X119407491Y-89751930D01*
X119407892Y-89751529D01*
X119776841Y-89400053D01*
X119785194Y-89396828D01*
X119790005Y-89397992D01*
G37*
G04 #@! TD.AperFunction*
G04 #@! TA.AperFunction,Conductor*
G36*
X130133159Y-110980054D02*
G01*
X130502107Y-111331529D01*
X130505734Y-111339716D01*
X130502508Y-111348070D01*
X130502107Y-111348471D01*
X130133159Y-111699945D01*
X130124805Y-111703171D01*
X130119994Y-111702007D01*
X129636605Y-111468194D01*
X129630650Y-111461506D01*
X129630000Y-111457661D01*
X129630000Y-111222338D01*
X129633427Y-111214065D01*
X129636605Y-111211805D01*
X130119994Y-110977992D01*
X130128934Y-110977475D01*
X130133159Y-110980054D01*
G37*
G04 #@! TD.AperFunction*
G04 #@! TA.AperFunction,Conductor*
G36*
X129782170Y-86452256D02*
G01*
X129788844Y-86458225D01*
X129790000Y-86463297D01*
X129790000Y-86696702D01*
X129786573Y-86704975D01*
X129782169Y-86707744D01*
X129234355Y-86899707D01*
X129225414Y-86899209D01*
X129219688Y-86893171D01*
X129090880Y-86584506D01*
X129090857Y-86575551D01*
X129090880Y-86575494D01*
X129137701Y-86463297D01*
X129219688Y-86266827D01*
X129226037Y-86260513D01*
X129234355Y-86260292D01*
X129782170Y-86452256D01*
G37*
G04 #@! TD.AperFunction*
G04 #@! TA.AperFunction,Conductor*
G36*
X145343159Y-102090054D02*
G01*
X145712107Y-102441529D01*
X145715734Y-102449716D01*
X145712508Y-102458070D01*
X145712107Y-102458471D01*
X145343159Y-102809945D01*
X145334805Y-102813171D01*
X145329994Y-102812007D01*
X144846605Y-102578194D01*
X144840650Y-102571506D01*
X144840000Y-102567661D01*
X144840000Y-102332338D01*
X144843427Y-102324065D01*
X144846605Y-102321805D01*
X145329994Y-102087992D01*
X145338934Y-102087475D01*
X145343159Y-102090054D01*
G37*
G04 #@! TD.AperFunction*
G04 #@! TA.AperFunction,Conductor*
G36*
X130133159Y-112250054D02*
G01*
X130502107Y-112601528D01*
X130505734Y-112609715D01*
X130502508Y-112618069D01*
X130502107Y-112618470D01*
X130133159Y-112969945D01*
X130124805Y-112973171D01*
X130119994Y-112972007D01*
X129636605Y-112738194D01*
X129630650Y-112731506D01*
X129630000Y-112727661D01*
X129630000Y-112492338D01*
X129633427Y-112484065D01*
X129636605Y-112481805D01*
X130119994Y-112247992D01*
X130128934Y-112247475D01*
X130133159Y-112250054D01*
G37*
G04 #@! TD.AperFunction*
G04 #@! TA.AperFunction,Conductor*
G36*
X143460017Y-98225182D02*
G01*
X144043741Y-98531713D01*
X144049471Y-98538593D01*
X144050000Y-98542071D01*
X144050000Y-98777928D01*
X144046573Y-98786201D01*
X144043740Y-98788287D01*
X143460025Y-99094813D01*
X143451107Y-99095625D01*
X143449105Y-99094791D01*
X142648496Y-98670336D01*
X142642791Y-98663433D01*
X142643639Y-98654519D01*
X142648493Y-98649664D01*
X143449107Y-98225207D01*
X143458019Y-98224360D01*
X143460017Y-98225182D01*
G37*
G04 #@! TD.AperFunction*
G04 #@! TA.AperFunction,Conductor*
G36*
X150210005Y-107177992D02*
G01*
X150693394Y-107411805D01*
X150699349Y-107418493D01*
X150699999Y-107422338D01*
X150699999Y-107657661D01*
X150696572Y-107665934D01*
X150693394Y-107668194D01*
X150210005Y-107902007D01*
X150201065Y-107902524D01*
X150196840Y-107899945D01*
X149827892Y-107548471D01*
X149824265Y-107540284D01*
X149827491Y-107531930D01*
X149827892Y-107531529D01*
X150196841Y-107180053D01*
X150205194Y-107176828D01*
X150210005Y-107177992D01*
G37*
G04 #@! TD.AperFunction*
G04 #@! TA.AperFunction,Conductor*
G36*
X145343159Y-110980054D02*
G01*
X145712107Y-111331529D01*
X145715734Y-111339716D01*
X145712508Y-111348070D01*
X145712107Y-111348471D01*
X145343159Y-111699945D01*
X145334805Y-111703171D01*
X145329994Y-111702007D01*
X144846605Y-111468194D01*
X144840650Y-111461506D01*
X144840000Y-111457661D01*
X144840000Y-111222338D01*
X144843427Y-111214065D01*
X144846605Y-111211805D01*
X145329994Y-110977992D01*
X145338934Y-110977475D01*
X145343159Y-110980054D01*
G37*
G04 #@! TD.AperFunction*
G04 #@! TA.AperFunction,Conductor*
G36*
X160533360Y-109710246D02*
G01*
X160800780Y-109965000D01*
X160902107Y-110061528D01*
X160905734Y-110069715D01*
X160902508Y-110078069D01*
X160902107Y-110078470D01*
X160532953Y-110430142D01*
X160524599Y-110433368D01*
X160520140Y-110432366D01*
X160036957Y-110218085D01*
X160030783Y-110211599D01*
X160030000Y-110207390D01*
X160030000Y-109972079D01*
X160033427Y-109963806D01*
X160036270Y-109961715D01*
X160519863Y-109708353D01*
X160528781Y-109707550D01*
X160533360Y-109710246D01*
G37*
G04 #@! TD.AperFunction*
G04 #@! TA.AperFunction,Conductor*
G36*
X152060889Y-88055206D02*
G01*
X152861503Y-88479662D01*
X152867208Y-88486565D01*
X152866360Y-88495479D01*
X152861503Y-88500336D01*
X152060894Y-88924791D01*
X152051980Y-88925639D01*
X152049977Y-88924814D01*
X151737390Y-88760665D01*
X151466260Y-88618287D01*
X151460529Y-88611406D01*
X151460000Y-88607928D01*
X151460000Y-88372071D01*
X151463427Y-88363798D01*
X151466256Y-88361714D01*
X152049977Y-88055185D01*
X152058892Y-88054374D01*
X152060889Y-88055206D01*
G37*
G04 #@! TD.AperFunction*
G04 #@! TA.AperFunction,Conductor*
G36*
X113059915Y-94414949D02*
G01*
X113643462Y-94701786D01*
X113649374Y-94708510D01*
X113650000Y-94712285D01*
X113650000Y-94948134D01*
X113646573Y-94956407D01*
X113644007Y-94958348D01*
X113060119Y-95284576D01*
X113051225Y-95285620D01*
X113048932Y-95284699D01*
X112248496Y-94860336D01*
X112242791Y-94853433D01*
X112243639Y-94844519D01*
X112248493Y-94839664D01*
X113049282Y-94415114D01*
X113058195Y-94414267D01*
X113059915Y-94414949D01*
G37*
G04 #@! TD.AperFunction*
G04 #@! TA.AperFunction,Conductor*
G36*
X135000005Y-93207992D02*
G01*
X135483395Y-93441805D01*
X135489350Y-93448493D01*
X135490000Y-93452338D01*
X135490000Y-93687661D01*
X135486573Y-93695934D01*
X135483395Y-93698194D01*
X135000005Y-93932007D01*
X134991065Y-93932524D01*
X134986840Y-93929945D01*
X134617892Y-93578471D01*
X134614265Y-93570284D01*
X134617491Y-93561930D01*
X134617892Y-93561529D01*
X134986841Y-93210053D01*
X134995194Y-93206828D01*
X135000005Y-93207992D01*
G37*
G04 #@! TD.AperFunction*
G04 #@! TA.AperFunction,Conductor*
G36*
X119790005Y-112257992D02*
G01*
X120273395Y-112491805D01*
X120279350Y-112498493D01*
X120280000Y-112502338D01*
X120280000Y-112737661D01*
X120276573Y-112745934D01*
X120273395Y-112748194D01*
X119790005Y-112982007D01*
X119781065Y-112982524D01*
X119776840Y-112979945D01*
X119407892Y-112628471D01*
X119404265Y-112620284D01*
X119407491Y-112611930D01*
X119407892Y-112611529D01*
X119776841Y-112260053D01*
X119785194Y-112256828D01*
X119790005Y-112257992D01*
G37*
G04 #@! TD.AperFunction*
G04 #@! TA.AperFunction,Conductor*
G36*
X114923362Y-108440247D02*
G01*
X115292107Y-108791529D01*
X115295734Y-108799716D01*
X115292508Y-108808070D01*
X115292107Y-108808471D01*
X114922953Y-109160142D01*
X114914599Y-109163368D01*
X114910140Y-109162366D01*
X114426957Y-108948085D01*
X114420783Y-108941599D01*
X114420000Y-108937390D01*
X114420000Y-108702079D01*
X114423427Y-108693806D01*
X114426270Y-108691715D01*
X114909863Y-108438353D01*
X114918781Y-108437550D01*
X114923362Y-108440247D01*
G37*
G04 #@! TD.AperFunction*
G04 #@! TA.AperFunction,Conductor*
G36*
X158669915Y-89334949D02*
G01*
X159253462Y-89621786D01*
X159259374Y-89628510D01*
X159260000Y-89632285D01*
X159260000Y-89868134D01*
X159256573Y-89876407D01*
X159254007Y-89878348D01*
X158670119Y-90204576D01*
X158661225Y-90205620D01*
X158658932Y-90204699D01*
X157858496Y-89780336D01*
X157852791Y-89773433D01*
X157853639Y-89764519D01*
X157858493Y-89759664D01*
X158659282Y-89335114D01*
X158668195Y-89334267D01*
X158669915Y-89334949D01*
G37*
G04 #@! TD.AperFunction*
G04 #@! TA.AperFunction,Conductor*
G36*
X167270889Y-90595206D02*
G01*
X168071503Y-91019662D01*
X168077208Y-91026565D01*
X168076360Y-91035479D01*
X168071503Y-91040336D01*
X167270894Y-91464791D01*
X167261980Y-91465639D01*
X167259977Y-91464814D01*
X166947390Y-91300665D01*
X166676260Y-91158287D01*
X166670529Y-91151406D01*
X166670000Y-91147928D01*
X166670000Y-90912071D01*
X166673427Y-90903798D01*
X166676256Y-90901714D01*
X167259977Y-90595185D01*
X167268892Y-90594374D01*
X167270889Y-90595206D01*
G37*
G04 #@! TD.AperFunction*
G04 #@! TA.AperFunction,Conductor*
G36*
X121660889Y-109645206D02*
G01*
X122258563Y-109962071D01*
X122461502Y-110069662D01*
X122467207Y-110076565D01*
X122466359Y-110085479D01*
X122461502Y-110090336D01*
X121660894Y-110514791D01*
X121651980Y-110515639D01*
X121649977Y-110514814D01*
X121337390Y-110350665D01*
X121066260Y-110208287D01*
X121060529Y-110201406D01*
X121060000Y-110197928D01*
X121060000Y-109962071D01*
X121063427Y-109953798D01*
X121066256Y-109951714D01*
X121649977Y-109645185D01*
X121658892Y-109644374D01*
X121660889Y-109645206D01*
G37*
G04 #@! TD.AperFunction*
G04 #@! TA.AperFunction,Conductor*
G36*
X145343159Y-107170054D02*
G01*
X145712107Y-107521529D01*
X145715734Y-107529716D01*
X145712508Y-107538070D01*
X145712107Y-107538471D01*
X145343159Y-107889945D01*
X145334805Y-107893171D01*
X145329994Y-107892007D01*
X144846605Y-107658194D01*
X144840650Y-107651506D01*
X144840000Y-107647661D01*
X144840000Y-107412338D01*
X144843427Y-107404065D01*
X144846605Y-107401805D01*
X145329994Y-107167992D01*
X145338934Y-107167475D01*
X145343159Y-107170054D01*
G37*
G04 #@! TD.AperFunction*
G04 #@! TA.AperFunction,Conductor*
G36*
X119790005Y-110987992D02*
G01*
X120273395Y-111221805D01*
X120279350Y-111228493D01*
X120280000Y-111232338D01*
X120280000Y-111467661D01*
X120276573Y-111475934D01*
X120273395Y-111478194D01*
X119790005Y-111712007D01*
X119781065Y-111712524D01*
X119776840Y-111709945D01*
X119407892Y-111358471D01*
X119404265Y-111350284D01*
X119407491Y-111341930D01*
X119407892Y-111341529D01*
X119776841Y-110990053D01*
X119785194Y-110986828D01*
X119790005Y-110987992D01*
G37*
G04 #@! TD.AperFunction*
G04 #@! TA.AperFunction,Conductor*
G36*
X132234771Y-85340646D02*
G01*
X132240186Y-85346528D01*
X132369119Y-85655494D01*
X132369142Y-85664449D01*
X132369119Y-85664506D01*
X132240456Y-85972824D01*
X132234107Y-85979139D01*
X132225421Y-85979224D01*
X131681441Y-85767899D01*
X131674970Y-85761709D01*
X131673978Y-85756993D01*
X131673978Y-85523562D01*
X131677405Y-85515289D01*
X131682137Y-85512410D01*
X132225850Y-85339882D01*
X132234771Y-85340646D01*
G37*
G04 #@! TD.AperFunction*
G04 #@! TA.AperFunction,Conductor*
G36*
X160533159Y-104630054D02*
G01*
X160902107Y-104981529D01*
X160905734Y-104989716D01*
X160902508Y-104998070D01*
X160902107Y-104998471D01*
X160533159Y-105349945D01*
X160524805Y-105353171D01*
X160519994Y-105352007D01*
X160036605Y-105118194D01*
X160030650Y-105111506D01*
X160030000Y-105107661D01*
X160030000Y-104872338D01*
X160033427Y-104864065D01*
X160036605Y-104861805D01*
X160519994Y-104627992D01*
X160528934Y-104627475D01*
X160533159Y-104630054D01*
G37*
G04 #@! TD.AperFunction*
G04 #@! TA.AperFunction,Conductor*
G36*
X128259915Y-94414949D02*
G01*
X128843462Y-94701786D01*
X128849374Y-94708510D01*
X128850000Y-94712285D01*
X128850000Y-94948134D01*
X128846573Y-94956407D01*
X128844007Y-94958348D01*
X128260119Y-95284576D01*
X128251225Y-95285620D01*
X128248932Y-95284699D01*
X128025523Y-95166255D01*
X127448494Y-94860334D01*
X127442790Y-94853433D01*
X127443638Y-94844519D01*
X127448491Y-94839665D01*
X128249282Y-94415114D01*
X128258195Y-94414267D01*
X128259915Y-94414949D01*
G37*
G04 #@! TD.AperFunction*
G04 #@! TA.AperFunction,Conductor*
G36*
X130133362Y-89390247D02*
G01*
X130502107Y-89741529D01*
X130505734Y-89749716D01*
X130502508Y-89758070D01*
X130502107Y-89758471D01*
X130132953Y-90110142D01*
X130124599Y-90113368D01*
X130120140Y-90112366D01*
X129636957Y-89898085D01*
X129630783Y-89891599D01*
X129630000Y-89887390D01*
X129630000Y-89652079D01*
X129633427Y-89643806D01*
X129636270Y-89641715D01*
X130119863Y-89388353D01*
X130128781Y-89387550D01*
X130133362Y-89390247D01*
G37*
G04 #@! TD.AperFunction*
G04 #@! TA.AperFunction,Conductor*
G36*
X145343159Y-94470054D02*
G01*
X145712107Y-94821529D01*
X145715734Y-94829716D01*
X145712508Y-94838070D01*
X145712107Y-94838471D01*
X145343159Y-95189945D01*
X145334805Y-95193171D01*
X145329994Y-95192007D01*
X144846605Y-94958194D01*
X144840650Y-94951506D01*
X144840000Y-94947661D01*
X144840000Y-94712338D01*
X144843427Y-94704065D01*
X144846605Y-94701805D01*
X145329994Y-94467992D01*
X145338934Y-94467475D01*
X145343159Y-94470054D01*
G37*
G04 #@! TD.AperFunction*
G04 #@! TA.AperFunction,Conductor*
G36*
X130133159Y-91930054D02*
G01*
X130502107Y-92281529D01*
X130505734Y-92289716D01*
X130502508Y-92298070D01*
X130502107Y-92298471D01*
X130133159Y-92649945D01*
X130124805Y-92653171D01*
X130119994Y-92652007D01*
X129636605Y-92418194D01*
X129630650Y-92411506D01*
X129630000Y-92407661D01*
X129630000Y-92172338D01*
X129633427Y-92164065D01*
X129636605Y-92161805D01*
X130119994Y-91927992D01*
X130128934Y-91927475D01*
X130133159Y-91930054D01*
G37*
G04 #@! TD.AperFunction*
G04 #@! TA.AperFunction,Conductor*
G36*
X150210005Y-90667992D02*
G01*
X150693394Y-90901805D01*
X150699349Y-90908493D01*
X150699999Y-90912338D01*
X150699999Y-91147661D01*
X150696572Y-91155934D01*
X150693394Y-91158194D01*
X150210005Y-91392007D01*
X150201065Y-91392524D01*
X150196840Y-91389945D01*
X149827892Y-91038471D01*
X149824265Y-91030284D01*
X149827491Y-91021930D01*
X149827892Y-91021529D01*
X150196841Y-90670053D01*
X150205194Y-90666828D01*
X150210005Y-90667992D01*
G37*
G04 #@! TD.AperFunction*
G04 #@! TA.AperFunction,Conductor*
G36*
X121660889Y-90595206D02*
G01*
X122258563Y-90912071D01*
X122461502Y-91019662D01*
X122467207Y-91026565D01*
X122466359Y-91035479D01*
X122461502Y-91040336D01*
X121660894Y-91464791D01*
X121651980Y-91465639D01*
X121649977Y-91464814D01*
X121337390Y-91300665D01*
X121066260Y-91158287D01*
X121060529Y-91151406D01*
X121060000Y-91147928D01*
X121060000Y-90912071D01*
X121063427Y-90903798D01*
X121066256Y-90901714D01*
X121649977Y-90595185D01*
X121658892Y-90594374D01*
X121660889Y-90595206D01*
G37*
G04 #@! TD.AperFunction*
G04 #@! TA.AperFunction,Conductor*
G36*
X152060889Y-108375206D02*
G01*
X152861503Y-108799662D01*
X152867208Y-108806565D01*
X152866360Y-108815479D01*
X152861503Y-108820336D01*
X152060894Y-109244791D01*
X152051980Y-109245639D01*
X152049977Y-109244814D01*
X151737390Y-109080665D01*
X151466260Y-108938287D01*
X151460529Y-108931406D01*
X151460000Y-108927928D01*
X151460000Y-108692071D01*
X151463427Y-108683798D01*
X151466256Y-108681714D01*
X152049977Y-108375185D01*
X152058892Y-108374374D01*
X152060889Y-108375206D01*
G37*
G04 #@! TD.AperFunction*
G04 #@! TA.AperFunction,Conductor*
G36*
X136860889Y-88055206D02*
G01*
X137661503Y-88479662D01*
X137667208Y-88486565D01*
X137666360Y-88495479D01*
X137661503Y-88500336D01*
X136860894Y-88924791D01*
X136851980Y-88925639D01*
X136849977Y-88924814D01*
X136537390Y-88760665D01*
X136266260Y-88618287D01*
X136260529Y-88611406D01*
X136260000Y-88607928D01*
X136260000Y-88372071D01*
X136263427Y-88363798D01*
X136266256Y-88361714D01*
X136849977Y-88055185D01*
X136858892Y-88054374D01*
X136860889Y-88055206D01*
G37*
G04 #@! TD.AperFunction*
G04 #@! TA.AperFunction,Conductor*
G36*
X145343362Y-109710247D02*
G01*
X145712107Y-110061529D01*
X145715734Y-110069716D01*
X145712508Y-110078070D01*
X145712107Y-110078471D01*
X145342953Y-110430142D01*
X145334599Y-110433368D01*
X145330140Y-110432366D01*
X144846957Y-110218085D01*
X144840783Y-110211599D01*
X144840000Y-110207390D01*
X144840000Y-109972079D01*
X144843427Y-109963806D01*
X144846270Y-109961715D01*
X145329863Y-109708353D01*
X145338781Y-109707550D01*
X145343362Y-109710247D01*
G37*
G04 #@! TD.AperFunction*
G04 #@! TA.AperFunction,Conductor*
G36*
X114923362Y-100820247D02*
G01*
X115292107Y-101171529D01*
X115295734Y-101179716D01*
X115292508Y-101188070D01*
X115292107Y-101188471D01*
X114922953Y-101540142D01*
X114914599Y-101543368D01*
X114910140Y-101542366D01*
X114426957Y-101328085D01*
X114420783Y-101321599D01*
X114420000Y-101317390D01*
X114420000Y-101082079D01*
X114423427Y-101073806D01*
X114426270Y-101071715D01*
X114909863Y-100818353D01*
X114918781Y-100817550D01*
X114923362Y-100820247D01*
G37*
G04 #@! TD.AperFunction*
G04 #@! TA.AperFunction,Conductor*
G36*
X119790005Y-90667992D02*
G01*
X120273395Y-90901805D01*
X120279350Y-90908493D01*
X120280000Y-90912338D01*
X120280000Y-91147661D01*
X120276573Y-91155934D01*
X120273395Y-91158194D01*
X119790005Y-91392007D01*
X119781065Y-91392524D01*
X119776840Y-91389945D01*
X119407892Y-91038471D01*
X119404265Y-91030284D01*
X119407491Y-91021930D01*
X119407892Y-91021529D01*
X119776841Y-90670053D01*
X119785194Y-90666828D01*
X119790005Y-90667992D01*
G37*
G04 #@! TD.AperFunction*
G04 #@! TA.AperFunction,Conductor*
G36*
X130133159Y-97010054D02*
G01*
X130502107Y-97361529D01*
X130505734Y-97369716D01*
X130502508Y-97378070D01*
X130502107Y-97378471D01*
X130133159Y-97729945D01*
X130124805Y-97733171D01*
X130119994Y-97732007D01*
X129636605Y-97498194D01*
X129630650Y-97491506D01*
X129630000Y-97487661D01*
X129630000Y-97252338D01*
X129633427Y-97244065D01*
X129636605Y-97241805D01*
X130119994Y-97007992D01*
X130128934Y-97007475D01*
X130133159Y-97010054D01*
G37*
G04 #@! TD.AperFunction*
G04 #@! TA.AperFunction,Conductor*
G36*
X128260017Y-109655182D02*
G01*
X128843741Y-109961713D01*
X128849471Y-109968593D01*
X128850000Y-109972071D01*
X128850000Y-110207928D01*
X128846573Y-110216201D01*
X128843740Y-110218287D01*
X128260025Y-110524813D01*
X128251107Y-110525625D01*
X128249105Y-110524791D01*
X127448494Y-110100334D01*
X127442790Y-110093433D01*
X127443638Y-110084519D01*
X127448491Y-110079665D01*
X128249107Y-109655207D01*
X128258019Y-109654360D01*
X128260017Y-109655182D01*
G37*
G04 #@! TD.AperFunction*
G04 #@! TA.AperFunction,Conductor*
G36*
X135000005Y-105907992D02*
G01*
X135483395Y-106141805D01*
X135489350Y-106148493D01*
X135490000Y-106152338D01*
X135490000Y-106387661D01*
X135486573Y-106395934D01*
X135483395Y-106398194D01*
X135000005Y-106632007D01*
X134991065Y-106632524D01*
X134986840Y-106629945D01*
X134617892Y-106278471D01*
X134614265Y-106270284D01*
X134617491Y-106261930D01*
X134617892Y-106261529D01*
X134986841Y-105910053D01*
X134995194Y-105906828D01*
X135000005Y-105907992D01*
G37*
G04 #@! TD.AperFunction*
G04 #@! TA.AperFunction,Conductor*
G36*
X165400005Y-110987992D02*
G01*
X165883395Y-111221805D01*
X165889350Y-111228493D01*
X165890000Y-111232338D01*
X165890000Y-111467661D01*
X165886573Y-111475934D01*
X165883395Y-111478194D01*
X165400005Y-111712007D01*
X165391065Y-111712524D01*
X165386840Y-111709945D01*
X165017892Y-111358471D01*
X165014265Y-111350284D01*
X165017491Y-111341930D01*
X165017892Y-111341529D01*
X165386841Y-110990053D01*
X165395194Y-110986828D01*
X165400005Y-110987992D01*
G37*
G04 #@! TD.AperFunction*
G04 #@! TA.AperFunction,Conductor*
G36*
X152060889Y-104565206D02*
G01*
X152861503Y-104989662D01*
X152867208Y-104996565D01*
X152866360Y-105005479D01*
X152861503Y-105010336D01*
X152060894Y-105434791D01*
X152051980Y-105435639D01*
X152049977Y-105434814D01*
X151737390Y-105270665D01*
X151466260Y-105128287D01*
X151460529Y-105121406D01*
X151460000Y-105117928D01*
X151460000Y-104882071D01*
X151463427Y-104873798D01*
X151466256Y-104871714D01*
X152049977Y-104565185D01*
X152058892Y-104564374D01*
X152060889Y-104565206D01*
G37*
G04 #@! TD.AperFunction*
G04 #@! TA.AperFunction,Conductor*
G36*
X158669915Y-96954949D02*
G01*
X159253462Y-97241786D01*
X159259374Y-97248510D01*
X159260000Y-97252285D01*
X159260000Y-97488134D01*
X159256573Y-97496407D01*
X159254007Y-97498348D01*
X158670119Y-97824576D01*
X158661225Y-97825620D01*
X158658932Y-97824699D01*
X157858496Y-97400336D01*
X157852791Y-97393433D01*
X157853639Y-97384519D01*
X157858493Y-97379664D01*
X158659282Y-96955114D01*
X158668195Y-96954267D01*
X158669915Y-96954949D01*
G37*
G04 #@! TD.AperFunction*
G04 #@! TA.AperFunction,Conductor*
G36*
X113059915Y-104574949D02*
G01*
X113643462Y-104861786D01*
X113649374Y-104868510D01*
X113650000Y-104872285D01*
X113650000Y-105108134D01*
X113646573Y-105116407D01*
X113644007Y-105118348D01*
X113060119Y-105444576D01*
X113051225Y-105445620D01*
X113048932Y-105444699D01*
X112248496Y-105020336D01*
X112242791Y-105013433D01*
X112243639Y-105004519D01*
X112248493Y-104999664D01*
X113049282Y-104575114D01*
X113058195Y-104574267D01*
X113059915Y-104574949D01*
G37*
G04 #@! TD.AperFunction*
G04 #@! TA.AperFunction,Conductor*
G36*
X158670017Y-109655182D02*
G01*
X159253741Y-109961713D01*
X159259471Y-109968593D01*
X159260000Y-109972071D01*
X159260000Y-110207928D01*
X159256573Y-110216201D01*
X159253740Y-110218287D01*
X158670025Y-110524813D01*
X158661107Y-110525625D01*
X158659105Y-110524791D01*
X157858496Y-110100336D01*
X157852791Y-110093433D01*
X157853639Y-110084519D01*
X157858493Y-110079664D01*
X158659107Y-109655207D01*
X158668019Y-109654360D01*
X158670017Y-109655182D01*
G37*
G04 #@! TD.AperFunction*
G04 #@! TA.AperFunction,Conductor*
G36*
X114923159Y-94470054D02*
G01*
X115292107Y-94821529D01*
X115295734Y-94829716D01*
X115292508Y-94838070D01*
X115292107Y-94838471D01*
X114923159Y-95189945D01*
X114914805Y-95193171D01*
X114909994Y-95192007D01*
X114426605Y-94958194D01*
X114420650Y-94951506D01*
X114420000Y-94947661D01*
X114420000Y-94712338D01*
X114423427Y-94704065D01*
X114426605Y-94701805D01*
X114909994Y-94467992D01*
X114918934Y-94467475D01*
X114923159Y-94470054D01*
G37*
G04 #@! TD.AperFunction*
G04 #@! TA.AperFunction,Conductor*
G36*
X150210005Y-100827992D02*
G01*
X150693394Y-101061805D01*
X150699349Y-101068493D01*
X150699999Y-101072338D01*
X150699999Y-101307661D01*
X150696572Y-101315934D01*
X150693394Y-101318194D01*
X150210005Y-101552007D01*
X150201065Y-101552524D01*
X150196840Y-101549945D01*
X149827892Y-101198471D01*
X149824265Y-101190284D01*
X149827491Y-101181930D01*
X149827892Y-101181529D01*
X150196841Y-100830053D01*
X150205194Y-100826828D01*
X150210005Y-100827992D01*
G37*
G04 #@! TD.AperFunction*
G04 #@! TA.AperFunction,Conductor*
G36*
X121660889Y-88055206D02*
G01*
X122258563Y-88372071D01*
X122461502Y-88479662D01*
X122467207Y-88486565D01*
X122466359Y-88495479D01*
X122461502Y-88500336D01*
X121660894Y-88924791D01*
X121651980Y-88925639D01*
X121649977Y-88924814D01*
X121337390Y-88760665D01*
X121066260Y-88618287D01*
X121060529Y-88611406D01*
X121060000Y-88607928D01*
X121060000Y-88372071D01*
X121063427Y-88363798D01*
X121066256Y-88361714D01*
X121649977Y-88055185D01*
X121658892Y-88054374D01*
X121660889Y-88055206D01*
G37*
G04 #@! TD.AperFunction*
G04 #@! TA.AperFunction,Conductor*
G36*
X130133159Y-93200054D02*
G01*
X130502107Y-93551529D01*
X130505734Y-93559716D01*
X130502508Y-93568070D01*
X130502107Y-93568471D01*
X130133159Y-93919945D01*
X130124805Y-93923171D01*
X130119994Y-93922007D01*
X129636605Y-93688194D01*
X129630650Y-93681506D01*
X129630000Y-93677661D01*
X129630000Y-93442338D01*
X129633427Y-93434065D01*
X129636605Y-93431805D01*
X130119994Y-93197992D01*
X130128934Y-93197475D01*
X130133159Y-93200054D01*
G37*
G04 #@! TD.AperFunction*
G04 #@! TA.AperFunction,Conductor*
G36*
X167270889Y-112185206D02*
G01*
X168071503Y-112609662D01*
X168077208Y-112616565D01*
X168076360Y-112625479D01*
X168071503Y-112630336D01*
X167270894Y-113054791D01*
X167261980Y-113055639D01*
X167259977Y-113054814D01*
X166947390Y-112890665D01*
X166676260Y-112748287D01*
X166670529Y-112741406D01*
X166670000Y-112737928D01*
X166670000Y-112502071D01*
X166673427Y-112493798D01*
X166676256Y-112491714D01*
X167259977Y-112185185D01*
X167268892Y-112184374D01*
X167270889Y-112185206D01*
G37*
G04 #@! TD.AperFunction*
G04 #@! TA.AperFunction,Conductor*
G36*
X167270889Y-100755206D02*
G01*
X168071503Y-101179662D01*
X168077208Y-101186565D01*
X168076360Y-101195479D01*
X168071503Y-101200336D01*
X167270894Y-101624791D01*
X167261980Y-101625639D01*
X167259977Y-101624814D01*
X166947390Y-101460665D01*
X166676260Y-101318287D01*
X166670529Y-101311406D01*
X166670000Y-101307928D01*
X166670000Y-101072071D01*
X166673427Y-101063798D01*
X166676256Y-101061714D01*
X167259977Y-100755185D01*
X167268892Y-100754374D01*
X167270889Y-100755206D01*
G37*
G04 #@! TD.AperFunction*
G04 #@! TA.AperFunction,Conductor*
G36*
X128259915Y-102034949D02*
G01*
X128843462Y-102321786D01*
X128849374Y-102328510D01*
X128850000Y-102332285D01*
X128850000Y-102568134D01*
X128846573Y-102576407D01*
X128844007Y-102578348D01*
X128260119Y-102904576D01*
X128251225Y-102905620D01*
X128248932Y-102904699D01*
X128025523Y-102786255D01*
X127448494Y-102480334D01*
X127442790Y-102473433D01*
X127443638Y-102464519D01*
X127448491Y-102459665D01*
X128249282Y-102035114D01*
X128258195Y-102034267D01*
X128259915Y-102034949D01*
G37*
G04 #@! TD.AperFunction*
G04 #@! TA.AperFunction,Conductor*
G36*
X160533159Y-102090054D02*
G01*
X160902107Y-102441529D01*
X160905734Y-102449716D01*
X160902508Y-102458070D01*
X160902107Y-102458471D01*
X160533159Y-102809945D01*
X160524805Y-102813171D01*
X160519994Y-102812007D01*
X160036605Y-102578194D01*
X160030650Y-102571506D01*
X160030000Y-102567661D01*
X160030000Y-102332338D01*
X160033427Y-102324065D01*
X160036605Y-102321805D01*
X160519994Y-102087992D01*
X160528934Y-102087475D01*
X160533159Y-102090054D01*
G37*
G04 #@! TD.AperFunction*
G04 #@! TA.AperFunction,Conductor*
G36*
X160533159Y-97010054D02*
G01*
X160902107Y-97361529D01*
X160905734Y-97369716D01*
X160902508Y-97378070D01*
X160902107Y-97378471D01*
X160533159Y-97729945D01*
X160524805Y-97733171D01*
X160519994Y-97732007D01*
X160036605Y-97498194D01*
X160030650Y-97491506D01*
X160030000Y-97487661D01*
X160030000Y-97252338D01*
X160033427Y-97244065D01*
X160036605Y-97241805D01*
X160519994Y-97007992D01*
X160528934Y-97007475D01*
X160533159Y-97010054D01*
G37*
G04 #@! TD.AperFunction*
G04 #@! TA.AperFunction,Conductor*
G36*
X113060017Y-108385182D02*
G01*
X113643741Y-108691713D01*
X113649471Y-108698593D01*
X113650000Y-108702071D01*
X113650000Y-108937928D01*
X113646573Y-108946201D01*
X113643740Y-108948287D01*
X113060025Y-109254813D01*
X113051107Y-109255625D01*
X113049105Y-109254791D01*
X112248496Y-108830336D01*
X112242791Y-108823433D01*
X112243639Y-108814519D01*
X112248493Y-108809664D01*
X113049107Y-108385207D01*
X113058019Y-108384360D01*
X113060017Y-108385182D01*
G37*
G04 #@! TD.AperFunction*
G04 #@! TA.AperFunction,Conductor*
G36*
X136860889Y-95675206D02*
G01*
X137661503Y-96099662D01*
X137667208Y-96106565D01*
X137666360Y-96115479D01*
X137661503Y-96120336D01*
X136860894Y-96544791D01*
X136851980Y-96545639D01*
X136849977Y-96544814D01*
X136537390Y-96380665D01*
X136266260Y-96238287D01*
X136260529Y-96231406D01*
X136260000Y-96227928D01*
X136260000Y-95992071D01*
X136263427Y-95983798D01*
X136266256Y-95981714D01*
X136849977Y-95675185D01*
X136858892Y-95674374D01*
X136860889Y-95675206D01*
G37*
G04 #@! TD.AperFunction*
G04 #@! TA.AperFunction,Conductor*
G36*
X135000005Y-104637992D02*
G01*
X135483395Y-104871805D01*
X135489350Y-104878493D01*
X135490000Y-104882338D01*
X135490000Y-105117661D01*
X135486573Y-105125934D01*
X135483395Y-105128194D01*
X135000005Y-105362007D01*
X134991065Y-105362524D01*
X134986840Y-105359945D01*
X134617892Y-105008471D01*
X134614265Y-105000284D01*
X134617491Y-104991930D01*
X134617892Y-104991529D01*
X134986841Y-104640053D01*
X134995194Y-104636828D01*
X135000005Y-104637992D01*
G37*
G04 #@! TD.AperFunction*
G04 #@! TA.AperFunction,Conductor*
G36*
X143459915Y-102034949D02*
G01*
X144043462Y-102321786D01*
X144049374Y-102328510D01*
X144050000Y-102332285D01*
X144050000Y-102568134D01*
X144046573Y-102576407D01*
X144044007Y-102578348D01*
X143460119Y-102904576D01*
X143451225Y-102905620D01*
X143448932Y-102904699D01*
X142648496Y-102480336D01*
X142642791Y-102473433D01*
X142643639Y-102464519D01*
X142648493Y-102459664D01*
X143449282Y-102035114D01*
X143458195Y-102034267D01*
X143459915Y-102034949D01*
G37*
G04 #@! TD.AperFunction*
G04 #@! TA.AperFunction,Conductor*
G36*
X152060889Y-91865206D02*
G01*
X152861503Y-92289662D01*
X152867208Y-92296565D01*
X152866360Y-92305479D01*
X152861503Y-92310336D01*
X152060894Y-92734791D01*
X152051980Y-92735639D01*
X152049977Y-92734814D01*
X151737390Y-92570665D01*
X151466260Y-92428287D01*
X151460529Y-92421406D01*
X151460000Y-92417928D01*
X151460000Y-92182071D01*
X151463427Y-92173798D01*
X151466256Y-92171714D01*
X152049977Y-91865185D01*
X152058892Y-91864374D01*
X152060889Y-91865206D01*
G37*
G04 #@! TD.AperFunction*
G04 #@! TA.AperFunction,Conductor*
G36*
X135000005Y-97017992D02*
G01*
X135483395Y-97251805D01*
X135489350Y-97258493D01*
X135490000Y-97262338D01*
X135490000Y-97497661D01*
X135486573Y-97505934D01*
X135483395Y-97508194D01*
X135000005Y-97742007D01*
X134991065Y-97742524D01*
X134986840Y-97739945D01*
X134617892Y-97388471D01*
X134614265Y-97380284D01*
X134617491Y-97371930D01*
X134617892Y-97371529D01*
X134986841Y-97020053D01*
X134995194Y-97016828D01*
X135000005Y-97017992D01*
G37*
G04 #@! TD.AperFunction*
G04 #@! TA.AperFunction,Conductor*
G36*
X145343362Y-100820247D02*
G01*
X145712107Y-101171529D01*
X145715734Y-101179716D01*
X145712508Y-101188070D01*
X145712107Y-101188471D01*
X145342953Y-101540142D01*
X145334599Y-101543368D01*
X145330140Y-101542366D01*
X144846957Y-101328085D01*
X144840783Y-101321599D01*
X144840000Y-101317390D01*
X144840000Y-101082079D01*
X144843427Y-101073806D01*
X144846270Y-101071715D01*
X145329863Y-100818353D01*
X145338781Y-100817550D01*
X145343362Y-100820247D01*
G37*
G04 #@! TD.AperFunction*
G04 #@! TA.AperFunction,Conductor*
G36*
X128260017Y-90605182D02*
G01*
X128843741Y-90911713D01*
X128849471Y-90918593D01*
X128850000Y-90922071D01*
X128850000Y-91157928D01*
X128846573Y-91166201D01*
X128843740Y-91168287D01*
X128260025Y-91474813D01*
X128251107Y-91475625D01*
X128249105Y-91474791D01*
X127448494Y-91050334D01*
X127442790Y-91043433D01*
X127443638Y-91034519D01*
X127448491Y-91029665D01*
X128249107Y-90605207D01*
X128258019Y-90604360D01*
X128260017Y-90605182D01*
G37*
G04 #@! TD.AperFunction*
G04 #@! TA.AperFunction,Conductor*
G36*
X136860889Y-105835206D02*
G01*
X137661503Y-106259662D01*
X137667208Y-106266565D01*
X137666360Y-106275479D01*
X137661503Y-106280336D01*
X136860894Y-106704791D01*
X136851980Y-106705639D01*
X136849977Y-106704814D01*
X136537390Y-106540665D01*
X136266260Y-106398287D01*
X136260529Y-106391406D01*
X136260000Y-106387928D01*
X136260000Y-106152071D01*
X136263427Y-106143798D01*
X136266256Y-106141714D01*
X136849977Y-105835185D01*
X136858892Y-105834374D01*
X136860889Y-105835206D01*
G37*
G04 #@! TD.AperFunction*
G04 #@! TA.AperFunction,Conductor*
G36*
X128259915Y-88064949D02*
G01*
X128843462Y-88351786D01*
X128849374Y-88358510D01*
X128850000Y-88362285D01*
X128850000Y-88598134D01*
X128846573Y-88606407D01*
X128844007Y-88608348D01*
X128260119Y-88934576D01*
X128251225Y-88935620D01*
X128248932Y-88934699D01*
X128025523Y-88816255D01*
X127448494Y-88510334D01*
X127442790Y-88503433D01*
X127443638Y-88494519D01*
X127448491Y-88489665D01*
X128249282Y-88065114D01*
X128258195Y-88064267D01*
X128259915Y-88064949D01*
G37*
G04 #@! TD.AperFunction*
G04 #@! TA.AperFunction,Conductor*
G36*
X113060017Y-95685182D02*
G01*
X113643741Y-95991713D01*
X113649471Y-95998593D01*
X113650000Y-96002071D01*
X113650000Y-96237928D01*
X113646573Y-96246201D01*
X113643740Y-96248287D01*
X113060025Y-96554813D01*
X113051107Y-96555625D01*
X113049105Y-96554791D01*
X112248496Y-96130336D01*
X112242791Y-96123433D01*
X112243639Y-96114519D01*
X112248493Y-96109664D01*
X113049107Y-95685207D01*
X113058019Y-95684360D01*
X113060017Y-95685182D01*
G37*
G04 #@! TD.AperFunction*
G04 #@! TA.AperFunction,Conductor*
G36*
X136092639Y-98852403D02*
G01*
X136099182Y-98858517D01*
X136099485Y-98867467D01*
X136099352Y-98867805D01*
X135972777Y-99175869D01*
X135966463Y-99182219D01*
X135966411Y-99182240D01*
X135656183Y-99310009D01*
X135647228Y-99309991D01*
X135641550Y-99304964D01*
X135388603Y-98859083D01*
X135387502Y-98850196D01*
X135387971Y-98848833D01*
X135477124Y-98633592D01*
X135483454Y-98627262D01*
X135492041Y-98627116D01*
X136092639Y-98852403D01*
G37*
G04 #@! TD.AperFunction*
G04 #@! TA.AperFunction,Conductor*
G36*
X136860889Y-103295206D02*
G01*
X137661503Y-103719662D01*
X137667208Y-103726565D01*
X137666360Y-103735479D01*
X137661503Y-103740336D01*
X136860894Y-104164791D01*
X136851980Y-104165639D01*
X136849977Y-104164814D01*
X136537390Y-104000665D01*
X136266260Y-103858287D01*
X136260529Y-103851406D01*
X136260000Y-103847928D01*
X136260000Y-103612071D01*
X136263427Y-103603798D01*
X136266256Y-103601714D01*
X136849977Y-103295185D01*
X136858892Y-103294374D01*
X136860889Y-103295206D01*
G37*
G04 #@! TD.AperFunction*
G04 #@! TA.AperFunction,Conductor*
G36*
X135000005Y-95747992D02*
G01*
X135483395Y-95981805D01*
X135489350Y-95988493D01*
X135490000Y-95992338D01*
X135490000Y-96227661D01*
X135486573Y-96235934D01*
X135483395Y-96238194D01*
X135000005Y-96472007D01*
X134991065Y-96472524D01*
X134986840Y-96469945D01*
X134617892Y-96118471D01*
X134614265Y-96110284D01*
X134617491Y-96101930D01*
X134617892Y-96101529D01*
X134986841Y-95750053D01*
X134995194Y-95746828D01*
X135000005Y-95747992D01*
G37*
G04 #@! TD.AperFunction*
G04 #@! TA.AperFunction,Conductor*
G36*
X152060889Y-105835206D02*
G01*
X152861503Y-106259662D01*
X152867208Y-106266565D01*
X152866360Y-106275479D01*
X152861503Y-106280336D01*
X152060894Y-106704791D01*
X152051980Y-106705639D01*
X152049977Y-106704814D01*
X151737390Y-106540665D01*
X151466260Y-106398287D01*
X151460529Y-106391406D01*
X151460000Y-106387928D01*
X151460000Y-106152071D01*
X151463427Y-106143798D01*
X151466256Y-106141714D01*
X152049977Y-105835185D01*
X152058892Y-105834374D01*
X152060889Y-105835206D01*
G37*
G04 #@! TD.AperFunction*
G04 #@! TA.AperFunction,Conductor*
G36*
X128259915Y-107114949D02*
G01*
X128843462Y-107401786D01*
X128849374Y-107408510D01*
X128850000Y-107412285D01*
X128850000Y-107648134D01*
X128846573Y-107656407D01*
X128844007Y-107658348D01*
X128260119Y-107984576D01*
X128251225Y-107985620D01*
X128248932Y-107984699D01*
X128025523Y-107866255D01*
X127448494Y-107560334D01*
X127442790Y-107553433D01*
X127443638Y-107544519D01*
X127448491Y-107539665D01*
X128249282Y-107115114D01*
X128258195Y-107114267D01*
X128259915Y-107114949D01*
G37*
G04 #@! TD.AperFunction*
G04 #@! TA.AperFunction,Conductor*
G36*
X128259915Y-91874949D02*
G01*
X128843462Y-92161786D01*
X128849374Y-92168510D01*
X128850000Y-92172285D01*
X128850000Y-92408134D01*
X128846573Y-92416407D01*
X128844007Y-92418348D01*
X128260119Y-92744576D01*
X128251225Y-92745620D01*
X128248932Y-92744699D01*
X128025523Y-92626255D01*
X127448494Y-92320334D01*
X127442790Y-92313433D01*
X127443638Y-92304519D01*
X127448491Y-92299665D01*
X128249282Y-91875114D01*
X128258195Y-91874267D01*
X128259915Y-91874949D01*
G37*
G04 #@! TD.AperFunction*
G04 #@! TA.AperFunction,Conductor*
G36*
X130133159Y-100820054D02*
G01*
X130502107Y-101171529D01*
X130505734Y-101179716D01*
X130502508Y-101188070D01*
X130502107Y-101188471D01*
X130133159Y-101539945D01*
X130124805Y-101543171D01*
X130119994Y-101542007D01*
X129636605Y-101308194D01*
X129630650Y-101301506D01*
X129630000Y-101297661D01*
X129630000Y-101062338D01*
X129633427Y-101054065D01*
X129636605Y-101051805D01*
X130119994Y-100817992D01*
X130128934Y-100817475D01*
X130133159Y-100820054D01*
G37*
G04 #@! TD.AperFunction*
G04 #@! TA.AperFunction,Conductor*
G36*
X160533159Y-93200054D02*
G01*
X160902107Y-93551529D01*
X160905734Y-93559716D01*
X160902508Y-93568070D01*
X160902107Y-93568471D01*
X160533159Y-93919945D01*
X160524805Y-93923171D01*
X160519994Y-93922007D01*
X160036605Y-93688194D01*
X160030650Y-93681506D01*
X160030000Y-93677661D01*
X160030000Y-93442338D01*
X160033427Y-93434065D01*
X160036605Y-93431805D01*
X160519994Y-93197992D01*
X160528934Y-93197475D01*
X160533159Y-93200054D01*
G37*
G04 #@! TD.AperFunction*
G04 #@! TA.AperFunction,Conductor*
G36*
X160533362Y-91930247D02*
G01*
X160902107Y-92281529D01*
X160905734Y-92289716D01*
X160902508Y-92298070D01*
X160902107Y-92298471D01*
X160532953Y-92650142D01*
X160524599Y-92653368D01*
X160520140Y-92652366D01*
X160036957Y-92438085D01*
X160030783Y-92431599D01*
X160030000Y-92427390D01*
X160030000Y-92192079D01*
X160033427Y-92183806D01*
X160036270Y-92181715D01*
X160519863Y-91928353D01*
X160528781Y-91927550D01*
X160533362Y-91930247D01*
G37*
G04 #@! TD.AperFunction*
G04 #@! TA.AperFunction,Conductor*
G36*
X150210005Y-105907992D02*
G01*
X150693394Y-106141805D01*
X150699349Y-106148493D01*
X150699999Y-106152338D01*
X150699999Y-106387661D01*
X150696572Y-106395934D01*
X150693394Y-106398194D01*
X150210005Y-106632007D01*
X150201065Y-106632524D01*
X150196840Y-106629945D01*
X149827892Y-106278471D01*
X149824265Y-106270284D01*
X149827491Y-106261930D01*
X149827892Y-106261529D01*
X150196841Y-105910053D01*
X150205194Y-105906828D01*
X150210005Y-105907992D01*
G37*
G04 #@! TD.AperFunction*
G04 #@! TA.AperFunction,Conductor*
G36*
X130133159Y-105900054D02*
G01*
X130502107Y-106251529D01*
X130505734Y-106259716D01*
X130502508Y-106268070D01*
X130502107Y-106268471D01*
X130133159Y-106619945D01*
X130124805Y-106623171D01*
X130119994Y-106622007D01*
X129636605Y-106388194D01*
X129630650Y-106381506D01*
X129630000Y-106377661D01*
X129630000Y-106142338D01*
X129633427Y-106134065D01*
X129636605Y-106131805D01*
X130119994Y-105897992D01*
X130128934Y-105897475D01*
X130133159Y-105900054D01*
G37*
G04 #@! TD.AperFunction*
G04 #@! TA.AperFunction,Conductor*
G36*
X152060889Y-89325206D02*
G01*
X152861503Y-89749662D01*
X152867208Y-89756565D01*
X152866360Y-89765479D01*
X152861503Y-89770336D01*
X152060894Y-90194791D01*
X152051980Y-90195639D01*
X152049977Y-90194814D01*
X151737390Y-90030665D01*
X151466260Y-89888287D01*
X151460529Y-89881406D01*
X151460000Y-89877928D01*
X151460000Y-89642071D01*
X151463427Y-89633798D01*
X151466256Y-89631714D01*
X152049977Y-89325185D01*
X152058892Y-89324374D01*
X152060889Y-89325206D01*
G37*
G04 #@! TD.AperFunction*
G04 #@! TA.AperFunction,Conductor*
G36*
X136860889Y-107105206D02*
G01*
X137661503Y-107529662D01*
X137667208Y-107536565D01*
X137666360Y-107545479D01*
X137661503Y-107550336D01*
X136860894Y-107974791D01*
X136851980Y-107975639D01*
X136849977Y-107974814D01*
X136537390Y-107810665D01*
X136266260Y-107668287D01*
X136260529Y-107661406D01*
X136260000Y-107657928D01*
X136260000Y-107422071D01*
X136263427Y-107413798D01*
X136266256Y-107411714D01*
X136849977Y-107105185D01*
X136858892Y-107104374D01*
X136860889Y-107105206D01*
G37*
G04 #@! TD.AperFunction*
G04 #@! TA.AperFunction,Conductor*
G36*
X152060889Y-110915206D02*
G01*
X152861503Y-111339662D01*
X152867208Y-111346565D01*
X152866360Y-111355479D01*
X152861503Y-111360336D01*
X152060894Y-111784791D01*
X152051980Y-111785639D01*
X152049977Y-111784814D01*
X151737390Y-111620665D01*
X151466260Y-111478287D01*
X151460529Y-111471406D01*
X151460000Y-111467928D01*
X151460000Y-111232071D01*
X151463427Y-111223798D01*
X151466256Y-111221714D01*
X152049977Y-110915185D01*
X152058892Y-110914374D01*
X152060889Y-110915206D01*
G37*
G04 #@! TD.AperFunction*
G04 #@! TA.AperFunction,Conductor*
G36*
X167270889Y-104565206D02*
G01*
X168071503Y-104989662D01*
X168077208Y-104996565D01*
X168076360Y-105005479D01*
X168071503Y-105010336D01*
X167270894Y-105434791D01*
X167261980Y-105435639D01*
X167259977Y-105434814D01*
X166947390Y-105270665D01*
X166676260Y-105128287D01*
X166670529Y-105121406D01*
X166670000Y-105117928D01*
X166670000Y-104882071D01*
X166673427Y-104873798D01*
X166676256Y-104871714D01*
X167259977Y-104565185D01*
X167268892Y-104564374D01*
X167270889Y-104565206D01*
G37*
G04 #@! TD.AperFunction*
G04 #@! TA.AperFunction,Conductor*
G36*
X143459915Y-112194949D02*
G01*
X144043462Y-112481786D01*
X144049374Y-112488510D01*
X144050000Y-112492285D01*
X144050000Y-112728134D01*
X144046573Y-112736407D01*
X144044007Y-112738348D01*
X143460119Y-113064576D01*
X143451225Y-113065620D01*
X143448932Y-113064699D01*
X142648496Y-112640336D01*
X142642791Y-112633433D01*
X142643639Y-112624519D01*
X142648493Y-112619664D01*
X143449282Y-112195114D01*
X143458195Y-112194267D01*
X143459915Y-112194949D01*
G37*
G04 #@! TD.AperFunction*
G04 #@! TA.AperFunction,Conductor*
G36*
X114923362Y-93200247D02*
G01*
X115292107Y-93551529D01*
X115295734Y-93559716D01*
X115292508Y-93568070D01*
X115292107Y-93568471D01*
X114922953Y-93920142D01*
X114914599Y-93923368D01*
X114910140Y-93922366D01*
X114426957Y-93708085D01*
X114420783Y-93701599D01*
X114420000Y-93697390D01*
X114420000Y-93462079D01*
X114423427Y-93453806D01*
X114426270Y-93451715D01*
X114909863Y-93198353D01*
X114918781Y-93197550D01*
X114923362Y-93200247D01*
G37*
G04 #@! TD.AperFunction*
G04 #@! TA.AperFunction,Conductor*
G36*
X128259915Y-105844949D02*
G01*
X128843462Y-106131786D01*
X128849374Y-106138510D01*
X128850000Y-106142285D01*
X128850000Y-106378134D01*
X128846573Y-106386407D01*
X128844007Y-106388348D01*
X128260119Y-106714576D01*
X128251225Y-106715620D01*
X128248932Y-106714699D01*
X128025523Y-106596255D01*
X127448494Y-106290334D01*
X127442790Y-106283433D01*
X127443638Y-106274519D01*
X127448491Y-106269665D01*
X128249282Y-105845114D01*
X128258195Y-105844267D01*
X128259915Y-105844949D01*
G37*
G04 #@! TD.AperFunction*
G04 #@! TA.AperFunction,Conductor*
G36*
X152060889Y-93135206D02*
G01*
X152861503Y-93559662D01*
X152867208Y-93566565D01*
X152866360Y-93575479D01*
X152861503Y-93580336D01*
X152060894Y-94004791D01*
X152051980Y-94005639D01*
X152049977Y-94004814D01*
X151737390Y-93840665D01*
X151466260Y-93698287D01*
X151460529Y-93691406D01*
X151460000Y-93687928D01*
X151460000Y-93452071D01*
X151463427Y-93443798D01*
X151466256Y-93441714D01*
X152049977Y-93135185D01*
X152058892Y-93134374D01*
X152060889Y-93135206D01*
G37*
G04 #@! TD.AperFunction*
G04 #@! TA.AperFunction,Conductor*
G36*
X119790005Y-95747992D02*
G01*
X120273395Y-95981805D01*
X120279350Y-95988493D01*
X120280000Y-95992338D01*
X120280000Y-96227661D01*
X120276573Y-96235934D01*
X120273395Y-96238194D01*
X119790005Y-96472007D01*
X119781065Y-96472524D01*
X119776840Y-96469945D01*
X119407892Y-96118471D01*
X119404265Y-96110284D01*
X119407491Y-96101930D01*
X119407892Y-96101529D01*
X119776841Y-95750053D01*
X119785194Y-95746828D01*
X119790005Y-95747992D01*
G37*
G04 #@! TD.AperFunction*
G04 #@! TA.AperFunction,Conductor*
G36*
X128260017Y-104575182D02*
G01*
X128843741Y-104881713D01*
X128849471Y-104888593D01*
X128850000Y-104892071D01*
X128850000Y-105127928D01*
X128846573Y-105136201D01*
X128843740Y-105138287D01*
X128260025Y-105444813D01*
X128251107Y-105445625D01*
X128249105Y-105444791D01*
X127448494Y-105020334D01*
X127442790Y-105013433D01*
X127443638Y-105004519D01*
X127448491Y-104999665D01*
X128249107Y-104575207D01*
X128258019Y-104574360D01*
X128260017Y-104575182D01*
G37*
G04 #@! TD.AperFunction*
G04 #@! TA.AperFunction,Conductor*
G36*
X128260017Y-98225182D02*
G01*
X128843741Y-98531713D01*
X128849471Y-98538593D01*
X128850000Y-98542071D01*
X128850000Y-98777928D01*
X128846573Y-98786201D01*
X128843740Y-98788287D01*
X128260025Y-99094813D01*
X128251107Y-99095625D01*
X128249105Y-99094791D01*
X127448494Y-98670334D01*
X127442790Y-98663433D01*
X127443638Y-98654519D01*
X127448491Y-98649665D01*
X128249107Y-98225207D01*
X128258019Y-98224360D01*
X128260017Y-98225182D01*
G37*
G04 #@! TD.AperFunction*
G04 #@! TA.AperFunction,Conductor*
G36*
X150210005Y-91937992D02*
G01*
X150693394Y-92171805D01*
X150699349Y-92178493D01*
X150699999Y-92182338D01*
X150699999Y-92417661D01*
X150696572Y-92425934D01*
X150693394Y-92428194D01*
X150210005Y-92662007D01*
X150201065Y-92662524D01*
X150196840Y-92659945D01*
X149827892Y-92308471D01*
X149824265Y-92300284D01*
X149827491Y-92291930D01*
X149827892Y-92291529D01*
X150196841Y-91940053D01*
X150205194Y-91936828D01*
X150210005Y-91937992D01*
G37*
G04 #@! TD.AperFunction*
G04 #@! TA.AperFunction,Conductor*
G36*
X165400005Y-105907992D02*
G01*
X165883395Y-106141805D01*
X165889350Y-106148493D01*
X165890000Y-106152338D01*
X165890000Y-106387661D01*
X165886573Y-106395934D01*
X165883395Y-106398194D01*
X165400005Y-106632007D01*
X165391065Y-106632524D01*
X165386840Y-106629945D01*
X165017892Y-106278470D01*
X165014265Y-106270283D01*
X165017491Y-106261929D01*
X165017868Y-106261551D01*
X165386841Y-105910053D01*
X165395194Y-105906828D01*
X165400005Y-105907992D01*
G37*
G04 #@! TD.AperFunction*
G04 #@! TA.AperFunction,Conductor*
G36*
X167270889Y-103295206D02*
G01*
X168071503Y-103719662D01*
X168077208Y-103726565D01*
X168076360Y-103735479D01*
X168071503Y-103740336D01*
X167270894Y-104164791D01*
X167261980Y-104165639D01*
X167259977Y-104164814D01*
X166947390Y-104000665D01*
X166676260Y-103858287D01*
X166670529Y-103851406D01*
X166670000Y-103847928D01*
X166670000Y-103612071D01*
X166673427Y-103603798D01*
X166676256Y-103601714D01*
X167259977Y-103295185D01*
X167268892Y-103294374D01*
X167270889Y-103295206D01*
G37*
G04 #@! TD.AperFunction*
G04 #@! TA.AperFunction,Conductor*
G36*
X119790005Y-109717992D02*
G01*
X120273395Y-109951805D01*
X120279350Y-109958493D01*
X120280000Y-109962338D01*
X120280000Y-110197661D01*
X120276573Y-110205934D01*
X120273395Y-110208194D01*
X119790005Y-110442007D01*
X119781065Y-110442524D01*
X119776840Y-110439945D01*
X119407892Y-110088471D01*
X119404265Y-110080284D01*
X119407491Y-110071930D01*
X119407892Y-110071529D01*
X119776841Y-109720053D01*
X119785194Y-109716828D01*
X119790005Y-109717992D01*
G37*
G04 #@! TD.AperFunction*
G04 #@! TA.AperFunction,Conductor*
G36*
X135000005Y-102097992D02*
G01*
X135483395Y-102331805D01*
X135489350Y-102338493D01*
X135490000Y-102342338D01*
X135490000Y-102577661D01*
X135486573Y-102585934D01*
X135483395Y-102588194D01*
X135000005Y-102822007D01*
X134991065Y-102822524D01*
X134986840Y-102819945D01*
X134617892Y-102468471D01*
X134614265Y-102460284D01*
X134617491Y-102451930D01*
X134617892Y-102451529D01*
X134986841Y-102100053D01*
X134995194Y-102096828D01*
X135000005Y-102097992D01*
G37*
G04 #@! TD.AperFunction*
G04 #@! TA.AperFunction,Conductor*
G36*
X158669915Y-100764949D02*
G01*
X159253462Y-101051786D01*
X159259374Y-101058510D01*
X159260000Y-101062285D01*
X159260000Y-101298134D01*
X159256573Y-101306407D01*
X159254007Y-101308348D01*
X158670119Y-101634576D01*
X158661225Y-101635620D01*
X158658932Y-101634699D01*
X157858496Y-101210336D01*
X157852791Y-101203433D01*
X157853639Y-101194519D01*
X157858493Y-101189664D01*
X158659282Y-100765114D01*
X158668195Y-100764267D01*
X158669915Y-100764949D01*
G37*
G04 #@! TD.AperFunction*
G04 #@! TA.AperFunction,Conductor*
G36*
X150320835Y-98441879D02*
G01*
X150740298Y-98883114D01*
X150743514Y-98891471D01*
X150740091Y-98899448D01*
X150575035Y-99064504D01*
X150566762Y-99067931D01*
X150566220Y-99067918D01*
X149762463Y-99030621D01*
X149754357Y-99026815D01*
X149751318Y-99018392D01*
X149751497Y-99016821D01*
X149818158Y-98655443D01*
X149823028Y-98647931D01*
X149825032Y-98646824D01*
X150307734Y-98439191D01*
X150316686Y-98439071D01*
X150320835Y-98441879D01*
G37*
G04 #@! TD.AperFunction*
G04 #@! TA.AperFunction,Conductor*
G36*
X158669915Y-98224949D02*
G01*
X159253462Y-98511786D01*
X159259374Y-98518510D01*
X159260000Y-98522285D01*
X159260000Y-98758134D01*
X159256573Y-98766407D01*
X159254007Y-98768348D01*
X158670119Y-99094576D01*
X158661225Y-99095620D01*
X158658932Y-99094699D01*
X157858496Y-98670336D01*
X157852791Y-98663433D01*
X157853639Y-98654519D01*
X157858493Y-98649664D01*
X158659282Y-98225114D01*
X158668195Y-98224267D01*
X158669915Y-98224949D01*
G37*
G04 #@! TD.AperFunction*
G04 #@! TA.AperFunction,Conductor*
G36*
X136860889Y-112185206D02*
G01*
X137661503Y-112609662D01*
X137667208Y-112616565D01*
X137666360Y-112625479D01*
X137661503Y-112630336D01*
X136860894Y-113054791D01*
X136851980Y-113055639D01*
X136849977Y-113054814D01*
X136537390Y-112890665D01*
X136266260Y-112748287D01*
X136260529Y-112741406D01*
X136260000Y-112737928D01*
X136260000Y-112502071D01*
X136263427Y-112493798D01*
X136266256Y-112491714D01*
X136849977Y-112185185D01*
X136858892Y-112184374D01*
X136860889Y-112185206D01*
G37*
G04 #@! TD.AperFunction*
G04 #@! TA.AperFunction,Conductor*
G36*
X165400005Y-91937992D02*
G01*
X165883395Y-92171805D01*
X165889350Y-92178493D01*
X165890000Y-92182338D01*
X165890000Y-92417661D01*
X165886573Y-92425934D01*
X165883395Y-92428194D01*
X165400005Y-92662007D01*
X165391065Y-92662524D01*
X165386840Y-92659945D01*
X165017892Y-92308471D01*
X165014265Y-92300284D01*
X165017491Y-92291930D01*
X165017892Y-92291529D01*
X165386841Y-91940053D01*
X165395194Y-91936828D01*
X165400005Y-91937992D01*
G37*
G04 #@! TD.AperFunction*
G04 #@! TA.AperFunction,Conductor*
G36*
X165750234Y-98774263D02*
G01*
X166173070Y-98940568D01*
X166202884Y-98952294D01*
X166209329Y-98958511D01*
X166209490Y-98967464D01*
X166209424Y-98967629D01*
X166082686Y-99276039D01*
X166076372Y-99282389D01*
X166076316Y-99282412D01*
X165768018Y-99409258D01*
X165759063Y-99409237D01*
X165752746Y-99402890D01*
X165752537Y-99402342D01*
X165604531Y-98984208D01*
X165605000Y-98975268D01*
X165605826Y-98973815D01*
X165736226Y-98778650D01*
X165743670Y-98773677D01*
X165750234Y-98774263D01*
G37*
G04 #@! TD.AperFunction*
G04 #@! TA.AperFunction,Conductor*
G36*
X145343159Y-88120054D02*
G01*
X145712107Y-88471529D01*
X145715734Y-88479716D01*
X145712508Y-88488070D01*
X145712107Y-88488471D01*
X145343159Y-88839945D01*
X145334805Y-88843171D01*
X145329994Y-88842007D01*
X144846605Y-88608194D01*
X144840650Y-88601506D01*
X144840000Y-88597661D01*
X144840000Y-88362338D01*
X144843427Y-88354065D01*
X144846605Y-88351805D01*
X145329994Y-88117992D01*
X145338934Y-88117475D01*
X145343159Y-88120054D01*
G37*
G04 #@! TD.AperFunction*
G04 #@! TA.AperFunction,Conductor*
G36*
X165400005Y-100827992D02*
G01*
X165883395Y-101061805D01*
X165889350Y-101068493D01*
X165890000Y-101072338D01*
X165890000Y-101307661D01*
X165886573Y-101315934D01*
X165883395Y-101318194D01*
X165400005Y-101552007D01*
X165391065Y-101552524D01*
X165386840Y-101549945D01*
X165017892Y-101198471D01*
X165014265Y-101190284D01*
X165017491Y-101181930D01*
X165017892Y-101181529D01*
X165386841Y-100830053D01*
X165395194Y-100826828D01*
X165400005Y-100827992D01*
G37*
G04 #@! TD.AperFunction*
G04 #@! TA.AperFunction,Conductor*
G36*
X119790005Y-107177992D02*
G01*
X120273395Y-107411805D01*
X120279350Y-107418493D01*
X120280000Y-107422338D01*
X120280000Y-107657661D01*
X120276573Y-107665934D01*
X120273395Y-107668194D01*
X119790005Y-107902007D01*
X119781065Y-107902524D01*
X119776840Y-107899945D01*
X119407892Y-107548471D01*
X119404265Y-107540284D01*
X119407491Y-107531930D01*
X119407892Y-107531529D01*
X119776841Y-107180053D01*
X119785194Y-107176828D01*
X119790005Y-107177992D01*
G37*
G04 #@! TD.AperFunction*
G04 #@! TA.AperFunction,Conductor*
G36*
X160533159Y-112250054D02*
G01*
X160902107Y-112601528D01*
X160905734Y-112609715D01*
X160902508Y-112618069D01*
X160902107Y-112618470D01*
X160533159Y-112969945D01*
X160524805Y-112973171D01*
X160519994Y-112972007D01*
X160036605Y-112738194D01*
X160030650Y-112731506D01*
X160030000Y-112727661D01*
X160030000Y-112492338D01*
X160033427Y-112484065D01*
X160036605Y-112481805D01*
X160519994Y-112247992D01*
X160528934Y-112247475D01*
X160533159Y-112250054D01*
G37*
G04 #@! TD.AperFunction*
G04 #@! TA.AperFunction,Conductor*
G36*
X136860889Y-104565206D02*
G01*
X137661503Y-104989662D01*
X137667208Y-104996565D01*
X137666360Y-105005479D01*
X137661503Y-105010336D01*
X136860894Y-105434791D01*
X136851980Y-105435639D01*
X136849977Y-105434814D01*
X136537390Y-105270665D01*
X136266260Y-105128287D01*
X136260529Y-105121406D01*
X136260000Y-105117928D01*
X136260000Y-104882071D01*
X136263427Y-104873798D01*
X136266256Y-104871714D01*
X136849977Y-104565185D01*
X136858892Y-104564374D01*
X136860889Y-104565206D01*
G37*
G04 #@! TD.AperFunction*
G04 #@! TA.AperFunction,Conductor*
G36*
X128259915Y-95684949D02*
G01*
X128843462Y-95971786D01*
X128849374Y-95978510D01*
X128850000Y-95982285D01*
X128850000Y-96218134D01*
X128846573Y-96226407D01*
X128844007Y-96228348D01*
X128260119Y-96554576D01*
X128251225Y-96555620D01*
X128248932Y-96554699D01*
X128025523Y-96436255D01*
X127448494Y-96130334D01*
X127442790Y-96123433D01*
X127443638Y-96114519D01*
X127448491Y-96109665D01*
X128249282Y-95685114D01*
X128258195Y-95684267D01*
X128259915Y-95684949D01*
G37*
G04 #@! TD.AperFunction*
G04 #@! TA.AperFunction,Conductor*
G36*
X135061139Y-98330203D02*
G01*
X135516633Y-98635664D01*
X135521595Y-98643118D01*
X135520925Y-98649858D01*
X135430980Y-98867013D01*
X135424649Y-98873345D01*
X135423829Y-98873650D01*
X134999369Y-99013345D01*
X134990439Y-99012676D01*
X134987636Y-99010697D01*
X134619223Y-98659295D01*
X134615601Y-98651105D01*
X134618832Y-98642754D01*
X134620409Y-98641372D01*
X135047741Y-98330458D01*
X135056444Y-98328363D01*
X135061139Y-98330203D01*
G37*
G04 #@! TD.AperFunction*
G04 #@! TA.AperFunction,Conductor*
G36*
X165400005Y-104637992D02*
G01*
X165883395Y-104871805D01*
X165889350Y-104878493D01*
X165890000Y-104882338D01*
X165890000Y-105117661D01*
X165886573Y-105125934D01*
X165883395Y-105128194D01*
X165400005Y-105362007D01*
X165391065Y-105362524D01*
X165386840Y-105359945D01*
X165017892Y-105008471D01*
X165014265Y-105000284D01*
X165017491Y-104991930D01*
X165017892Y-104991529D01*
X165386841Y-104640053D01*
X165395194Y-104636828D01*
X165400005Y-104637992D01*
G37*
G04 #@! TD.AperFunction*
G04 #@! TA.AperFunction,Conductor*
G36*
X150210005Y-89397992D02*
G01*
X150693394Y-89631805D01*
X150699349Y-89638493D01*
X150699999Y-89642338D01*
X150699999Y-89877661D01*
X150696572Y-89885934D01*
X150693394Y-89888194D01*
X150210005Y-90122007D01*
X150201065Y-90122524D01*
X150196840Y-90119945D01*
X149827892Y-89768470D01*
X149824265Y-89760283D01*
X149827491Y-89751929D01*
X149827868Y-89751551D01*
X150196841Y-89400053D01*
X150205194Y-89396828D01*
X150210005Y-89397992D01*
G37*
G04 #@! TD.AperFunction*
G04 #@! TA.AperFunction,Conductor*
G36*
X121660889Y-108375206D02*
G01*
X122258563Y-108692071D01*
X122461502Y-108799662D01*
X122467207Y-108806565D01*
X122466359Y-108815479D01*
X122461502Y-108820336D01*
X121660894Y-109244791D01*
X121651980Y-109245639D01*
X121649977Y-109244814D01*
X121337390Y-109080665D01*
X121066260Y-108938287D01*
X121060529Y-108931406D01*
X121060000Y-108927928D01*
X121060000Y-108692071D01*
X121063427Y-108683798D01*
X121066256Y-108681714D01*
X121649977Y-108375185D01*
X121658892Y-108374374D01*
X121660889Y-108375206D01*
G37*
G04 #@! TD.AperFunction*
G04 #@! TA.AperFunction,Conductor*
G36*
X165400005Y-108447992D02*
G01*
X165883395Y-108681805D01*
X165889350Y-108688493D01*
X165890000Y-108692338D01*
X165890000Y-108927661D01*
X165886573Y-108935934D01*
X165883395Y-108938194D01*
X165400005Y-109172007D01*
X165391065Y-109172524D01*
X165386840Y-109169945D01*
X165017892Y-108818471D01*
X165014265Y-108810284D01*
X165017491Y-108801930D01*
X165017892Y-108801529D01*
X165386841Y-108450053D01*
X165395194Y-108446828D01*
X165400005Y-108447992D01*
G37*
G04 #@! TD.AperFunction*
G04 #@! TA.AperFunction,Conductor*
G36*
X121660889Y-112185206D02*
G01*
X122258563Y-112502071D01*
X122461502Y-112609662D01*
X122467207Y-112616565D01*
X122466359Y-112625479D01*
X122461502Y-112630336D01*
X121660894Y-113054791D01*
X121651980Y-113055639D01*
X121649977Y-113054814D01*
X121337390Y-112890665D01*
X121066260Y-112748287D01*
X121060529Y-112741406D01*
X121060000Y-112737928D01*
X121060000Y-112502071D01*
X121063427Y-112493798D01*
X121066256Y-112491714D01*
X121649977Y-112185185D01*
X121658892Y-112184374D01*
X121660889Y-112185206D01*
G37*
G04 #@! TD.AperFunction*
G04 #@! TA.AperFunction,Conductor*
G36*
X145343159Y-89390054D02*
G01*
X145712107Y-89741529D01*
X145715734Y-89749716D01*
X145712508Y-89758070D01*
X145712107Y-89758471D01*
X145343159Y-90109945D01*
X145334805Y-90113171D01*
X145329994Y-90112007D01*
X144846605Y-89878194D01*
X144840650Y-89871506D01*
X144840000Y-89867661D01*
X144840000Y-89632338D01*
X144843427Y-89624065D01*
X144846605Y-89621805D01*
X145329994Y-89387992D01*
X145338934Y-89387475D01*
X145343159Y-89390054D01*
G37*
G04 #@! TD.AperFunction*
G04 #@! TA.AperFunction,Conductor*
G36*
X143459915Y-110924949D02*
G01*
X144043462Y-111211786D01*
X144049374Y-111218510D01*
X144050000Y-111222285D01*
X144050000Y-111458134D01*
X144046573Y-111466407D01*
X144044007Y-111468348D01*
X143460119Y-111794576D01*
X143451225Y-111795620D01*
X143448932Y-111794699D01*
X142648496Y-111370336D01*
X142642791Y-111363433D01*
X142643639Y-111354519D01*
X142648493Y-111349664D01*
X143449282Y-110925114D01*
X143458195Y-110924267D01*
X143459915Y-110924949D01*
G37*
G04 #@! TD.AperFunction*
G04 #@! TA.AperFunction,Conductor*
G36*
X150630348Y-98774527D02*
G01*
X151103208Y-98972157D01*
X151109520Y-98978509D01*
X151109518Y-98987399D01*
X150982686Y-99296039D01*
X150976372Y-99302389D01*
X150976316Y-99302412D01*
X150667737Y-99429374D01*
X150658782Y-99429353D01*
X150652465Y-99423006D01*
X150652357Y-99422732D01*
X150603916Y-99296039D01*
X150484734Y-98984328D01*
X150484980Y-98975380D01*
X150485928Y-98973662D01*
X150616112Y-98778822D01*
X150623556Y-98773848D01*
X150630348Y-98774527D01*
G37*
G04 #@! TD.AperFunction*
G04 #@! TA.AperFunction,Conductor*
G36*
X143459915Y-90604949D02*
G01*
X144043462Y-90891786D01*
X144049374Y-90898510D01*
X144050000Y-90902285D01*
X144050000Y-91138134D01*
X144046573Y-91146407D01*
X144044007Y-91148348D01*
X143460119Y-91474576D01*
X143451225Y-91475620D01*
X143448932Y-91474699D01*
X142648496Y-91050336D01*
X142642791Y-91043433D01*
X142643639Y-91034519D01*
X142648493Y-91029664D01*
X143449282Y-90605114D01*
X143458195Y-90604267D01*
X143459915Y-90604949D01*
G37*
G04 #@! TD.AperFunction*
G04 #@! TA.AperFunction,Conductor*
G36*
X143459915Y-108384949D02*
G01*
X144043462Y-108671786D01*
X144049374Y-108678510D01*
X144050000Y-108682285D01*
X144050000Y-108918134D01*
X144046573Y-108926407D01*
X144044007Y-108928348D01*
X143460119Y-109254576D01*
X143451225Y-109255620D01*
X143448932Y-109254699D01*
X142648496Y-108830336D01*
X142642791Y-108823433D01*
X142643639Y-108814519D01*
X142648493Y-108809664D01*
X143449282Y-108385114D01*
X143458195Y-108384267D01*
X143459915Y-108384949D01*
G37*
G04 #@! TD.AperFunction*
G04 #@! TA.AperFunction,Conductor*
G36*
X165400005Y-112257992D02*
G01*
X165883395Y-112491805D01*
X165889350Y-112498493D01*
X165890000Y-112502338D01*
X165890000Y-112737661D01*
X165886573Y-112745934D01*
X165883395Y-112748194D01*
X165400005Y-112982007D01*
X165391065Y-112982524D01*
X165386840Y-112979945D01*
X165017892Y-112628470D01*
X165014265Y-112620283D01*
X165017491Y-112611929D01*
X165017868Y-112611551D01*
X165386841Y-112260053D01*
X165395194Y-112256828D01*
X165400005Y-112257992D01*
G37*
G04 #@! TD.AperFunction*
G04 #@! TA.AperFunction,Conductor*
G36*
X128259915Y-96954949D02*
G01*
X128843462Y-97241786D01*
X128849374Y-97248510D01*
X128850000Y-97252285D01*
X128850000Y-97488134D01*
X128846573Y-97496407D01*
X128844007Y-97498348D01*
X128260119Y-97824576D01*
X128251225Y-97825620D01*
X128248932Y-97824699D01*
X128025523Y-97706255D01*
X127448494Y-97400334D01*
X127442790Y-97393433D01*
X127443638Y-97384519D01*
X127448491Y-97379665D01*
X128249282Y-96955114D01*
X128258195Y-96954267D01*
X128259915Y-96954949D01*
G37*
G04 #@! TD.AperFunction*
G04 #@! TA.AperFunction,Conductor*
G36*
X158669915Y-94414949D02*
G01*
X159253462Y-94701786D01*
X159259374Y-94708510D01*
X159260000Y-94712285D01*
X159260000Y-94948134D01*
X159256573Y-94956407D01*
X159254007Y-94958348D01*
X158670119Y-95284576D01*
X158661225Y-95285620D01*
X158658932Y-95284699D01*
X157858496Y-94860336D01*
X157852791Y-94853433D01*
X157853639Y-94844519D01*
X157858493Y-94839664D01*
X158659282Y-94415114D01*
X158668195Y-94414267D01*
X158669915Y-94414949D01*
G37*
G04 #@! TD.AperFunction*
G04 #@! TA.AperFunction,Conductor*
G36*
X121660889Y-107105206D02*
G01*
X122258563Y-107422071D01*
X122461502Y-107529662D01*
X122467207Y-107536565D01*
X122466359Y-107545479D01*
X122461502Y-107550336D01*
X121660894Y-107974791D01*
X121651980Y-107975639D01*
X121649977Y-107974814D01*
X121337390Y-107810665D01*
X121066260Y-107668287D01*
X121060529Y-107661406D01*
X121060000Y-107657928D01*
X121060000Y-107422071D01*
X121063427Y-107413798D01*
X121066256Y-107411714D01*
X121649977Y-107105185D01*
X121658892Y-107104374D01*
X121660889Y-107105206D01*
G37*
G04 #@! TD.AperFunction*
G04 #@! TA.AperFunction,Conductor*
G36*
X119790005Y-93207992D02*
G01*
X120273395Y-93441805D01*
X120279350Y-93448493D01*
X120280000Y-93452338D01*
X120280000Y-93687661D01*
X120276573Y-93695934D01*
X120273395Y-93698194D01*
X119790005Y-93932007D01*
X119781065Y-93932524D01*
X119776840Y-93929945D01*
X119407892Y-93578471D01*
X119404265Y-93570284D01*
X119407491Y-93561930D01*
X119407892Y-93561529D01*
X119776841Y-93210053D01*
X119785194Y-93206828D01*
X119790005Y-93207992D01*
G37*
G04 #@! TD.AperFunction*
G04 #@! TA.AperFunction,Conductor*
G36*
X121660889Y-93135206D02*
G01*
X122258563Y-93452071D01*
X122461502Y-93559662D01*
X122467207Y-93566565D01*
X122466359Y-93575479D01*
X122461502Y-93580336D01*
X121660894Y-94004791D01*
X121651980Y-94005639D01*
X121649977Y-94004814D01*
X121337390Y-93840665D01*
X121066260Y-93698287D01*
X121060529Y-93691406D01*
X121060000Y-93687928D01*
X121060000Y-93452071D01*
X121063427Y-93443798D01*
X121066256Y-93441714D01*
X121649977Y-93135185D01*
X121658892Y-93134374D01*
X121660889Y-93135206D01*
G37*
G04 #@! TD.AperFunction*
G04 #@! TA.AperFunction,Conductor*
G36*
X158670017Y-107115182D02*
G01*
X159253741Y-107421713D01*
X159259471Y-107428593D01*
X159260000Y-107432071D01*
X159260000Y-107667928D01*
X159256573Y-107676201D01*
X159253740Y-107678287D01*
X158670025Y-107984813D01*
X158661107Y-107985625D01*
X158659105Y-107984791D01*
X157858496Y-107560336D01*
X157852791Y-107553433D01*
X157853639Y-107544519D01*
X157858493Y-107539664D01*
X158659107Y-107115207D01*
X158668019Y-107114360D01*
X158670017Y-107115182D01*
G37*
G04 #@! TD.AperFunction*
G04 #@! TA.AperFunction,Conductor*
G36*
X119790005Y-97017992D02*
G01*
X120273395Y-97251805D01*
X120279350Y-97258493D01*
X120280000Y-97262338D01*
X120280000Y-97497661D01*
X120276573Y-97505934D01*
X120273395Y-97508194D01*
X119790005Y-97742007D01*
X119781065Y-97742524D01*
X119776840Y-97739945D01*
X119407892Y-97388471D01*
X119404265Y-97380284D01*
X119407491Y-97371930D01*
X119407892Y-97371529D01*
X119776841Y-97020053D01*
X119785194Y-97016828D01*
X119790005Y-97017992D01*
G37*
G04 #@! TD.AperFunction*
G04 #@! TA.AperFunction,Conductor*
G36*
X167270889Y-91865206D02*
G01*
X168071503Y-92289662D01*
X168077208Y-92296565D01*
X168076360Y-92305479D01*
X168071503Y-92310336D01*
X167270894Y-92734791D01*
X167261980Y-92735639D01*
X167259977Y-92734814D01*
X166947390Y-92570665D01*
X166676260Y-92428287D01*
X166670529Y-92421406D01*
X166670000Y-92417928D01*
X166670000Y-92182071D01*
X166673427Y-92173798D01*
X166676256Y-92171714D01*
X167259977Y-91865185D01*
X167268892Y-91864374D01*
X167270889Y-91865206D01*
G37*
G04 #@! TD.AperFunction*
G04 #@! TA.AperFunction,Conductor*
G36*
X121660889Y-95675206D02*
G01*
X122258563Y-95992071D01*
X122461502Y-96099662D01*
X122467207Y-96106565D01*
X122466359Y-96115479D01*
X122461502Y-96120336D01*
X121660894Y-96544791D01*
X121651980Y-96545639D01*
X121649977Y-96544814D01*
X121337390Y-96380665D01*
X121066260Y-96238287D01*
X121060529Y-96231406D01*
X121060000Y-96227928D01*
X121060000Y-95992071D01*
X121063427Y-95983798D01*
X121066256Y-95981714D01*
X121649977Y-95675185D01*
X121658892Y-95674374D01*
X121660889Y-95675206D01*
G37*
G04 #@! TD.AperFunction*
G04 #@! TA.AperFunction,Conductor*
G36*
X145343362Y-98280247D02*
G01*
X145712107Y-98631529D01*
X145715734Y-98639716D01*
X145712508Y-98648070D01*
X145712107Y-98648471D01*
X145342953Y-99000142D01*
X145334599Y-99003368D01*
X145330140Y-99002366D01*
X144846957Y-98788085D01*
X144840783Y-98781599D01*
X144840000Y-98777390D01*
X144840000Y-98542079D01*
X144843427Y-98533806D01*
X144846270Y-98531715D01*
X145329863Y-98278353D01*
X145338781Y-98277550D01*
X145343362Y-98280247D01*
G37*
G04 #@! TD.AperFunction*
G04 #@! TA.AperFunction,Conductor*
G36*
X119790005Y-104637992D02*
G01*
X120273395Y-104871805D01*
X120279350Y-104878493D01*
X120280000Y-104882338D01*
X120280000Y-105117661D01*
X120276573Y-105125934D01*
X120273395Y-105128194D01*
X119790005Y-105362007D01*
X119781065Y-105362524D01*
X119776840Y-105359945D01*
X119407892Y-105008471D01*
X119404265Y-105000284D01*
X119407491Y-104991930D01*
X119407892Y-104991529D01*
X119776841Y-104640053D01*
X119785194Y-104636828D01*
X119790005Y-104637992D01*
G37*
G04 #@! TD.AperFunction*
G04 #@! TA.AperFunction,Conductor*
G36*
X136860889Y-109645206D02*
G01*
X137661503Y-110069662D01*
X137667208Y-110076565D01*
X137666360Y-110085479D01*
X137661503Y-110090336D01*
X136860894Y-110514791D01*
X136851980Y-110515639D01*
X136849977Y-110514814D01*
X136537390Y-110350665D01*
X136266260Y-110208287D01*
X136260529Y-110201406D01*
X136260000Y-110197928D01*
X136260000Y-109962071D01*
X136263427Y-109953798D01*
X136266256Y-109951714D01*
X136849977Y-109645185D01*
X136858892Y-109644374D01*
X136860889Y-109645206D01*
G37*
G04 #@! TD.AperFunction*
G04 #@! TA.AperFunction,Conductor*
G36*
X150210005Y-93207992D02*
G01*
X150693394Y-93441805D01*
X150699349Y-93448493D01*
X150699999Y-93452338D01*
X150699999Y-93687661D01*
X150696572Y-93695934D01*
X150693394Y-93698194D01*
X150210005Y-93932007D01*
X150201065Y-93932524D01*
X150196840Y-93929945D01*
X149827892Y-93578471D01*
X149824265Y-93570284D01*
X149827491Y-93561930D01*
X149827892Y-93561529D01*
X150196841Y-93210053D01*
X150205194Y-93206828D01*
X150210005Y-93207992D01*
G37*
G04 #@! TD.AperFunction*
G04 #@! TA.AperFunction,Conductor*
G36*
X145343159Y-108440054D02*
G01*
X145712107Y-108791529D01*
X145715734Y-108799716D01*
X145712508Y-108808070D01*
X145712107Y-108808471D01*
X145343159Y-109159945D01*
X145334805Y-109163171D01*
X145329994Y-109162007D01*
X144846605Y-108928194D01*
X144840650Y-108921506D01*
X144840000Y-108917661D01*
X144840000Y-108682338D01*
X144843427Y-108674065D01*
X144846605Y-108671805D01*
X145329994Y-108437992D01*
X145338934Y-108437475D01*
X145343159Y-108440054D01*
G37*
G04 #@! TD.AperFunction*
G04 #@! TA.AperFunction,Conductor*
G36*
X113059915Y-90604949D02*
G01*
X113643462Y-90891786D01*
X113649374Y-90898510D01*
X113650000Y-90902285D01*
X113650000Y-91138134D01*
X113646573Y-91146407D01*
X113644007Y-91148348D01*
X113060119Y-91474576D01*
X113051225Y-91475620D01*
X113048932Y-91474699D01*
X112248496Y-91050336D01*
X112242791Y-91043433D01*
X112243639Y-91034519D01*
X112248493Y-91029664D01*
X113049282Y-90605114D01*
X113058195Y-90604267D01*
X113059915Y-90604949D01*
G37*
G04 #@! TD.AperFunction*
G04 #@! TA.AperFunction,Conductor*
G36*
X160533362Y-107170247D02*
G01*
X160902107Y-107521529D01*
X160905734Y-107529716D01*
X160902508Y-107538070D01*
X160902107Y-107538471D01*
X160532953Y-107890142D01*
X160524599Y-107893368D01*
X160520140Y-107892366D01*
X160036957Y-107678085D01*
X160030783Y-107671599D01*
X160030000Y-107667390D01*
X160030000Y-107432079D01*
X160033427Y-107423806D01*
X160036270Y-107421715D01*
X160519863Y-107168353D01*
X160528781Y-107167550D01*
X160533362Y-107170247D01*
G37*
G04 #@! TD.AperFunction*
G04 #@! TA.AperFunction,Conductor*
G36*
X113059915Y-88064949D02*
G01*
X113643462Y-88351786D01*
X113649374Y-88358510D01*
X113650000Y-88362285D01*
X113650000Y-88598134D01*
X113646573Y-88606407D01*
X113644007Y-88608348D01*
X113060119Y-88934576D01*
X113051225Y-88935620D01*
X113048932Y-88934699D01*
X112248496Y-88510336D01*
X112242791Y-88503433D01*
X112243639Y-88494519D01*
X112248493Y-88489664D01*
X113049282Y-88065114D01*
X113058195Y-88064267D01*
X113059915Y-88064949D01*
G37*
G04 #@! TD.AperFunction*
G04 #@! TA.AperFunction,Conductor*
G36*
X135000005Y-88127992D02*
G01*
X135483395Y-88361805D01*
X135489350Y-88368493D01*
X135490000Y-88372338D01*
X135490000Y-88607661D01*
X135486573Y-88615934D01*
X135483395Y-88618194D01*
X135000005Y-88852007D01*
X134991065Y-88852524D01*
X134986840Y-88849945D01*
X134617892Y-88498471D01*
X134614265Y-88490284D01*
X134617491Y-88481930D01*
X134617892Y-88481529D01*
X134986841Y-88130053D01*
X134995194Y-88126828D01*
X135000005Y-88127992D01*
G37*
G04 #@! TD.AperFunction*
G04 #@! TA.AperFunction,Conductor*
G36*
X165400005Y-107177992D02*
G01*
X165883395Y-107411805D01*
X165889350Y-107418493D01*
X165890000Y-107422338D01*
X165890000Y-107657661D01*
X165886573Y-107665934D01*
X165883395Y-107668194D01*
X165400005Y-107902007D01*
X165391065Y-107902524D01*
X165386840Y-107899945D01*
X165017892Y-107548471D01*
X165014265Y-107540284D01*
X165017491Y-107531930D01*
X165017892Y-107531529D01*
X165386841Y-107180053D01*
X165395194Y-107176828D01*
X165400005Y-107177992D01*
G37*
G04 #@! TD.AperFunction*
G04 #@! TA.AperFunction,Conductor*
G36*
X160533159Y-105900054D02*
G01*
X160902107Y-106251529D01*
X160905734Y-106259716D01*
X160902508Y-106268070D01*
X160902107Y-106268471D01*
X160533159Y-106619945D01*
X160524805Y-106623171D01*
X160519994Y-106622007D01*
X160036605Y-106388194D01*
X160030650Y-106381506D01*
X160030000Y-106377661D01*
X160030000Y-106142338D01*
X160033427Y-106134065D01*
X160036605Y-106131805D01*
X160519994Y-105897992D01*
X160528934Y-105897475D01*
X160533159Y-105900054D01*
G37*
G04 #@! TD.AperFunction*
G04 #@! TA.AperFunction,Conductor*
G36*
X160533159Y-89390054D02*
G01*
X160902107Y-89741529D01*
X160905734Y-89749716D01*
X160902508Y-89758070D01*
X160902107Y-89758471D01*
X160533159Y-90109945D01*
X160524805Y-90113171D01*
X160519994Y-90112007D01*
X160036605Y-89878194D01*
X160030650Y-89871506D01*
X160030000Y-89867661D01*
X160030000Y-89632338D01*
X160033427Y-89624065D01*
X160036605Y-89621805D01*
X160519994Y-89387992D01*
X160528934Y-89387475D01*
X160533159Y-89390054D01*
G37*
G04 #@! TD.AperFunction*
G04 #@! TA.AperFunction,Conductor*
G36*
X113060017Y-107115182D02*
G01*
X113643741Y-107421713D01*
X113649471Y-107428593D01*
X113650000Y-107432071D01*
X113650000Y-107667928D01*
X113646573Y-107676201D01*
X113643740Y-107678287D01*
X113060025Y-107984813D01*
X113051107Y-107985625D01*
X113049105Y-107984791D01*
X112248496Y-107560336D01*
X112242791Y-107553433D01*
X112243639Y-107544519D01*
X112248493Y-107539664D01*
X113049107Y-107115207D01*
X113058019Y-107114360D01*
X113060017Y-107115182D01*
G37*
G04 #@! TD.AperFunction*
G04 #@! TA.AperFunction,Conductor*
G36*
X143459915Y-88064949D02*
G01*
X144043462Y-88351786D01*
X144049374Y-88358510D01*
X144050000Y-88362285D01*
X144050000Y-88598134D01*
X144046573Y-88606407D01*
X144044007Y-88608348D01*
X143460119Y-88934576D01*
X143451225Y-88935620D01*
X143448932Y-88934699D01*
X142648496Y-88510336D01*
X142642791Y-88503433D01*
X142643639Y-88494519D01*
X142648493Y-88489664D01*
X143449282Y-88065114D01*
X143458195Y-88064267D01*
X143459915Y-88064949D01*
G37*
G04 #@! TD.AperFunction*
G04 #@! TA.AperFunction,Conductor*
G36*
X152060889Y-96945206D02*
G01*
X152861503Y-97369662D01*
X152867208Y-97376565D01*
X152866360Y-97385479D01*
X152861503Y-97390336D01*
X152060894Y-97814791D01*
X152051980Y-97815639D01*
X152049977Y-97814814D01*
X151737390Y-97650665D01*
X151466260Y-97508287D01*
X151460529Y-97501406D01*
X151460000Y-97497928D01*
X151460000Y-97262071D01*
X151463427Y-97253798D01*
X151466256Y-97251714D01*
X152049977Y-96945185D01*
X152058892Y-96944374D01*
X152060889Y-96945206D01*
G37*
G04 #@! TD.AperFunction*
G04 #@! TA.AperFunction,Conductor*
G36*
X143459915Y-89334949D02*
G01*
X144043462Y-89621786D01*
X144049374Y-89628510D01*
X144050000Y-89632285D01*
X144050000Y-89868134D01*
X144046573Y-89876407D01*
X144044007Y-89878348D01*
X143460119Y-90204576D01*
X143451225Y-90205620D01*
X143448932Y-90204699D01*
X142648496Y-89780336D01*
X142642791Y-89773433D01*
X142643639Y-89764519D01*
X142648493Y-89759664D01*
X143449282Y-89335114D01*
X143458195Y-89334267D01*
X143459915Y-89334949D01*
G37*
G04 #@! TD.AperFunction*
G04 #@! TA.AperFunction,Conductor*
G36*
X143459915Y-93144949D02*
G01*
X144043462Y-93431786D01*
X144049374Y-93438510D01*
X144050000Y-93442285D01*
X144050000Y-93678134D01*
X144046573Y-93686407D01*
X144044007Y-93688348D01*
X143460119Y-94014576D01*
X143451225Y-94015620D01*
X143448932Y-94014699D01*
X142648496Y-93590336D01*
X142642791Y-93583433D01*
X142643639Y-93574519D01*
X142648493Y-93569664D01*
X143449282Y-93145114D01*
X143458195Y-93144267D01*
X143459915Y-93144949D01*
G37*
G04 #@! TD.AperFunction*
G04 #@! TA.AperFunction,Conductor*
G36*
X119790005Y-88127992D02*
G01*
X120273395Y-88361805D01*
X120279350Y-88368493D01*
X120280000Y-88372338D01*
X120280000Y-88607661D01*
X120276573Y-88615934D01*
X120273395Y-88618194D01*
X119790005Y-88852007D01*
X119781065Y-88852524D01*
X119776840Y-88849945D01*
X119407892Y-88498471D01*
X119404265Y-88490284D01*
X119407491Y-88481930D01*
X119407892Y-88481529D01*
X119776841Y-88130053D01*
X119785194Y-88126828D01*
X119790005Y-88127992D01*
G37*
G04 #@! TD.AperFunction*
G04 #@! TA.AperFunction,Conductor*
G36*
X113059915Y-105844949D02*
G01*
X113643462Y-106131786D01*
X113649374Y-106138510D01*
X113650000Y-106142285D01*
X113650000Y-106378134D01*
X113646573Y-106386407D01*
X113644007Y-106388348D01*
X113060119Y-106714576D01*
X113051225Y-106715620D01*
X113048932Y-106714699D01*
X112248496Y-106290336D01*
X112242791Y-106283433D01*
X112243639Y-106274519D01*
X112248493Y-106269664D01*
X113049282Y-105845114D01*
X113058195Y-105844267D01*
X113059915Y-105844949D01*
G37*
G04 #@! TD.AperFunction*
G04 #@! TA.AperFunction,Conductor*
G36*
X128259915Y-108384949D02*
G01*
X128843462Y-108671786D01*
X128849374Y-108678510D01*
X128850000Y-108682285D01*
X128850000Y-108918134D01*
X128846573Y-108926407D01*
X128844007Y-108928348D01*
X128260119Y-109254576D01*
X128251225Y-109255620D01*
X128248932Y-109254699D01*
X128025523Y-109136255D01*
X127448494Y-108830334D01*
X127442790Y-108823433D01*
X127443638Y-108814519D01*
X127448491Y-108809665D01*
X128249282Y-108385114D01*
X128258195Y-108384267D01*
X128259915Y-108384949D01*
G37*
G04 #@! TD.AperFunction*
G04 #@! TA.AperFunction,Conductor*
G36*
X150210005Y-110987992D02*
G01*
X150693394Y-111221805D01*
X150699349Y-111228493D01*
X150699999Y-111232338D01*
X150699999Y-111467661D01*
X150696572Y-111475934D01*
X150693394Y-111478194D01*
X150210005Y-111712007D01*
X150201065Y-111712524D01*
X150196840Y-111709945D01*
X149827892Y-111358470D01*
X149824265Y-111350283D01*
X149827491Y-111341929D01*
X149827868Y-111341551D01*
X150196841Y-110990053D01*
X150205194Y-110986828D01*
X150210005Y-110987992D01*
G37*
G04 #@! TD.AperFunction*
G04 #@! TA.AperFunction,Conductor*
G36*
X160533159Y-98280054D02*
G01*
X160902107Y-98631529D01*
X160905734Y-98639716D01*
X160902508Y-98648070D01*
X160902107Y-98648471D01*
X160533159Y-98999945D01*
X160524805Y-99003171D01*
X160519994Y-99002007D01*
X160036605Y-98768194D01*
X160030650Y-98761506D01*
X160030000Y-98757661D01*
X160030000Y-98522338D01*
X160033427Y-98514065D01*
X160036605Y-98511805D01*
X160519994Y-98277992D01*
X160528934Y-98277475D01*
X160533159Y-98280054D01*
G37*
G04 #@! TD.AperFunction*
G04 #@! TA.AperFunction,Conductor*
G36*
X114923159Y-105900054D02*
G01*
X115292107Y-106251529D01*
X115295734Y-106259716D01*
X115292508Y-106268070D01*
X115292107Y-106268471D01*
X114923159Y-106619945D01*
X114914805Y-106623171D01*
X114909994Y-106622007D01*
X114426605Y-106388194D01*
X114420650Y-106381506D01*
X114420000Y-106377661D01*
X114420000Y-106142338D01*
X114423427Y-106134065D01*
X114426605Y-106131805D01*
X114909994Y-105897992D01*
X114918934Y-105897475D01*
X114923159Y-105900054D01*
G37*
G04 #@! TD.AperFunction*
G04 #@! TA.AperFunction,Conductor*
G36*
X160533362Y-110980247D02*
G01*
X160902107Y-111331529D01*
X160905734Y-111339716D01*
X160902508Y-111348070D01*
X160902107Y-111348471D01*
X160532953Y-111700142D01*
X160524599Y-111703368D01*
X160520140Y-111702366D01*
X160036957Y-111488085D01*
X160030783Y-111481599D01*
X160030000Y-111477390D01*
X160030000Y-111242079D01*
X160033427Y-111233806D01*
X160036270Y-111231715D01*
X160519863Y-110978353D01*
X160528781Y-110977550D01*
X160533362Y-110980247D01*
G37*
G04 #@! TD.AperFunction*
G04 #@! TA.AperFunction,Conductor*
G36*
X135000005Y-109717992D02*
G01*
X135483395Y-109951805D01*
X135489350Y-109958493D01*
X135490000Y-109962338D01*
X135490000Y-110197661D01*
X135486573Y-110205934D01*
X135483395Y-110208194D01*
X135000005Y-110442007D01*
X134991065Y-110442524D01*
X134986840Y-110439945D01*
X134617892Y-110088471D01*
X134614265Y-110080284D01*
X134617491Y-110071930D01*
X134617892Y-110071529D01*
X134986841Y-109720053D01*
X134995194Y-109716828D01*
X135000005Y-109717992D01*
G37*
G04 #@! TD.AperFunction*
G04 #@! TA.AperFunction,Conductor*
G36*
X145343159Y-105900054D02*
G01*
X145712107Y-106251529D01*
X145715734Y-106259716D01*
X145712508Y-106268070D01*
X145712107Y-106268471D01*
X145343159Y-106619945D01*
X145334805Y-106623171D01*
X145329994Y-106622007D01*
X144846605Y-106388194D01*
X144840650Y-106381506D01*
X144840000Y-106377661D01*
X144840000Y-106142338D01*
X144843427Y-106134065D01*
X144846605Y-106131805D01*
X145329994Y-105897992D01*
X145338934Y-105897475D01*
X145343159Y-105900054D01*
G37*
G04 #@! TD.AperFunction*
G04 #@! TA.AperFunction,Conductor*
G36*
X119790005Y-102097992D02*
G01*
X120273395Y-102331805D01*
X120279350Y-102338493D01*
X120280000Y-102342338D01*
X120280000Y-102577661D01*
X120276573Y-102585934D01*
X120273395Y-102588194D01*
X119790005Y-102822007D01*
X119781065Y-102822524D01*
X119776840Y-102819945D01*
X119407892Y-102468471D01*
X119404265Y-102460284D01*
X119407491Y-102451930D01*
X119407892Y-102451529D01*
X119776841Y-102100053D01*
X119785194Y-102096828D01*
X119790005Y-102097992D01*
G37*
G04 #@! TD.AperFunction*
G04 #@! TA.AperFunction,Conductor*
G36*
X165400005Y-102097992D02*
G01*
X165883395Y-102331805D01*
X165889350Y-102338493D01*
X165890000Y-102342338D01*
X165890000Y-102577661D01*
X165886573Y-102585934D01*
X165883395Y-102588194D01*
X165400005Y-102822007D01*
X165391065Y-102822524D01*
X165386840Y-102819945D01*
X165017892Y-102468471D01*
X165014265Y-102460284D01*
X165017491Y-102451930D01*
X165017892Y-102451529D01*
X165386841Y-102100053D01*
X165395194Y-102096828D01*
X165400005Y-102097992D01*
G37*
G04 #@! TD.AperFunction*
G04 #@! TA.AperFunction,Conductor*
G36*
X113059915Y-112194949D02*
G01*
X113643462Y-112481786D01*
X113649374Y-112488510D01*
X113650000Y-112492285D01*
X113650000Y-112728134D01*
X113646573Y-112736407D01*
X113644007Y-112738348D01*
X113060119Y-113064576D01*
X113051225Y-113065620D01*
X113048932Y-113064699D01*
X112248496Y-112640336D01*
X112242791Y-112633433D01*
X112243639Y-112624519D01*
X112248493Y-112619664D01*
X113049282Y-112195114D01*
X113058195Y-112194267D01*
X113059915Y-112194949D01*
G37*
G04 #@! TD.AperFunction*
G04 #@! TA.AperFunction,Conductor*
G36*
X143459915Y-104574949D02*
G01*
X144043462Y-104861786D01*
X144049374Y-104868510D01*
X144050000Y-104872285D01*
X144050000Y-105108134D01*
X144046573Y-105116407D01*
X144044007Y-105118348D01*
X143460119Y-105444576D01*
X143451225Y-105445620D01*
X143448932Y-105444699D01*
X142648496Y-105020336D01*
X142642791Y-105013433D01*
X142643639Y-105004519D01*
X142648493Y-104999664D01*
X143449282Y-104575114D01*
X143458195Y-104574267D01*
X143459915Y-104574949D01*
G37*
G04 #@! TD.AperFunction*
G04 #@! TA.AperFunction,Conductor*
G36*
X150210005Y-102097992D02*
G01*
X150693394Y-102331805D01*
X150699349Y-102338493D01*
X150699999Y-102342338D01*
X150699999Y-102577661D01*
X150696572Y-102585934D01*
X150693394Y-102588194D01*
X150210005Y-102822007D01*
X150201065Y-102822524D01*
X150196840Y-102819945D01*
X149827892Y-102468471D01*
X149824265Y-102460284D01*
X149827491Y-102451930D01*
X149827892Y-102451529D01*
X150196841Y-102100053D01*
X150205194Y-102096828D01*
X150210005Y-102097992D01*
G37*
G04 #@! TD.AperFunction*
G04 #@! TA.AperFunction,Conductor*
G36*
X130133362Y-98280247D02*
G01*
X130502107Y-98631529D01*
X130505734Y-98639716D01*
X130502508Y-98648070D01*
X130502107Y-98648471D01*
X130132953Y-99000142D01*
X130124599Y-99003368D01*
X130120140Y-99002366D01*
X129636957Y-98788085D01*
X129630783Y-98781599D01*
X129630000Y-98777390D01*
X129630000Y-98542079D01*
X129633427Y-98533806D01*
X129636270Y-98531715D01*
X130119863Y-98278353D01*
X130128781Y-98277550D01*
X130133362Y-98280247D01*
G37*
G04 #@! TD.AperFunction*
G04 #@! TA.AperFunction,Conductor*
G36*
X165400005Y-109717992D02*
G01*
X165883395Y-109951805D01*
X165889350Y-109958493D01*
X165890000Y-109962338D01*
X165890000Y-110197661D01*
X165886573Y-110205934D01*
X165883395Y-110208194D01*
X165400005Y-110442007D01*
X165391065Y-110442524D01*
X165386840Y-110439945D01*
X165017892Y-110088471D01*
X165014265Y-110080284D01*
X165017491Y-110071930D01*
X165017892Y-110071529D01*
X165386841Y-109720053D01*
X165395194Y-109716828D01*
X165400005Y-109717992D01*
G37*
G04 #@! TD.AperFunction*
G04 #@! TA.AperFunction,Conductor*
G36*
X119790005Y-105907992D02*
G01*
X120273395Y-106141805D01*
X120279350Y-106148493D01*
X120280000Y-106152338D01*
X120280000Y-106387661D01*
X120276573Y-106395934D01*
X120273395Y-106398194D01*
X119790005Y-106632007D01*
X119781065Y-106632524D01*
X119776840Y-106629945D01*
X119407892Y-106278471D01*
X119404265Y-106270284D01*
X119407491Y-106261930D01*
X119407892Y-106261529D01*
X119776841Y-105910053D01*
X119785194Y-105906828D01*
X119790005Y-105907992D01*
G37*
G04 #@! TD.AperFunction*
G04 #@! TA.AperFunction,Conductor*
G36*
X165400005Y-90667992D02*
G01*
X165883395Y-90901805D01*
X165889350Y-90908493D01*
X165890000Y-90912338D01*
X165890000Y-91147661D01*
X165886573Y-91155934D01*
X165883395Y-91158194D01*
X165400005Y-91392007D01*
X165391065Y-91392524D01*
X165386840Y-91389945D01*
X165017892Y-91038471D01*
X165014265Y-91030284D01*
X165017491Y-91021930D01*
X165017892Y-91021529D01*
X165386841Y-90670053D01*
X165395194Y-90666828D01*
X165400005Y-90667992D01*
G37*
G04 #@! TD.AperFunction*
G04 #@! TA.AperFunction,Conductor*
G36*
X165400005Y-93207992D02*
G01*
X165883395Y-93441805D01*
X165889350Y-93448493D01*
X165890000Y-93452338D01*
X165890000Y-93687661D01*
X165886573Y-93695934D01*
X165883395Y-93698194D01*
X165400005Y-93932007D01*
X165391065Y-93932524D01*
X165386840Y-93929945D01*
X165017892Y-93578471D01*
X165014265Y-93570284D01*
X165017491Y-93561930D01*
X165017892Y-93561529D01*
X165386841Y-93210053D01*
X165395194Y-93206828D01*
X165400005Y-93207992D01*
G37*
G04 #@! TD.AperFunction*
G04 #@! TA.AperFunction,Conductor*
G36*
X145343362Y-97010247D02*
G01*
X145712107Y-97361529D01*
X145715734Y-97369716D01*
X145712508Y-97378070D01*
X145712107Y-97378471D01*
X145342953Y-97730142D01*
X145334599Y-97733368D01*
X145330140Y-97732366D01*
X144846957Y-97518085D01*
X144840783Y-97511599D01*
X144840000Y-97507390D01*
X144840000Y-97272079D01*
X144843427Y-97263806D01*
X144846270Y-97261715D01*
X145329863Y-97008353D01*
X145338781Y-97007550D01*
X145343362Y-97010247D01*
G37*
G04 #@! TD.AperFunction*
G04 #@! TA.AperFunction,Conductor*
G36*
X113059915Y-89334949D02*
G01*
X113643462Y-89621786D01*
X113649374Y-89628510D01*
X113650000Y-89632285D01*
X113650000Y-89868134D01*
X113646573Y-89876407D01*
X113644007Y-89878348D01*
X113060119Y-90204576D01*
X113051225Y-90205620D01*
X113048932Y-90204699D01*
X112248496Y-89780336D01*
X112242791Y-89773433D01*
X112243639Y-89764519D01*
X112248493Y-89759664D01*
X113049282Y-89335114D01*
X113058195Y-89334267D01*
X113059915Y-89334949D01*
G37*
G04 #@! TD.AperFunction*
G04 #@! TA.AperFunction,Conductor*
G36*
X152060889Y-109645206D02*
G01*
X152861503Y-110069662D01*
X152867208Y-110076565D01*
X152866360Y-110085479D01*
X152861503Y-110090336D01*
X152060894Y-110514791D01*
X152051980Y-110515639D01*
X152049977Y-110514814D01*
X151737390Y-110350665D01*
X151466260Y-110208287D01*
X151460529Y-110201406D01*
X151460000Y-110197928D01*
X151460000Y-109962071D01*
X151463427Y-109953798D01*
X151466256Y-109951714D01*
X152049977Y-109645185D01*
X152058892Y-109644374D01*
X152060889Y-109645206D01*
G37*
G04 #@! TD.AperFunction*
G04 #@! TA.AperFunction,Conductor*
G36*
X114923159Y-88120054D02*
G01*
X115292107Y-88471529D01*
X115295734Y-88479716D01*
X115292508Y-88488070D01*
X115292107Y-88488471D01*
X114923159Y-88839945D01*
X114914805Y-88843171D01*
X114909994Y-88842007D01*
X114426605Y-88608194D01*
X114420650Y-88601506D01*
X114420000Y-88597661D01*
X114420000Y-88362338D01*
X114423427Y-88354065D01*
X114426605Y-88351805D01*
X114909994Y-88117992D01*
X114918934Y-88117475D01*
X114923159Y-88120054D01*
G37*
G04 #@! TD.AperFunction*
G04 #@! TA.AperFunction,Conductor*
G36*
X145343159Y-104630054D02*
G01*
X145712107Y-104981529D01*
X145715734Y-104989716D01*
X145712508Y-104998070D01*
X145712107Y-104998471D01*
X145343159Y-105349945D01*
X145334805Y-105353171D01*
X145329994Y-105352007D01*
X144846605Y-105118194D01*
X144840650Y-105111506D01*
X144840000Y-105107661D01*
X144840000Y-104872338D01*
X144843427Y-104864065D01*
X144846605Y-104861805D01*
X145329994Y-104627992D01*
X145338934Y-104627475D01*
X145343159Y-104630054D01*
G37*
G04 #@! TD.AperFunction*
G04 #@! TA.AperFunction,Conductor*
G36*
X143459915Y-105844949D02*
G01*
X144043462Y-106131786D01*
X144049374Y-106138510D01*
X144050000Y-106142285D01*
X144050000Y-106378134D01*
X144046573Y-106386407D01*
X144044007Y-106388348D01*
X143460119Y-106714576D01*
X143451225Y-106715620D01*
X143448932Y-106714699D01*
X142648496Y-106290336D01*
X142642791Y-106283433D01*
X142643639Y-106274519D01*
X142648493Y-106269664D01*
X143449282Y-105845114D01*
X143458195Y-105844267D01*
X143459915Y-105844949D01*
G37*
G04 #@! TD.AperFunction*
G04 #@! TA.AperFunction,Conductor*
G36*
X130133159Y-88120054D02*
G01*
X130502107Y-88471529D01*
X130505734Y-88479716D01*
X130502508Y-88488070D01*
X130502107Y-88488471D01*
X130133159Y-88839945D01*
X130124805Y-88843171D01*
X130119994Y-88842007D01*
X129636605Y-88608194D01*
X129630650Y-88601506D01*
X129630000Y-88597661D01*
X129630000Y-88362338D01*
X129633427Y-88354065D01*
X129636605Y-88351805D01*
X130119994Y-88117992D01*
X130128934Y-88117475D01*
X130133159Y-88120054D01*
G37*
G04 #@! TD.AperFunction*
G04 #@! TA.AperFunction,Conductor*
G36*
X135000005Y-89397992D02*
G01*
X135483395Y-89631805D01*
X135489350Y-89638493D01*
X135490000Y-89642338D01*
X135490000Y-89877661D01*
X135486573Y-89885934D01*
X135483395Y-89888194D01*
X135000005Y-90122007D01*
X134991065Y-90122524D01*
X134986840Y-90119945D01*
X134617892Y-89768471D01*
X134614265Y-89760284D01*
X134617491Y-89751930D01*
X134617892Y-89751529D01*
X134986841Y-89400053D01*
X134995194Y-89396828D01*
X135000005Y-89397992D01*
G37*
G04 #@! TD.AperFunction*
G04 #@! TA.AperFunction,Conductor*
G36*
X113060017Y-100765182D02*
G01*
X113643741Y-101071713D01*
X113649471Y-101078593D01*
X113650000Y-101082071D01*
X113650000Y-101317928D01*
X113646573Y-101326201D01*
X113643740Y-101328287D01*
X113060025Y-101634813D01*
X113051107Y-101635625D01*
X113049105Y-101634791D01*
X112248496Y-101210336D01*
X112242791Y-101203433D01*
X112243639Y-101194519D01*
X112248493Y-101189664D01*
X113049107Y-100765207D01*
X113058019Y-100764360D01*
X113060017Y-100765182D01*
G37*
G04 #@! TD.AperFunction*
G04 #@! TA.AperFunction,Conductor*
G36*
X136860889Y-90595206D02*
G01*
X137661503Y-91019662D01*
X137667208Y-91026565D01*
X137666360Y-91035479D01*
X137661503Y-91040336D01*
X136860894Y-91464791D01*
X136851980Y-91465639D01*
X136849977Y-91464814D01*
X136537390Y-91300665D01*
X136266260Y-91158287D01*
X136260529Y-91151406D01*
X136260000Y-91147928D01*
X136260000Y-90912071D01*
X136263427Y-90903798D01*
X136266256Y-90901714D01*
X136849977Y-90595185D01*
X136858892Y-90594374D01*
X136860889Y-90595206D01*
G37*
G04 #@! TD.AperFunction*
G04 #@! TA.AperFunction,Conductor*
G36*
X136860889Y-93135206D02*
G01*
X137661503Y-93559662D01*
X137667208Y-93566565D01*
X137666360Y-93575479D01*
X137661503Y-93580336D01*
X136860894Y-94004791D01*
X136851980Y-94005639D01*
X136849977Y-94004814D01*
X136537390Y-93840665D01*
X136266260Y-93698287D01*
X136260529Y-93691406D01*
X136260000Y-93687928D01*
X136260000Y-93452071D01*
X136263427Y-93443798D01*
X136266256Y-93441714D01*
X136849977Y-93135185D01*
X136858892Y-93134374D01*
X136860889Y-93135206D01*
G37*
G04 #@! TD.AperFunction*
G04 #@! TA.AperFunction,Conductor*
G36*
X135000005Y-90667992D02*
G01*
X135483395Y-90901805D01*
X135489350Y-90908493D01*
X135490000Y-90912338D01*
X135490000Y-91147661D01*
X135486573Y-91155934D01*
X135483395Y-91158194D01*
X135000005Y-91392007D01*
X134991065Y-91392524D01*
X134986840Y-91389945D01*
X134617892Y-91038471D01*
X134614265Y-91030284D01*
X134617491Y-91021930D01*
X134617892Y-91021529D01*
X134986841Y-90670053D01*
X134995194Y-90666828D01*
X135000005Y-90667992D01*
G37*
G04 #@! TD.AperFunction*
G04 #@! TA.AperFunction,Conductor*
G36*
X135000005Y-91937992D02*
G01*
X135483395Y-92171805D01*
X135489350Y-92178493D01*
X135490000Y-92182338D01*
X135490000Y-92417661D01*
X135486573Y-92425934D01*
X135483395Y-92428194D01*
X135000005Y-92662007D01*
X134991065Y-92662524D01*
X134986840Y-92659945D01*
X134617892Y-92308471D01*
X134614265Y-92300284D01*
X134617491Y-92291930D01*
X134617892Y-92291529D01*
X134986841Y-91940053D01*
X134995194Y-91936828D01*
X135000005Y-91937992D01*
G37*
G04 #@! TD.AperFunction*
G04 #@! TA.AperFunction,Conductor*
G36*
X158669915Y-95684949D02*
G01*
X159253462Y-95971786D01*
X159259374Y-95978510D01*
X159260000Y-95982285D01*
X159260000Y-96218134D01*
X159256573Y-96226407D01*
X159254007Y-96228348D01*
X158670119Y-96554576D01*
X158661225Y-96555620D01*
X158658932Y-96554699D01*
X157858496Y-96130336D01*
X157852791Y-96123433D01*
X157853639Y-96114519D01*
X157858493Y-96109664D01*
X158659282Y-95685114D01*
X158668195Y-95684267D01*
X158669915Y-95684949D01*
G37*
G04 #@! TD.AperFunction*
G04 #@! TA.AperFunction,Conductor*
G36*
X150210005Y-108447992D02*
G01*
X150693394Y-108681805D01*
X150699349Y-108688493D01*
X150699999Y-108692338D01*
X150699999Y-108927661D01*
X150696572Y-108935934D01*
X150693394Y-108938194D01*
X150210005Y-109172007D01*
X150201065Y-109172524D01*
X150196840Y-109169945D01*
X149827892Y-108818471D01*
X149824265Y-108810284D01*
X149827491Y-108801930D01*
X149827892Y-108801529D01*
X150196841Y-108450053D01*
X150205194Y-108446828D01*
X150210005Y-108447992D01*
G37*
G04 #@! TD.AperFunction*
G04 #@! TA.AperFunction,Conductor*
G36*
X114923362Y-103360247D02*
G01*
X115292107Y-103711529D01*
X115295734Y-103719716D01*
X115292508Y-103728070D01*
X115292107Y-103728471D01*
X114922953Y-104080142D01*
X114914599Y-104083368D01*
X114910140Y-104082366D01*
X114426957Y-103868085D01*
X114420783Y-103861599D01*
X114420000Y-103857390D01*
X114420000Y-103622079D01*
X114423427Y-103613806D01*
X114426270Y-103611715D01*
X114909863Y-103358353D01*
X114918781Y-103357550D01*
X114923362Y-103360247D01*
G37*
G04 #@! TD.AperFunction*
G04 #@! TA.AperFunction,Conductor*
G36*
X121660889Y-104565206D02*
G01*
X122258563Y-104882071D01*
X122461502Y-104989662D01*
X122467207Y-104996565D01*
X122466359Y-105005479D01*
X122461502Y-105010336D01*
X121660894Y-105434791D01*
X121651980Y-105435639D01*
X121649977Y-105434814D01*
X121337390Y-105270665D01*
X121066260Y-105128287D01*
X121060529Y-105121406D01*
X121060000Y-105117928D01*
X121060000Y-104882071D01*
X121063427Y-104873798D01*
X121066256Y-104871714D01*
X121649977Y-104565185D01*
X121658892Y-104564374D01*
X121660889Y-104565206D01*
G37*
G04 #@! TD.AperFunction*
G04 #@! TA.AperFunction,Conductor*
G36*
X145343159Y-91930054D02*
G01*
X145712107Y-92281529D01*
X145715734Y-92289716D01*
X145712508Y-92298070D01*
X145712107Y-92298471D01*
X145343159Y-92649945D01*
X145334805Y-92653171D01*
X145329994Y-92652007D01*
X144846605Y-92418194D01*
X144840650Y-92411506D01*
X144840000Y-92407661D01*
X144840000Y-92172338D01*
X144843427Y-92164065D01*
X144846605Y-92161805D01*
X145329994Y-91927992D01*
X145338934Y-91927475D01*
X145343159Y-91930054D01*
G37*
G04 #@! TD.AperFunction*
G04 #@! TA.AperFunction,Conductor*
G36*
X158669915Y-93144949D02*
G01*
X159253462Y-93431786D01*
X159259374Y-93438510D01*
X159260000Y-93442285D01*
X159260000Y-93678134D01*
X159256573Y-93686407D01*
X159254007Y-93688348D01*
X158670119Y-94014576D01*
X158661225Y-94015620D01*
X158658932Y-94014699D01*
X157858496Y-93590336D01*
X157852791Y-93583433D01*
X157853639Y-93574519D01*
X157858493Y-93569664D01*
X158659282Y-93145114D01*
X158668195Y-93144267D01*
X158669915Y-93144949D01*
G37*
G04 #@! TD.AperFunction*
G04 #@! TA.AperFunction,Conductor*
G36*
X120723140Y-98892185D02*
G01*
X120729481Y-98898508D01*
X120729499Y-98907447D01*
X120602777Y-99215869D01*
X120596463Y-99222219D01*
X120596411Y-99222240D01*
X120286708Y-99349793D01*
X120277753Y-99349775D01*
X120271783Y-99344199D01*
X120043094Y-98885779D01*
X120042469Y-98876847D01*
X120042750Y-98876094D01*
X120131912Y-98660832D01*
X120138242Y-98654502D01*
X120147183Y-98654496D01*
X120723140Y-98892185D01*
G37*
G04 #@! TD.AperFunction*
G04 #@! TA.AperFunction,Conductor*
G36*
X113060017Y-103305182D02*
G01*
X113643741Y-103611713D01*
X113649471Y-103618593D01*
X113650000Y-103622071D01*
X113650000Y-103857928D01*
X113646573Y-103866201D01*
X113643740Y-103868287D01*
X113060025Y-104174813D01*
X113051107Y-104175625D01*
X113049105Y-104174791D01*
X112248496Y-103750336D01*
X112242791Y-103743433D01*
X112243639Y-103734519D01*
X112248493Y-103729664D01*
X113049107Y-103305207D01*
X113058019Y-103304360D01*
X113060017Y-103305182D01*
G37*
G04 #@! TD.AperFunction*
G04 #@! TA.AperFunction,Conductor*
G36*
X160533159Y-100820054D02*
G01*
X160902107Y-101171529D01*
X160905734Y-101179716D01*
X160902508Y-101188070D01*
X160902107Y-101188471D01*
X160533159Y-101539945D01*
X160524805Y-101543171D01*
X160519994Y-101542007D01*
X160036605Y-101308194D01*
X160030650Y-101301506D01*
X160030000Y-101297661D01*
X160030000Y-101062338D01*
X160033427Y-101054065D01*
X160036605Y-101051805D01*
X160519994Y-100817992D01*
X160528934Y-100817475D01*
X160533159Y-100820054D01*
G37*
G04 #@! TD.AperFunction*
G04 #@! TA.AperFunction,Conductor*
G36*
X114923159Y-91930054D02*
G01*
X115292107Y-92281529D01*
X115295734Y-92289716D01*
X115292508Y-92298070D01*
X115292107Y-92298471D01*
X114923159Y-92649945D01*
X114914805Y-92653171D01*
X114909994Y-92652007D01*
X114426605Y-92418194D01*
X114420650Y-92411506D01*
X114420000Y-92407661D01*
X114420000Y-92172338D01*
X114423427Y-92164065D01*
X114426605Y-92161805D01*
X114909994Y-91927992D01*
X114918934Y-91927475D01*
X114923159Y-91930054D01*
G37*
G04 #@! TD.AperFunction*
G04 #@! TA.AperFunction,Conductor*
G36*
X128259915Y-100764949D02*
G01*
X128843462Y-101051786D01*
X128849374Y-101058510D01*
X128850000Y-101062285D01*
X128850000Y-101298134D01*
X128846573Y-101306407D01*
X128844007Y-101308348D01*
X128260119Y-101634576D01*
X128251225Y-101635620D01*
X128248932Y-101634699D01*
X128025523Y-101516255D01*
X127448494Y-101210334D01*
X127442790Y-101203433D01*
X127443638Y-101194519D01*
X127448491Y-101189665D01*
X128249282Y-100765114D01*
X128258195Y-100764267D01*
X128259915Y-100764949D01*
G37*
G04 #@! TD.AperFunction*
G04 #@! TA.AperFunction,Conductor*
G36*
X119790005Y-100827992D02*
G01*
X120273395Y-101061805D01*
X120279350Y-101068493D01*
X120280000Y-101072338D01*
X120280000Y-101307661D01*
X120276573Y-101315934D01*
X120273395Y-101318194D01*
X119790005Y-101552007D01*
X119781065Y-101552524D01*
X119776840Y-101549945D01*
X119407892Y-101198471D01*
X119404265Y-101190284D01*
X119407491Y-101181930D01*
X119407892Y-101181529D01*
X119776841Y-100830053D01*
X119785194Y-100826828D01*
X119790005Y-100827992D01*
G37*
G04 #@! TD.AperFunction*
G04 #@! TA.AperFunction,Conductor*
G36*
X150210005Y-109717992D02*
G01*
X150693394Y-109951805D01*
X150699349Y-109958493D01*
X150699999Y-109962338D01*
X150699999Y-110197661D01*
X150696572Y-110205934D01*
X150693394Y-110208194D01*
X150210005Y-110442007D01*
X150201065Y-110442524D01*
X150196840Y-110439945D01*
X149827892Y-110088471D01*
X149824265Y-110080284D01*
X149827491Y-110071930D01*
X149827892Y-110071529D01*
X150196841Y-109720053D01*
X150205194Y-109716828D01*
X150210005Y-109717992D01*
G37*
G04 #@! TD.AperFunction*
G04 #@! TA.AperFunction,Conductor*
G36*
X130133362Y-109710247D02*
G01*
X130502107Y-110061529D01*
X130505734Y-110069716D01*
X130502508Y-110078070D01*
X130502107Y-110078471D01*
X130132953Y-110430142D01*
X130124599Y-110433368D01*
X130120140Y-110432366D01*
X129636957Y-110218085D01*
X129630783Y-110211599D01*
X129630000Y-110207390D01*
X129630000Y-109972079D01*
X129633427Y-109963806D01*
X129636270Y-109961715D01*
X130119863Y-109708353D01*
X130128781Y-109707550D01*
X130133362Y-109710247D01*
G37*
G04 #@! TD.AperFunction*
G04 #@! TA.AperFunction,Conductor*
G36*
X145343362Y-103360247D02*
G01*
X145712107Y-103711529D01*
X145715734Y-103719716D01*
X145712508Y-103728070D01*
X145712107Y-103728471D01*
X145342953Y-104080142D01*
X145334599Y-104083368D01*
X145330140Y-104082366D01*
X144846957Y-103868085D01*
X144840783Y-103861599D01*
X144840000Y-103857390D01*
X144840000Y-103622079D01*
X144843427Y-103613806D01*
X144846270Y-103611715D01*
X145329863Y-103358353D01*
X145338781Y-103357550D01*
X145343362Y-103360247D01*
G37*
G04 #@! TD.AperFunction*
G04 #@! TA.AperFunction,Conductor*
G36*
X150210005Y-97017992D02*
G01*
X150693394Y-97251805D01*
X150699349Y-97258493D01*
X150699999Y-97262338D01*
X150699999Y-97497661D01*
X150696572Y-97505934D01*
X150693394Y-97508194D01*
X150210005Y-97742007D01*
X150201065Y-97742524D01*
X150196840Y-97739945D01*
X149827892Y-97388471D01*
X149824265Y-97380284D01*
X149827491Y-97371930D01*
X149827892Y-97371529D01*
X150196841Y-97020053D01*
X150205194Y-97016828D01*
X150210005Y-97017992D01*
G37*
G04 #@! TD.AperFunction*
G04 #@! TA.AperFunction,Conductor*
G36*
X150210005Y-103367992D02*
G01*
X150693394Y-103601805D01*
X150699349Y-103608493D01*
X150699999Y-103612338D01*
X150699999Y-103847661D01*
X150696572Y-103855934D01*
X150693394Y-103858194D01*
X150210005Y-104092007D01*
X150201065Y-104092524D01*
X150196840Y-104089945D01*
X149827892Y-103738471D01*
X149824265Y-103730284D01*
X149827491Y-103721930D01*
X149827892Y-103721529D01*
X150196841Y-103370053D01*
X150205194Y-103366828D01*
X150210005Y-103367992D01*
G37*
G04 #@! TD.AperFunction*
G04 #@! TA.AperFunction,Conductor*
G36*
X130133362Y-90660247D02*
G01*
X130502107Y-91011529D01*
X130505734Y-91019716D01*
X130502508Y-91028070D01*
X130502107Y-91028471D01*
X130132953Y-91380142D01*
X130124599Y-91383368D01*
X130120140Y-91382366D01*
X129636957Y-91168085D01*
X129630783Y-91161599D01*
X129630000Y-91157390D01*
X129630000Y-90922079D01*
X129633427Y-90913806D01*
X129636270Y-90911715D01*
X130119863Y-90658353D01*
X130128781Y-90657550D01*
X130133362Y-90660247D01*
G37*
G04 #@! TD.AperFunction*
G04 #@! TA.AperFunction,Conductor*
G36*
X135000005Y-108447992D02*
G01*
X135483395Y-108681805D01*
X135489350Y-108688493D01*
X135490000Y-108692338D01*
X135490000Y-108927661D01*
X135486573Y-108935934D01*
X135483395Y-108938194D01*
X135000005Y-109172007D01*
X134991065Y-109172524D01*
X134986840Y-109169945D01*
X134617892Y-108818471D01*
X134614265Y-108810284D01*
X134617491Y-108801930D01*
X134617892Y-108801529D01*
X134986841Y-108450053D01*
X134995194Y-108446828D01*
X135000005Y-108447992D01*
G37*
G04 #@! TD.AperFunction*
G04 #@! TA.AperFunction,Conductor*
G36*
X143460017Y-109655182D02*
G01*
X144043741Y-109961713D01*
X144049471Y-109968593D01*
X144050000Y-109972071D01*
X144050000Y-110207928D01*
X144046573Y-110216201D01*
X144043740Y-110218287D01*
X143460025Y-110524813D01*
X143451107Y-110525625D01*
X143449105Y-110524791D01*
X142648496Y-110100336D01*
X142642791Y-110093433D01*
X142643639Y-110084519D01*
X142648493Y-110079664D01*
X143449107Y-109655207D01*
X143458019Y-109654360D01*
X143460017Y-109655182D01*
G37*
G04 #@! TD.AperFunction*
G04 #@! TA.AperFunction,Conductor*
G36*
X119790005Y-103367992D02*
G01*
X120273395Y-103601805D01*
X120279350Y-103608493D01*
X120280000Y-103612338D01*
X120280000Y-103847661D01*
X120276573Y-103855934D01*
X120273395Y-103858194D01*
X119790005Y-104092007D01*
X119781065Y-104092524D01*
X119776840Y-104089945D01*
X119407892Y-103738471D01*
X119404265Y-103730284D01*
X119407491Y-103721930D01*
X119407892Y-103721529D01*
X119776841Y-103370053D01*
X119785194Y-103366828D01*
X119790005Y-103367992D01*
G37*
G04 #@! TD.AperFunction*
G04 #@! TA.AperFunction,Conductor*
G36*
X119891693Y-98392906D02*
G01*
X120183708Y-98649307D01*
X120338170Y-98784931D01*
X120342125Y-98792965D01*
X120339242Y-98801443D01*
X120338883Y-98801833D01*
X120176961Y-98970203D01*
X120169949Y-98973706D01*
X119716404Y-99029216D01*
X119707776Y-99026820D01*
X119705923Y-99025005D01*
X119408241Y-98660286D01*
X119405665Y-98651712D01*
X119409908Y-98643826D01*
X119411753Y-98642592D01*
X119878431Y-98391396D01*
X119887338Y-98390493D01*
X119891693Y-98392906D01*
G37*
G04 #@! TD.AperFunction*
G04 #@! TA.AperFunction,Conductor*
G36*
X152060889Y-103295206D02*
G01*
X152861503Y-103719662D01*
X152867208Y-103726565D01*
X152866360Y-103735479D01*
X152861503Y-103740336D01*
X152060894Y-104164791D01*
X152051980Y-104165639D01*
X152049977Y-104164814D01*
X151737390Y-104000665D01*
X151466260Y-103858287D01*
X151460529Y-103851406D01*
X151460000Y-103847928D01*
X151460000Y-103612071D01*
X151463427Y-103603798D01*
X151466256Y-103601714D01*
X152049977Y-103295185D01*
X152058892Y-103294374D01*
X152060889Y-103295206D01*
G37*
G04 #@! TD.AperFunction*
G04 #@! TA.AperFunction,Conductor*
G36*
X167270889Y-93135206D02*
G01*
X168071503Y-93559662D01*
X168077208Y-93566565D01*
X168076360Y-93575479D01*
X168071503Y-93580336D01*
X167270894Y-94004791D01*
X167261980Y-94005639D01*
X167259977Y-94004814D01*
X166947390Y-93840665D01*
X166676260Y-93698287D01*
X166670529Y-93691406D01*
X166670000Y-93687928D01*
X166670000Y-93452071D01*
X166673427Y-93443798D01*
X166676256Y-93441714D01*
X167259977Y-93135185D01*
X167268892Y-93134374D01*
X167270889Y-93135206D01*
G37*
G04 #@! TD.AperFunction*
G04 #@! TA.AperFunction,Conductor*
G36*
X128260017Y-89335182D02*
G01*
X128843741Y-89641713D01*
X128849471Y-89648593D01*
X128850000Y-89652071D01*
X128850000Y-89887928D01*
X128846573Y-89896201D01*
X128843740Y-89898287D01*
X128260025Y-90204813D01*
X128251107Y-90205625D01*
X128249105Y-90204791D01*
X127448494Y-89780334D01*
X127442790Y-89773433D01*
X127443638Y-89764519D01*
X127448491Y-89759665D01*
X128249107Y-89335207D01*
X128258019Y-89334360D01*
X128260017Y-89335182D01*
G37*
G04 #@! TD.AperFunction*
G04 #@! TA.AperFunction,Conductor*
G36*
X167270889Y-96945206D02*
G01*
X168071503Y-97369662D01*
X168077208Y-97376565D01*
X168076360Y-97385479D01*
X168071503Y-97390336D01*
X167270894Y-97814791D01*
X167261980Y-97815639D01*
X167259977Y-97814814D01*
X166947390Y-97650665D01*
X166676260Y-97508287D01*
X166670529Y-97501406D01*
X166670000Y-97497928D01*
X166670000Y-97262071D01*
X166673427Y-97253798D01*
X166676256Y-97251714D01*
X167259977Y-96945185D01*
X167268892Y-96944374D01*
X167270889Y-96945206D01*
G37*
G04 #@! TD.AperFunction*
G04 #@! TA.AperFunction,Conductor*
G36*
X114923159Y-110980054D02*
G01*
X115292107Y-111331529D01*
X115295734Y-111339716D01*
X115292508Y-111348070D01*
X115292107Y-111348471D01*
X114923159Y-111699945D01*
X114914805Y-111703171D01*
X114909994Y-111702007D01*
X114426605Y-111468194D01*
X114420650Y-111461506D01*
X114420000Y-111457661D01*
X114420000Y-111222338D01*
X114423427Y-111214065D01*
X114426605Y-111211805D01*
X114909994Y-110977992D01*
X114918934Y-110977475D01*
X114923159Y-110980054D01*
G37*
G04 #@! TD.AperFunction*
G04 #@! TA.AperFunction,Conductor*
G36*
X150210005Y-88127992D02*
G01*
X150693394Y-88361805D01*
X150699349Y-88368493D01*
X150699999Y-88372338D01*
X150699999Y-88607661D01*
X150696572Y-88615934D01*
X150693394Y-88618194D01*
X150210005Y-88852007D01*
X150201065Y-88852524D01*
X150196840Y-88849945D01*
X149827892Y-88498471D01*
X149824265Y-88490284D01*
X149827491Y-88481930D01*
X149827892Y-88481529D01*
X150196841Y-88130053D01*
X150205194Y-88126828D01*
X150210005Y-88127992D01*
G37*
G04 #@! TD.AperFunction*
G04 #@! TA.AperFunction,Conductor*
G36*
X136860889Y-108375206D02*
G01*
X137661503Y-108799662D01*
X137667208Y-108806565D01*
X137666360Y-108815479D01*
X137661503Y-108820336D01*
X136860894Y-109244791D01*
X136851980Y-109245639D01*
X136849977Y-109244814D01*
X136537390Y-109080665D01*
X136266260Y-108938287D01*
X136260529Y-108931406D01*
X136260000Y-108927928D01*
X136260000Y-108692071D01*
X136263427Y-108683798D01*
X136266256Y-108681714D01*
X136849977Y-108375185D01*
X136858892Y-108374374D01*
X136860889Y-108375206D01*
G37*
G04 #@! TD.AperFunction*
G04 #@! TA.AperFunction,Conductor*
G36*
X158669915Y-103304949D02*
G01*
X159253462Y-103591786D01*
X159259374Y-103598510D01*
X159260000Y-103602285D01*
X159260000Y-103838134D01*
X159256573Y-103846407D01*
X159254007Y-103848348D01*
X158670119Y-104174576D01*
X158661225Y-104175620D01*
X158658932Y-104174699D01*
X157858496Y-103750336D01*
X157852791Y-103743433D01*
X157853639Y-103734519D01*
X157858493Y-103729664D01*
X158659282Y-103305114D01*
X158668195Y-103304267D01*
X158669915Y-103304949D01*
G37*
G04 #@! TD.AperFunction*
G04 #@! TA.AperFunction,Conductor*
G36*
X114923159Y-97010054D02*
G01*
X115292107Y-97361529D01*
X115295734Y-97369716D01*
X115292508Y-97378070D01*
X115292107Y-97378471D01*
X114923159Y-97729945D01*
X114914805Y-97733171D01*
X114909994Y-97732007D01*
X114426605Y-97498194D01*
X114420650Y-97491506D01*
X114420000Y-97487661D01*
X114420000Y-97252338D01*
X114423427Y-97244065D01*
X114426605Y-97241805D01*
X114909994Y-97007992D01*
X114918934Y-97007475D01*
X114923159Y-97010054D01*
G37*
G04 #@! TD.AperFunction*
G04 #@! TA.AperFunction,Conductor*
G36*
X114923159Y-89390054D02*
G01*
X115292107Y-89741529D01*
X115295734Y-89749716D01*
X115292508Y-89758070D01*
X115292107Y-89758471D01*
X114923159Y-90109945D01*
X114914805Y-90113171D01*
X114909994Y-90112007D01*
X114426605Y-89878194D01*
X114420650Y-89871506D01*
X114420000Y-89867661D01*
X114420000Y-89632338D01*
X114423427Y-89624065D01*
X114426605Y-89621805D01*
X114909994Y-89387992D01*
X114918934Y-89387475D01*
X114923159Y-89390054D01*
G37*
G04 #@! TD.AperFunction*
G04 #@! TA.AperFunction,Conductor*
G36*
X160533159Y-94470054D02*
G01*
X160902107Y-94821529D01*
X160905734Y-94829716D01*
X160902508Y-94838070D01*
X160902107Y-94838471D01*
X160533159Y-95189945D01*
X160524805Y-95193171D01*
X160519994Y-95192007D01*
X160036605Y-94958194D01*
X160030650Y-94951506D01*
X160030000Y-94947661D01*
X160030000Y-94712338D01*
X160033427Y-94704065D01*
X160036605Y-94701805D01*
X160519994Y-94467992D01*
X160528934Y-94467475D01*
X160533159Y-94470054D01*
G37*
G04 #@! TD.AperFunction*
G04 #@! TA.AperFunction,Conductor*
G36*
X165400005Y-89397992D02*
G01*
X165883395Y-89631805D01*
X165889350Y-89638493D01*
X165890000Y-89642338D01*
X165890000Y-89877661D01*
X165886573Y-89885934D01*
X165883395Y-89888194D01*
X165400005Y-90122007D01*
X165391065Y-90122524D01*
X165386840Y-90119945D01*
X165017892Y-89768471D01*
X165014265Y-89760284D01*
X165017491Y-89751930D01*
X165017892Y-89751529D01*
X165386841Y-89400053D01*
X165395194Y-89396828D01*
X165400005Y-89397992D01*
G37*
G04 #@! TD.AperFunction*
G04 #@! TA.AperFunction,Conductor*
G36*
X136860889Y-91865206D02*
G01*
X137661503Y-92289662D01*
X137667208Y-92296565D01*
X137666360Y-92305479D01*
X137661503Y-92310336D01*
X136860894Y-92734791D01*
X136851980Y-92735639D01*
X136849977Y-92734814D01*
X136537390Y-92570665D01*
X136266260Y-92428287D01*
X136260529Y-92421406D01*
X136260000Y-92417928D01*
X136260000Y-92182071D01*
X136263427Y-92173798D01*
X136266256Y-92171714D01*
X136849977Y-91865185D01*
X136858892Y-91864374D01*
X136860889Y-91865206D01*
G37*
G04 #@! TD.AperFunction*
G04 #@! TA.AperFunction,Conductor*
G36*
X114923159Y-102090054D02*
G01*
X115292107Y-102441529D01*
X115295734Y-102449716D01*
X115292508Y-102458070D01*
X115292107Y-102458471D01*
X114923159Y-102809945D01*
X114914805Y-102813171D01*
X114909994Y-102812007D01*
X114426605Y-102578194D01*
X114420650Y-102571506D01*
X114420000Y-102567661D01*
X114420000Y-102332338D01*
X114423427Y-102324065D01*
X114426605Y-102321805D01*
X114909994Y-102087992D01*
X114918934Y-102087475D01*
X114923159Y-102090054D01*
G37*
G04 #@! TD.AperFunction*
G04 #@! TA.AperFunction,Conductor*
G36*
X160533159Y-90660054D02*
G01*
X160902107Y-91011528D01*
X160905734Y-91019715D01*
X160902508Y-91028069D01*
X160902107Y-91028470D01*
X160533159Y-91379945D01*
X160524805Y-91383171D01*
X160519994Y-91382007D01*
X160036605Y-91148194D01*
X160030650Y-91141506D01*
X160030000Y-91137661D01*
X160030000Y-90902338D01*
X160033427Y-90894065D01*
X160036605Y-90891805D01*
X160519994Y-90657992D01*
X160528934Y-90657475D01*
X160533159Y-90660054D01*
G37*
G04 #@! TD.AperFunction*
G04 #@! TA.AperFunction,Conductor*
G36*
X114923362Y-107170247D02*
G01*
X115292107Y-107521529D01*
X115295734Y-107529716D01*
X115292508Y-107538070D01*
X115292107Y-107538471D01*
X114922953Y-107890142D01*
X114914599Y-107893368D01*
X114910140Y-107892366D01*
X114426957Y-107678085D01*
X114420783Y-107671599D01*
X114420000Y-107667390D01*
X114420000Y-107432079D01*
X114423427Y-107423806D01*
X114426270Y-107421715D01*
X114909863Y-107168353D01*
X114918781Y-107167550D01*
X114923362Y-107170247D01*
G37*
G04 #@! TD.AperFunction*
G04 #@! TA.AperFunction,Conductor*
G36*
X158669915Y-88064949D02*
G01*
X159253462Y-88351786D01*
X159259374Y-88358510D01*
X159260000Y-88362285D01*
X159260000Y-88598134D01*
X159256573Y-88606407D01*
X159254007Y-88608348D01*
X158670119Y-88934576D01*
X158661225Y-88935620D01*
X158658932Y-88934699D01*
X157858496Y-88510336D01*
X157852791Y-88503433D01*
X157853639Y-88494519D01*
X157858493Y-88489664D01*
X158659282Y-88065114D01*
X158668195Y-88064267D01*
X158669915Y-88064949D01*
G37*
G04 #@! TD.AperFunction*
G04 #@! TA.AperFunction,Conductor*
G36*
X165400005Y-88127992D02*
G01*
X165883395Y-88361805D01*
X165889350Y-88368493D01*
X165890000Y-88372338D01*
X165890000Y-88607661D01*
X165886573Y-88615934D01*
X165883395Y-88618194D01*
X165400005Y-88852007D01*
X165391065Y-88852524D01*
X165386840Y-88849945D01*
X165017892Y-88498471D01*
X165014265Y-88490284D01*
X165017491Y-88481930D01*
X165017892Y-88481529D01*
X165386841Y-88130053D01*
X165395194Y-88126828D01*
X165400005Y-88127992D01*
G37*
G04 #@! TD.AperFunction*
G04 #@! TA.AperFunction,Conductor*
G36*
X135000005Y-100827992D02*
G01*
X135483395Y-101061805D01*
X135489350Y-101068493D01*
X135490000Y-101072338D01*
X135490000Y-101307661D01*
X135486573Y-101315934D01*
X135483395Y-101318194D01*
X135000005Y-101552007D01*
X134991065Y-101552524D01*
X134986840Y-101549945D01*
X134617892Y-101198471D01*
X134614265Y-101190284D01*
X134617491Y-101181930D01*
X134617892Y-101181529D01*
X134986841Y-100830053D01*
X134995194Y-100826828D01*
X135000005Y-100827992D01*
G37*
G04 #@! TD.AperFunction*
G04 #@! TA.AperFunction,Conductor*
G36*
X130133159Y-103360054D02*
G01*
X130502107Y-103711529D01*
X130505734Y-103719716D01*
X130502508Y-103728070D01*
X130502107Y-103728471D01*
X130133159Y-104079945D01*
X130124805Y-104083171D01*
X130119994Y-104082007D01*
X129636605Y-103848194D01*
X129630650Y-103841506D01*
X129630000Y-103837661D01*
X129630000Y-103602338D01*
X129633427Y-103594065D01*
X129636605Y-103591805D01*
X130119994Y-103357992D01*
X130128934Y-103357475D01*
X130133159Y-103360054D01*
G37*
G04 #@! TD.AperFunction*
G04 #@! TA.AperFunction,Conductor*
G36*
X158670017Y-110925182D02*
G01*
X159253741Y-111231713D01*
X159259471Y-111238593D01*
X159260000Y-111242071D01*
X159260000Y-111477928D01*
X159256573Y-111486201D01*
X159253740Y-111488287D01*
X158670025Y-111794813D01*
X158661107Y-111795625D01*
X158659105Y-111794791D01*
X157858496Y-111370336D01*
X157852791Y-111363433D01*
X157853639Y-111354519D01*
X157858493Y-111349664D01*
X158659107Y-110925207D01*
X158668019Y-110924360D01*
X158670017Y-110925182D01*
G37*
G04 #@! TD.AperFunction*
G04 #@! TA.AperFunction,Conductor*
G36*
X167270889Y-89325206D02*
G01*
X168071503Y-89749662D01*
X168077208Y-89756565D01*
X168076360Y-89765479D01*
X168071503Y-89770336D01*
X167270894Y-90194791D01*
X167261980Y-90195639D01*
X167259977Y-90194814D01*
X166947390Y-90030665D01*
X166676260Y-89888287D01*
X166670529Y-89881406D01*
X166670000Y-89877928D01*
X166670000Y-89642071D01*
X166673427Y-89633798D01*
X166676256Y-89631714D01*
X167259977Y-89325185D01*
X167268892Y-89324374D01*
X167270889Y-89325206D01*
G37*
G04 #@! TD.AperFunction*
G04 #@! TA.AperFunction,Conductor*
G36*
X119790005Y-108447992D02*
G01*
X120273395Y-108681805D01*
X120279350Y-108688493D01*
X120280000Y-108692338D01*
X120280000Y-108927661D01*
X120276573Y-108935934D01*
X120273395Y-108938194D01*
X119790005Y-109172007D01*
X119781065Y-109172524D01*
X119776840Y-109169945D01*
X119407892Y-108818471D01*
X119404265Y-108810284D01*
X119407491Y-108801930D01*
X119407892Y-108801529D01*
X119776841Y-108450053D01*
X119785194Y-108446828D01*
X119790005Y-108447992D01*
G37*
G04 #@! TD.AperFunction*
G04 #@! TA.AperFunction,Conductor*
G36*
X165511287Y-98466383D02*
G01*
X165515309Y-98469420D01*
X165913803Y-98935828D01*
X165916572Y-98944344D01*
X165913181Y-98951701D01*
X165748029Y-99116853D01*
X165739756Y-99120280D01*
X165738464Y-99120208D01*
X164939596Y-99031432D01*
X164931752Y-99027113D01*
X164929260Y-99018512D01*
X164929451Y-99017339D01*
X165007936Y-98655547D01*
X165013038Y-98648190D01*
X165015284Y-98647066D01*
X165502339Y-98466053D01*
X165511287Y-98466383D01*
G37*
G04 #@! TD.AperFunction*
G04 #@! TA.AperFunction,Conductor*
G36*
X121660889Y-89325206D02*
G01*
X122258563Y-89642071D01*
X122461502Y-89749662D01*
X122467207Y-89756565D01*
X122466359Y-89765479D01*
X122461502Y-89770336D01*
X121660894Y-90194791D01*
X121651980Y-90195639D01*
X121649977Y-90194814D01*
X121337390Y-90030665D01*
X121066260Y-89888287D01*
X121060529Y-89881406D01*
X121060000Y-89877928D01*
X121060000Y-89642071D01*
X121063427Y-89633798D01*
X121066256Y-89631714D01*
X121649977Y-89325185D01*
X121658892Y-89324374D01*
X121660889Y-89325206D01*
G37*
G04 #@! TD.AperFunction*
G04 #@! TA.AperFunction,Conductor*
G36*
X113059915Y-110924949D02*
G01*
X113643462Y-111211786D01*
X113649374Y-111218510D01*
X113650000Y-111222285D01*
X113650000Y-111458134D01*
X113646573Y-111466407D01*
X113644007Y-111468348D01*
X113060119Y-111794576D01*
X113051225Y-111795620D01*
X113048932Y-111794699D01*
X112248496Y-111370336D01*
X112242791Y-111363433D01*
X112243639Y-111354519D01*
X112248493Y-111349664D01*
X113049282Y-110925114D01*
X113058195Y-110924267D01*
X113059915Y-110924949D01*
G37*
G04 #@! TD.AperFunction*
G04 #@! TA.AperFunction,Conductor*
G36*
X136860889Y-96945206D02*
G01*
X137661503Y-97369662D01*
X137667208Y-97376565D01*
X137666360Y-97385479D01*
X137661503Y-97390336D01*
X136860894Y-97814791D01*
X136851980Y-97815639D01*
X136849977Y-97814814D01*
X136537390Y-97650665D01*
X136266260Y-97508287D01*
X136260529Y-97501406D01*
X136260000Y-97497928D01*
X136260000Y-97262071D01*
X136263427Y-97253798D01*
X136266256Y-97251714D01*
X136849977Y-96945185D01*
X136858892Y-96944374D01*
X136860889Y-96945206D01*
G37*
G04 #@! TD.AperFunction*
G04 #@! TA.AperFunction,Conductor*
G36*
X135000005Y-107177992D02*
G01*
X135483395Y-107411805D01*
X135489350Y-107418493D01*
X135490000Y-107422338D01*
X135490000Y-107657661D01*
X135486573Y-107665934D01*
X135483395Y-107668194D01*
X135000005Y-107902007D01*
X134991065Y-107902524D01*
X134986840Y-107899945D01*
X134617892Y-107548471D01*
X134614265Y-107540284D01*
X134617491Y-107531930D01*
X134617892Y-107531529D01*
X134986841Y-107180053D01*
X134995194Y-107176828D01*
X135000005Y-107177992D01*
G37*
G04 #@! TD.AperFunction*
G04 #@! TA.AperFunction,Conductor*
G36*
X167270889Y-108375206D02*
G01*
X168071503Y-108799662D01*
X168077208Y-108806565D01*
X168076360Y-108815479D01*
X168071503Y-108820336D01*
X167270894Y-109244791D01*
X167261980Y-109245639D01*
X167259977Y-109244814D01*
X166947390Y-109080665D01*
X166676260Y-108938287D01*
X166670529Y-108931406D01*
X166670000Y-108927928D01*
X166670000Y-108692071D01*
X166673427Y-108683798D01*
X166676256Y-108681714D01*
X167259977Y-108375185D01*
X167268892Y-108374374D01*
X167270889Y-108375206D01*
G37*
G04 #@! TD.AperFunction*
G04 #@! TA.AperFunction,Conductor*
G36*
X158669915Y-108384949D02*
G01*
X159253462Y-108671786D01*
X159259374Y-108678510D01*
X159260000Y-108682285D01*
X159260000Y-108918134D01*
X159256573Y-108926407D01*
X159254007Y-108928348D01*
X158670119Y-109254576D01*
X158661225Y-109255620D01*
X158658932Y-109254699D01*
X157858496Y-108830336D01*
X157852791Y-108823433D01*
X157853639Y-108814519D01*
X157858493Y-108809664D01*
X158659282Y-108385114D01*
X158668195Y-108384267D01*
X158669915Y-108384949D01*
G37*
G04 #@! TD.AperFunction*
G04 #@! TA.AperFunction,Conductor*
G36*
X158669915Y-104574949D02*
G01*
X159253462Y-104861786D01*
X159259374Y-104868510D01*
X159260000Y-104872285D01*
X159260000Y-105108134D01*
X159256573Y-105116407D01*
X159254007Y-105118348D01*
X158670119Y-105444576D01*
X158661225Y-105445620D01*
X158658932Y-105444699D01*
X157858496Y-105020336D01*
X157852791Y-105013433D01*
X157853639Y-105004519D01*
X157858493Y-104999664D01*
X158659282Y-104575114D01*
X158668195Y-104574267D01*
X158669915Y-104574949D01*
G37*
G04 #@! TD.AperFunction*
G04 #@! TA.AperFunction,Conductor*
G36*
X119790005Y-91937992D02*
G01*
X120273395Y-92171805D01*
X120279350Y-92178493D01*
X120280000Y-92182338D01*
X120280000Y-92417661D01*
X120276573Y-92425934D01*
X120273395Y-92428194D01*
X119790005Y-92662007D01*
X119781065Y-92662524D01*
X119776840Y-92659945D01*
X119407892Y-92308471D01*
X119404265Y-92300284D01*
X119407491Y-92291930D01*
X119407892Y-92291529D01*
X119776841Y-91940053D01*
X119785194Y-91936828D01*
X119790005Y-91937992D01*
G37*
G04 #@! TD.AperFunction*
G04 #@! TA.AperFunction,Conductor*
G36*
X128259915Y-112194949D02*
G01*
X128843462Y-112481786D01*
X128849374Y-112488510D01*
X128850000Y-112492285D01*
X128850000Y-112728134D01*
X128846573Y-112736407D01*
X128844007Y-112738348D01*
X128260119Y-113064576D01*
X128251225Y-113065620D01*
X128248932Y-113064699D01*
X128025523Y-112946255D01*
X127448494Y-112640334D01*
X127442790Y-112633433D01*
X127443638Y-112624519D01*
X127448491Y-112619665D01*
X128249282Y-112195114D01*
X128258195Y-112194267D01*
X128259915Y-112194949D01*
G37*
G04 #@! TD.AperFunction*
G04 #@! TA.AperFunction,Conductor*
G36*
X145343159Y-90660054D02*
G01*
X145712107Y-91011529D01*
X145715734Y-91019716D01*
X145712508Y-91028070D01*
X145712107Y-91028471D01*
X145343159Y-91379945D01*
X145334805Y-91383171D01*
X145329994Y-91382007D01*
X144846605Y-91148194D01*
X144840650Y-91141506D01*
X144840000Y-91137661D01*
X144840000Y-90902338D01*
X144843427Y-90894065D01*
X144846605Y-90891805D01*
X145329994Y-90657992D01*
X145338934Y-90657475D01*
X145343159Y-90660054D01*
G37*
G04 #@! TD.AperFunction*
G04 #@! TA.AperFunction,Conductor*
G36*
X114923159Y-109710054D02*
G01*
X115292107Y-110061529D01*
X115295734Y-110069716D01*
X115292508Y-110078070D01*
X115292107Y-110078471D01*
X114923159Y-110429945D01*
X114914805Y-110433171D01*
X114909994Y-110432007D01*
X114426605Y-110198194D01*
X114420650Y-110191506D01*
X114420000Y-110187661D01*
X114420000Y-109952338D01*
X114423427Y-109944065D01*
X114426605Y-109941805D01*
X114909994Y-109707992D01*
X114918934Y-109707475D01*
X114923159Y-109710054D01*
G37*
G04 #@! TD.AperFunction*
G04 #@! TA.AperFunction,Conductor*
G36*
X158669915Y-90604949D02*
G01*
X159253462Y-90891786D01*
X159259374Y-90898510D01*
X159260000Y-90902285D01*
X159260000Y-91138134D01*
X159256573Y-91146407D01*
X159254007Y-91148348D01*
X158670119Y-91474576D01*
X158661225Y-91475620D01*
X158658932Y-91474699D01*
X157858496Y-91050336D01*
X157852791Y-91043433D01*
X157853639Y-91034519D01*
X157858493Y-91029664D01*
X158659282Y-90605114D01*
X158668195Y-90604267D01*
X158669915Y-90604949D01*
G37*
G04 #@! TD.AperFunction*
G04 #@! TA.AperFunction,Conductor*
G36*
X152060889Y-112185206D02*
G01*
X152861503Y-112609662D01*
X152867208Y-112616565D01*
X152866360Y-112625479D01*
X152861503Y-112630336D01*
X152060894Y-113054791D01*
X152051980Y-113055639D01*
X152049977Y-113054814D01*
X151737390Y-112890665D01*
X151466260Y-112748287D01*
X151460529Y-112741406D01*
X151460000Y-112737928D01*
X151460000Y-112502071D01*
X151463427Y-112493798D01*
X151466256Y-112491714D01*
X152049977Y-112185185D01*
X152058892Y-112184374D01*
X152060889Y-112185206D01*
G37*
G04 #@! TD.AperFunction*
G04 #@! TA.AperFunction,Conductor*
G36*
X128259915Y-93144949D02*
G01*
X128843462Y-93431786D01*
X128849374Y-93438510D01*
X128850000Y-93442285D01*
X128850000Y-93678134D01*
X128846573Y-93686407D01*
X128844007Y-93688348D01*
X128260119Y-94014576D01*
X128251225Y-94015620D01*
X128248932Y-94014699D01*
X128025523Y-93896255D01*
X127448494Y-93590334D01*
X127442790Y-93583433D01*
X127443638Y-93574519D01*
X127448491Y-93569665D01*
X128249282Y-93145114D01*
X128258195Y-93144267D01*
X128259915Y-93144949D01*
G37*
G04 #@! TD.AperFunction*
G04 #@! TA.AperFunction,Conductor*
G36*
X136140234Y-86704263D02*
G01*
X136563070Y-86870568D01*
X136592884Y-86882294D01*
X136599329Y-86888511D01*
X136599490Y-86897464D01*
X136599424Y-86897629D01*
X136472686Y-87206039D01*
X136466372Y-87212389D01*
X136466316Y-87212412D01*
X136158018Y-87339258D01*
X136149063Y-87339237D01*
X136142746Y-87332890D01*
X136142537Y-87332342D01*
X135994531Y-86914208D01*
X135995000Y-86905268D01*
X135995826Y-86903815D01*
X136126226Y-86708650D01*
X136133670Y-86703677D01*
X136140234Y-86704263D01*
G37*
G04 #@! TD.AperFunction*
G04 #@! TA.AperFunction,Conductor*
G36*
X130133159Y-108440054D02*
G01*
X130502107Y-108791529D01*
X130505734Y-108799716D01*
X130502508Y-108808070D01*
X130502107Y-108808471D01*
X130133159Y-109159945D01*
X130124805Y-109163171D01*
X130119994Y-109162007D01*
X129636605Y-108928194D01*
X129630650Y-108921506D01*
X129630000Y-108917661D01*
X129630000Y-108682338D01*
X129633427Y-108674065D01*
X129636605Y-108671805D01*
X130119994Y-108437992D01*
X130128934Y-108437475D01*
X130133159Y-108440054D01*
G37*
G04 #@! TD.AperFunction*
G04 #@! TA.AperFunction,Conductor*
G36*
X135000005Y-112257992D02*
G01*
X135483395Y-112491805D01*
X135489350Y-112498493D01*
X135490000Y-112502338D01*
X135490000Y-112737661D01*
X135486573Y-112745934D01*
X135483395Y-112748194D01*
X135000005Y-112982007D01*
X134991065Y-112982524D01*
X134986840Y-112979945D01*
X134617892Y-112628471D01*
X134614265Y-112620284D01*
X134617491Y-112611930D01*
X134617892Y-112611529D01*
X134986841Y-112260053D01*
X134995194Y-112256828D01*
X135000005Y-112257992D01*
G37*
G04 #@! TD.AperFunction*
G04 #@! TA.AperFunction,Conductor*
G36*
X167270889Y-88055206D02*
G01*
X168071503Y-88479662D01*
X168077208Y-88486565D01*
X168076360Y-88495479D01*
X168071503Y-88500336D01*
X167270894Y-88924791D01*
X167261980Y-88925639D01*
X167259977Y-88924814D01*
X166947390Y-88760665D01*
X166676260Y-88618287D01*
X166670529Y-88611406D01*
X166670000Y-88607928D01*
X166670000Y-88372071D01*
X166673427Y-88363798D01*
X166676256Y-88361714D01*
X167259977Y-88055185D01*
X167268892Y-88054374D01*
X167270889Y-88055206D01*
G37*
G04 #@! TD.AperFunction*
G04 #@! TA.AperFunction,Conductor*
G36*
X143460017Y-100765182D02*
G01*
X144043741Y-101071713D01*
X144049471Y-101078593D01*
X144050000Y-101082071D01*
X144050000Y-101317928D01*
X144046573Y-101326201D01*
X144043740Y-101328287D01*
X143460025Y-101634813D01*
X143451107Y-101635625D01*
X143449105Y-101634791D01*
X142648496Y-101210336D01*
X142642791Y-101203433D01*
X142643639Y-101194519D01*
X142648493Y-101189664D01*
X143449107Y-100765207D01*
X143458019Y-100764360D01*
X143460017Y-100765182D01*
G37*
G04 #@! TD.AperFunction*
G04 #@! TA.AperFunction,Conductor*
G36*
X145343159Y-95740054D02*
G01*
X145712107Y-96091529D01*
X145715734Y-96099716D01*
X145712508Y-96108070D01*
X145712107Y-96108471D01*
X145343159Y-96459945D01*
X145334805Y-96463171D01*
X145329994Y-96462007D01*
X144846605Y-96228194D01*
X144840650Y-96221506D01*
X144840000Y-96217661D01*
X144840000Y-95982338D01*
X144843427Y-95974065D01*
X144846605Y-95971805D01*
X145329994Y-95737992D01*
X145338934Y-95737475D01*
X145343159Y-95740054D01*
G37*
G04 #@! TD.AperFunction*
G04 #@! TA.AperFunction,Conductor*
G36*
X130133159Y-107170054D02*
G01*
X130502107Y-107521529D01*
X130505734Y-107529716D01*
X130502508Y-107538070D01*
X130502107Y-107538471D01*
X130133159Y-107889945D01*
X130124805Y-107893171D01*
X130119994Y-107892007D01*
X129636605Y-107658194D01*
X129630650Y-107651506D01*
X129630000Y-107647661D01*
X129630000Y-107412338D01*
X129633427Y-107404065D01*
X129636605Y-107401805D01*
X130119994Y-107167992D01*
X130128934Y-107167475D01*
X130133159Y-107170054D01*
G37*
G04 #@! TD.AperFunction*
G04 #@! TA.AperFunction,Conductor*
G36*
X165400005Y-103367992D02*
G01*
X165883395Y-103601805D01*
X165889350Y-103608493D01*
X165890000Y-103612338D01*
X165890000Y-103847661D01*
X165886573Y-103855934D01*
X165883395Y-103858194D01*
X165400005Y-104092007D01*
X165391065Y-104092524D01*
X165386840Y-104089945D01*
X165017892Y-103738471D01*
X165014265Y-103730284D01*
X165017491Y-103721930D01*
X165017892Y-103721529D01*
X165386841Y-103370053D01*
X165395194Y-103366828D01*
X165400005Y-103367992D01*
G37*
G04 #@! TD.AperFunction*
G04 #@! TA.AperFunction,Conductor*
G36*
X158669915Y-105844949D02*
G01*
X159253462Y-106131786D01*
X159259374Y-106138510D01*
X159260000Y-106142285D01*
X159260000Y-106378134D01*
X159256573Y-106386407D01*
X159254007Y-106388348D01*
X158670119Y-106714576D01*
X158661225Y-106715620D01*
X158658932Y-106714699D01*
X157858496Y-106290336D01*
X157852791Y-106283433D01*
X157853639Y-106274519D01*
X157858493Y-106269664D01*
X158659282Y-105845114D01*
X158668195Y-105844267D01*
X158669915Y-105844949D01*
G37*
G04 #@! TD.AperFunction*
G04 #@! TA.AperFunction,Conductor*
G36*
X143459915Y-91874949D02*
G01*
X144043462Y-92161786D01*
X144049374Y-92168510D01*
X144050000Y-92172285D01*
X144050000Y-92408134D01*
X144046573Y-92416407D01*
X144044007Y-92418348D01*
X143460119Y-92744576D01*
X143451225Y-92745620D01*
X143448932Y-92744699D01*
X142648496Y-92320336D01*
X142642791Y-92313433D01*
X142643639Y-92304519D01*
X142648493Y-92299664D01*
X143449282Y-91875114D01*
X143458195Y-91874267D01*
X143459915Y-91874949D01*
G37*
G04 #@! TD.AperFunction*
G04 #@! TA.AperFunction,Conductor*
G36*
X121660889Y-110915206D02*
G01*
X122258563Y-111232071D01*
X122461502Y-111339662D01*
X122467207Y-111346565D01*
X122466359Y-111355479D01*
X122461502Y-111360336D01*
X121660894Y-111784791D01*
X121651980Y-111785639D01*
X121649977Y-111784814D01*
X121337390Y-111620665D01*
X121066260Y-111478287D01*
X121060529Y-111471406D01*
X121060000Y-111467928D01*
X121060000Y-111232071D01*
X121063427Y-111223798D01*
X121066256Y-111221714D01*
X121649977Y-110915185D01*
X121658892Y-110914374D01*
X121660889Y-110915206D01*
G37*
G04 #@! TD.AperFunction*
G04 #@! TA.AperFunction,Conductor*
G36*
X136860889Y-89325206D02*
G01*
X137661503Y-89749662D01*
X137667208Y-89756565D01*
X137666360Y-89765479D01*
X137661503Y-89770336D01*
X136860894Y-90194791D01*
X136851980Y-90195639D01*
X136849977Y-90194814D01*
X136537390Y-90030665D01*
X136266260Y-89888287D01*
X136260529Y-89881406D01*
X136260000Y-89877928D01*
X136260000Y-89642071D01*
X136263427Y-89633798D01*
X136266256Y-89631714D01*
X136849977Y-89325185D01*
X136858892Y-89324374D01*
X136860889Y-89325206D01*
G37*
G04 #@! TD.AperFunction*
G04 #@! TA.AperFunction,Conductor*
G36*
X165400005Y-95747992D02*
G01*
X165883395Y-95981805D01*
X165889350Y-95988493D01*
X165890000Y-95992338D01*
X165890000Y-96227661D01*
X165886573Y-96235934D01*
X165883395Y-96238194D01*
X165400005Y-96472007D01*
X165391065Y-96472524D01*
X165386840Y-96469945D01*
X165017892Y-96118471D01*
X165014265Y-96110284D01*
X165017491Y-96101930D01*
X165017892Y-96101529D01*
X165386841Y-95750053D01*
X165395194Y-95746828D01*
X165400005Y-95747992D01*
G37*
G04 #@! TD.AperFunction*
G04 #@! TA.AperFunction,Conductor*
G36*
X130133159Y-94470054D02*
G01*
X130502107Y-94821529D01*
X130505734Y-94829716D01*
X130502508Y-94838070D01*
X130502107Y-94838471D01*
X130133159Y-95189945D01*
X130124805Y-95193171D01*
X130119994Y-95192007D01*
X129636605Y-94958194D01*
X129630650Y-94951506D01*
X129630000Y-94947661D01*
X129630000Y-94712338D01*
X129633427Y-94704065D01*
X129636605Y-94701805D01*
X130119994Y-94467992D01*
X130128934Y-94467475D01*
X130133159Y-94470054D01*
G37*
G04 #@! TD.AperFunction*
G04 #@! TA.AperFunction,Conductor*
G36*
X136860889Y-100755206D02*
G01*
X137661503Y-101179662D01*
X137667208Y-101186565D01*
X137666360Y-101195479D01*
X137661503Y-101200336D01*
X136860894Y-101624791D01*
X136851980Y-101625639D01*
X136849977Y-101624814D01*
X136537390Y-101460665D01*
X136266260Y-101318287D01*
X136260529Y-101311406D01*
X136260000Y-101307928D01*
X136260000Y-101072071D01*
X136263427Y-101063798D01*
X136266256Y-101061714D01*
X136849977Y-100755185D01*
X136858892Y-100754374D01*
X136860889Y-100755206D01*
G37*
G04 #@! TD.AperFunction*
G04 #@! TA.AperFunction,Conductor*
G36*
X150210005Y-104637992D02*
G01*
X150693394Y-104871805D01*
X150699349Y-104878493D01*
X150699999Y-104882338D01*
X150699999Y-105117661D01*
X150696572Y-105125934D01*
X150693394Y-105128194D01*
X150210005Y-105362007D01*
X150201065Y-105362524D01*
X150196840Y-105359945D01*
X149827892Y-105008471D01*
X149824265Y-105000284D01*
X149827491Y-104991930D01*
X149827892Y-104991529D01*
X150196841Y-104640053D01*
X150205194Y-104636828D01*
X150210005Y-104637992D01*
G37*
G04 #@! TD.AperFunction*
G04 #@! TA.AperFunction,Conductor*
G36*
X152060889Y-107105206D02*
G01*
X152861503Y-107529662D01*
X152867208Y-107536565D01*
X152866360Y-107545479D01*
X152861503Y-107550336D01*
X152060894Y-107974791D01*
X152051980Y-107975639D01*
X152049977Y-107974814D01*
X151737390Y-107810665D01*
X151466260Y-107668287D01*
X151460529Y-107661406D01*
X151460000Y-107657928D01*
X151460000Y-107422071D01*
X151463427Y-107413798D01*
X151466256Y-107411714D01*
X152049977Y-107105185D01*
X152058892Y-107104374D01*
X152060889Y-107105206D01*
G37*
G04 #@! TD.AperFunction*
G04 #@! TA.AperFunction,Conductor*
G36*
X167270889Y-95675206D02*
G01*
X168071503Y-96099662D01*
X168077208Y-96106565D01*
X168076360Y-96115479D01*
X168071503Y-96120336D01*
X167270894Y-96544791D01*
X167261980Y-96545639D01*
X167259977Y-96544814D01*
X166947390Y-96380665D01*
X166676260Y-96238287D01*
X166670529Y-96231406D01*
X166670000Y-96227928D01*
X166670000Y-95992071D01*
X166673427Y-95983798D01*
X166676256Y-95981714D01*
X167259977Y-95675185D01*
X167268892Y-95674374D01*
X167270889Y-95675206D01*
G37*
G04 #@! TD.AperFunction*
G04 #@! TA.AperFunction,Conductor*
G36*
X114923362Y-98280247D02*
G01*
X115292107Y-98631529D01*
X115295734Y-98639716D01*
X115292508Y-98648070D01*
X115292107Y-98648471D01*
X114922953Y-99000142D01*
X114914599Y-99003368D01*
X114910140Y-99002366D01*
X114426957Y-98788085D01*
X114420783Y-98781599D01*
X114420000Y-98777390D01*
X114420000Y-98542079D01*
X114423427Y-98533806D01*
X114426270Y-98531715D01*
X114909863Y-98278353D01*
X114918781Y-98277550D01*
X114923362Y-98280247D01*
G37*
G04 #@! TD.AperFunction*
G04 #@! TA.AperFunction,Conductor*
G36*
X165400005Y-97017992D02*
G01*
X165883395Y-97251805D01*
X165889350Y-97258493D01*
X165890000Y-97262338D01*
X165890000Y-97497661D01*
X165886573Y-97505934D01*
X165883395Y-97508194D01*
X165400005Y-97742007D01*
X165391065Y-97742524D01*
X165386840Y-97739945D01*
X165017892Y-97388471D01*
X165014265Y-97380284D01*
X165017491Y-97371930D01*
X165017892Y-97371529D01*
X165386841Y-97020053D01*
X165395194Y-97016828D01*
X165400005Y-97017992D01*
G37*
G04 #@! TD.AperFunction*
G04 #@! TA.AperFunction,Conductor*
G36*
X145343159Y-93200054D02*
G01*
X145712107Y-93551529D01*
X145715734Y-93559716D01*
X145712508Y-93568070D01*
X145712107Y-93568471D01*
X145343159Y-93919945D01*
X145334805Y-93923171D01*
X145329994Y-93922007D01*
X144846605Y-93688194D01*
X144840650Y-93681506D01*
X144840000Y-93677661D01*
X144840000Y-93442338D01*
X144843427Y-93434065D01*
X144846605Y-93431805D01*
X145329994Y-93197992D01*
X145338934Y-93197475D01*
X145343159Y-93200054D01*
G37*
G04 #@! TD.AperFunction*
G04 #@! TA.AperFunction,Conductor*
G36*
X143460017Y-96955182D02*
G01*
X144043741Y-97261713D01*
X144049471Y-97268593D01*
X144050000Y-97272071D01*
X144050000Y-97507928D01*
X144046573Y-97516201D01*
X144043740Y-97518287D01*
X143460025Y-97824813D01*
X143451107Y-97825625D01*
X143449105Y-97824791D01*
X142648496Y-97400336D01*
X142642791Y-97393433D01*
X142643639Y-97384519D01*
X142648493Y-97379664D01*
X143449107Y-96955207D01*
X143458019Y-96954360D01*
X143460017Y-96955182D01*
G37*
G04 #@! TD.AperFunction*
M02*
