G04 #@! TF.GenerationSoftware,KiCad,Pcbnew,7.0.6-0*
G04 #@! TF.CreationDate,2023-09-15T02:16:25-04:00*
G04 #@! TF.ProjectId,FBI Board,46424920-426f-4617-9264-2e6b69636164,1*
G04 #@! TF.SameCoordinates,Original*
G04 #@! TF.FileFunction,Paste,Bot*
G04 #@! TF.FilePolarity,Positive*
%FSLAX46Y46*%
G04 Gerber Fmt 4.6, Leading zero omitted, Abs format (unit mm)*
G04 Created by KiCad (PCBNEW 7.0.6-0) date 2023-09-15 02:16:25*
%MOMM*%
%LPD*%
G01*
G04 APERTURE LIST*
G04 Aperture macros list*
%AMRoundRect*
0 Rectangle with rounded corners*
0 $1 Rounding radius*
0 $2 $3 $4 $5 $6 $7 $8 $9 X,Y pos of 4 corners*
0 Add a 4 corners polygon primitive as box body*
4,1,4,$2,$3,$4,$5,$6,$7,$8,$9,$2,$3,0*
0 Add four circle primitives for the rounded corners*
1,1,$1+$1,$2,$3*
1,1,$1+$1,$4,$5*
1,1,$1+$1,$6,$7*
1,1,$1+$1,$8,$9*
0 Add four rect primitives between the rounded corners*
20,1,$1+$1,$2,$3,$4,$5,0*
20,1,$1+$1,$4,$5,$6,$7,0*
20,1,$1+$1,$6,$7,$8,$9,0*
20,1,$1+$1,$8,$9,$2,$3,0*%
G04 Aperture macros list end*
%ADD10RoundRect,0.190000X0.310000X0.190000X-0.310000X0.190000X-0.310000X-0.190000X0.310000X-0.190000X0*%
%ADD11RoundRect,0.190000X-0.310000X-0.190000X0.310000X-0.190000X0.310000X0.190000X-0.310000X0.190000X0*%
G04 APERTURE END LIST*
D10*
X149820000Y-112620000D03*
X149820000Y-111350000D03*
X149820000Y-110080000D03*
X149820000Y-108810000D03*
X149820000Y-107540000D03*
X149820000Y-106270000D03*
X149820000Y-105000000D03*
X149820000Y-103730000D03*
X149820000Y-102460000D03*
X149820000Y-101190000D03*
X149820000Y-99920000D03*
X149820000Y-98650000D03*
X149820000Y-97380000D03*
X149820000Y-96110000D03*
X149820000Y-94840000D03*
X149820000Y-93570000D03*
X149820000Y-92300000D03*
X149820000Y-91030000D03*
X149820000Y-89760000D03*
X149820000Y-88490000D03*
D11*
X145720000Y-88480000D03*
X145720000Y-89750000D03*
X145720000Y-91020000D03*
X145720000Y-92290000D03*
X145720000Y-93560000D03*
X145720000Y-94830000D03*
X145720000Y-96100000D03*
X145720000Y-97370000D03*
X145720000Y-98640000D03*
X145720000Y-99910000D03*
X145720000Y-101180000D03*
X145720000Y-102450000D03*
X145720000Y-103720000D03*
X145720000Y-104990000D03*
X145720000Y-106260000D03*
X145720000Y-107530000D03*
X145720000Y-108800000D03*
X145720000Y-110070000D03*
X145720000Y-111340000D03*
X145720000Y-112610000D03*
D10*
X119400000Y-112620000D03*
X119400000Y-111350000D03*
X119400000Y-110080000D03*
X119400000Y-108810000D03*
X119400000Y-107540000D03*
X119400000Y-106270000D03*
X119400000Y-105000000D03*
X119400000Y-103730000D03*
X119400000Y-102460000D03*
X119400000Y-101190000D03*
X119400000Y-99920000D03*
X119400000Y-98650000D03*
X119400000Y-97380000D03*
X119400000Y-96110000D03*
X119400000Y-94840000D03*
X119400000Y-93570000D03*
X119400000Y-92300000D03*
X119400000Y-91030000D03*
X119400000Y-89760000D03*
X119400000Y-88490000D03*
D11*
X115300000Y-88480000D03*
X115300000Y-89750000D03*
X115300000Y-91020000D03*
X115300000Y-92290000D03*
X115300000Y-93560000D03*
X115300000Y-94830000D03*
X115300000Y-96100000D03*
X115300000Y-97370000D03*
X115300000Y-98640000D03*
X115300000Y-99910000D03*
X115300000Y-101180000D03*
X115300000Y-102450000D03*
X115300000Y-103720000D03*
X115300000Y-104990000D03*
X115300000Y-106260000D03*
X115300000Y-107530000D03*
X115300000Y-108800000D03*
X115300000Y-110070000D03*
X115300000Y-111340000D03*
X115300000Y-112610000D03*
D10*
X165010000Y-112620000D03*
X165010000Y-111350000D03*
X165010000Y-110080000D03*
X165010000Y-108810000D03*
X165010000Y-107540000D03*
X165010000Y-106270000D03*
X165010000Y-105000000D03*
X165010000Y-103730000D03*
X165010000Y-102460000D03*
X165010000Y-101190000D03*
X165010000Y-99920000D03*
X165010000Y-98650000D03*
X165010000Y-97380000D03*
X165010000Y-96110000D03*
X165010000Y-94840000D03*
X165010000Y-93570000D03*
X165010000Y-92300000D03*
X165010000Y-91030000D03*
X165010000Y-89760000D03*
X165010000Y-88490000D03*
D11*
X160910000Y-88480000D03*
X160910000Y-89750000D03*
X160910000Y-91020000D03*
X160910000Y-92290000D03*
X160910000Y-93560000D03*
X160910000Y-94830000D03*
X160910000Y-96100000D03*
X160910000Y-97370000D03*
X160910000Y-98640000D03*
X160910000Y-99910000D03*
X160910000Y-101180000D03*
X160910000Y-102450000D03*
X160910000Y-103720000D03*
X160910000Y-104990000D03*
X160910000Y-106260000D03*
X160910000Y-107530000D03*
X160910000Y-108800000D03*
X160910000Y-110070000D03*
X160910000Y-111340000D03*
X160910000Y-112610000D03*
D10*
X134610000Y-112620000D03*
X134610000Y-111350000D03*
X134610000Y-110080000D03*
X134610000Y-108810000D03*
X134610000Y-107540000D03*
X134610000Y-106270000D03*
X134610000Y-105000000D03*
X134610000Y-103730000D03*
X134610000Y-102460000D03*
X134610000Y-101190000D03*
X134610000Y-99920000D03*
X134610000Y-98650000D03*
X134610000Y-97380000D03*
X134610000Y-96110000D03*
X134610000Y-94840000D03*
X134610000Y-93570000D03*
X134610000Y-92300000D03*
X134610000Y-91030000D03*
X134610000Y-89760000D03*
X134610000Y-88490000D03*
D11*
X130510000Y-88480000D03*
X130510000Y-89750000D03*
X130510000Y-91020000D03*
X130510000Y-92290000D03*
X130510000Y-93560000D03*
X130510000Y-94830000D03*
X130510000Y-96100000D03*
X130510000Y-97370000D03*
X130510000Y-98640000D03*
X130510000Y-99910000D03*
X130510000Y-101180000D03*
X130510000Y-102450000D03*
X130510000Y-103720000D03*
X130510000Y-104990000D03*
X130510000Y-106260000D03*
X130510000Y-107530000D03*
X130510000Y-108800000D03*
X130510000Y-110070000D03*
X130510000Y-111340000D03*
X130510000Y-112610000D03*
M02*
