G04 #@! TF.GenerationSoftware,KiCad,Pcbnew,7.0.6-0*
G04 #@! TF.CreationDate,2023-09-15T02:17:21-04:00*
G04 #@! TF.ProjectId,TMU Board,544d5520-426f-4617-9264-2e6b69636164,1*
G04 #@! TF.SameCoordinates,Original*
G04 #@! TF.FileFunction,Soldermask,Bot*
G04 #@! TF.FilePolarity,Negative*
%FSLAX46Y46*%
G04 Gerber Fmt 4.6, Leading zero omitted, Abs format (unit mm)*
G04 Created by KiCad (PCBNEW 7.0.6-0) date 2023-09-15 02:17:21*
%MOMM*%
%LPD*%
G01*
G04 APERTURE LIST*
G04 Aperture macros list*
%AMRoundRect*
0 Rectangle with rounded corners*
0 $1 Rounding radius*
0 $2 $3 $4 $5 $6 $7 $8 $9 X,Y pos of 4 corners*
0 Add a 4 corners polygon primitive as box body*
4,1,4,$2,$3,$4,$5,$6,$7,$8,$9,$2,$3,0*
0 Add four circle primitives for the rounded corners*
1,1,$1+$1,$2,$3*
1,1,$1+$1,$4,$5*
1,1,$1+$1,$6,$7*
1,1,$1+$1,$8,$9*
0 Add four rect primitives between the rounded corners*
20,1,$1+$1,$2,$3,$4,$5,0*
20,1,$1+$1,$4,$5,$6,$7,0*
20,1,$1+$1,$6,$7,$8,$9,0*
20,1,$1+$1,$8,$9,$2,$3,0*%
G04 Aperture macros list end*
%ADD10RoundRect,0.278300X0.477500X0.227500X-0.477500X0.227500X-0.477500X-0.227500X0.477500X-0.227500X0*%
%ADD11RoundRect,0.278300X-0.477500X-0.227500X0.477500X-0.227500X0.477500X0.227500X-0.477500X0.227500X0*%
%ADD12RoundRect,0.240800X0.310000X0.190000X-0.310000X0.190000X-0.310000X-0.190000X0.310000X-0.190000X0*%
%ADD13RoundRect,0.240800X-0.310000X-0.190000X0.310000X-0.190000X0.310000X0.190000X-0.310000X0.190000X0*%
G04 APERTURE END LIST*
D10*
X154630000Y-114260000D03*
X154630000Y-112990000D03*
X154630000Y-111720000D03*
X154630000Y-110450000D03*
X154630000Y-109180000D03*
X154630000Y-107910000D03*
X154630000Y-106640000D03*
X154630000Y-105370000D03*
X154630000Y-104100000D03*
X154630000Y-102830000D03*
X154630000Y-99020000D03*
X154630000Y-97750000D03*
X154630000Y-95210000D03*
X154630000Y-93940000D03*
X154630000Y-92670000D03*
X154630000Y-91400000D03*
X154630000Y-90130000D03*
D11*
X144900000Y-90140000D03*
X144900000Y-91410000D03*
X144900000Y-92680000D03*
X144900000Y-93950000D03*
X144900000Y-95220000D03*
X144900000Y-96490000D03*
X144900000Y-97760000D03*
X144900000Y-99030000D03*
X144900000Y-100300000D03*
X144900000Y-102840000D03*
X144900000Y-104110000D03*
X144900000Y-105380000D03*
X144900000Y-106650000D03*
X144900000Y-107920000D03*
X144900000Y-109190000D03*
X144900000Y-110460000D03*
X144900000Y-111730000D03*
X144900000Y-113000000D03*
X144900000Y-114270000D03*
D12*
X168970000Y-114270000D03*
X168970000Y-113000000D03*
X168970000Y-111730000D03*
X168970000Y-110460000D03*
X168970000Y-109190000D03*
X168970000Y-107920000D03*
X168970000Y-106650000D03*
X168970000Y-105380000D03*
X168970000Y-104110000D03*
X168970000Y-102840000D03*
X168970000Y-101570000D03*
X168970000Y-100300000D03*
X168970000Y-99030000D03*
X168970000Y-97760000D03*
X168970000Y-96490000D03*
X168970000Y-95220000D03*
X168970000Y-93950000D03*
X168970000Y-92680000D03*
X168970000Y-91410000D03*
X168970000Y-90140000D03*
D13*
X164870000Y-90130000D03*
X164870000Y-91400000D03*
X164870000Y-92670000D03*
X164870000Y-93940000D03*
X164870000Y-95210000D03*
X164870000Y-96480000D03*
X164870000Y-97750000D03*
X164870000Y-99020000D03*
X164870000Y-100290000D03*
X164870000Y-101560000D03*
X164870000Y-102830000D03*
X164870000Y-104100000D03*
X164870000Y-105370000D03*
X164870000Y-106640000D03*
X164870000Y-107910000D03*
X164870000Y-109180000D03*
X164870000Y-110450000D03*
X164870000Y-111720000D03*
X164870000Y-112990000D03*
X164870000Y-114260000D03*
D12*
X151810000Y-114270000D03*
X151810000Y-113000000D03*
X151810000Y-111730000D03*
X151810000Y-110460000D03*
X151810000Y-109190000D03*
X151810000Y-107920000D03*
X151810000Y-106650000D03*
X151810000Y-105380000D03*
X151810000Y-104110000D03*
X151810000Y-102840000D03*
X151810000Y-101570000D03*
X151810000Y-100300000D03*
X151810000Y-99030000D03*
X151810000Y-97760000D03*
X151810000Y-96490000D03*
X151810000Y-95220000D03*
X151810000Y-93950000D03*
X151810000Y-92680000D03*
X151810000Y-91410000D03*
X151810000Y-90140000D03*
D13*
X147710000Y-90130000D03*
X147710000Y-91400000D03*
X147710000Y-92670000D03*
X147710000Y-93940000D03*
X147710000Y-95210000D03*
X147710000Y-96480000D03*
X147710000Y-97750000D03*
X147710000Y-99020000D03*
X147710000Y-100290000D03*
X147710000Y-101560000D03*
X147710000Y-102830000D03*
X147710000Y-104100000D03*
X147710000Y-105370000D03*
X147710000Y-106640000D03*
X147710000Y-107910000D03*
X147710000Y-109180000D03*
X147710000Y-110450000D03*
X147710000Y-111720000D03*
X147710000Y-112990000D03*
X147710000Y-114260000D03*
D12*
X117490000Y-114270000D03*
X117490000Y-113000000D03*
X117490000Y-111730000D03*
X117490000Y-110460000D03*
X117490000Y-109190000D03*
X117490000Y-107920000D03*
X117490000Y-106650000D03*
X117490000Y-105380000D03*
X117490000Y-104110000D03*
X117490000Y-102840000D03*
X117490000Y-101570000D03*
X117490000Y-100300000D03*
X117490000Y-99030000D03*
X117490000Y-97760000D03*
X117490000Y-96490000D03*
X117490000Y-95220000D03*
X117490000Y-93950000D03*
X117490000Y-92680000D03*
X117490000Y-91410000D03*
X117490000Y-90140000D03*
D13*
X113390000Y-90130000D03*
X113390000Y-91400000D03*
X113390000Y-92670000D03*
X113390000Y-93940000D03*
X113390000Y-95210000D03*
X113390000Y-96480000D03*
X113390000Y-97750000D03*
X113390000Y-99020000D03*
X113390000Y-100290000D03*
X113390000Y-101560000D03*
X113390000Y-102830000D03*
X113390000Y-104100000D03*
X113390000Y-105370000D03*
X113390000Y-106640000D03*
X113390000Y-107910000D03*
X113390000Y-109180000D03*
X113390000Y-110450000D03*
X113390000Y-111720000D03*
X113390000Y-112990000D03*
X113390000Y-114260000D03*
D10*
X171800000Y-114260000D03*
X171800000Y-112990000D03*
X171800000Y-111720000D03*
X171800000Y-110450000D03*
X171800000Y-109180000D03*
X171800000Y-107910000D03*
X171800000Y-106640000D03*
X171800000Y-105370000D03*
X171800000Y-104100000D03*
X171800000Y-102830000D03*
X171800000Y-99020000D03*
X171800000Y-97750000D03*
X171800000Y-95210000D03*
X171800000Y-93940000D03*
X171800000Y-92670000D03*
X171800000Y-91400000D03*
X171800000Y-90130000D03*
D11*
X162070000Y-90140000D03*
X162070000Y-91410000D03*
X162070000Y-92680000D03*
X162070000Y-93950000D03*
X162070000Y-95220000D03*
X162070000Y-96490000D03*
X162070000Y-97760000D03*
X162070000Y-99030000D03*
X162070000Y-100300000D03*
X162070000Y-102840000D03*
X162070000Y-104110000D03*
X162070000Y-105380000D03*
X162070000Y-106650000D03*
X162070000Y-107920000D03*
X162070000Y-109190000D03*
X162070000Y-110460000D03*
X162070000Y-111730000D03*
X162070000Y-113000000D03*
X162070000Y-114270000D03*
D10*
X120290000Y-114260000D03*
X120290000Y-112990000D03*
X120290000Y-111720000D03*
X120290000Y-110450000D03*
X120290000Y-109180000D03*
X120290000Y-107910000D03*
X120290000Y-106640000D03*
X120290000Y-105370000D03*
X120290000Y-104100000D03*
X120290000Y-102830000D03*
X120290000Y-99020000D03*
X120290000Y-97750000D03*
X120290000Y-95210000D03*
X120290000Y-93940000D03*
X120290000Y-92670000D03*
X120290000Y-91400000D03*
X120290000Y-90130000D03*
D11*
X110560000Y-90140000D03*
X110560000Y-91410000D03*
X110560000Y-92680000D03*
X110560000Y-93950000D03*
X110560000Y-95220000D03*
X110560000Y-96490000D03*
X110560000Y-97760000D03*
X110560000Y-99030000D03*
X110560000Y-100300000D03*
X110560000Y-102840000D03*
X110560000Y-104110000D03*
X110560000Y-105380000D03*
X110560000Y-106650000D03*
X110560000Y-107920000D03*
X110560000Y-109190000D03*
X110560000Y-110460000D03*
X110560000Y-111730000D03*
X110560000Y-113000000D03*
X110560000Y-114270000D03*
D10*
X137470000Y-114260000D03*
X137470000Y-112990000D03*
X137470000Y-111720000D03*
X137470000Y-110450000D03*
X137470000Y-109180000D03*
X137470000Y-107910000D03*
X137470000Y-106640000D03*
X137470000Y-105370000D03*
X137470000Y-104100000D03*
X137470000Y-102830000D03*
X137470000Y-99020000D03*
X137470000Y-97750000D03*
X137470000Y-95210000D03*
X137470000Y-93940000D03*
X137470000Y-92670000D03*
X137470000Y-91400000D03*
X137470000Y-90130000D03*
D11*
X127740000Y-90140000D03*
X127740000Y-91410000D03*
X127740000Y-92680000D03*
X127740000Y-93950000D03*
X127740000Y-95220000D03*
X127740000Y-96490000D03*
X127740000Y-97760000D03*
X127740000Y-99030000D03*
X127740000Y-100300000D03*
X127740000Y-102840000D03*
X127740000Y-104110000D03*
X127740000Y-105380000D03*
X127740000Y-106650000D03*
X127740000Y-107920000D03*
X127740000Y-109190000D03*
X127740000Y-110460000D03*
X127740000Y-111730000D03*
X127740000Y-113000000D03*
X127740000Y-114270000D03*
D12*
X134650000Y-114270000D03*
X134650000Y-113000000D03*
X134650000Y-111730000D03*
X134650000Y-110460000D03*
X134650000Y-109190000D03*
X134650000Y-107920000D03*
X134650000Y-106650000D03*
X134650000Y-105380000D03*
X134650000Y-104110000D03*
X134650000Y-102840000D03*
X134650000Y-101570000D03*
X134650000Y-100300000D03*
X134650000Y-99030000D03*
X134650000Y-97760000D03*
X134650000Y-96490000D03*
X134650000Y-95220000D03*
X134650000Y-93950000D03*
X134650000Y-92680000D03*
X134650000Y-91410000D03*
X134650000Y-90140000D03*
D13*
X130550000Y-90130000D03*
X130550000Y-91400000D03*
X130550000Y-92670000D03*
X130550000Y-93940000D03*
X130550000Y-95210000D03*
X130550000Y-96480000D03*
X130550000Y-97750000D03*
X130550000Y-99020000D03*
X130550000Y-100290000D03*
X130550000Y-101560000D03*
X130550000Y-102830000D03*
X130550000Y-104100000D03*
X130550000Y-105370000D03*
X130550000Y-106640000D03*
X130550000Y-107910000D03*
X130550000Y-109180000D03*
X130550000Y-110450000D03*
X130550000Y-111720000D03*
X130550000Y-112990000D03*
X130550000Y-114260000D03*
M02*
