G04 #@! TF.GenerationSoftware,KiCad,Pcbnew,7.0.6-0*
G04 #@! TF.CreationDate,2023-10-14T16:49:42-04:00*
G04 #@! TF.ProjectId,TMU Board,544d5520-426f-4617-9264-2e6b69636164,1*
G04 #@! TF.SameCoordinates,Original*
G04 #@! TF.FileFunction,Profile,NP*
%FSLAX46Y46*%
G04 Gerber Fmt 4.6, Leading zero omitted, Abs format (unit mm)*
G04 Created by KiCad (PCBNEW 7.0.6-0) date 2023-10-14 16:49:42*
%MOMM*%
%LPD*%
G01*
G04 APERTURE LIST*
G04 #@! TA.AperFunction,Profile*
%ADD10C,0.150000*%
G04 #@! TD*
G04 APERTURE END LIST*
D10*
X113300016Y-118690016D02*
X169059984Y-118690016D01*
X137730000Y-89060000D02*
X137730000Y-115360403D01*
X138049596Y-88740400D02*
G75*
G03*
X137730000Y-89060000I4J-319600D01*
G01*
X155209596Y-88740400D02*
G75*
G03*
X154890000Y-89060000I4J-319600D01*
G01*
X127480000Y-89060000D02*
X127480000Y-115370000D01*
X169059984Y-118690000D02*
G75*
G03*
X172060000Y-115690000I16J3000000D01*
G01*
X144320000Y-115680000D02*
X138049597Y-115680000D01*
X127160405Y-115689600D02*
G75*
G03*
X127480000Y-115370000I-5J319600D01*
G01*
X144320000Y-115679995D02*
G75*
G03*
X144639595Y-115360403I0J319595D01*
G01*
X120869596Y-88740402D02*
X127160403Y-88740403D01*
X110300000Y-89060000D02*
X110300000Y-85710000D01*
X138049596Y-88740399D02*
X144320403Y-88740403D01*
X120550003Y-115370000D02*
G75*
G03*
X120869597Y-115689597I319597J0D01*
G01*
X127160405Y-115689597D02*
X120869597Y-115689597D01*
X120869596Y-88740400D02*
G75*
G03*
X120550000Y-89060000I4J-319600D01*
G01*
X144639997Y-89060000D02*
G75*
G03*
X144320403Y-88740403I-319597J0D01*
G01*
X110300000Y-85710000D02*
X169060000Y-85710000D01*
X161490201Y-115679996D02*
G75*
G03*
X161809796Y-115360401I-1J319596D01*
G01*
X144639595Y-115360403D02*
X144639595Y-89060000D01*
X154890000Y-89060000D02*
X154890000Y-115360401D01*
X172060000Y-115690000D02*
X172060000Y-88710016D01*
X120550000Y-115370000D02*
X120550000Y-89060000D01*
X161809796Y-115360401D02*
X161809796Y-89060000D01*
X172060000Y-88710016D02*
G75*
G03*
X169060000Y-85710000I-3000000J16D01*
G01*
X154889802Y-115360401D02*
G75*
G03*
X155209393Y-115679998I319598J1D01*
G01*
X137729600Y-115360403D02*
G75*
G03*
X138049192Y-115680000I319600J3D01*
G01*
X161809997Y-89060000D02*
G75*
G03*
X161490403Y-88740403I-319597J0D01*
G01*
X127479997Y-89060000D02*
G75*
G03*
X127160403Y-88740403I-319597J0D01*
G01*
X110299984Y-115690000D02*
G75*
G03*
X113300016Y-118690016I3000016J0D01*
G01*
X155209596Y-88740402D02*
X161490403Y-88740403D01*
X161490201Y-115680000D02*
X155209798Y-115680000D01*
X110300000Y-115690000D02*
X110300000Y-89060000D01*
X165376983Y-89289588D02*
X165376983Y-115089588D01*
X165696902Y-115409507D02*
X168140385Y-115409507D01*
X168140385Y-88969669D02*
X165696902Y-88969669D01*
X168460304Y-115089588D02*
X168460304Y-89289588D01*
X165696902Y-88969663D02*
G75*
G03*
X165376983Y-89289588I8J-319927D01*
G01*
X165376983Y-115089588D02*
G75*
G03*
X165696902Y-115409507I319927J8D01*
G01*
X168460331Y-89289588D02*
G75*
G03*
X168140385Y-88969669I-319931J-12D01*
G01*
X168140385Y-115409504D02*
G75*
G03*
X168460304Y-115089588I15J319904D01*
G01*
X148216983Y-89289588D02*
X148216983Y-115089588D01*
X148536902Y-115409507D02*
X150980385Y-115409507D01*
X150980385Y-88969669D02*
X148536902Y-88969669D01*
X151300304Y-115089588D02*
X151300304Y-89289588D01*
X148536902Y-88969663D02*
G75*
G03*
X148216983Y-89289588I8J-319927D01*
G01*
X148216983Y-115089588D02*
G75*
G03*
X148536902Y-115409507I319927J8D01*
G01*
X151300331Y-89289588D02*
G75*
G03*
X150980385Y-88969669I-319931J-12D01*
G01*
X150980385Y-115409504D02*
G75*
G03*
X151300304Y-115089588I15J319904D01*
G01*
X113896983Y-89289588D02*
X113896983Y-115089588D01*
X114216902Y-115409507D02*
X116660385Y-115409507D01*
X116660385Y-88969669D02*
X114216902Y-88969669D01*
X116980304Y-115089588D02*
X116980304Y-89289588D01*
X114216902Y-88969663D02*
G75*
G03*
X113896983Y-89289588I8J-319927D01*
G01*
X113896983Y-115089588D02*
G75*
G03*
X114216902Y-115409507I319927J8D01*
G01*
X116980331Y-89289588D02*
G75*
G03*
X116660385Y-88969669I-319931J-12D01*
G01*
X116660385Y-115409504D02*
G75*
G03*
X116980304Y-115089588I15J319904D01*
G01*
X131056983Y-89289588D02*
X131056983Y-115089588D01*
X131376902Y-115409507D02*
X133820385Y-115409507D01*
X133820385Y-88969669D02*
X131376902Y-88969669D01*
X134140304Y-115089588D02*
X134140304Y-89289588D01*
X131376902Y-88969663D02*
G75*
G03*
X131056983Y-89289588I8J-319927D01*
G01*
X131056983Y-115089588D02*
G75*
G03*
X131376902Y-115409507I319927J8D01*
G01*
X134140331Y-89289588D02*
G75*
G03*
X133820385Y-88969669I-319931J-12D01*
G01*
X133820385Y-115409504D02*
G75*
G03*
X134140304Y-115089588I15J319904D01*
G01*
M02*
