M48
; DRILL file {KiCad 7.0.6-0} date 2023 October 14, Saturday 16:49:44
; FORMAT={-:-/ absolute / metric / decimal}
; #@! TF.CreationDate,2023-10-14T16:49:44-04:00
; #@! TF.GenerationSoftware,Kicad,Pcbnew,7.0.6-0
; #@! TF.FileFunction,Plated,1,2,PTH
FMAT,2
METRIC
; #@! TA.AperFunction,Plated,PTH,ViaDrill
T1C0.300
; #@! TA.AperFunction,Plated,PTH,ComponentDrill
T2C0.650
%
G90
G05
T1
X118.63Y-100.94
X129.41Y-87.25
X135.63Y-100.94
X136.47Y-88.62
X152.9Y-100.94
X170.08Y-100.91
T2
X110.3Y-90.14
X110.3Y-91.41
X110.3Y-92.68
X110.3Y-93.95
X110.3Y-95.22
X110.3Y-96.49
X110.3Y-97.76
X110.3Y-99.03
X110.3Y-100.3
X110.3Y-102.84
X110.3Y-104.11
X110.3Y-105.38
X110.3Y-106.65
X110.3Y-107.92
X110.3Y-109.19
X110.3Y-110.46
X110.3Y-111.73
X110.3Y-113.0
X110.3Y-114.27
X120.55Y-90.13
X120.55Y-91.4
X120.55Y-92.67
X120.55Y-93.94
X120.55Y-95.21
X120.55Y-97.75
X120.55Y-99.02
X120.55Y-102.83
X120.55Y-104.1
X120.55Y-105.37
X120.55Y-106.64
X120.55Y-107.91
X120.55Y-109.18
X120.55Y-110.45
X120.55Y-111.72
X120.55Y-112.99
X120.55Y-114.26
X127.48Y-90.14
X127.48Y-91.41
X127.48Y-92.68
X127.48Y-93.95
X127.48Y-95.22
X127.48Y-96.49
X127.48Y-97.76
X127.48Y-99.03
X127.48Y-100.3
X127.48Y-102.84
X127.48Y-104.11
X127.48Y-105.38
X127.48Y-106.65
X127.48Y-107.92
X127.48Y-109.19
X127.48Y-110.46
X127.48Y-111.73
X127.48Y-113.0
X127.48Y-114.27
X137.73Y-90.13
X137.73Y-91.4
X137.73Y-92.67
X137.73Y-93.94
X137.73Y-95.21
X137.73Y-97.75
X137.73Y-99.02
X137.73Y-102.83
X137.73Y-104.1
X137.73Y-105.37
X137.73Y-106.64
X137.73Y-107.91
X137.73Y-109.18
X137.73Y-110.45
X137.73Y-111.72
X137.73Y-112.99
X137.73Y-114.26
X144.64Y-90.14
X144.64Y-91.41
X144.64Y-92.68
X144.64Y-93.95
X144.64Y-95.22
X144.64Y-96.49
X144.64Y-97.76
X144.64Y-99.03
X144.64Y-100.3
X144.64Y-102.84
X144.64Y-104.11
X144.64Y-105.38
X144.64Y-106.65
X144.64Y-107.92
X144.64Y-109.19
X144.64Y-110.46
X144.64Y-111.73
X144.64Y-113.0
X144.64Y-114.27
X154.89Y-90.13
X154.89Y-91.4
X154.89Y-92.67
X154.89Y-93.94
X154.89Y-95.21
X154.89Y-97.75
X154.89Y-99.02
X154.89Y-102.83
X154.89Y-104.1
X154.89Y-105.37
X154.89Y-106.64
X154.89Y-107.91
X154.89Y-109.18
X154.89Y-110.45
X154.89Y-111.72
X154.89Y-112.99
X154.89Y-114.26
X161.81Y-90.14
X161.81Y-91.41
X161.81Y-92.68
X161.81Y-93.95
X161.81Y-95.22
X161.81Y-96.49
X161.81Y-97.76
X161.81Y-99.03
X161.81Y-100.3
X161.81Y-102.84
X161.81Y-104.11
X161.81Y-105.38
X161.81Y-106.65
X161.81Y-107.92
X161.81Y-109.19
X161.81Y-110.46
X161.81Y-111.73
X161.81Y-113.0
X161.81Y-114.27
X172.06Y-90.13
X172.06Y-91.4
X172.06Y-92.67
X172.06Y-93.94
X172.06Y-95.21
X172.06Y-97.75
X172.06Y-99.02
X172.06Y-102.83
X172.06Y-104.1
X172.06Y-105.37
X172.06Y-106.64
X172.06Y-107.91
X172.06Y-109.18
X172.06Y-110.45
X172.06Y-111.72
X172.06Y-112.99
X172.06Y-114.26
T0
M30
