G04 #@! TF.GenerationSoftware,KiCad,Pcbnew,7.0.6-0*
G04 #@! TF.CreationDate,2023-09-15T02:17:21-04:00*
G04 #@! TF.ProjectId,TMU Board,544d5520-426f-4617-9264-2e6b69636164,1*
G04 #@! TF.SameCoordinates,Original*
G04 #@! TF.FileFunction,Legend,Bot*
G04 #@! TF.FilePolarity,Positive*
%FSLAX46Y46*%
G04 Gerber Fmt 4.6, Leading zero omitted, Abs format (unit mm)*
G04 Created by KiCad (PCBNEW 7.0.6-0) date 2023-09-15 02:17:21*
%MOMM*%
%LPD*%
G01*
G04 APERTURE LIST*
G04 Aperture macros list*
%AMRoundRect*
0 Rectangle with rounded corners*
0 $1 Rounding radius*
0 $2 $3 $4 $5 $6 $7 $8 $9 X,Y pos of 4 corners*
0 Add a 4 corners polygon primitive as box body*
4,1,4,$2,$3,$4,$5,$6,$7,$8,$9,$2,$3,0*
0 Add four circle primitives for the rounded corners*
1,1,$1+$1,$2,$3*
1,1,$1+$1,$4,$5*
1,1,$1+$1,$6,$7*
1,1,$1+$1,$8,$9*
0 Add four rect primitives between the rounded corners*
20,1,$1+$1,$2,$3,$4,$5,0*
20,1,$1+$1,$4,$5,$6,$7,0*
20,1,$1+$1,$6,$7,$8,$9,0*
20,1,$1+$1,$8,$9,$2,$3,0*%
G04 Aperture macros list end*
%ADD10C,0.127000*%
%ADD11RoundRect,0.278300X0.477500X0.227500X-0.477500X0.227500X-0.477500X-0.227500X0.477500X-0.227500X0*%
%ADD12RoundRect,0.278300X-0.477500X-0.227500X0.477500X-0.227500X0.477500X0.227500X-0.477500X0.227500X0*%
%ADD13RoundRect,0.240800X0.310000X0.190000X-0.310000X0.190000X-0.310000X-0.190000X0.310000X-0.190000X0*%
%ADD14RoundRect,0.240800X-0.310000X-0.190000X0.310000X-0.190000X0.310000X0.190000X-0.310000X0.190000X0*%
G04 APERTURE END LIST*
D10*
G36*
X140347076Y-117054702D02*
G01*
X140368159Y-117058926D01*
X140387422Y-117065967D01*
X140404864Y-117075825D01*
X140420486Y-117088499D01*
X140425289Y-117093349D01*
X140437906Y-117109612D01*
X140447912Y-117128726D01*
X140455308Y-117150691D01*
X140459477Y-117171172D01*
X140461834Y-117193634D01*
X140462414Y-117213028D01*
X140462414Y-117760132D01*
X140461507Y-117784189D01*
X140458788Y-117806290D01*
X140454256Y-117826435D01*
X140446425Y-117848028D01*
X140435984Y-117866804D01*
X140425289Y-117880300D01*
X140410274Y-117893746D01*
X140393438Y-117904411D01*
X140374782Y-117912293D01*
X140354306Y-117917394D01*
X140332009Y-117919712D01*
X140324172Y-117919867D01*
X140301120Y-117918476D01*
X140279957Y-117914303D01*
X140260683Y-117907348D01*
X140243297Y-117897610D01*
X140227801Y-117885091D01*
X140223056Y-117880300D01*
X140210273Y-117863870D01*
X140200135Y-117844625D01*
X140192642Y-117822563D01*
X140188418Y-117802026D01*
X140186030Y-117779534D01*
X140185442Y-117760132D01*
X140185442Y-117213028D01*
X140186361Y-117188983D01*
X140189116Y-117166918D01*
X140193707Y-117146832D01*
X140201641Y-117125343D01*
X140212220Y-117106704D01*
X140223056Y-117093349D01*
X140237922Y-117079736D01*
X140254678Y-117068940D01*
X140273322Y-117060960D01*
X140293856Y-117055797D01*
X140316278Y-117053450D01*
X140324172Y-117053293D01*
X140347076Y-117054702D01*
G37*
G36*
X142523768Y-117054702D02*
G01*
X142544851Y-117058926D01*
X142564114Y-117065967D01*
X142581556Y-117075825D01*
X142597178Y-117088499D01*
X142601981Y-117093349D01*
X142614598Y-117109612D01*
X142624604Y-117128726D01*
X142632000Y-117150691D01*
X142636169Y-117171172D01*
X142638526Y-117193634D01*
X142639106Y-117213028D01*
X142639106Y-117760132D01*
X142638200Y-117784189D01*
X142635481Y-117806290D01*
X142630949Y-117826435D01*
X142623118Y-117848028D01*
X142612676Y-117866804D01*
X142601981Y-117880300D01*
X142586966Y-117893746D01*
X142570130Y-117904411D01*
X142551474Y-117912293D01*
X142530998Y-117917394D01*
X142508701Y-117919712D01*
X142500865Y-117919867D01*
X142477812Y-117918476D01*
X142456649Y-117914303D01*
X142437375Y-117907348D01*
X142419990Y-117897610D01*
X142404494Y-117885091D01*
X142399748Y-117880300D01*
X142386965Y-117863870D01*
X142376827Y-117844625D01*
X142369334Y-117822563D01*
X142365110Y-117802026D01*
X142362722Y-117779534D01*
X142362135Y-117760132D01*
X142362135Y-117213028D01*
X142363053Y-117188983D01*
X142365808Y-117166918D01*
X142370399Y-117146832D01*
X142378333Y-117125343D01*
X142388912Y-117106704D01*
X142399748Y-117093349D01*
X142414614Y-117079736D01*
X142431370Y-117068940D01*
X142450014Y-117060960D01*
X142470548Y-117055797D01*
X142492971Y-117053450D01*
X142500865Y-117053293D01*
X142523768Y-117054702D01*
G37*
G36*
X143799748Y-117904235D02*
G01*
X143677627Y-117904235D01*
X143656606Y-117903831D01*
X143636777Y-117902617D01*
X143613665Y-117899963D01*
X143592413Y-117896044D01*
X143573021Y-117890861D01*
X143552207Y-117882972D01*
X143542805Y-117878346D01*
X143525477Y-117867950D01*
X143509763Y-117856181D01*
X143493471Y-117840713D01*
X143479376Y-117823376D01*
X143469043Y-117807027D01*
X143460554Y-117789207D01*
X143453404Y-117770184D01*
X143447594Y-117749960D01*
X143443123Y-117728533D01*
X143439992Y-117705904D01*
X143439246Y-117698094D01*
X143437557Y-117678128D01*
X143436154Y-117657613D01*
X143435038Y-117636550D01*
X143434208Y-117614937D01*
X143433664Y-117592777D01*
X143433407Y-117570067D01*
X143433384Y-117560830D01*
X143433587Y-117537200D01*
X143434195Y-117514548D01*
X143435208Y-117492874D01*
X143436628Y-117472177D01*
X143438452Y-117452459D01*
X143441177Y-117430088D01*
X143441688Y-117426496D01*
X143445386Y-117405648D01*
X143450252Y-117385967D01*
X143457404Y-117364483D01*
X143466147Y-117344587D01*
X143474905Y-117328799D01*
X143488022Y-117312494D01*
X143503008Y-117298198D01*
X143519865Y-117285913D01*
X143538591Y-117275638D01*
X143550132Y-117270669D01*
X143568799Y-117264361D01*
X143589630Y-117259358D01*
X143612626Y-117255660D01*
X143633441Y-117253575D01*
X143655759Y-117252397D01*
X143674696Y-117252107D01*
X143799748Y-117252107D01*
X143799748Y-117904235D01*
G37*
G36*
X143799748Y-117002002D02*
G01*
X143672253Y-117002002D01*
X143646425Y-117001401D01*
X143622245Y-116999598D01*
X143599713Y-116996593D01*
X143578830Y-116992385D01*
X143559596Y-116986976D01*
X143536515Y-116977893D01*
X143516365Y-116966673D01*
X143499146Y-116953316D01*
X143484858Y-116937822D01*
X143481744Y-116933614D01*
X143470409Y-116915411D01*
X143460586Y-116895238D01*
X143452274Y-116873095D01*
X143445474Y-116848984D01*
X143441365Y-116829608D01*
X143438106Y-116809125D01*
X143435698Y-116787534D01*
X143434139Y-116764835D01*
X143433431Y-116741028D01*
X143433384Y-116732847D01*
X143433860Y-116709321D01*
X143435290Y-116686919D01*
X143437673Y-116665643D01*
X143441009Y-116645492D01*
X143446939Y-116620373D01*
X143454564Y-116597254D01*
X143463884Y-116576134D01*
X143474897Y-116557015D01*
X143487606Y-116539895D01*
X143502413Y-116524668D01*
X143519968Y-116511471D01*
X143540271Y-116500305D01*
X143563321Y-116491168D01*
X143582412Y-116485649D01*
X143603049Y-116481271D01*
X143625231Y-116478035D01*
X143648959Y-116475941D01*
X143674232Y-116474990D01*
X143683000Y-116474926D01*
X143799748Y-116474926D01*
X143799748Y-117002002D01*
G37*
G36*
X144371226Y-118491345D02*
G01*
X137984376Y-118491345D01*
X137984376Y-118190000D01*
X138270090Y-118190000D01*
X138555854Y-118190000D01*
X138555854Y-117218890D01*
X138556725Y-117195582D01*
X138559336Y-117173896D01*
X138563689Y-117153832D01*
X138571211Y-117131896D01*
X138581241Y-117112295D01*
X138591514Y-117097745D01*
X138605951Y-117082639D01*
X138622517Y-117070657D01*
X138641213Y-117061802D01*
X138662039Y-117056072D01*
X138684994Y-117053467D01*
X138693119Y-117053293D01*
X138716796Y-117054510D01*
X138738065Y-117058159D01*
X138756925Y-117064241D01*
X138776376Y-117074751D01*
X138792359Y-117088765D01*
X138803028Y-117103119D01*
X138813154Y-117123200D01*
X138819993Y-117142348D01*
X138825376Y-117163691D01*
X138829304Y-117187228D01*
X138831400Y-117207638D01*
X138832564Y-117229452D01*
X138832825Y-117246734D01*
X138832825Y-118190000D01*
X139118590Y-118190000D01*
X139118590Y-117218890D01*
X139119460Y-117195582D01*
X139122072Y-117173896D01*
X139126425Y-117153832D01*
X139133947Y-117131896D01*
X139143976Y-117112295D01*
X139154249Y-117097745D01*
X139168669Y-117082639D01*
X139185184Y-117070657D01*
X139203794Y-117061802D01*
X139224499Y-117056072D01*
X139247300Y-117053467D01*
X139255366Y-117053293D01*
X139279043Y-117054510D01*
X139300312Y-117058159D01*
X139319172Y-117064241D01*
X139338623Y-117074751D01*
X139354606Y-117088765D01*
X139365275Y-117103119D01*
X139375567Y-117123200D01*
X139382518Y-117142348D01*
X139387989Y-117163691D01*
X139391982Y-117187228D01*
X139394112Y-117207638D01*
X139395295Y-117229452D01*
X139395561Y-117246734D01*
X139395561Y-118190000D01*
X139681325Y-118190000D01*
X139681325Y-117718611D01*
X139899678Y-117718611D01*
X139899854Y-117739661D01*
X139900375Y-117760132D01*
X139900380Y-117760315D01*
X139901258Y-117780572D01*
X139902487Y-117800432D01*
X139904517Y-117824699D01*
X139907095Y-117848346D01*
X139910222Y-117871372D01*
X139910913Y-117875903D01*
X139914901Y-117898090D01*
X139919844Y-117919466D01*
X139925740Y-117940031D01*
X139932590Y-117959785D01*
X139940394Y-117978728D01*
X139949153Y-117996861D01*
X139952923Y-118003886D01*
X139966067Y-118026158D01*
X139980584Y-118047301D01*
X139996475Y-118067313D01*
X140013740Y-118086196D01*
X140032378Y-118103950D01*
X140052391Y-118120573D01*
X140068302Y-118132300D01*
X140084986Y-118143391D01*
X140096538Y-118150432D01*
X140114393Y-118160297D01*
X140132968Y-118169191D01*
X140152265Y-118177115D01*
X140172284Y-118184069D01*
X140193023Y-118190052D01*
X140214484Y-118195066D01*
X140236667Y-118199109D01*
X140259570Y-118202181D01*
X140283195Y-118204283D01*
X140307541Y-118205415D01*
X140324172Y-118205631D01*
X140348916Y-118205146D01*
X140372956Y-118203690D01*
X140396292Y-118201265D01*
X140418923Y-118197869D01*
X140440851Y-118193502D01*
X140454780Y-118190000D01*
X140849783Y-118190000D01*
X140962623Y-118190000D01*
X140985590Y-118189526D01*
X141007594Y-118188107D01*
X141028637Y-118185741D01*
X141048719Y-118182428D01*
X141067838Y-118178169D01*
X141090386Y-118171514D01*
X141111430Y-118163381D01*
X141119427Y-118159713D01*
X141138358Y-118149691D01*
X141156073Y-118138857D01*
X141172571Y-118127213D01*
X141187853Y-118114757D01*
X141204586Y-118098740D01*
X141219567Y-118081556D01*
X141232968Y-118063358D01*
X141244960Y-118044301D01*
X141255545Y-118024386D01*
X141264721Y-118003612D01*
X141272489Y-117981979D01*
X141274765Y-117974577D01*
X141280576Y-117952200D01*
X141285184Y-117930133D01*
X141288590Y-117908374D01*
X141290794Y-117886925D01*
X141291796Y-117865784D01*
X141291862Y-117858806D01*
X141291862Y-117002002D01*
X141420334Y-117002002D01*
X141443782Y-117002002D01*
X141576650Y-117002002D01*
X141576650Y-117767948D01*
X141576229Y-117788481D01*
X141574718Y-117809371D01*
X141571704Y-117829589D01*
X141567857Y-117844640D01*
X141559751Y-117862935D01*
X141547559Y-117878569D01*
X141539525Y-117885184D01*
X141521882Y-117894524D01*
X141501497Y-117900316D01*
X141491165Y-117901793D01*
X141470012Y-117903184D01*
X141450216Y-117903892D01*
X141428178Y-117904214D01*
X141420334Y-117904235D01*
X141420334Y-118190000D01*
X141533174Y-118190000D01*
X141556141Y-118189526D01*
X141578146Y-118188107D01*
X141599189Y-118185741D01*
X141619270Y-118182428D01*
X141638390Y-118178169D01*
X141660937Y-118171514D01*
X141681981Y-118163381D01*
X141689978Y-118159713D01*
X141708910Y-118149691D01*
X141726624Y-118138857D01*
X141743123Y-118127213D01*
X141758404Y-118114757D01*
X141775137Y-118098740D01*
X141790118Y-118081556D01*
X141803519Y-118063358D01*
X141815512Y-118044301D01*
X141826096Y-118024386D01*
X141835272Y-118003612D01*
X141843040Y-117981979D01*
X141845317Y-117974577D01*
X141851127Y-117952200D01*
X141855735Y-117930133D01*
X141859141Y-117908374D01*
X141861345Y-117886925D01*
X141862347Y-117865784D01*
X141862414Y-117858806D01*
X141862414Y-117718611D01*
X142076371Y-117718611D01*
X142076546Y-117739661D01*
X142077068Y-117760132D01*
X142077073Y-117760315D01*
X142077950Y-117780572D01*
X142079179Y-117800432D01*
X142081209Y-117824699D01*
X142083787Y-117848346D01*
X142086914Y-117871372D01*
X142087606Y-117875903D01*
X142091594Y-117898090D01*
X142096536Y-117919466D01*
X142102432Y-117940031D01*
X142109282Y-117959785D01*
X142117087Y-117978728D01*
X142125845Y-117996861D01*
X142129615Y-118003886D01*
X142142759Y-118026158D01*
X142157276Y-118047301D01*
X142173167Y-118067313D01*
X142190432Y-118086196D01*
X142209071Y-118103950D01*
X142229083Y-118120573D01*
X142244994Y-118132300D01*
X142261678Y-118143391D01*
X142273230Y-118150432D01*
X142291085Y-118160297D01*
X142309661Y-118169191D01*
X142328958Y-118177115D01*
X142348976Y-118184069D01*
X142369716Y-118190052D01*
X142391177Y-118195066D01*
X142413359Y-118199109D01*
X142436262Y-118202181D01*
X142459887Y-118204283D01*
X142484233Y-118205415D01*
X142500865Y-118205631D01*
X142525608Y-118205146D01*
X142549648Y-118203690D01*
X142572984Y-118201265D01*
X142595616Y-118197869D01*
X142617543Y-118193502D01*
X142638766Y-118188166D01*
X142659286Y-118181859D01*
X142679101Y-118174582D01*
X142698212Y-118166334D01*
X142716619Y-118157116D01*
X142728499Y-118150432D01*
X142745611Y-118139765D01*
X142761958Y-118128462D01*
X142777542Y-118116523D01*
X142797131Y-118099617D01*
X142815361Y-118081581D01*
X142832233Y-118062416D01*
X142847746Y-118042121D01*
X142861901Y-118020696D01*
X142871625Y-118003886D01*
X142880765Y-117986079D01*
X142888951Y-117967460D01*
X142896183Y-117948030D01*
X142902461Y-117927790D01*
X142907785Y-117906738D01*
X142912154Y-117884875D01*
X142913635Y-117875903D01*
X142916872Y-117853001D01*
X142919560Y-117829478D01*
X142921699Y-117805335D01*
X142923016Y-117785574D01*
X142923981Y-117765417D01*
X142924596Y-117744862D01*
X142924859Y-117723911D01*
X142924870Y-117718611D01*
X142924870Y-117640453D01*
X143147620Y-117640453D01*
X143148125Y-117673245D01*
X143149642Y-117705063D01*
X143152171Y-117735908D01*
X143155710Y-117765780D01*
X143160261Y-117794679D01*
X143165823Y-117822605D01*
X143172397Y-117849557D01*
X143179982Y-117875537D01*
X143188578Y-117900543D01*
X143198186Y-117924576D01*
X143208804Y-117947636D01*
X143220435Y-117969723D01*
X143233076Y-117990837D01*
X143246729Y-118010977D01*
X143261393Y-118030144D01*
X143277068Y-118048339D01*
X143293852Y-118065493D01*
X143311842Y-118081540D01*
X143331038Y-118096481D01*
X143351440Y-118110315D01*
X143373048Y-118123043D01*
X143395862Y-118134663D01*
X143419882Y-118145177D01*
X143445107Y-118154584D01*
X143471539Y-118162885D01*
X143499177Y-118170078D01*
X143528020Y-118176165D01*
X143558070Y-118181146D01*
X143589325Y-118185019D01*
X143621787Y-118187786D01*
X143655454Y-118189446D01*
X143690327Y-118190000D01*
X144085512Y-118190000D01*
X144085512Y-116189162D01*
X143661995Y-116189162D01*
X143636252Y-116189531D01*
X143611231Y-116190639D01*
X143586930Y-116192485D01*
X143563351Y-116195070D01*
X143540494Y-116198393D01*
X143518357Y-116202454D01*
X143496942Y-116207254D01*
X143476248Y-116212793D01*
X143456276Y-116219069D01*
X143437025Y-116226085D01*
X143424591Y-116231172D01*
X143406495Y-116239202D01*
X143383341Y-116250670D01*
X143361302Y-116263008D01*
X143340377Y-116276216D01*
X143320567Y-116290294D01*
X143301871Y-116305243D01*
X143284289Y-116321061D01*
X143267822Y-116337750D01*
X143263879Y-116342058D01*
X143248919Y-116359842D01*
X143235059Y-116378267D01*
X143222297Y-116397333D01*
X143210634Y-116417041D01*
X143200071Y-116437389D01*
X143190606Y-116458379D01*
X143182241Y-116480010D01*
X143174975Y-116502281D01*
X143168563Y-116524981D01*
X143163007Y-116547894D01*
X143158305Y-116571021D01*
X143154458Y-116594361D01*
X143151466Y-116617915D01*
X143149329Y-116641683D01*
X143148047Y-116665665D01*
X143147620Y-116689860D01*
X143147620Y-116732847D01*
X143147620Y-116762644D01*
X143147833Y-116782405D01*
X143148702Y-116806011D01*
X143150238Y-116828401D01*
X143152442Y-116849574D01*
X143155313Y-116869531D01*
X143159641Y-116891874D01*
X143161297Y-116898932D01*
X143166707Y-116919334D01*
X143173044Y-116938774D01*
X143180308Y-116957252D01*
X143189955Y-116977595D01*
X143200865Y-116996629D01*
X143214405Y-117015703D01*
X143229624Y-117034090D01*
X143246523Y-117051790D01*
X143265100Y-117068803D01*
X143285357Y-117085129D01*
X143301652Y-117096923D01*
X143318891Y-117108330D01*
X143337075Y-117119351D01*
X143356203Y-117129986D01*
X143336555Y-117139448D01*
X143317912Y-117149701D01*
X143300274Y-117160743D01*
X143283640Y-117172575D01*
X143268011Y-117185198D01*
X143253386Y-117198610D01*
X143239766Y-117212812D01*
X143227151Y-117227805D01*
X143215541Y-117243587D01*
X143204935Y-117260159D01*
X143198422Y-117271646D01*
X143189343Y-117289741D01*
X143181157Y-117309038D01*
X143173864Y-117329538D01*
X143167464Y-117351239D01*
X143161957Y-117374143D01*
X143157344Y-117398248D01*
X143153623Y-117423556D01*
X143150795Y-117450066D01*
X143148860Y-117477778D01*
X143147818Y-117506692D01*
X143147620Y-117526636D01*
X143147620Y-117560830D01*
X143147620Y-117640453D01*
X142924870Y-117640453D01*
X142924870Y-117255038D01*
X142924695Y-117233766D01*
X142924168Y-117212937D01*
X142923290Y-117192550D01*
X142922061Y-117172606D01*
X142920481Y-117153105D01*
X142918013Y-117129351D01*
X142914995Y-117106288D01*
X142913635Y-117097257D01*
X142909647Y-117075211D01*
X142904705Y-117053952D01*
X142898809Y-117033480D01*
X142891958Y-117013795D01*
X142884154Y-116994897D01*
X142875396Y-116976786D01*
X142871625Y-116969762D01*
X142858490Y-116947490D01*
X142843995Y-116926348D01*
X142828142Y-116906335D01*
X142810931Y-116887452D01*
X142792361Y-116869699D01*
X142772432Y-116853075D01*
X142756594Y-116841349D01*
X142739992Y-116830258D01*
X142728499Y-116823217D01*
X142710561Y-116813265D01*
X142691920Y-116804292D01*
X142672574Y-116796297D01*
X142652524Y-116789282D01*
X142631770Y-116783246D01*
X142610312Y-116778188D01*
X142588150Y-116774109D01*
X142565284Y-116771010D01*
X142541713Y-116768889D01*
X142517439Y-116767747D01*
X142500865Y-116767529D01*
X142476038Y-116768019D01*
X142451932Y-116769487D01*
X142428548Y-116771934D01*
X142405885Y-116775360D01*
X142383943Y-116779765D01*
X142362722Y-116785149D01*
X142342223Y-116791512D01*
X142322445Y-116798853D01*
X142303389Y-116807174D01*
X142285053Y-116816473D01*
X142273230Y-116823217D01*
X142256031Y-116833884D01*
X142239605Y-116845187D01*
X142223951Y-116857125D01*
X142204282Y-116874031D01*
X142185987Y-116892067D01*
X142169065Y-116911233D01*
X142153518Y-116931528D01*
X142139344Y-116952952D01*
X142129615Y-116969762D01*
X142120475Y-116987558D01*
X142112289Y-117006141D01*
X142105058Y-117025511D01*
X142098780Y-117045668D01*
X142093456Y-117066613D01*
X142089086Y-117088344D01*
X142087606Y-117097257D01*
X142084369Y-117120043D01*
X142081681Y-117143520D01*
X142079541Y-117167689D01*
X142078225Y-117187522D01*
X142077259Y-117207798D01*
X142076645Y-117228517D01*
X142076381Y-117249678D01*
X142076371Y-117255038D01*
X142076371Y-117718611D01*
X141862414Y-117718611D01*
X141862414Y-117002002D01*
X142014333Y-117002002D01*
X142014333Y-116783161D01*
X141862414Y-116783161D01*
X141862414Y-116329846D01*
X141576650Y-116329846D01*
X141576650Y-116783161D01*
X141443782Y-116783161D01*
X141291862Y-116783161D01*
X141291862Y-116329846D01*
X141006098Y-116329846D01*
X141006098Y-116783161D01*
X140849783Y-116783161D01*
X140849783Y-117002002D01*
X141006098Y-117002002D01*
X141006098Y-117767948D01*
X141005678Y-117788481D01*
X141004166Y-117809371D01*
X141001152Y-117829589D01*
X140997306Y-117844640D01*
X140989200Y-117862935D01*
X140977008Y-117878569D01*
X140968973Y-117885184D01*
X140951330Y-117894524D01*
X140930946Y-117900316D01*
X140920613Y-117901793D01*
X140899461Y-117903184D01*
X140879665Y-117903892D01*
X140857627Y-117904214D01*
X140849783Y-117904235D01*
X140849783Y-118190000D01*
X140454780Y-118190000D01*
X140462074Y-118188166D01*
X140482593Y-118181859D01*
X140502409Y-118174582D01*
X140521520Y-118166334D01*
X140539927Y-118157116D01*
X140551807Y-118150432D01*
X140568918Y-118139765D01*
X140585266Y-118128462D01*
X140600849Y-118116523D01*
X140620438Y-118099617D01*
X140638669Y-118081581D01*
X140655541Y-118062416D01*
X140671054Y-118042121D01*
X140685209Y-118020696D01*
X140694933Y-118003886D01*
X140704073Y-117986079D01*
X140712259Y-117967460D01*
X140719491Y-117948030D01*
X140725769Y-117927790D01*
X140731092Y-117906738D01*
X140735462Y-117884875D01*
X140736943Y-117875903D01*
X140740179Y-117853001D01*
X140742868Y-117829478D01*
X140745007Y-117805335D01*
X140746324Y-117785574D01*
X140747289Y-117765417D01*
X140747904Y-117744862D01*
X140748167Y-117723911D01*
X140748178Y-117718611D01*
X140748178Y-117255038D01*
X140748002Y-117233766D01*
X140747476Y-117212937D01*
X140746598Y-117192550D01*
X140745369Y-117172606D01*
X140743789Y-117153105D01*
X140741320Y-117129351D01*
X140738303Y-117106288D01*
X140736943Y-117097257D01*
X140732955Y-117075211D01*
X140728013Y-117053952D01*
X140722116Y-117033480D01*
X140715266Y-117013795D01*
X140707462Y-116994897D01*
X140698703Y-116976786D01*
X140694933Y-116969762D01*
X140681797Y-116947490D01*
X140667303Y-116926348D01*
X140651450Y-116906335D01*
X140634239Y-116887452D01*
X140615669Y-116869699D01*
X140595740Y-116853075D01*
X140579902Y-116841349D01*
X140563299Y-116830258D01*
X140551807Y-116823217D01*
X140533869Y-116813265D01*
X140515227Y-116804292D01*
X140495882Y-116796297D01*
X140475832Y-116789282D01*
X140455078Y-116783246D01*
X140433620Y-116778188D01*
X140411458Y-116774109D01*
X140388591Y-116771010D01*
X140365021Y-116768889D01*
X140340746Y-116767747D01*
X140324172Y-116767529D01*
X140299345Y-116768019D01*
X140275240Y-116769487D01*
X140251855Y-116771934D01*
X140229192Y-116775360D01*
X140207251Y-116779765D01*
X140186030Y-116785149D01*
X140165531Y-116791512D01*
X140145753Y-116798853D01*
X140126696Y-116807174D01*
X140108361Y-116816473D01*
X140096538Y-116823217D01*
X140079339Y-116833884D01*
X140062913Y-116845187D01*
X140047259Y-116857125D01*
X140027590Y-116874031D01*
X140009295Y-116892067D01*
X139992373Y-116911233D01*
X139976826Y-116931528D01*
X139962652Y-116952952D01*
X139952923Y-116969762D01*
X139943783Y-116987558D01*
X139935597Y-117006141D01*
X139928365Y-117025511D01*
X139922088Y-117045668D01*
X139916764Y-117066613D01*
X139912394Y-117088344D01*
X139910913Y-117097257D01*
X139907677Y-117120043D01*
X139904989Y-117143520D01*
X139902849Y-117167689D01*
X139901532Y-117187522D01*
X139900567Y-117207798D01*
X139899953Y-117228517D01*
X139899689Y-117249678D01*
X139899678Y-117255038D01*
X139899678Y-117718611D01*
X139681325Y-117718611D01*
X139681325Y-116783161D01*
X139395561Y-116783161D01*
X139395561Y-116920914D01*
X139389699Y-116920914D01*
X139378311Y-116904557D01*
X139366374Y-116888948D01*
X139350679Y-116870489D01*
X139334126Y-116853199D01*
X139316714Y-116837078D01*
X139298444Y-116822125D01*
X139283209Y-116811004D01*
X139262835Y-116798480D01*
X139240791Y-116788078D01*
X139221954Y-116781285D01*
X139202048Y-116775851D01*
X139181074Y-116771775D01*
X139159031Y-116769058D01*
X139135919Y-116767699D01*
X139123963Y-116767529D01*
X139101599Y-116768231D01*
X139080182Y-116770338D01*
X139059712Y-116773849D01*
X139040188Y-116778764D01*
X139021610Y-116785084D01*
X138999719Y-116794959D01*
X138979306Y-116807028D01*
X138971555Y-116812470D01*
X138953023Y-116826564D01*
X138935587Y-116841063D01*
X138919248Y-116855968D01*
X138904007Y-116871279D01*
X138889863Y-116886995D01*
X138876816Y-116903116D01*
X138871904Y-116909678D01*
X138858547Y-116895398D01*
X138841379Y-116878256D01*
X138823685Y-116861900D01*
X138805467Y-116846332D01*
X138786725Y-116831551D01*
X138767457Y-116817557D01*
X138755645Y-116809539D01*
X138734572Y-116797437D01*
X138715944Y-116789231D01*
X138695745Y-116782339D01*
X138673973Y-116776760D01*
X138650628Y-116772493D01*
X138625712Y-116769539D01*
X138605993Y-116768186D01*
X138585389Y-116767570D01*
X138578324Y-116767529D01*
X138558438Y-116768165D01*
X138538345Y-116770071D01*
X138518046Y-116773248D01*
X138497541Y-116777696D01*
X138476830Y-116783414D01*
X138469881Y-116785603D01*
X138449410Y-116793205D01*
X138429764Y-116802456D01*
X138410942Y-116813355D01*
X138392944Y-116825903D01*
X138375771Y-116840100D01*
X138370230Y-116845198D01*
X138354144Y-116861610D01*
X138339226Y-116879705D01*
X138327686Y-116896070D01*
X138316958Y-116913604D01*
X138307040Y-116932306D01*
X138297934Y-116952177D01*
X138289912Y-116973195D01*
X138283250Y-116995644D01*
X138277948Y-117019525D01*
X138274685Y-117039660D01*
X138272292Y-117060710D01*
X138270770Y-117082677D01*
X138270117Y-117105559D01*
X138270090Y-117111423D01*
X138270090Y-118190000D01*
X137984376Y-118190000D01*
X137984376Y-115903448D01*
X144371226Y-115903448D01*
X144371226Y-118491345D01*
G37*
%LPC*%
D11*
X154630000Y-114260000D03*
X154630000Y-112990000D03*
X154630000Y-111720000D03*
X154630000Y-110450000D03*
X154630000Y-109180000D03*
X154630000Y-107910000D03*
X154630000Y-106640000D03*
X154630000Y-105370000D03*
X154630000Y-104100000D03*
X154630000Y-102830000D03*
X154630000Y-99020000D03*
X154630000Y-97750000D03*
X154630000Y-95210000D03*
X154630000Y-93940000D03*
X154630000Y-92670000D03*
X154630000Y-91400000D03*
X154630000Y-90130000D03*
D12*
X144900000Y-90140000D03*
X144900000Y-91410000D03*
X144900000Y-92680000D03*
X144900000Y-93950000D03*
X144900000Y-95220000D03*
X144900000Y-96490000D03*
X144900000Y-97760000D03*
X144900000Y-99030000D03*
X144900000Y-100300000D03*
X144900000Y-102840000D03*
X144900000Y-104110000D03*
X144900000Y-105380000D03*
X144900000Y-106650000D03*
X144900000Y-107920000D03*
X144900000Y-109190000D03*
X144900000Y-110460000D03*
X144900000Y-111730000D03*
X144900000Y-113000000D03*
X144900000Y-114270000D03*
D13*
X168970000Y-114270000D03*
X168970000Y-113000000D03*
X168970000Y-111730000D03*
X168970000Y-110460000D03*
X168970000Y-109190000D03*
X168970000Y-107920000D03*
X168970000Y-106650000D03*
X168970000Y-105380000D03*
X168970000Y-104110000D03*
X168970000Y-102840000D03*
X168970000Y-101570000D03*
X168970000Y-100300000D03*
X168970000Y-99030000D03*
X168970000Y-97760000D03*
X168970000Y-96490000D03*
X168970000Y-95220000D03*
X168970000Y-93950000D03*
X168970000Y-92680000D03*
X168970000Y-91410000D03*
X168970000Y-90140000D03*
D14*
X164870000Y-90130000D03*
X164870000Y-91400000D03*
X164870000Y-92670000D03*
X164870000Y-93940000D03*
X164870000Y-95210000D03*
X164870000Y-96480000D03*
X164870000Y-97750000D03*
X164870000Y-99020000D03*
X164870000Y-100290000D03*
X164870000Y-101560000D03*
X164870000Y-102830000D03*
X164870000Y-104100000D03*
X164870000Y-105370000D03*
X164870000Y-106640000D03*
X164870000Y-107910000D03*
X164870000Y-109180000D03*
X164870000Y-110450000D03*
X164870000Y-111720000D03*
X164870000Y-112990000D03*
X164870000Y-114260000D03*
D13*
X151810000Y-114270000D03*
X151810000Y-113000000D03*
X151810000Y-111730000D03*
X151810000Y-110460000D03*
X151810000Y-109190000D03*
X151810000Y-107920000D03*
X151810000Y-106650000D03*
X151810000Y-105380000D03*
X151810000Y-104110000D03*
X151810000Y-102840000D03*
X151810000Y-101570000D03*
X151810000Y-100300000D03*
X151810000Y-99030000D03*
X151810000Y-97760000D03*
X151810000Y-96490000D03*
X151810000Y-95220000D03*
X151810000Y-93950000D03*
X151810000Y-92680000D03*
X151810000Y-91410000D03*
X151810000Y-90140000D03*
D14*
X147710000Y-90130000D03*
X147710000Y-91400000D03*
X147710000Y-92670000D03*
X147710000Y-93940000D03*
X147710000Y-95210000D03*
X147710000Y-96480000D03*
X147710000Y-97750000D03*
X147710000Y-99020000D03*
X147710000Y-100290000D03*
X147710000Y-101560000D03*
X147710000Y-102830000D03*
X147710000Y-104100000D03*
X147710000Y-105370000D03*
X147710000Y-106640000D03*
X147710000Y-107910000D03*
X147710000Y-109180000D03*
X147710000Y-110450000D03*
X147710000Y-111720000D03*
X147710000Y-112990000D03*
X147710000Y-114260000D03*
D13*
X117490000Y-114270000D03*
X117490000Y-113000000D03*
X117490000Y-111730000D03*
X117490000Y-110460000D03*
X117490000Y-109190000D03*
X117490000Y-107920000D03*
X117490000Y-106650000D03*
X117490000Y-105380000D03*
X117490000Y-104110000D03*
X117490000Y-102840000D03*
X117490000Y-101570000D03*
X117490000Y-100300000D03*
X117490000Y-99030000D03*
X117490000Y-97760000D03*
X117490000Y-96490000D03*
X117490000Y-95220000D03*
X117490000Y-93950000D03*
X117490000Y-92680000D03*
X117490000Y-91410000D03*
X117490000Y-90140000D03*
D14*
X113390000Y-90130000D03*
X113390000Y-91400000D03*
X113390000Y-92670000D03*
X113390000Y-93940000D03*
X113390000Y-95210000D03*
X113390000Y-96480000D03*
X113390000Y-97750000D03*
X113390000Y-99020000D03*
X113390000Y-100290000D03*
X113390000Y-101560000D03*
X113390000Y-102830000D03*
X113390000Y-104100000D03*
X113390000Y-105370000D03*
X113390000Y-106640000D03*
X113390000Y-107910000D03*
X113390000Y-109180000D03*
X113390000Y-110450000D03*
X113390000Y-111720000D03*
X113390000Y-112990000D03*
X113390000Y-114260000D03*
D11*
X171800000Y-114260000D03*
X171800000Y-112990000D03*
X171800000Y-111720000D03*
X171800000Y-110450000D03*
X171800000Y-109180000D03*
X171800000Y-107910000D03*
X171800000Y-106640000D03*
X171800000Y-105370000D03*
X171800000Y-104100000D03*
X171800000Y-102830000D03*
X171800000Y-99020000D03*
X171800000Y-97750000D03*
X171800000Y-95210000D03*
X171800000Y-93940000D03*
X171800000Y-92670000D03*
X171800000Y-91400000D03*
X171800000Y-90130000D03*
D12*
X162070000Y-90140000D03*
X162070000Y-91410000D03*
X162070000Y-92680000D03*
X162070000Y-93950000D03*
X162070000Y-95220000D03*
X162070000Y-96490000D03*
X162070000Y-97760000D03*
X162070000Y-99030000D03*
X162070000Y-100300000D03*
X162070000Y-102840000D03*
X162070000Y-104110000D03*
X162070000Y-105380000D03*
X162070000Y-106650000D03*
X162070000Y-107920000D03*
X162070000Y-109190000D03*
X162070000Y-110460000D03*
X162070000Y-111730000D03*
X162070000Y-113000000D03*
X162070000Y-114270000D03*
D11*
X120290000Y-114260000D03*
X120290000Y-112990000D03*
X120290000Y-111720000D03*
X120290000Y-110450000D03*
X120290000Y-109180000D03*
X120290000Y-107910000D03*
X120290000Y-106640000D03*
X120290000Y-105370000D03*
X120290000Y-104100000D03*
X120290000Y-102830000D03*
X120290000Y-99020000D03*
X120290000Y-97750000D03*
X120290000Y-95210000D03*
X120290000Y-93940000D03*
X120290000Y-92670000D03*
X120290000Y-91400000D03*
X120290000Y-90130000D03*
D12*
X110560000Y-90140000D03*
X110560000Y-91410000D03*
X110560000Y-92680000D03*
X110560000Y-93950000D03*
X110560000Y-95220000D03*
X110560000Y-96490000D03*
X110560000Y-97760000D03*
X110560000Y-99030000D03*
X110560000Y-100300000D03*
X110560000Y-102840000D03*
X110560000Y-104110000D03*
X110560000Y-105380000D03*
X110560000Y-106650000D03*
X110560000Y-107920000D03*
X110560000Y-109190000D03*
X110560000Y-110460000D03*
X110560000Y-111730000D03*
X110560000Y-113000000D03*
X110560000Y-114270000D03*
D11*
X137470000Y-114260000D03*
X137470000Y-112990000D03*
X137470000Y-111720000D03*
X137470000Y-110450000D03*
X137470000Y-109180000D03*
X137470000Y-107910000D03*
X137470000Y-106640000D03*
X137470000Y-105370000D03*
X137470000Y-104100000D03*
X137470000Y-102830000D03*
X137470000Y-99020000D03*
X137470000Y-97750000D03*
X137470000Y-95210000D03*
X137470000Y-93940000D03*
X137470000Y-92670000D03*
X137470000Y-91400000D03*
X137470000Y-90130000D03*
D12*
X127740000Y-90140000D03*
X127740000Y-91410000D03*
X127740000Y-92680000D03*
X127740000Y-93950000D03*
X127740000Y-95220000D03*
X127740000Y-96490000D03*
X127740000Y-97760000D03*
X127740000Y-99030000D03*
X127740000Y-100300000D03*
X127740000Y-102840000D03*
X127740000Y-104110000D03*
X127740000Y-105380000D03*
X127740000Y-106650000D03*
X127740000Y-107920000D03*
X127740000Y-109190000D03*
X127740000Y-110460000D03*
X127740000Y-111730000D03*
X127740000Y-113000000D03*
X127740000Y-114270000D03*
D13*
X134650000Y-114270000D03*
X134650000Y-113000000D03*
X134650000Y-111730000D03*
X134650000Y-110460000D03*
X134650000Y-109190000D03*
X134650000Y-107920000D03*
X134650000Y-106650000D03*
X134650000Y-105380000D03*
X134650000Y-104110000D03*
X134650000Y-102840000D03*
X134650000Y-101570000D03*
X134650000Y-100300000D03*
X134650000Y-99030000D03*
X134650000Y-97760000D03*
X134650000Y-96490000D03*
X134650000Y-95220000D03*
X134650000Y-93950000D03*
X134650000Y-92680000D03*
X134650000Y-91410000D03*
X134650000Y-90140000D03*
D14*
X130550000Y-90130000D03*
X130550000Y-91400000D03*
X130550000Y-92670000D03*
X130550000Y-93940000D03*
X130550000Y-95210000D03*
X130550000Y-96480000D03*
X130550000Y-97750000D03*
X130550000Y-99020000D03*
X130550000Y-100290000D03*
X130550000Y-101560000D03*
X130550000Y-102830000D03*
X130550000Y-104100000D03*
X130550000Y-105370000D03*
X130550000Y-106640000D03*
X130550000Y-107910000D03*
X130550000Y-109180000D03*
X130550000Y-110450000D03*
X130550000Y-111720000D03*
X130550000Y-112990000D03*
X130550000Y-114260000D03*
%LPD*%
M02*
